<?xml version="1.0" encoding="UTF-8" standalone="no"?>
<svg width="510px" height="66px" viewBox="0 0 510 66" version="1.1" xmlns="http://www.w3.org/2000/svg" xmlns:xlink="http://www.w3.org/1999/xlink">
    <!-- Generator: Sketch 44.1 (41455) - http://www.bohemiancoding.com/sketch -->
    <title>Logos_Without3DS/ 3DExcite</title>
    <desc>Created with Sketch.</desc>
    <defs></defs>
    <g id="Page-1" stroke="none" stroke-width="1" fill="none" fill-rule="evenodd">
        <g id="Logos_Without3DS/-3DExcite" fill="#121110">
            <path d="M59.0213685,0.583233333 L56.7275845,10.9957333 L36.5225728,26.8864333 C46.8519319,28.05835 53.3789531,32.8325833 50.7683075,44.7159 C47.4147887,59.9189667 35.8367183,66.6434 20.0058615,66.6434 C11.6444648,66.6434 5.462,65.5621333 0.392215962,63.91655 L4.31755164,52.2235167 C9.33601878,53.6837167 15.0216056,54.8499167 21.0468615,54.8499167 C27.2610939,54.8499167 32.1239812,52.6163333 33.689554,45.5031667 C35.0514883,39.3536667 31.5749718,37.0196333 24.7685587,37.0196333 L16.7093615,37.0196333 L18.8190563,27.3699 L37.3550469,12.0631167 L13.0626033,12.0631167 L15.5836479,0.583233333 L59.0213685,0.583233333 Z M100.534298,0.583233333 C121.335563,0.583233333 129.120256,13.7274833 125.690984,32.3777 C121.302167,56.70865 107.080054,66.2971333 86.6567418,66.2971333 L59.0213685,66.2971333 L67.2939789,20.8921 C67.454446,19.82145 68.5988944,18.6544333 70.2255587,18.6544333 L82.2874742,18.6544333 L75.5234178,55.6322833 L89.708061,55.6322833 C100.245131,55.6322833 107.193277,45.7604167 109.544894,32.8619833 C112.088746,18.7736667 108.138974,11.2480833 97.785993,11.2480833 L71.6730211,11.2480833 C64.6165399,11.2480833 64.2622089,6.10716667 65.0759484,1.62611667 L65.2510775,0.583233333 L100.534298,0.583233333 Z M445.105298,0.55955 L444.507415,3.98546667 C444.179965,5.79683333 443.881023,6.2215 441.698833,6.2215 L410.903805,6.2215 L400.881533,63.2191167 C400.531275,65.1766667 399.797362,66.1681 396.75989,66.1681 L392.297763,66.1681 L402.856826,6.2215 L369.251587,6.2215 L369.948845,2.28026667 C370.051479,1.6792 370.242085,0.55955 373.852188,0.55955 L445.105298,0.55955 Z M192.262852,6.48936667 L149.792822,6.48936667 L145.395859,32.3670833 L184.320136,32.3670833 C185.418155,32.3670833 185.986714,33.049 185.831134,33.9424333 L185.395347,36.8105667 C185.238953,37.704 184.452094,38.3720333 183.345115,38.3720333 L144.425725,38.3720333 L140.525641,59.81525 L184.539251,59.81525 C187.878108,59.81525 188.60469,60.7225667 188.11107,63.3930667 L187.797467,66.1681 L131.992373,66.1681 L142.494418,4.64125 C142.999441,1.73473333 144.794718,0.399483333 147.908758,0.399483333 L197.579446,0.399483333 L196.697284,4.03936667 C196.273716,6.48936667 194.270728,6.48936667 192.262852,6.48936667 Z M460.246228,0.399483333 L509.916915,0.399483333 L509.033939,4.03936667 C508.611185,6.48936667 506.608197,6.48936667 504.601136,6.48936667 L462.131106,6.48936667 L457.733329,32.3670833 L496.65842,32.3670833 C497.755624,32.3670833 498.324998,33.049 498.168603,33.9424333 L497.732817,36.8105667 C497.577237,37.704 496.790378,38.3720333 495.682585,38.3720333 L456.763195,38.3720333 L452.86311,59.81525 L496.876721,59.81525 C500.216392,59.81525 500.94216,60.7225667 500.447725,63.3930667 L500.134937,66.1681 L444.329843,66.1681 L454.831887,4.64125 C455.336911,1.73473333 457.132188,0.399483333 460.246228,0.399483333 Z M358.483183,1.71105 C359.142972,2.20105 359.546991,3.12715 359.590977,3.82785 C359.637406,4.4575 359.517667,4.77763333 359.371862,5.2709 L348.561101,66.1681 L340.672146,66.1681 L352.710439,1.0863 L356.429692,1.0863 C357.087038,1.10508333 357.803845,1.199 358.483183,1.71105 Z M281.563221,0.306383333 L242.590885,33.5439 L270.803777,66.2260833 L269.449988,66.2260833 C263.434507,66.2260833 259.765756,64.9365667 257.175474,61.90265 L236.865385,38.6162167 L210.244131,62.29955 C206.380702,65.4543333 203.831148,66.2260833 197.253624,66.2260833 L193.372275,66.2260833 L232.241977,33.1608833 L203.801824,0.306383333 L205.158056,0.306383333 C211.173538,0.306383333 214.841474,1.5959 217.429312,4.629 L238.039157,28.1677833 L264.122805,5.6727 C266.17711,3.80008333 272.818169,0.306383333 278.184451,0.306383333 L281.563221,0.306383333 Z M315.034873,1.52321667 L340.672146,1.52321667 L340.130467,4.37501667 C339.93416,5.44076667 339.640106,7.05123333 334.697392,7.05123333 L311.984369,7.05123333 C298.185824,7.05123333 285.225455,16.1480833 282.231155,32.68885 C280.615894,42.0266167 281.340033,49.90255 285.539059,54.8654333 C288.752474,58.6629333 299.042735,60.6703 304.821995,60.6703 L327.783458,60.6703 C330.807897,60.6703 331.429401,61.6266167 331.058779,64.0504833 L330.700376,66.1681 L304.905894,66.1681 C291.485303,66.1681 282.13911,63.1586833 277.129603,57.2198833 C272.650371,51.9123667 271.321833,43.8526833 273.179831,33.2695 C276.764683,13.0953833 292.020465,1.52321667 315.034873,1.52321667 Z" id="Combined-Shape"></path>
        </g>
    </g>
</svg>