<?xml version="1.0" encoding="UTF-8" standalone="no"?>
<svg width="371px" height="98px" viewBox="0 0 371 98" version="1.1" xmlns="http://www.w3.org/2000/svg" xmlns:xlink="http://www.w3.org/1999/xlink">
    <!-- Generator: Sketch 44.1 (41455) - http://www.bohemiancoding.com/sketch -->
    <title>Logos_Without3DS/ 3DSWYM</title>
    <desc>Created with Sketch.</desc>
    <defs></defs>
    <g id="Page-1" stroke="none" stroke-width="1" fill="none" fill-rule="evenodd">
        <g id="Logos_Without3DS/-3DSWYM" fill="#E67632">
            <path d="M59.72,30.894 L57.406,41.402 L36.966,57.438 C47.417,58.62 54.023,63.436 51.371,75.432 C47.987,90.774 36.27,97.551 20.251,97.551 C11.796,97.551 5.547,96.472 0.414,94.8 L4.387,83.006 C9.461,84.478 15.21,85.66 21.308,85.66 C27.601,85.66 32.515,83.406 34.101,76.222 C35.474,70.028 31.965,67.665 25.067,67.665 L16.915,67.665 L19.058,57.929 L37.813,42.482 L13.229,42.482 L15.781,30.894 L59.72,30.894 Z M101.717,30.894 C122.767,30.894 130.64,44.163 127.171,62.976 C122.727,87.53 108.342,97.213 87.688,97.213 L59.72,97.213 L68.104,51.385 C68.249,50.324 69.411,49.135 71.062,49.135 L83.258,49.135 L76.42,86.441 L90.773,86.441 C101.424,86.441 108.46,76.48 110.843,63.47 C113.409,49.249 109.41,41.658 98.944,41.658 L72.527,41.658 C65.391,41.658 65.033,36.468 65.854,31.954 L66.027,30.894 L101.717,30.894 Z M139.944,46.344 C140.004,41.388 141.337,30.894 154.137,30.858 L181.537,30.858 L181.537,35.894 C181.542,36.707 180.694,37.746 179.91,37.881 L179.943,38.054 L179.898,37.881 C179.699,37.933 155.326,37.974 155.298,37.974 C150.292,37.974 147.24,41.227 147.199,45.302 C147.24,47.71 148.595,49.945 150.796,52.114 L168.465,69.517 C168.498,69.517 174.798,74.809 174.798,81.701 L174.798,81.725 C174.744,86.659 173.385,97.167 160.604,97.213 L133.525,97.213 L133.525,92.237 L133.431,92.185 L133.525,92.185 C133.512,91.371 134.314,90.334 135.124,90.176 C135.335,90.101 159.45,90.101 159.477,90.083 C164.451,90.101 167.563,86.792 167.563,82.748 C167.563,80.347 166.462,77.813 164.252,75.644 L145.602,57.365 C143.719,55.723 139.944,51.564 139.944,46.344 Z M266.801,31.457 C267.423,31.926 267.71,32.821 267.696,33.484 C267.696,34.121 267.544,34.417 267.345,34.886 L241.771,92.432 C240.464,95.43 237.931,97.186 234.912,97.186 L230.125,97.186 L222.742,61.015 L204.929,92.73 C204.1,94.057 203.157,95.131 202.082,95.941 C200.87,96.803 199.404,97.213 197.784,97.186 L192.154,97.186 L192.154,30.87 L196.492,30.87 C197.181,30.87 197.892,30.981 198.521,31.51 C199.177,32.021 199.464,32.935 199.464,33.683 L199.243,88.883 L218.16,55.94 L218.233,55.899 L218.16,55.94 C219.029,54.434 220.586,53.492 222.373,53.487 L222.384,53.479 L223.89,53.479 C226.511,53.333 228.713,55.216 229.089,57.957 L235.809,89.202 L261.535,30.87 L264.897,30.87 C265.542,30.87 266.211,30.981 266.801,31.457 Z M305.268,12.437 C301.833,12.437 299.055,9.655 299.055,6.219 C299.055,2.784 301.833,-0.001 305.268,-0.001 C308.704,-0.001 311.491,2.784 311.491,6.219 C311.491,9.65 308.704,12.437 305.268,12.437 Z M304.093,30.34 C301.136,32.672 298.525,35.004 296.434,38.186 C294.345,41.352 285.935,60.716 284.323,64.364 C284.13,64.829 284.019,65.139 283.56,65.577 C283.103,66.055 282.253,66.472 281.479,66.358 L279.237,66.38 C278.587,66.387 277.922,66.287 277.319,65.823 C276.696,65.359 276.39,64.454 276.398,63.801 C276.39,63.162 276.53,62.858 276.722,62.394 L286.989,39.108 C287.062,38.921 287.117,38.776 287.142,38.717 C287.25,38.49 287.341,38.279 287.434,38.068 L288.792,34.895 C289.51,32.819 289.397,31.268 287.912,27.837 C287.521,26.937 279.767,7.865 276.684,0.811 L276.684,0.762 L282.918,0.762 C283.582,0.754 284.263,1.065 284.675,1.441 C285.159,1.851 285.298,2.159 285.518,2.604 C285.809,3.205 290.332,14.637 293.789,22.737 C294.551,24.342 295.406,25.453 297.295,25.453 C298.444,25.453 299.491,25.045 300.307,24.373 L300.307,24.378 C300.985,23.843 301.66,23.307 302.336,22.767 C306.708,19.306 328.268,2.362 328.268,2.362 C329.528,1.334 331.074,0.773 332.779,0.771 L332.918,0.771 L339.364,0.762 C339.75,0.762 340.067,1.079 340.067,1.472 C340.067,1.699 339.962,1.903 339.79,2.033 L339.79,2.036 C334.311,6.385 307.529,27.626 304.093,30.34 Z M370.005,31.87 C370.664,32.381 370.948,33.292 370.948,34.04 L370.948,97.544 L366.61,97.544 C365.928,97.544 365.21,97.423 364.587,96.902 C363.924,96.395 363.645,95.481 363.645,94.738 L363.866,39.527 L344.957,72.474 L344.942,72.485 C344.021,74.067 342.342,75.033 340.446,74.934 L339.212,74.934 C336.598,75.086 334.404,73.203 334.027,70.459 L327.307,39.207 L301.567,97.544 L298.219,97.544 C297.568,97.544 296.905,97.423 296.308,96.959 C295.69,96.483 295.392,95.588 295.414,94.923 C295.414,94.288 295.558,93.99 295.756,93.525 L321.331,35.975 C322.645,32.982 325.171,31.23 328.19,31.23 L328.33,31.23 L330.757,31.242 C331.207,31.23 331.659,31.313 332.116,31.566 C332.86,31.938 333.324,32.779 333.468,33.51 L333.873,35.506 L340.373,67.407 L358.18,35.677 C359.002,34.355 359.937,33.281 361.027,32.475 C362.239,31.611 363.705,31.197 365.324,31.23 L365.45,31.23 L367.969,31.23 L367.976,31.225 C367.983,31.225 367.998,31.23 368.004,31.23 L368.613,31.23 L368.646,31.282 C369.118,31.353 369.582,31.514 370.005,31.87 Z" id="Combined-Shape"></path>
        </g>
    </g>
</svg>