<?xml version="1.0" encoding="UTF-8" standalone="no"?>
<svg width="289px" height="66px" viewBox="0 0 289 66" version="1.1" xmlns="http://www.w3.org/2000/svg" xmlns:xlink="http://www.w3.org/1999/xlink">
    <!-- Generator: Sketch 44.1 (41455) - http://www.bohemiancoding.com/sketch -->
    <title>Logos_Without3DS/ 3DVIA</title>
    <desc>Created with Sketch.</desc>
    <defs></defs>
    <g id="Page-1" stroke="none" stroke-width="1" fill="none" fill-rule="evenodd">
        <g id="Logos_Without3DS/-3DVIA" fill="#7BBB42">
            <path d="M58.156,-0.16 L55.874,10.169 L35.783,25.932 C46.055,27.099 52.549,31.831 49.944,43.626 C46.615,58.701 35.099,65.372 19.351,65.372 C11.037,65.372 4.889,64.302 -0.157,62.667 L3.75,51.07 C8.738,52.518 14.393,53.673 20.388,53.673 C26.57,53.673 31.405,51.462 32.963,44.398 C34.317,38.301 30.86,35.986 24.089,35.986 L16.071,35.986 L18.174,26.415 L36.611,11.227 L12.446,11.227 L14.954,-0.16 L58.156,-0.16 Z M99.445,-0.16 C120.137,-0.16 127.877,12.879 124.466,31.383 C120.102,55.518 105.952,65.031 85.644,65.031 L58.156,65.031 L66.389,19.988 C66.543,18.928 67.684,17.767 69.301,17.767 L81.299,17.767 L74.567,54.45 L88.682,54.45 C99.159,54.45 106.07,44.653 108.405,31.86 C110.938,17.886 107.008,10.419 96.713,10.419 L70.741,10.419 C63.723,10.419 63.372,5.319 64.182,0.874 L64.351,-0.16 L99.445,-0.16 Z M219.292,0.105 C219.953,0.125 220.653,0.215 221.306,0.722 C221.951,1.206 222.323,2.125 222.336,2.819 C222.356,3.441 222.23,3.76 222.059,4.251 L205.666,64.816 L197.826,64.816 L215.603,0.105 L219.292,0.105 Z M199.109,3.846 C198.699,4.469 198.295,5.086 197.883,5.697 C196.98,7.052 196.093,8.405 195.197,9.751 C193.938,11.662 192.669,13.579 191.409,15.486 C189.898,17.773 188.386,20.049 186.88,22.343 C185.223,24.844 183.564,27.344 181.905,29.857 C180.207,32.424 178.505,35.001 176.8,37.57 C175.188,40.018 173.575,42.452 171.96,44.886 C170.559,47.002 169.169,49.131 167.768,51.239 C166.638,52.947 165.487,54.642 164.377,56.363 C163.325,57.985 162.288,59.655 161.106,61.182 C159.414,63.369 157.356,64.816 154.513,64.816 L151.011,64.816 L134.808,0.51 C134.808,0.51 140.836,0.48 141.274,0.534 C141.563,0.563 141.852,0.65 142.144,0.795 C142.898,1.147 143.384,1.969 143.535,2.688 L156.549,56.061 L156.582,56.02 L192.922,0.129 L196.98,0.129 C197.57,0.129 198.155,0.238 198.699,0.656 C199.249,1.086 199.515,1.886 199.488,2.476 C199.488,3.043 199.362,3.316 199.183,3.727 C199.171,3.76 199.131,3.806 199.109,3.846 Z M265.101,-0.425 C286.117,-0.498 290.547,9.423 287.73,22.933 L278.988,64.619 L272.143,64.646 L277.475,39.168 L236.143,39.295 L230.803,64.789 L223.954,64.816 L232.681,23.119 C235.506,9.606 244.335,-0.346 265.101,-0.425 Z M280.844,23.046 C283.013,12.733 280.7,4.636 264.038,4.685 C247.359,4.741 241.674,12.872 239.519,23.188 L237.21,34.194 L278.542,34.062 L280.844,23.046 Z" id="Combined-Shape"></path>
        </g>
    </g>
</svg>