<?xml version="1.0" encoding="UTF-8" standalone="no"?>
<svg width="363px" height="66px" viewBox="0 0 363 66" version="1.1" xmlns="http://www.w3.org/2000/svg" xmlns:xlink="http://www.w3.org/1999/xlink">
    <!-- Generator: Sketch 44.1 (41455) - http://www.bohemiancoding.com/sketch -->
    <title>Logos_Without3DS/ BIOVIA</title>
    <desc>Created with Sketch.</desc>
    <defs></defs>
    <g id="Page-1" stroke="none" stroke-width="1" fill="none" fill-rule="evenodd">
        <g id="Logos_Without3DS/-BIOVIA" fill="#0081C5">
            <path d="M70.279,17.9437045 C69.692,25.2137045 66.365,29.7507045 63.244,32.4527045 C65.8,37.2947045 66.134,44.3017045 63.966,50.1537045 C60.248,60.1647045 51.833,65.2427045 38.954,65.2427045 L-0.067,65.2427045 L11.895,7.50270445 C13.107,1.68070445 17.719,-0.383295546 21.297,-0.383295546 C21.623,-0.383295546 21.903,-0.368295546 22.121,-0.348295546 C24.165,-0.354295546 37.765,-0.379295546 46.297,-0.379295546 C55.805,-0.379295546 62.619,1.78170445 66.546,6.04570445 C69.416,9.15470445 70.67,13.1577045 70.279,17.9437045 Z M55.803,19.9897045 C56.462,17.6427045 56.246,15.7227045 55.155,14.2897045 C53.066,11.5337045 47.982,10.8067045 45.588,10.8067045 L25.708,10.8067045 L22.223,28.1847045 L43.364,28.1887045 C43.411,28.1907045 41.854,28.2167045 42.392,28.2167045 C45.734,28.2167045 53.732,27.4127045 55.803,19.9897045 Z M51.423,46.2197045 C52.481,43.7447045 52.407,41.5607045 51.201,39.7307045 C49.678,37.4187045 46.467,35.9237045 43.02,35.9237045 L20.714,35.9237045 L16.672,53.8687045 L33.558,53.8687045 C42.099,53.8687045 48.382,53.3167045 51.423,46.2197045 Z M339.688,0.319704454 C360.603,0.248704454 365.011,10.1227045 362.209,23.5687045 L353.506,65.0477045 L346.699,65.0767045 L352.002,39.7167045 L310.874,39.8497045 L305.552,65.2267045 L298.739,65.2427045 L307.424,23.7477045 C310.239,10.3007045 319.021,0.398704454 339.688,0.319704454 Z M355.354,23.6827045 C357.517,13.4187045 355.215,5.35970445 338.629,5.40070445 C322.034,5.46470445 316.372,13.5507045 314.23,23.8157045 L311.931,34.7727045 L353.065,34.6397045 L355.354,23.6827045 Z M293.132,1.44970445 C293.771,1.92370445 294.145,2.84470445 294.16,3.53670445 C294.179,4.15670445 294.053,4.47270445 293.883,4.96570445 L277.566,65.2427045 L269.765,65.2427045 L287.459,0.836704454 L291.13,0.836704454 C291.78,0.856704454 292.483,0.947704454 293.132,1.44970445 Z M268.979,1.39070445 C269.525,1.82070445 269.79,2.60870445 269.765,3.19970445 C269.765,3.76570445 269.644,4.02970445 269.463,4.44870445 C269.446,4.48070445 232.739,60.1017045 231.563,61.6257045 C229.883,63.7997045 227.829,65.2427045 225,65.2427045 L221.517,65.2427045 L205.391,1.23770445 C205.391,1.23770445 211.388,1.21270445 211.83,1.26870445 C212.114,1.29570445 212.402,1.38670445 212.695,1.52870445 C213.448,1.88470445 213.928,2.69170445 214.078,3.41770445 L227.029,56.5247045 L227.063,56.4857045 L263.229,0.868704454 L267.267,0.868704454 C267.855,0.868704454 268.437,0.977704454 268.979,1.39070445 Z M103.993,0.303704454 C105.5,0.303704454 106.303,1.46170445 106.081,2.50670445 L92.852,65.2427045 L76.034,65.2427045 L89.837,0.303704454 L103.993,0.303704454 Z M162.295,0.419704454 C191.033,0.419704454 200.221,15.1847045 196.477,32.8327045 C192.722,50.4787045 177.261,65.2427045 148.512,65.2427045 C119.767,65.2427045 110.586,50.4787045 114.332,32.8327045 C118.087,15.1847045 133.544,0.419704454 162.295,0.419704454 Z M178.705,32.8327045 C181.776,18.4017045 176.347,11.0717045 160.03,11.0717045 C143.712,11.0717045 135.159,18.4017045 132.094,32.8327045 C129.025,47.2667045 134.464,54.5857045 150.78,54.5857045 C167.092,54.5857045 175.646,47.2667045 178.705,32.8327045 Z" id="Combined-Shape"></path>
        </g>
    </g>
</svg>