<?xml version="1.0" encoding="UTF-8" standalone="no"?>
<svg width="471px" height="67px" viewBox="0 0 471 67" version="1.1" xmlns="http://www.w3.org/2000/svg" xmlns:xlink="http://www.w3.org/1999/xlink">
    <!-- Generator: Sketch 44.1 (41455) - http://www.bohemiancoding.com/sketch -->
    <title>Logos_Without3DS/ CATIA</title>
    <desc>Created with Sketch.</desc>
    <defs></defs>
    <g id="Page-1" stroke="none" stroke-width="1" fill="none" fill-rule="evenodd">
        <g id="Logos_Without3DS/-CATIA" fill="#FCD21F">
            <path d="M111.902,5.82 C112.512,2.901 114.364,1.568 117.494,1.568 L177.614,1.568 L175.963,9.361 C175.447,11.814 173.431,11.814 171.428,11.814 L128.736,11.814 L124.966,29.477 L164.091,29.477 C165.199,29.477 165.737,30.153 165.55,31.056 L164.051,38.072 C163.859,38.967 163.042,39.633 161.937,39.633 L122.812,39.633 L119.066,57.326 L163.31,57.326 C166.671,57.326 167.368,58.227 166.791,60.915 L165.406,67.508 L98.796,67.508 L111.902,5.82 Z M58.758,1.568 C83.121,1.568 92.033,15.311 88.179,34.114 C82.994,59.388 66.425,67.508 42.516,67.508 L-0.188,67.508 L9.476,22.135 C9.7,21.013 11.052,19.901 12.837,19.901 L28.033,19.901 L20.1,57.326 L45.799,57.326 C59.357,56.211 65.539,48.851 69.08,34.557 C72.687,20.012 70.107,11.757 52.046,11.757 L14.516,11.757 C6.351,11.757 5.747,6.855 6.909,2.417 C7.009,2.033 7.127,1.568 7.127,1.568 L58.758,1.568 Z M249.94,57.28 C252.859,57.28 253.938,58.408 253.334,61.298 L252.013,67.465 L184.022,67.465 L198.029,1.53 L213.455,1.53 C215.007,1.53 215.896,2.65 215.652,3.763 L204.277,57.28 L249.94,57.28 Z M336.69,1.576 C339.375,1.576 340.144,3.14 339.587,5.834 L326.475,67.508 L312.615,67.508 C309.695,67.508 308.654,66.166 309.177,63.7 L318.994,17.545 L294.235,38.33 C293.373,39.227 291.576,40.34 289.562,40.34 L282.403,40.34 C280.388,40.34 279.067,39.227 278.603,38.33 L262.673,17.545 L256.519,46.407 C256,48.87 254.383,50.21 251.478,50.21 L237.623,50.21 L247.061,5.834 C247.617,3.14 249.083,1.576 251.757,1.576 L268.072,1.576 L288.759,27.267 L320.367,1.576 L336.69,1.576 Z M438.679,0.316 C459.824,0.316 475.5,5.713 470.275,31.103 L463.152,64.589 C462.667,66.835 460.958,67.508 459.158,67.508 L445.442,67.508 L449.424,48.24 L406.732,48.24 L402.745,67.508 L389.036,67.508 C387.232,67.508 385.807,66.835 386.29,64.589 L393.399,31.103 C398.924,6.132 413.37,0.316 438.679,0.316 Z M453.614,29.071 C456.142,16.816 452.083,11.483 436.55,11.483 C421.852,11.483 413.635,16.167 410.917,29.071 L409.019,37.999 L447.746,37.999 C451.763,37.999 452.455,34.438 452.764,33.065 C452.977,32.142 453.614,29.071 453.614,29.071 Z M376.507,1.568 C378.041,1.568 378.861,2.743 378.625,3.802 L365.2,67.508 L348.128,67.508 L362.144,1.568 L376.507,1.568 Z" id="Combined-Shape"></path>
        </g>
    </g>
</svg>