<?xml version="1.0" encoding="UTF-8" standalone="no"?>
<svg width="373px" height="67px" viewBox="0 0 373 67" version="1.1" xmlns="http://www.w3.org/2000/svg" xmlns:xlink="http://www.w3.org/1999/xlink">
    <!-- Generator: Sketch 44.1 (41455) - http://www.bohemiancoding.com/sketch -->
    <title>Logos_Without3DS/ DELMIA</title>
    <desc>Created with Sketch.</desc>
    <defs></defs>
    <g id="Page-1" stroke="none" stroke-width="1" fill="none" fill-rule="evenodd">
        <g id="Logos_Without3DS/-DELMIA" fill="#292A7C">
            <path d="M340.512,-0.326 C361.493,-0.326 377.066,5.042 371.867,30.255 L364.802,63.509 C364.328,65.737 362.609,66.41 360.837,66.41 L347.215,66.41 L351.174,47.277 L308.761,47.277 L304.815,66.41 L291.205,66.41 C289.409,66.41 287.995,65.737 288.473,63.509 L295.522,30.255 C301.015,5.45 315.368,-0.326 340.512,-0.326 Z M355.34,28.239 C357.833,16.065 353.813,10.77 338.381,10.77 C323.795,10.77 315.625,15.419 312.913,28.239 L311.036,37.1 L349.517,37.1 C353.482,37.1 354.185,33.564 354.491,32.204 C354.708,31.284 355.34,28.239 355.34,28.239 Z M0.668,32.47 C4.665,13.801 19.337,0.648 43.641,0.648 L82.16,0.648 L80.872,6.339 C80.176,9.509 77.695,10.799 73.239,10.799 L42.348,10.799 C30.26,10.799 22.403,18.85 19.337,32.948 C16.631,45.86 20.394,56.293 32.715,56.293 L64.897,56.293 C69.357,56.293 71.355,57.586 70.64,60.754 L69.478,66.41 L31.896,66.41 C8.064,66.41 -4.489,56.777 0.668,32.47 Z M280.521,0.92 C282.026,0.92 282.85,2.094 282.624,3.142 L281.018,10.783 L264.151,10.783 L266.249,0.92 L280.521,0.92 Z M252.327,66.41 L263.057,15.872 L279.938,15.872 L269.299,66.41 L252.327,66.41 Z M258.959,6.757 C258.377,9.437 257.203,10.783 253.86,10.783 L222.256,10.783 L211.44,61.723 C210.715,65.082 208.653,66.41 205.086,66.41 L192.356,66.41 L204.184,10.783 L175.844,10.783 L177.258,4.144 C177.774,1.677 179.795,0.581 183.366,0.581 L260.266,0.581 L258.959,6.757 Z M134.292,-0.326 C155.284,-0.326 170.856,5.042 165.663,30.255 L158.594,63.509 C158.116,65.737 156.404,66.41 154.625,66.41 L141.009,66.41 L144.958,47.277 L102.547,47.277 L98.6,66.41 L84.972,66.41 C83.187,66.41 81.788,65.737 82.258,63.509 L89.316,30.255 C94.793,5.45 109.147,-0.326 134.292,-0.326 Z M149.129,28.239 C151.622,16.065 147.597,10.77 132.176,10.77 C117.583,10.77 109.405,15.419 106.713,28.239 L104.829,37.1 L143.298,37.1 C147.278,37.1 147.969,33.564 148.287,32.204 C148.499,31.284 149.129,28.239 149.129,28.239 Z" id="Combined-Shape"></path>
        </g>
    </g>
</svg>