<?xml version="1.0" encoding="UTF-8" standalone="no"?>
<svg width="497px" height="69px" viewBox="0 0 497 69" version="1.1" xmlns="http://www.w3.org/2000/svg" xmlns:xlink="http://www.w3.org/1999/xlink">
    <!-- Generator: Sketch 44.1 (41455) - http://www.bohemiancoding.com/sketch -->
    <title>Logos_Without3DS/ ENOVIA</title>
    <desc>Created with Sketch.</desc>
    <defs></defs>
    <g id="Page-1" stroke="none" stroke-width="1" fill="none" fill-rule="evenodd">
        <g id="Logos_Without3DS/-ENOVIA" fill="#E67632">
            <path d="M13.557,5.714 C14.168,2.779 16.029,1.455 19.168,1.455 L79.466,1.455 L77.818,9.257 C77.292,11.718 75.275,11.718 73.253,11.718 L30.435,11.718 L26.66,29.453 L65.904,29.453 C67.012,29.453 67.542,30.122 67.362,31.019 L65.866,38.061 C65.671,38.971 64.862,39.633 63.735,39.633 L24.505,39.633 L20.741,57.368 L65.122,57.368 C68.484,57.368 69.19,58.283 68.612,60.976 L67.21,67.588 L0.411,67.588 L13.557,5.714 Z M402.95,1.455 C404.489,1.455 405.313,2.63 405.082,3.698 L391.609,67.588 L374.485,67.588 L388.544,1.455 L402.95,1.455 Z M464.128,0.034 C487.873,0.034 500.744,8.302 495.904,31.21 L488.805,64.637 C488.341,66.885 486.684,67.588 484.794,67.588 L471.099,67.588 L474.76,50.344 L432.249,50.344 L428.579,67.588 L414.879,67.588 C412.995,67.588 411.574,66.885 412.042,64.637 L419.136,31.21 C423.971,8.302 440.389,0.034 464.128,0.034 Z M479.249,29.207 C481.726,17.276 476.417,11.844 461.657,11.844 C446.891,11.844 439.21,17.276 436.738,29.207 L434.489,39.72 L477,39.72 L479.249,29.207 Z M363.073,1.455 L376.417,1.455 L326.23,67.588 L305.564,67.588 L289.44,18.795 C287.356,12.905 284.075,5.887 277.312,1.489 L291.215,1.489 C303.75,1.489 306.663,6.798 310.385,18.237 C311.014,20.148 321.623,53.542 321.623,53.542 L358.597,3.698 C359.402,2.63 361.547,1.455 363.073,1.455 Z M225.045,0.535 C250.925,-2.868 273.907,9.609 276.375,28.398 C278.836,47.187 259.866,65.181 233.987,68.577 C208.117,71.979 185.139,59.504 182.672,40.714 C180.201,21.919 199.175,3.933 225.045,0.535 Z M230.558,52.871 C247.616,49.953 259.421,39.116 257.38,27.19 C255.348,15.26 240.753,8.11 223.696,11.021 C206.643,13.933 195.254,25.533 197.291,37.457 C199.332,49.383 213.5,55.79 230.558,52.871 Z M171.994,1.483 L183.089,1.483 C173.036,8.302 170.578,17.474 169.09,24.438 L160.775,63.337 C160.183,66.057 158.881,67.588 156.163,67.588 L142.813,67.588 L112.823,20.699 L103.608,63.809 C103.139,66.288 101.486,67.588 98.64,67.588 L85.769,67.588 L98.887,5.701 C99.479,2.985 100.89,1.455 103.608,1.455 L118.956,1.455 L147.303,46.087 C147.303,46.087 152.753,20.493 153.174,18.649 C155.244,9.536 157.787,3.072 167.822,1.735 C169.09,1.569 170.478,1.483 171.994,1.483 Z" id="Combined-Shape"></path>
        </g>
    </g>
</svg>