<?xml version="1.0" encoding="UTF-8" standalone="no"?>
<svg width="561px" height="67px" viewBox="0 0 561 67" version="1.1" xmlns="http://www.w3.org/2000/svg" xmlns:xlink="http://www.w3.org/1999/xlink">
    <!-- Generator: Sketch 44.1 (41455) - http://www.bohemiancoding.com/sketch -->
    <title>Logos_Without3DS/ EXALEAD</title>
    <desc>Created with Sketch.</desc>
    <defs></defs>
    <g id="Page-1" stroke="none" stroke-width="1" fill="none" fill-rule="evenodd">
        <g id="Logos_Without3DS/-EXALEAD" fill="#007EB9">
            <path d="M331.022,62.353 C331.351,63.135 331.252,63.85 331.098,64.509 L330.767,67.416 L273.436,67.416 L275.414,59.691 L287.908,1.053 L291.995,0.986 C292.667,0.995 293.391,1.076 294.062,1.583 C294.73,2.065 295.125,2.998 295.147,3.704 C295.177,4.339 295.054,4.665 294.891,5.173 L283.035,60.653 L328.364,60.653 L328.364,60.658 C328.62,60.658 328.882,60.686 329.228,60.79 C329.908,60.985 330.714,61.596 331.022,62.353 Z M453.362,1.123 C474.698,1.053 479.2,11.12 476.334,24.839 L467.462,67.16 L460.513,67.188 L465.925,41.322 L423.967,41.446 L418.542,67.33 L411.593,67.358 L420.449,25.028 C423.32,11.308 432.283,1.204 453.362,1.123 Z M469.344,24.952 C471.549,14.482 469.203,6.261 452.287,6.308 C435.351,6.37 429.581,14.625 427.393,25.099 L425.049,36.274 L467.012,36.138 L469.344,24.952 Z M354.061,5.153 C354.679,2.213 356.544,0.867 359.706,0.867 L410.011,0.867 L408.991,4.542 C408.47,7.019 406.441,7.019 404.409,7.019 L361.391,7.019 L355.994,33.164 L395.423,33.164 C396.536,33.164 397.082,33.846 396.893,34.75 L396.344,37.653 C396.155,38.553 395.329,39.226 394.213,39.226 L354.795,39.226 L350.059,60.899 L394.637,60.899 C398.016,60.899 398.727,61.813 398.137,64.513 L397.704,67.316 L341.183,67.316 L354.061,5.153 Z M232.86,0.38 C253.924,0.38 269.539,5.755 264.336,31.052 L257.239,64.404 C256.756,66.64 255.05,67.316 253.261,67.316 L239.591,67.316 L243.565,48.113 L201.031,48.113 L197.057,67.316 L183.402,67.316 C181.603,67.316 180.182,66.64 180.667,64.404 L187.75,31.052 C193.254,6.167 207.644,0.38 232.86,0.38 Z M247.741,29.02 C250.25,16.817 246.209,11.509 230.737,11.509 C216.101,11.509 207.909,16.168 205.198,29.02 L203.308,37.914 L241.896,37.914 C245.902,37.914 246.581,34.371 246.894,32.998 C247.1,32.079 247.741,29.02 247.741,29.02 Z M13.242,5.859 C13.855,2.951 15.704,1.625 18.818,1.625 L78.712,1.625 L77.064,9.377 C76.555,11.83 74.542,11.83 72.542,11.83 L30.009,11.83 L26.252,29.422 L65.235,29.422 C66.343,29.422 66.871,30.099 66.689,31 L65.195,37.989 C65.009,38.88 64.201,39.548 63.084,39.548 L24.122,39.548 L20.385,57.168 L64.458,57.168 C67.801,57.168 68.5,58.068 67.929,60.738 L66.546,67.316 L0.19,67.316 L13.242,5.859 Z M141.294,34.324 L162.697,60.218 L167.884,66.326 L167.735,66.326 L157.244,66.317 C151.006,66.317 147.323,64.802 144.707,61.7 L144.633,61.69 L130.805,44.86 L125.594,48.284 C118.325,53.862 107.696,62.022 107.357,62.31 C104.845,64.433 101.428,65.465 96.267,65.465 L81.274,65.474 L81.417,65.364 L81.274,65.384 L91.538,57.447 L122.051,33.576 L94.645,1.364 L105.29,1.374 C111.527,1.374 115.211,2.885 117.826,5.987 L117.899,6.001 L132.432,23.682 C132.432,23.682 156.83,4.969 157.345,4.528 C159.856,2.411 163.272,1.374 168.433,1.374 L183.428,1.364 L141.294,34.324 Z M524.639,0.867 C549.19,0.867 564.069,13.974 561.348,33.666 C557.794,59.422 539.432,67.316 515.34,67.316 L484.505,67.316 L494.237,21.595 C494.468,20.468 495.826,19.341 497.63,19.341 L502.03,19.341 L493.711,60.265 L514.167,60.265 L523.95,60.165 C537.607,59.038 549.873,52.067 553.341,36.682 C554.003,33.756 554.25,30.337 553.912,27.357 C553.324,22.22 550.782,17.338 546.735,14.141 C542.546,10.846 537.082,8.805 531.899,8.336 C524.333,7.648 516.314,8.022 508.728,8.022 L498.678,7.924 C498.684,7.904 498.678,7.881 498.674,7.857 L495.006,7.791 C493.858,7.786 492.487,6.678 492.134,4.902 L491.157,0.925 L491.282,0.925 C491.255,0.891 491.23,0.867 491.23,0.867 L524.639,0.867 Z" id="Combined-Shape"></path>
        </g>
    </g>
</svg>