<?xml version="1.0" encoding="UTF-8" standalone="no"?>
<svg width="440px" height="81px" viewBox="0 0 440 81" version="1.1" xmlns="http://www.w3.org/2000/svg" xmlns:xlink="http://www.w3.org/1999/xlink">
    <!-- Generator: Sketch 44.1 (41455) - http://www.bohemiancoding.com/sketch -->
    <title>Logos_Without3DS/ GEOVIA</title>
    <desc>Created with Sketch.</desc>
    <defs></defs>
    <g id="Page-1" stroke="none" stroke-width="1" fill="none" fill-rule="evenodd">
        <g id="Logos_Without3DS/-GEOVIA" fill="#B98928">
            <path d="M103.15,10.554 C103.785,7.641 105.608,6.314 108.735,6.314 L168.621,6.314 L166.968,14.079 C166.458,16.519 164.469,16.519 162.448,16.519 L119.922,16.519 L116.184,34.119 L155.154,34.119 C156.24,34.119 156.785,34.793 156.595,35.677 L155.105,42.678 C154.931,43.564 154.109,44.233 152.994,44.233 L114.039,44.233 L110.293,61.864 L154.373,61.864 C157.708,61.864 158.412,62.745 157.838,65.434 L156.455,72.001 L90.094,72.001 L103.15,10.554 Z M0.82,38.101 C4.815,19.455 19.474,6.314 43.745,6.314 L82.217,6.314 L80.934,12.005 C80.236,15.165 77.761,16.458 73.304,16.458 L42.457,16.458 C30.385,16.458 22.528,24.499 19.474,38.572 C16.772,51.477 20.52,61.884 32.829,61.884 L61.089,61.884 L64.548,48.125 C64.548,48.125 50.768,48.104 49.675,48.104 C48.581,48.104 47.918,47.163 48.344,45.804 C48.777,44.447 49.857,41.057 50.273,39.724 C50.681,38.389 51.662,38.145 52.998,38.145 L76.835,38.145 L69.542,72.001 L32.019,72.001 C8.209,72.001 -4.336,62.379 0.82,38.101 Z M416.314,5.588 C437.617,5.515 442.105,15.574 439.251,29.268 L430.388,71.522 L423.453,71.55 L428.853,45.72 L386.958,45.853 L381.541,71.701 L374.601,71.717 L383.449,29.451 C386.314,15.754 395.261,5.667 416.314,5.588 Z M432.269,29.384 C434.47,18.931 432.128,10.723 415.234,10.767 C398.328,10.829 392.562,19.067 390.378,29.519 L388.037,40.681 L429.939,40.546 L432.269,29.384 Z M368.886,6.483 C369.541,6.966 369.919,7.905 369.937,8.608 C369.953,9.238 369.826,9.56 369.654,10.064 L353.035,71.461 L345.087,71.461 L363.109,5.858 L366.847,5.858 C367.515,5.881 368.226,5.971 368.886,6.483 Z M344.287,6.404 C344.841,6.842 345.111,7.646 345.087,8.248 C345.087,8.822 344.96,9.097 344.779,9.52 C344.763,9.552 307.375,66.209 306.175,67.761 C304.462,69.976 302.373,71.444 299.492,71.444 L295.943,71.444 L279.515,6.251 C279.515,6.251 285.628,6.223 286.074,6.28 C286.365,6.309 286.66,6.398 286.957,6.544 C287.724,6.905 288.214,7.731 288.367,8.467 L301.554,62.564 L301.591,62.525 L338.427,5.875 L342.544,5.875 C343.142,5.875 343.734,5.982 344.287,6.404 Z M263.968,14.968 C270.126,22.452 272.496,31.818 270.628,41.34 C268.527,52.067 261.341,62.015 250.392,69.328 C239.888,76.354 227.007,80.213 214.121,80.213 C198.667,80.213 185.207,74.631 177.189,64.902 C171.035,57.426 168.667,48.051 170.534,38.534 C172.634,27.799 179.815,17.858 190.767,10.541 C201.275,3.518 214.152,-0.344 227.033,-0.344 C242.496,-0.344 255.957,5.241 263.968,14.968 Z M251.623,50.856 C263.986,33.865 253.433,19.671 253.433,19.671 C252.943,19.945 252.382,20.163 252.382,20.163 C258.174,37.115 248.105,52.432 248.105,52.432 C250.974,51.717 251.623,50.856 251.623,50.856 Z M242.208,60.465 C245.58,58.037 248.048,55.301 248.048,55.301 C246.995,55.565 245.97,55.758 245.97,55.758 C244.22,58.26 242.208,60.465 242.208,60.465 Z M231.572,66.314 C231.572,66.314 237.582,62.893 242.722,56.114 C242.722,56.114 230.352,57.245 211.861,50.979 L200.546,68.074 C200.546,68.074 213.494,72.571 231.572,66.314 Z M180.763,48.628 C183.958,62.755 198.099,67.354 198.099,67.354 L209.494,50.14 C189.918,42.778 184.796,35.663 184.796,35.663 C180.69,41.575 180.763,48.628 180.763,48.628 Z M182.351,32.08 C180.763,35.717 180.446,38.601 180.446,38.601 C181.703,35.867 183.166,33.58 183.166,33.58 C182.58,32.686 182.351,32.08 182.351,32.08 Z M185.009,27.068 C184.314,28.395 185.398,30.3 185.398,30.3 C198.237,13.209 217.359,7.808 217.359,7.808 L217.265,7.363 C194.482,10.079 185.009,27.068 185.009,27.068 Z M231.138,17.41 C223.361,14.709 218.802,10.194 218.802,10.194 C197.056,16.366 186.806,32.479 186.806,32.479 C192.986,40.896 211.453,47.169 211.453,47.169 L231.138,17.41 Z M237.119,8.371 C229.5,7.408 222.947,9.145 222.947,9.145 C226.24,11.998 233.08,14.492 233.08,14.492 L237.119,8.371 Z M247.474,17.812 C244.525,12.133 239.492,9.223 239.492,9.223 L235.447,15.335 C243.298,18.053 247.474,17.812 247.474,17.812 Z M248.925,20.854 C241.46,21.115 233.501,18.263 233.501,18.263 L213.822,48.016 C233.345,54.697 244.884,52.977 244.884,52.977 C256.033,35.182 248.925,20.854 248.925,20.854 Z M251.863,17.543 L250.574,16.151 C250.574,16.151 251.218,17.279 251.343,17.643 L251.863,17.543 Z M217.316,46.785 C222.037,39.648 226.757,32.511 231.478,25.374 C239.033,28.687 243.335,35.301 241.845,42.917 C241.291,45.741 239.992,48.426 238.13,50.856 C226.131,49.938 217.316,46.785 217.316,46.785 Z M224.48,23.426 L210.574,44.449 C210.574,44.449 201.534,41.218 193.548,35.649 C198.755,28.309 209.078,23.108 219.964,23.108 C221.529,23.108 223.035,23.221 224.48,23.426 Z M207.041,62.313 L212.794,53.619 C212.794,53.619 222.755,56.933 230.283,57.729 C230.283,57.729 220.739,64.254 207.041,62.313 Z M190.285,43.183 C190.285,43.183 198.06,48.393 206.101,51.207 L200.144,60.211 C200.144,60.211 188.203,55.161 190.285,43.183 Z" id="Combined-Shape"></path>
        </g>
    </g>
</svg>