<?xml version="1.0" encoding="UTF-8" standalone="no"?>
<svg width="541px" height="66px" viewBox="0 0 541 66" version="1.1" xmlns="http://www.w3.org/2000/svg" xmlns:xlink="http://www.w3.org/1999/xlink">
    <!-- Generator: Sketch 44.1 (41455) - http://www.bohemiancoding.com/sketch -->
    <title>Logos_Without3DS/ NETVIBES</title>
    <desc>Created with Sketch.</desc>
    <defs></defs>
    <g id="Page-1" stroke="none" stroke-width="1" fill="none" fill-rule="evenodd">
        <g id="Logos_Without3DS/-NETVIBES" fill="#7BBB42">
            <path d="M86.945,0.316 L73.835,61.414 C73.241,64.097 71.967,65.605 69.285,65.605 L56.104,65.605 L26.502,19.321 L17.393,61.885 C16.937,64.33 15.307,65.605 12.499,65.605 L-0.209,65.605 L12.736,4.519 C13.319,1.834 14.717,0.316 17.393,0.316 L32.558,0.316 L60.535,44.378 C60.535,44.378 68.758,5.939 69.214,3.795 C69.672,1.664 71.262,0.316 73.601,0.316 L86.945,0.316 Z M103.636,4.531 C104.266,1.627 106.079,0.316 109.191,0.316 L168.72,0.316 L167.08,8.026 C166.571,10.46 164.589,10.46 162.589,10.46 L120.31,10.46 L116.592,27.947 L155.33,27.947 C156.411,27.947 156.957,28.623 156.767,29.507 L155.287,36.455 C155.106,37.343 154.296,38.008 153.191,38.008 L114.463,38.008 L110.736,55.53 L154.562,55.53 C157.872,55.53 158.57,56.42 158.001,59.078 L156.623,65.605 L90.659,65.605 L103.636,4.531 Z M251.325,6.455 C250.767,9.125 249.597,10.46 246.281,10.46 L222.82,10.46 L212.085,60.992 C211.357,64.301 209.311,65.626 205.77,65.626 L193.165,65.626 L204.879,10.46 L176.769,10.46 L178.178,3.872 C178.7,1.431 180.707,0.339 184.247,0.339 L252.647,0.339 L251.325,6.455 Z M323.941,3.922 C323.924,3.962 286.674,60.406 285.481,61.951 C283.774,64.162 281.695,65.626 278.822,65.626 L275.285,65.626 L258.919,0.671 C258.919,0.671 265.005,0.637 265.451,0.695 C265.743,0.718 266.033,0.808 266.331,0.96 C267.094,1.325 267.584,2.152 267.735,2.873 L280.876,56.782 L280.914,56.736 L317.616,0.289 L321.708,0.289 C322.31,0.289 322.898,0.4 323.448,0.816 C324.006,1.256 324.274,2.063 324.245,2.666 C324.245,3.226 324.122,3.507 323.941,3.922 Z M435.492,4.076 C436.103,1.172 437.949,-0.168 441.076,-0.168 L490.893,-0.168 L489.88,3.473 C489.364,5.928 487.356,5.928 485.338,5.928 L442.748,5.928 L437.401,31.812 L476.443,31.812 C477.543,31.812 478.085,32.492 477.9,33.39 L477.36,36.26 C477.172,37.152 476.354,37.82 475.245,37.82 L436.211,37.82 L431.528,59.272 L475.67,59.272 C479.014,59.272 479.713,60.181 479.126,62.852 L478.706,65.626 L422.737,65.626 L435.492,4.076 Z M539.561,6.702 L539.614,6.88 L539.552,6.702 C539.352,6.749 515.125,6.772 515.093,6.794 C510.149,6.794 507.086,10.042 507.079,14.082 C507.086,16.463 508.437,18.684 510.633,20.854 L528.19,38.127 C528.226,38.139 534.498,43.404 534.488,50.22 C534.488,50.237 534.498,50.245 534.498,50.256 C534.434,55.171 533.087,65.586 520.391,65.626 L493.477,65.626 C493.477,64.685 493.469,60.706 493.469,60.675 L493.405,60.649 L493.469,60.649 C493.46,59.833 494.286,58.799 495.069,58.656 C495.284,58.594 519.243,58.592 519.251,58.554 C524.206,58.583 527.276,55.3 527.276,51.281 C527.276,48.91 526.205,46.365 524.005,44.206 L505.492,26.076 C503.621,24.399 499.86,20.276 499.86,15.109 C499.926,10.187 501.263,-0.238 513.959,-0.26 L541.153,-0.26 C541.153,0.671 541.162,4.634 541.162,4.673 C541.153,4.688 541.162,4.71 541.162,4.71 C541.19,5.515 540.35,6.558 539.561,6.702 Z M419.186,15.244 C418.134,28.228 407.75,31.59 407.75,31.59 C413.071,33.776 415.011,43.721 412.104,51.569 C407.943,62.777 398.161,65.626 387.995,65.626 L349.067,65.626 C361.066,7.714 361.066,7.714 361.714,4.581 C362.874,-0.98 367.939,-0.168 367.939,-0.168 C367.939,-0.168 385.764,-0.205 396.616,-0.205 C407.456,-0.205 420.245,2.272 419.186,15.244 Z M411.345,18.478 C414.904,5.787 397.982,5.928 397.982,5.928 L369.077,5.928 L364.422,29.122 L393.067,29.122 C393.067,29.122 408.03,30.352 411.345,18.478 Z M406.139,49.449 C409.897,40.683 402.14,35.418 394.992,35.418 L363.241,35.418 L357.863,59.272 L383.883,59.272 C394.773,59.272 402.382,58.22 406.139,49.449 Z M341.171,0.698 C341.833,0.718 342.547,0.811 343.209,1.321 C343.855,1.809 344.227,2.741 344.248,3.443 C344.267,4.073 344.138,4.391 343.973,4.884 L330.929,65.806 L323.018,65.806 L337.446,0.698 L341.171,0.698 Z" id="Combined-Shape"></path>
        </g>
    </g>
</svg>