<?xml version="1.0" encoding="UTF-8" standalone="no"?>
<svg width="555px" height="70px" viewBox="0 0 555 70" version="1.1" xmlns="http://www.w3.org/2000/svg" xmlns:xlink="http://www.w3.org/1999/xlink">
    <!-- Generator: Sketch 44.1 (41455) - http://www.bohemiancoding.com/sketch -->
    <title>Logos_Without3DS/ SIMULIA</title>
    <desc>Created with Sketch.</desc>
    <defs></defs>
    <g id="Page-1" stroke="none" stroke-width="1" fill="none" fill-rule="evenodd">
        <g id="Logos_Without3DS/-SIMULIA" fill="#00AB9F">
            <path d="M115.735,2.556 C117.26,2.556 118.069,3.725 117.845,4.784 L104.472,68.207 L87.469,68.207 L101.422,2.556 L115.735,2.556 Z M522.129,1.15 C545.701,1.15 558.477,9.353 553.676,32.097 L546.645,65.277 C546.165,67.507 544.527,68.207 542.65,68.207 L529.054,68.207 L532.685,51.087 L490.478,51.087 L486.842,68.207 L473.247,68.207 C471.367,68.207 469.962,67.507 470.426,65.277 L477.464,32.097 C482.276,9.353 498.572,1.15 522.129,1.15 Z M537.14,30.107 C539.605,18.266 534.326,12.873 519.671,12.873 C505.011,12.873 497.395,18.266 494.938,30.107 L492.708,40.538 L534.913,40.538 L537.14,30.107 Z M10.576,15.055 C13.459,2.642 24.801,2.541 43.7,2.541 L77.051,2.541 L75.749,8.65 C75.138,11.542 73.076,12.873 69.527,12.873 L43.167,12.873 C34.716,12.873 32.315,13 31.518,16.159 C30.099,21.788 35.966,23.128 58.437,34.742 C63.481,37.348 67.12,39.591 69.607,42.143 C74.465,47.143 74.479,52.214 72.484,57.128 C68.396,67.191 57.111,68.207 39.119,68.207 L-0.183,68.207 L1.055,62.353 C1.673,59.465 3.729,58.132 7.276,58.132 L38.451,58.132 C46.327,58.132 50.917,57.945 52.217,53.733 C53.827,48.507 49.833,47.752 32.315,37.813 C16.322,28.721 8.446,24.265 10.576,15.055 Z M417.03,58.066 C419.929,58.066 421.014,59.184 420.407,62.066 L419.094,68.207 L358.315,68.207 L372.282,2.518 L387.644,2.518 C389.192,2.518 390.075,3.626 389.838,4.744 L378.501,58.066 L417.03,58.066 Z M460.993,2.556 C462.517,2.556 463.341,3.725 463.1,4.784 L449.739,68.207 L432.739,68.207 L446.682,2.556 L460.993,2.556 Z M221.938,-0.097 C233.342,-0.097 240.115,6.188 243.038,17.219 L254.103,68.207 L239.823,68.207 C236.497,68.203 234.603,66.488 233.895,63.079 C233.895,63.079 225.725,23.574 224.897,19.98 C224.067,16.377 223.323,12.809 220.626,12.809 C217.983,12.809 217.249,15.103 215.134,20.581 C214.372,22.55 212.544,27.13 208.291,38.147 C204.047,49.155 199.808,55.656 189.981,55.656 C180.235,55.656 175.915,49.155 171.67,38.147 C167.426,27.13 165.602,22.55 164.831,20.581 C162.717,15.103 161.989,12.809 159.341,12.809 C156.643,12.809 155.907,16.377 155.071,19.98 C154.243,23.574 146.077,63.079 146.077,63.079 C145.36,66.488 143.471,68.203 140.14,68.207 L125.863,68.207 L136.93,17.219 C139.856,6.188 146.629,-0.097 158.028,-0.097 C162.319,-0.097 171.618,0.785 176.463,12.154 C183.935,29.643 186.362,36.201 187.424,38.575 C188.317,40.576 188.514,41.786 189.987,41.786 C191.276,41.786 191.651,40.576 192.538,38.575 C193.608,36.201 196.03,29.643 203.5,12.154 C208.352,0.785 217.655,-0.097 221.938,-0.097 Z M348.045,2.579 C349.909,2.579 351.37,3.252 350.901,5.492 L343.86,38.895 C339.163,60.348 327.743,69.614 298.095,69.614 C272.755,69.614 259.959,62.445 264.775,38.895 L271.811,5.492 C272.292,3.252 274.053,2.579 275.899,2.579 L290.245,2.579 L286.299,21.808 L282.982,36.93 C282.784,37.856 282.161,40.917 282.161,40.917 C279.661,53.156 283.934,58.477 299.909,58.477 C314.436,58.477 322.993,53.02 325.639,40.917 L327.504,32.016 L329.777,21.808 L333.709,2.579 L348.045,2.579 Z" id="Combined-Shape"></path>
        </g>
    </g>
</svg>