<?xml version="1.0" encoding="UTF-8" standalone="no"?>
<svg width="32px" height="32px" viewBox="0 0 32 32" version="1.1" xmlns="http://www.w3.org/2000/svg" xmlns:xlink="http://www.w3.org/1999/xlink">
    <!-- Generator: Sketch 44.1 (41455) - http://www.bohemiancoding.com/sketch -->
    <title>clock-icon</title>
    <desc>Created with Sketch.</desc>
    <defs></defs>
    <g id="Ready-for-exports" stroke="none" stroke-width="1" fill="none" fill-rule="evenodd">
        <g id="clock-icon">
            <rect id="Rectangle-4-Copy-3" fill="#808080" opacity="0" x="0" y="0" width="32" height="32"></rect>
            <path d="M8.9290625,8.929375 C10.8178125,7.0403125 13.32875,6 16,6 C18.6709375,6 21.181875,7.0403125 23.0709375,8.929375 C24.9596875,10.8178125 26,13.3290625 26,16 C26,18.6709375 24.9596875,21.1821875 23.070625,23.070625 C21.181875,24.9596875 18.6709375,26 16,26 C13.32875,26 10.8178125,24.9596875 8.9290625,23.070625 C7.0403125,21.1821875 6,18.6709375 6,16 C6,13.3290625 7.0403125,10.8178125 8.9290625,8.929375 Z M10.343393,10.3434716 C8.82955026,11.8570639 8,13.8595572 8,16 C8,18.1404428 8.82955026,20.1429361 10.343393,21.6565284 C11.8571187,23.1705045 13.8593222,24 16,24 C18.140398,24 20.1425919,23.1704814 21.6566454,21.6561775 C23.1704184,20.1429054 24,18.140494 24,16 C24,13.8595572 23.1704497,11.8570639 21.6567239,10.3435886 C20.1426553,8.82951989 18.1403929,8 16,8 C13.8593222,8 11.8571187,8.8294955 10.343393,10.3434716 Z M17,11 L17,16.0316251 L19.6401844,18.2317787 L18.3598156,19.7682213 L15,16.9683749 L15,11 L17,11 Z" id="Combined-Shape" fill="#000000" fill-rule="nonzero"></path>
        </g>
    </g>
</svg>