<?xml version="1.0" encoding="UTF-8" standalone="no"?>
<svg width="32px" height="32px" viewBox="0 0 32 32" version="1.1" xmlns="http://www.w3.org/2000/svg" xmlns:xlink="http://www.w3.org/1999/xlink">
    <!-- Generator: Sketch 44.1 (41455) - http://www.bohemiancoding.com/sketch -->
    <title>heart-icon</title>
    <desc>Created with Sketch.</desc>
    <defs></defs>
    <g id="Ready-for-exports" stroke="none" stroke-width="1" fill="none" fill-rule="evenodd">
        <g id="heart-icon">
            <rect id="Rectangle-4" fill="#808080" opacity="0" x="0" y="0" width="32" height="32"></rect>
            <path d="M22.8748335,15.5154522 C24.3750419,14.0241874 24.3750419,11.6137722 22.8762205,10.1240563 C22.1400988,9.39375204 21.1629793,9 20.1420118,9 C19.1722063,9 18.4547919,9.29939412 17.2524671,10.2641479 L16.0001304,11.2690317 L14.7483099,10.263505 C13.5497181,9.30073429 12.8282671,9 11.8579882,9 C10.8379402,9 9.85945946,9.39419031 9.12516651,10.1226789 C7.6248766,11.6140246 7.6248766,14.0248169 9.12473628,15.5165922 L16.0005205,22.347241 L22.8748335,15.5154522 Z M16.000789,25.1666667 L7.71518738,16.9354551 C5.42827087,14.6608661 5.42827087,10.9775263 7.71518738,8.70424355 C8.85943458,7.56903916 10.3595003,7 11.8579882,7 C13.356476,7 14.5015779,7.5 16.000789,8.70424355 C17.5015779,7.5 18.6422091,7 20.1420118,7 C21.6420776,7 23.1405654,7.56903916 24.2848126,8.70424355 C26.5717291,10.977265 26.5717291,14.6606048 24.2848126,16.9338875 L16.000789,25.1666667 Z" id="Like-Copy" fill="#000000" fill-rule="nonzero"></path>
        </g>
    </g>
</svg>