<?xml version="1.0" encoding="UTF-8" standalone="no"?>
<svg width="32px" height="32px" viewBox="0 0 32 32" version="1.1" xmlns="http://www.w3.org/2000/svg" xmlns:xlink="http://www.w3.org/1999/xlink">
    <!-- Generator: Sketch 44.1 (41455) - http://www.bohemiancoding.com/sketch -->
    <title>language-icon</title>
    <desc>Created with Sketch.</desc>
    <defs></defs>
    <g id="Ready-for-exports" stroke="none" stroke-width="1" fill="none" fill-rule="evenodd">
        <g id="language-icon">
            <rect id="Rectangle-4-Copy-3" fill="#808080" opacity="0" x="0" y="0" width="32" height="32"></rect>
            <path d="M16,26 C10.4771525,26 6,21.5228475 6,16 C6,10.4771525 10.4771525,6 16,6 C21.5228475,6 26,10.4771525 26,16 C26,21.5228475 21.5228475,26 16,26 Z M13.4697338,20 C13.6731382,20.8095675 13.9376248,21.5452492 14.2533205,22.1766406 C14.8812109,23.4324214 15.5521641,24 16,24 C16.4478359,24 17.1187891,23.4324214 17.7466795,22.1766406 C18.0623752,21.5452492 18.3268618,20.8095675 18.5302662,20 L13.4697338,20 L13.4697338,20 Z M13.1116163,14 C13.0383927,14.6448137 13,15.3151367 13,16 C13,16.6848633 13.0383927,17.3551863 13.1116163,18 L18.8883837,18 C18.9616073,17.3551863 19,16.6848633 19,16 C19,15.3151367 18.9616073,14.6448137 18.8883837,14 L13.1116163,14 L13.1116163,14 Z M9.07998657,20.0007935 C9.88378687,21.3903245 11.0935225,22.5156526 12.5470366,23.2146207 C12.0748802,22.3078356 11.6915564,21.2174215 11.4257727,20.0007935 L9.07998657,20.0007935 L9.07998657,20.0007935 Z M8.25744859,14 C8.09291963,14.6392398 8.00541362,15.3094009 8.00541362,16 C8.00541362,16.6905991 8.09291963,17.3607602 8.25744859,18 L11.1054317,18 C11.0398439,17.3537801 11.0054136,16.6849317 11.0054136,16 C11.0054136,15.3150683 11.0398439,14.6462199 11.1054317,14 L8.25744859,14 L8.25744859,14 Z M22.925302,19.9986572 L20.5795158,19.9986572 C20.3137322,21.2152852 19.9304084,22.3056993 19.458252,23.2124845 C20.911766,22.5135164 22.1215017,21.3881883 22.925302,19.9986572 Z M22.925302,11.9986572 C22.1215017,10.6091262 20.911766,9.4837981 19.458252,8.78482994 C19.9304084,9.69161513 20.3137322,10.7820292 20.5795158,11.9986572 L22.925302,11.9986572 L22.925302,11.9986572 Z M23.7435246,13.9986572 L23.7435246,13.9986572 L20.8955414,13.9986572 C20.9611293,14.6448771 20.9955595,15.3137255 20.9955595,15.9986572 C20.9955595,16.6835889 20.9611293,17.3524373 20.8955414,17.9986572 L23.7435246,17.9986572 C23.9080535,17.3594174 23.9955595,16.6892564 23.9955595,15.9986572 C23.9955595,15.3080581 23.9080535,14.6378971 23.7435246,13.9986572 Z M13.4697338,12 L13.4697338,12 L18.5302662,12 C18.3268618,11.1904325 18.0623752,10.4547508 17.7466795,9.82335938 C17.1187891,8.56757856 16.4478359,8 16,8 C15.5521641,8 14.8812109,8.56757856 14.2533205,9.82335938 C13.9376248,10.4547508 13.6731382,11.1904325 13.4697338,12 Z M12.5530636,8.77689537 C11.0995496,9.47586353 9.88981393,10.6011916 9.08601363,11.9907227 L11.4317998,11.9907227 C11.6975834,10.7740947 12.0809072,9.68368056 12.5530636,8.77689537 Z" id="Combined-Shape" fill="#000000"></path>
        </g>
    </g>
</svg>