<?xml version="1.0" encoding="UTF-8" standalone="no"?>
<svg width="32px" height="32px" viewBox="0 0 32 32" version="1.1" xmlns="http://www.w3.org/2000/svg" xmlns:xlink="http://www.w3.org/1999/xlink">
    <!-- Generator: Sketch 44.1 (41455) - http://www.bohemiancoding.com/sketch -->
    <title>location-icon</title>
    <desc>Created with Sketch.</desc>
    <defs></defs>
    <g id="Ready-for-exports" stroke="none" stroke-width="1" fill="none" fill-rule="evenodd">
        <g id="location-icon">
            <rect id="Rectangle-4-Copy-2" fill="#808080" opacity="0" x="0" y="0" width="32" height="32"></rect>
            <path d="M23.9999349,14.2829332 C23.9999349,21.5 16.2001449,26 16.0001414,26 C15.7897029,25.9954499 8,21.5 8,14.2861832 C8,9.5 11.5885852,6 16.0001414,6 C20.3911755,6 23.9999349,9.5 23.9999349,14.2829332 Z M16.1830953,23.5487795 C17.0095918,22.9668659 17.8601174,22.2552756 18.6425069,21.4522125 C20.7614097,19.2773205 21.9999349,16.8541312 21.9999349,14.2829332 C21.9999349,10.6794342 19.3601547,8 16.0001414,8 C12.627178,8 10,10.6719417 10,14.2861832 C10,16.8565023 11.2370849,19.2780857 13.3537833,21.4510095 C14.1357573,22.2537549 14.9860545,22.9650933 15.8124361,23.5467032 C15.8759049,23.5913728 15.938303,23.6345946 15.9993258,23.6762114 C16.0593494,23.6352357 16.1207027,23.5927084 16.1830953,23.5487795 Z M16,18 C13.790861,18 12,16.209139 12,14 C12,11.790861 13.790861,10 16,10 C18.209139,10 20,11.790861 20,14 C20,16.209139 18.209139,18 16,18 Z M16,16 C17.1045695,16 18,15.1045695 18,14 C18,12.8954305 17.1045695,12 16,12 C14.8954305,12 14,12.8954305 14,14 C14,15.1045695 14.8954305,16 16,16 Z" id="Combined-Shape" fill="#000000" fill-rule="nonzero"></path>
        </g>
    </g>
</svg>