<?xml version="1.0" encoding="UTF-8" standalone="no"?>
<svg width="32px" height="32px" viewBox="0 0 32 32" version="1.1" xmlns="http://www.w3.org/2000/svg" xmlns:xlink="http://www.w3.org/1999/xlink">
    <!-- Generator: Sketch 44.1 (41455) - http://www.bohemiancoding.com/sketch -->
    <title>notif-icon</title>
    <desc>Created with Sketch.</desc>
    <defs></defs>
    <g id="Ready-for-exports" stroke="none" stroke-width="1" fill="none" fill-rule="evenodd">
        <g id="notif-icon">
            <rect id="Rectangle-4-Copy-3" fill="#808080" opacity="0" x="0" y="0" width="32" height="32"></rect>
            <path d="M19,23 C19,24.6568542 17.6568542,26 16,26 C14.3431458,26 13,24.6568542 13,23 L7.2951726,23 C7.24282722,23 7.19629425,22.9532789 7.19285352,22.9058143 C7.19285352,22.9058143 7.05989827,21.6610979 7.5,20 C8.33496468,16.8485513 9.60351001,17.0514629 9.75052574,13.3749068 C9.89754147,9.69835079 11.6044301,6 16.0084673,6 C20.4125045,6 22.2891016,9.51425788 22.5005689,13.3749067 C22.7120362,17.2355555 23.7449238,16.8619324 24.5,20 C24.9029102,21.6744791 24.8206715,22.9066412 24.8206715,22.9066412 C24.8183907,22.9582019 24.766007,23 24.721762,23 L19,23 Z M22.5554985,20.4678825 C22.4113969,19.8690017 22.2559596,19.4121123 22.0642453,18.9805469 C22.0034729,18.843743 21.9385123,18.7077922 21.856899,18.5450161 C21.8119217,18.4553096 21.647819,18.1343414 21.6190419,18.0773793 C20.9268001,16.7071396 20.6179473,15.5725573 20.5035625,13.4842928 C20.3125858,9.99773104 18.7772606,8 16.0084673,8 C13.3449344,8 11.8859424,10.0283917 11.7489287,13.4548177 C11.6679749,15.4793024 11.3166889,16.6469008 10.5270133,18.0431022 C10.4748221,18.1353798 10.298967,18.4414291 10.2683078,18.4953547 C10.1770179,18.6559215 10.1069097,18.7836302 10.0412843,18.9101854 C9.79146209,19.391955 9.60290701,19.8720461 9.43329543,20.5122195 C9.38916731,20.6787744 9.35143929,20.8416573 9.31952559,21 L22.6694486,21 C22.6372062,20.8280886 22.5994135,20.6503914 22.5554985,20.4678825 Z M17,23 L15,23 C15,23.5522847 15.4477153,24 16,24 C16.5522847,24 17,23.5522847 17,23 Z" id="Combined-Shape" fill="#000000"></path>
        </g>
    </g>
</svg>