<?xml version="1.0" encoding="UTF-8" standalone="no"?>
<svg width="32px" height="32px" viewBox="0 0 32 32" version="1.1" xmlns="http://www.w3.org/2000/svg" xmlns:xlink="http://www.w3.org/1999/xlink">
    <!-- Generator: Sketch 44.1 (41455) - http://www.bohemiancoding.com/sketch -->
    <title>search-icon</title>
    <desc>Created with Sketch.</desc>
    <defs></defs>
    <g id="Ready-for-exports" stroke="none" stroke-width="1" fill="none" fill-rule="evenodd">
        <g id="search-icon">
            <rect id="Rectangle-4-Copy" fill="#808080" opacity="0" x="0" y="0" width="32" height="32"></rect>
            <path d="M20.3633683,19.3491548 L25.7417783,24.7275649 L24.3275648,26.1417784 L18.9616824,20.7758961 C17.5980439,21.8554431 15.8742941,22.5 14,22.5 C9.581722,22.5 6,18.918278 6,14.5 C6,10.081722 9.581722,6.5 14,6.5 C18.418278,6.5 22,10.081722 22,14.5 C22,16.3231057 21.390169,18.0037777 20.3633683,19.3491548 L20.3633683,19.3491548 Z M14,20.5 C17.3137085,20.5 20,17.8137085 20,14.5 C20,11.1862915 17.3137085,8.5 14,8.5 C10.6862915,8.5 8,11.1862915 8,14.5 C8,17.8137085 10.6862915,20.5 14,20.5 Z" id="Combined-Shape" fill="#000000"></path>
        </g>
    </g>
</svg>