<svg xmlns="http://www.w3.org/2000/svg" xmlns:xlink="http://www.w3.org/1999/xlink" width="60" height="58" viewBox="0 0 60 58">
  <metadata><?xpacket begin="﻿" id="W5M0MpCehiHzreSzNTczkc9d"?>
<x:xmpmeta xmlns:x="adobe:ns:meta/" x:xmptk="Adobe XMP Core 5.6-c138 79.159824, 2016/09/14-01:09:01        ">
   <rdf:RDF xmlns:rdf="http://www.w3.org/1999/02/22-rdf-syntax-ns#">
      <rdf:Description rdf:about=""/>
   </rdf:RDF>
</x:xmpmeta>
                                                                                                    
                                                                                                    
                                                                                                    
                                                                                                    
                                                                                                    
                                                                                                    
                                                                                                    
                                                                                                    
                                                                                                    
                                                                                                    
                                                                                                    
                                                                                                    
                                                                                                    
                                                                                                    
                                                                                                    
                                                                                                    
                                                                                                    
                                                                                                    
                                                                                                    
                                                                                                    
                           
<?xpacket end="w"?></metadata>
<defs>
    <style>
      .cls-1 {
        fill: #0059a9;
        fill-rule: evenodd;
        filter: url(#filter);
      }
    </style>
    <filter id="filter" x="1424" y="927" width="60" height="58" filterUnits="userSpaceOnUse">
      <feOffset result="offset" dx="3.995" dy="-0.209" in="SourceAlpha"/>
      <feGaussianBlur result="blur" stdDeviation="1.732"/>
      <feFlood result="flood" flood-opacity="0.15"/>
      <feComposite result="composite" operator="in" in2="blur"/>
      <feBlend result="blend" in="SourceGraphic"/>
    </filter>
  </defs>
  <path class="cls-1" d="M1424,929v53h53V929h-53Zm51.29,51.29h-49.58V937.548h49.58v42.741Zm0-44.451h-49.58v-5.129h49.58v5.129Zm-47.87-3.419h1.71v1.709h-1.71v-1.709Zm3.42,0h1.71v1.709h-1.71v-1.709Zm3.42,0h1.71v1.709h-1.71v-1.709Zm16.24,22.225a7.694,7.694,0,1,0-7.69-7.693A7.7,7.7,0,0,0,1450.5,954.644Zm2.56-2.295a5.885,5.885,0,0,1-5.12,0V952.08a2.56,2.56,0,1,1,5.12,0v0.269Zm-4.27-6.253a1.71,1.71,0,1,1,1.71,1.71A1.714,1.714,0,0,1,1448.79,946.1Zm1.71-5.13a5.984,5.984,0,0,1,4.19,10.252,4.293,4.293,0,0,0-1.8-2.682,3.42,3.42,0,1,0-4.78,0,4.293,4.293,0,0,0-1.8,2.682A5.984,5.984,0,0,1,1450.5,940.966Zm-16.24,12.824a6.839,6.839,0,1,0-6.84-6.839A6.848,6.848,0,0,0,1434.26,953.79Zm1.71-2.009a5.039,5.039,0,0,1-3.42,0V950.37a1.71,1.71,0,0,1,3.42,0v1.411Zm-2.57-5.685a0.855,0.855,0,1,1,.86.855A0.861,0.861,0,0,1,1433.4,946.1Zm0.86-4.274a5.122,5.122,0,0,1,3.42,8.942V950.37a3.4,3.4,0,0,0-1.39-2.731,2.526,2.526,0,0,0,.53-1.543,2.565,2.565,0,1,0-4.6,1.543,3.414,3.414,0,0,0-1.38,2.731v0.394A5.122,5.122,0,0,1,1434.26,941.822Zm32.48,11.968a6.839,6.839,0,1,0-6.84-6.839A6.848,6.848,0,0,0,1466.74,953.79Zm1.71-2.009a5.039,5.039,0,0,1-3.42,0V950.37a1.71,1.71,0,0,1,3.42,0v1.411Zm-2.56-5.685a0.855,0.855,0,1,1,.85.855A0.853,0.853,0,0,1,1465.89,946.1Zm0.85-4.274a5.122,5.122,0,0,1,3.42,8.942V950.37a3.414,3.414,0,0,0-1.38-2.731,2.56,2.56,0,1,0-4.6-1.543,2.526,2.526,0,0,0,.53,1.543,3.4,3.4,0,0,0-1.39,2.731v0.394A5.122,5.122,0,0,1,1466.74,941.822Zm-39.32,14.532h46.16v1.71h-46.16v-1.71Zm23.93,3.42h22.23v1.709h-22.23v-1.709Zm0,3.419h22.23v1.71h-22.23v-1.71Zm0,3.419h22.23v1.71h-22.23v-1.71Zm0,3.419h22.23v1.71h-22.23v-1.71Zm0,3.419h22.23v1.711h-22.23V973.45Zm0,3.42h22.23v1.71h-22.23v-1.71Zm-1.7-17.1h-22.23V978.58h22.23V959.774Zm-1.71,17.1h-18.81V961.483h18.81V976.87Z" transform="translate(-1424 -927)"/>
</svg>
