<svg xmlns="http://www.w3.org/2000/svg" xmlns:xlink="http://www.w3.org/1999/xlink" width="74" height="53" viewBox="0 0 74 53">
  <metadata><?xpacket begin="﻿" id="W5M0MpCehiHzreSzNTczkc9d"?>
<x:xmpmeta xmlns:x="adobe:ns:meta/" x:xmptk="Adobe XMP Core 5.6-c138 79.159824, 2016/09/14-01:09:01        ">
   <rdf:RDF xmlns:rdf="http://www.w3.org/1999/02/22-rdf-syntax-ns#">
      <rdf:Description rdf:about=""/>
   </rdf:RDF>
</x:xmpmeta>
                                                                                                    
                                                                                                    
                                                                                                    
                                                                                                    
                                                                                                    
                                                                                                    
                                                                                                    
                                                                                                    
                                                                                                    
                                                                                                    
                                                                                                    
                                                                                                    
                                                                                                    
                                                                                                    
                                                                                                    
                                                                                                    
                                                                                                    
                                                                                                    
                                                                                                    
                                                                                                    
                           
<?xpacket end="w"?></metadata>
<defs>
    <style>
      .cls-1 {
        fill: #0059a9;
        fill-rule: evenodd;
        filter: url(#filter);
      }
    </style>
    <filter id="filter" x="926" y="927" width="74" height="53" filterUnits="userSpaceOnUse">
      <feOffset result="offset" dx="3.995" dy="-0.209" in="SourceAlpha"/>
      <feGaussianBlur result="blur" stdDeviation="1.732"/>
      <feFlood result="flood" flood-opacity="0.15"/>
      <feComposite result="composite" operator="in" in2="blur"/>
      <feBlend result="blend" in="SourceGraphic"/>
    </filter>
  </defs>
  <path class="cls-1" d="M987.6,929H931.4a5.319,5.319,0,0,0-5.4,5.218v37.565A5.319,5.319,0,0,0,931.4,977H987.6a5.319,5.319,0,0,0,5.4-5.217V934.217A5.319,5.319,0,0,0,987.6,929Zm-55.113,45.913H931.4a3.192,3.192,0,0,1-3.242-3.13V934.217a3.192,3.192,0,0,1,3.242-3.131h1.081v43.826Zm49.709,0H934.645V931.086h47.548v43.826Zm8.646-3.13a3.192,3.192,0,0,1-3.242,3.13h-3.242V931.086H987.6a3.192,3.192,0,0,1,3.242,3.131v37.565Zm-4.323-22.957h2.161v8.348h-2.161v-8.348Zm-38.9,3.131a9.4,9.4,0,1,0-9.726-9.392A9.574,9.574,0,0,0,947.613,951.956Zm0-16.7a7.309,7.309,0,1,1-7.565,7.3A7.447,7.447,0,0,1,947.613,935.26Zm21.613,16.7a9.4,9.4,0,1,0-9.726-9.392A9.574,9.574,0,0,0,969.226,951.956Zm0-16.7a7.309,7.309,0,1,1-7.565,7.3A7.447,7.447,0,0,1,969.226,935.26Zm-21.613,37.565a9.4,9.4,0,1,0-9.726-9.391A9.573,9.573,0,0,0,947.613,972.825Zm0-16.7a7.309,7.309,0,1,1-7.565,7.3A7.447,7.447,0,0,1,947.613,956.129Zm21.613,16.7a9.4,9.4,0,1,0-9.726-9.391A9.573,9.573,0,0,0,969.226,972.825Zm5.4-14.494a7.1,7.1,0,0,1,0,10.2v-10.2Zm-5.4,12.407a7.679,7.679,0,0,1-5.285-2.087H974.51A7.676,7.676,0,0,1,969.227,970.738Zm0-5.829,3.242-3.13v4.785h-6.484v-4.785Zm-1.714-4.606h3.428l-1.714,1.655Zm1.713-4.174a7.679,7.679,0,0,1,5.284,2.088H963.941A7.678,7.678,0,0,1,969.225,956.129Zm-5.4,2.2v10.2A7.1,7.1,0,0,1,963.822,958.332Zm-17.29-10.55h2.161v-3.13h2.162v-2.088h-2.162v-3.13h3.242v-2.087h-5.4v5.217h-2.161v2.088h2.161v3.13Zm21.613-3.13h2.7a3.655,3.655,0,1,0,0-7.305h-4.863v10.435h2.161v-3.13Zm0-5.218h2.7a1.566,1.566,0,1,1,0,3.13h-2.7v-3.13Zm-23.774,17.877v12.246l9.513-6.123Zm2.161,3.9,3.455,2.225-3.455,2.224v-4.449Z" transform="translate(-926 -927)"/>
</svg>
