<svg xmlns="http://www.w3.org/2000/svg" xmlns:xlink="http://www.w3.org/1999/xlink" width="66" height="64" viewBox="0 0 66 64">
  <metadata><?xpacket begin="﻿" id="W5M0MpCehiHzreSzNTczkc9d"?>
<x:xmpmeta xmlns:x="adobe:ns:meta/" x:xmptk="Adobe XMP Core 5.6-c138 79.159824, 2016/09/14-01:09:01        ">
   <rdf:RDF xmlns:rdf="http://www.w3.org/1999/02/22-rdf-syntax-ns#">
      <rdf:Description rdf:about=""/>
   </rdf:RDF>
</x:xmpmeta>
                                                                                                    
                                                                                                    
                                                                                                    
                                                                                                    
                                                                                                    
                                                                                                    
                                                                                                    
                                                                                                    
                                                                                                    
                                                                                                    
                                                                                                    
                                                                                                    
                                                                                                    
                                                                                                    
                                                                                                    
                                                                                                    
                                                                                                    
                                                                                                    
                                                                                                    
                                                                                                    
                           
<?xpacket end="w"?></metadata>
<defs>
    <style>
      .cls-1 {
        fill: #0059a9;
        fill-rule: evenodd;
        filter: url(#filter);
      }
    </style>
    <filter id="filter" x="1175" y="926" width="66" height="64" filterUnits="userSpaceOnUse">
      <feOffset result="offset" dx="3.995" dy="-0.209" in="SourceAlpha"/>
      <feGaussianBlur result="blur" stdDeviation="1.732"/>
      <feFlood result="flood" flood-opacity="0.15"/>
      <feComposite result="composite" operator="in" in2="blur"/>
      <feBlend result="blend" in="SourceGraphic"/>
    </filter>
  </defs>
  <path class="cls-1" d="M1175,928V975.58h20.94v2.855a8.56,8.56,0,1,0,17.12,0V975.58H1234V928h-59Zm36.16,50.436a6.66,6.66,0,1,1-13.32,0v-0.952h13.32v0.952Zm0-2.855h-13.32v-1.9h13.32v1.9ZM1199.18,955.6l5.32-5.316,5.32,5.316h-10.64Zm7.22,1.9v14.274h-3.8V957.5h3.8Zm-5.71,0v14.274h-2.85V957.5h2.85Zm10.47,14.274h-2.85V957.5h2.85v14.274Zm-6.66-24.184-8.56,8.564v6.1h-15.23V941.322h47.58v20.935h-15.23v-6.1Zm27.6,26.088h-19.04V964.16h17.13V939.419h-51.38V964.16h17.13v9.517H1176.9V937.515h55.2v36.162Zm0-38.065h-55.2V929.9h55.2v5.71Zm-53.29-3.807h1.9v1.9h-1.9v-1.9Zm3.8,0h1.91v1.9h-1.91v-1.9Zm3.81,0h1.9v1.9h-1.9v-1.9Zm17.13,11.42h1.9v2.855h-1.9v-2.855Zm-5.11,4.734-1.43-2.473,1.65-.951,1.43,2.472Zm-3.48,4.184-2.48-1.427,0.96-1.648,2.47,1.427Zm-3.78,3.453h2.85v1.9h-2.85v-1.9Zm23.79,0h2.85v1.9h-2.85v-1.9Zm0.6-6.534,0.95,1.649-2.48,1.427-0.95-1.649Zm-5.02-1.1-1.65-.952,1.43-2.473,1.65,0.952Zm-31.74,18.106h15.22v1.9h-15.22v-1.9Zm0,3.807h15.22v1.9h-15.22v-1.9Zm36.16-3.807h15.22v1.9h-15.22v-1.9Zm0,3.807h15.22v1.9h-15.22v-1.9Z" transform="translate(-1175 -926)"/>
</svg>
