<svg xmlns="http://www.w3.org/2000/svg" xmlns:xlink="http://www.w3.org/1999/xlink" width="52" height="67" viewBox="0 0 52 67">
  <metadata><?xpacket begin="﻿" id="W5M0MpCehiHzreSzNTczkc9d"?>
<x:xmpmeta xmlns:x="adobe:ns:meta/" x:xmptk="Adobe XMP Core 5.6-c138 79.159824, 2016/09/14-01:09:01        ">
   <rdf:RDF xmlns:rdf="http://www.w3.org/1999/02/22-rdf-syntax-ns#">
      <rdf:Description rdf:about=""/>
   </rdf:RDF>
</x:xmpmeta>
                                                                                                    
                                                                                                    
                                                                                                    
                                                                                                    
                                                                                                    
                                                                                                    
                                                                                                    
                                                                                                    
                                                                                                    
                                                                                                    
                                                                                                    
                                                                                                    
                                                                                                    
                                                                                                    
                                                                                                    
                                                                                                    
                                                                                                    
                                                                                                    
                                                                                                    
                                                                                                    
                           
<?xpacket end="w"?></metadata>
<defs>
    <style>
      .cls-1 {
        fill: #0059a9;
        fill-rule: evenodd;
        filter: url(#filter);
      }
    </style>
    <filter id="filter" x="690" y="920" width="52" height="67" filterUnits="userSpaceOnUse">
      <feOffset result="offset" dx="3.995" dy="-0.209" in="SourceAlpha"/>
      <feGaussianBlur result="blur" stdDeviation="1.732"/>
      <feFlood result="flood" flood-opacity="0.15"/>
      <feComposite result="composite" operator="in" in2="blur"/>
      <feBlend result="blend" in="SourceGraphic"/>
    </filter>
  </defs>
  <path class="cls-1" d="M728.535,961.128A23.054,23.054,0,0,0,735,945c0-12.683-10.094-23-22.5-23S690,932.316,690,945a23.164,23.164,0,0,0,13.7,21.158c0,0.048-.008.1-0.008,0.145v9.576a6.146,6.146,0,0,0,1.754,4.328,4.141,4.141,0,0,1,1.18,2.914V984h1.957V983.12a6.146,6.146,0,0,0-1.754-4.328,4.142,4.142,0,0,1-1.181-2.914V966.3a3.317,3.317,0,0,1,1.439-2.748,3.159,3.159,0,0,1,1.792-.555h0.682v6h1.957V945.5a1.467,1.467,0,1,1,2.934,0V965h1.957v-2.5a1.468,1.468,0,1,1,2.935,0V965H721.3v-2.5a1.468,1.468,0,1,1,2.935,0V965H726.2v-0.5a1.467,1.467,0,1,1,2.934,0v10.514a4.2,4.2,0,0,1-.287,1.531l-1.241,3.168a6.223,6.223,0,0,0-.428,2.273V984h1.956v-2.014a4.2,4.2,0,0,1,.288-1.531l1.24-3.168a6.2,6.2,0,0,0,.429-2.273V964.5A3.484,3.484,0,0,0,728.535,961.128Zm-19.756-36.766a24.525,24.525,0,0,0-6.631,8.848,26.994,26.994,0,0,1-5.551-1.485A20.465,20.465,0,0,1,708.779,924.362Zm-13.38,9.023a26.268,26.268,0,0,0,6,1.726A29.1,29.1,0,0,0,699.805,944h-7.8A21.177,21.177,0,0,1,695.4,933.385Zm0.021,23.222A21.331,21.331,0,0,1,692,946H699.8a29.059,29.059,0,0,0,1.612,8.887A26.291,26.291,0,0,0,695.42,956.607ZM709.565,961h-0.682a5.084,5.084,0,0,0-2.877.891,5.262,5.262,0,0,0-1.865,2.283,20.567,20.567,0,0,1-7.526-5.9c1.795-.732,5.795-1.935,12.95-2.2V961Zm0-6.937a61.951,61.951,0,0,0-6.174.511,26.8,26.8,0,0,1-1.63-8.574h7.8v8.063Zm1.956-11.712A3.475,3.475,0,0,0,709.908,944h-8.147a26.916,26.916,0,0,1,1.608-8.574,65.377,65.377,0,0,0,8.152.56v6.365Zm0-8.365a64.457,64.457,0,0,1-7.348-.472,22.173,22.173,0,0,1,7.348-8.755v9.227Zm18.1,22.641a26.26,26.26,0,0,0-6.044-1.739A28.886,28.886,0,0,0,725.183,946h7.832A21.135,21.135,0,0,1,729.619,956.626ZM729.6,933.385A21.177,21.177,0,0,1,732.994,944h-7.8a29.129,29.129,0,0,0-1.592-8.888A26.284,26.284,0,0,0,729.6,933.385Zm-1.2-1.66a26.955,26.955,0,0,1-5.551,1.485,24.525,24.525,0,0,0-6.631-8.848A20.46,20.46,0,0,1,728.4,931.725Zm-14.924-6.948a22.765,22.765,0,0,1,7.31,8.742,64.513,64.513,0,0,1-7.31.466v-9.208ZM716.07,944a3.424,3.424,0,0,0-2.592-1.95v-6.064a65.457,65.457,0,0,0,8.124-.556,26.6,26.6,0,0,1,1.636,8.57H716.07Zm3.135,15.274a3.337,3.337,0,0,0-2.792.064v-3.23c1.631,0.085,3.094.214,4.385,0.377A23.093,23.093,0,0,1,719.205,959.274Zm-2.792-5.168V946h6.814a26.678,26.678,0,0,1-1.62,8.577C720.1,954.368,718.374,954.205,716.413,954.106Zm9.432,6.86A3.417,3.417,0,0,0,722.772,959a3.309,3.309,0,0,0-1.212.239,25.678,25.678,0,0,0,1.252-2.451,27.211,27.211,0,0,1,5.609,1.5A21.041,21.041,0,0,1,725.845,960.966Z" transform="translate(-690 -920)"/>
</svg>
