<svg xmlns="http://www.w3.org/2000/svg" xmlns:xlink="http://www.w3.org/1999/xlink" width="74" height="72" viewBox="0 0 74 72">
  <metadata><?xpacket begin="﻿" id="W5M0MpCehiHzreSzNTczkc9d"?>
<x:xmpmeta xmlns:x="adobe:ns:meta/" x:xmptk="Adobe XMP Core 5.6-c138 79.159824, 2016/09/14-01:09:01        ">
   <rdf:RDF xmlns:rdf="http://www.w3.org/1999/02/22-rdf-syntax-ns#">
      <rdf:Description rdf:about=""/>
   </rdf:RDF>
</x:xmpmeta>
                                                                                                    
                                                                                                    
                                                                                                    
                                                                                                    
                                                                                                    
                                                                                                    
                                                                                                    
                                                                                                    
                                                                                                    
                                                                                                    
                                                                                                    
                                                                                                    
                                                                                                    
                                                                                                    
                                                                                                    
                                                                                                    
                                                                                                    
                                                                                                    
                                                                                                    
                                                                                                    
                           
<?xpacket end="w"?></metadata>
<defs>
    <style>
      .cls-1 {
        fill: #0059a9;
        fill-rule: evenodd;
        filter: url(#filter);
      }
    </style>
    <filter id="filter" x="1424" y="1162" width="74" height="72" filterUnits="userSpaceOnUse">
      <feOffset result="offset" dx="3.995" dy="-0.209" in="SourceAlpha"/>
      <feGaussianBlur result="blur" stdDeviation="1.732"/>
      <feFlood result="flood" flood-opacity="0.15"/>
      <feComposite result="composite" operator="in" in2="blur"/>
      <feBlend result="blend" in="SourceGraphic"/>
    </filter>
  </defs>
  <path class="cls-1" d="M1485.6,1174.79h-4.9a4.437,4.437,0,0,0-2-1.9l-16.62-7.88a10.865,10.865,0,0,0-9.16,0l-16.62,7.88a4.386,4.386,0,0,0-2,1.9h-4.9a5.4,5.4,0,0,0-5.4,5.4v38.92a5.4,5.4,0,0,0,5.4,5.4h14.05v4.33h-4.32V1231h36.74v-2.16h-4.32v-4.33h14.05a5.4,5.4,0,0,0,5.4-5.4v-38.92A5.4,5.4,0,0,0,1485.6,1174.79Zm-48.38.05,16.63-7.88a8.533,8.533,0,0,1,7.3,0l16.63,7.88a2.339,2.339,0,0,1,0,4.22l-16.63,7.88a8.7,8.7,0,0,1-7.3,0l-16.63-7.88A2.339,2.339,0,0,1,1437.22,1174.84Zm23.93,22.91a8.7,8.7,0,0,1-7.3,0l-16.63-7.88a2.339,2.339,0,0,1,0-4.22l4.43-2.1,11.27,5.34a10.7,10.7,0,0,0,9.16,0l11.27-5.34,4.43,2.1a2.339,2.339,0,0,1,0,4.22Zm12.2-3.39,4.43,2.1a2.339,2.339,0,0,1,0,4.22l-16.63,7.88a8.7,8.7,0,0,1-7.3,0l-16.63-7.88a2.339,2.339,0,0,1,0-4.22l4.43-2.1,11.27,5.34a10.7,10.7,0,0,0,9.16,0Zm-3.96,34.48h-23.78v-4.33h23.78v4.33Zm19.45-9.73a3.246,3.246,0,0,1-3.24,3.24h-56.2a3.246,3.246,0,0,1-3.24-3.24v-1.08h62.68v1.08Zm0-3.24h-62.68v-35.68a3.252,3.252,0,0,1,3.24-3.24h4.33a4.512,4.512,0,0,0,2.57,4.06l2.83,1.35-2.83,1.34a4.492,4.492,0,0,0,0,8.12l2.83,1.34-2.83,1.35a4.492,4.492,0,0,0,0,8.12l16.62,7.88a10.7,10.7,0,0,0,9.16,0l16.62-7.88a4.492,4.492,0,0,0,0-8.12l-2.83-1.35,2.83-1.34a4.492,4.492,0,0,0,0-8.12l-2.83-1.34,2.83-1.35a4.512,4.512,0,0,0,2.57-4.06h4.33a3.252,3.252,0,0,1,3.24,3.24v35.68h0Zm-31.34-34.6c2.98,0,5.4-1.93,5.4-4.32s-2.42-4.32-5.4-4.32-5.4,1.94-5.4,4.32S1454.52,1181.27,1457.5,1181.27Zm0-6.48c1.76,0,3.24.99,3.24,2.16s-1.48,2.16-3.24,2.16-3.24-.99-3.24-2.16S1455.74,1174.79,1457.5,1174.79Zm7.56,1.08h2.17v2.16h-2.17v-2.16Zm4.33,0h2.16v2.16h-2.16v-2.16Zm-21.62,0h2.17v2.16h-2.17v-2.16Zm-4.32,0h2.16v2.16h-2.16v-2.16Z" transform="translate(-1424 -1162)"/>
</svg>
