<svg xmlns="http://www.w3.org/2000/svg" xmlns:xlink="http://www.w3.org/1999/xlink" width="69" height="67" viewBox="0 0 69 67">
  <metadata><?xpacket begin="﻿" id="W5M0MpCehiHzreSzNTczkc9d"?>
<x:xmpmeta xmlns:x="adobe:ns:meta/" x:xmptk="Adobe XMP Core 5.6-c138 79.159824, 2016/09/14-01:09:01        ">
   <rdf:RDF xmlns:rdf="http://www.w3.org/1999/02/22-rdf-syntax-ns#">
      <rdf:Description rdf:about=""/>
   </rdf:RDF>
</x:xmpmeta>
                                                                                                    
                                                                                                    
                                                                                                    
                                                                                                    
                                                                                                    
                                                                                                    
                                                                                                    
                                                                                                    
                                                                                                    
                                                                                                    
                                                                                                    
                                                                                                    
                                                                                                    
                                                                                                    
                                                                                                    
                                                                                                    
                                                                                                    
                                                                                                    
                                                                                                    
                                                                                                    
                           
<?xpacket end="w"?></metadata>
<defs>
    <style>
      .cls-1 {
        fill: #0059a9;
        fill-rule: evenodd;
        filter: url(#filter);
      }
    </style>
    <filter id="filter" x="452" y="912" width="69" height="67" filterUnits="userSpaceOnUse">
      <feOffset result="offset" dx="3.995" dy="-0.209" in="SourceAlpha"/>
      <feGaussianBlur result="blur" stdDeviation="1.732"/>
      <feFlood result="flood" flood-opacity="0.15"/>
      <feComposite result="composite" operator="in" in2="blur"/>
      <feBlend result="blend" in="SourceGraphic"/>
    </filter>
  </defs>
  <path class="cls-1" d="M511,914H472a3,3,0,0,0-3,3v15.6a21.925,21.925,0,1,0,7.294-.483l2.12-2.12H511a3,3,0,0,0,3-3V917A3,3,0,0,0,511,914Zm-42,20.658v1.464a27.722,27.722,0,0,0-4.774,7.3,11.966,11.966,0,0,1-4.775-3.114A19.9,19.9,0,0,1,469,934.657ZM473,953h-8.97a23.9,23.9,0,0,1,1.342-7.071A30.626,30.626,0,0,0,473,946.985V953ZM458.14,941.856a13.981,13.981,0,0,0,5.331,3.44,25.862,25.862,0,0,0-1.441,7.7h-7.986A19.936,19.936,0,0,1,458.14,941.856Zm0,24.283A19.863,19.863,0,0,1,454.051,955h7.973a25.954,25.954,0,0,0,1.442,7.7A13.98,13.98,0,0,0,458.143,966.139Zm1.314,1.547a11.954,11.954,0,0,1,4.752-3.1,27.787,27.787,0,0,0,6.589,9.133A19.949,19.949,0,0,1,459.457,967.686ZM473,972.973a26.44,26.44,0,0,1-6.851-9.026,28.8,28.8,0,0,1,6.851-.92v9.946Zm0-11.959a30.7,30.7,0,0,0-7.613,1.052A23.776,23.776,0,0,1,464.024,955H473v6.015Zm0-16.043a28.816,28.816,0,0,1-6.863-.923A25.18,25.18,0,0,1,469,939.256v0.157l4-4v9.558Zm2,28v-9.94a28.824,28.824,0,0,1,6.844.918A26.583,26.583,0,0,1,475,972.967ZM483.976,955a23.678,23.678,0,0,1-1.368,7.065,30.621,30.621,0,0,0-7.608-1.05V955h8.976ZM475,953v-6.015a30.7,30.7,0,0,0,7.613-1.052A23.776,23.776,0,0,1,483.976,953H475Zm2.2,20.719a27.8,27.8,0,0,0,6.589-9.133,11.973,11.973,0,0,1,4.752,3.1A19.949,19.949,0,0,1,477.2,973.718Zm12.655-7.579a13.98,13.98,0,0,0-5.323-3.436,26,26,0,0,0,1.442-7.7h7.973A19.863,19.863,0,0,1,489.857,966.139Zm0-24.28A19.863,19.863,0,0,1,493.949,953h-7.973a25.954,25.954,0,0,0-1.442-7.7A13.98,13.98,0,0,0,489.857,941.859Zm-1.314-1.547a11.954,11.954,0,0,1-4.752,3.1,27.787,27.787,0,0,0-6.589-9.133A19.949,19.949,0,0,1,488.543,940.312Zm-6.692,3.739a28.8,28.8,0,0,1-6.851.92v-9.946A26.44,26.44,0,0,1,481.851,944.051ZM512,927a1,1,0,0,1-1,1H477.586L471,934.585V917a1,1,0,0,1,1-1h39a1,1,0,0,1,1,1v10Zm-30-8.162-1.383,4.148-0.8-3.986h-2.638l-0.8,3.986L475,918.837V918h-2v1.162L475.279,926h2.54l0.681-3.4,0.681,3.4h2.54L484,919.161V918h-2v0.838Zm13,0-1.383,4.148-0.8-3.986h-2.638l-0.8,3.986L488,918.837V918h-2v1.162L488.279,926h2.54l0.681-3.4,0.681,3.4h2.54L497,919.161V918h-2v0.838Zm13,0-1.383,4.148-0.8-3.986h-2.638l-0.8,3.986L501,918.837V918h-2v1.162L501.279,926h2.54l0.681-3.4,0.681,3.4h2.54L510,919.161V918h-2v0.838ZM477,949h2v2h-2v-2Zm-8,8h2v2h-2v-2Z" transform="translate(-452 -912)"/>
</svg>
