<svg xmlns="http://www.w3.org/2000/svg" xmlns:xlink="http://www.w3.org/1999/xlink" width="75" height="73" viewBox="0 0 75 73">
  <metadata><?xpacket begin="﻿" id="W5M0MpCehiHzreSzNTczkc9d"?>
<x:xmpmeta xmlns:x="adobe:ns:meta/" x:xmptk="Adobe XMP Core 5.6-c138 79.159824, 2016/09/14-01:09:01        ">
   <rdf:RDF xmlns:rdf="http://www.w3.org/1999/02/22-rdf-syntax-ns#">
      <rdf:Description rdf:about=""/>
   </rdf:RDF>
</x:xmpmeta>
                                                                                                    
                                                                                                    
                                                                                                    
                                                                                                    
                                                                                                    
                                                                                                    
                                                                                                    
                                                                                                    
                                                                                                    
                                                                                                    
                                                                                                    
                                                                                                    
                                                                                                    
                                                                                                    
                                                                                                    
                                                                                                    
                                                                                                    
                                                                                                    
                                                                                                    
                                                                                                    
                           
<?xpacket end="w"?></metadata>
<defs>
    <style>
      .cls-1 {
        fill: #0059a9;
        fill-rule: evenodd;
        filter: url(#filter);
      }
    </style>
    <filter id="filter" x="924" y="1159" width="75" height="73" filterUnits="userSpaceOnUse">
      <feOffset result="offset" dx="3.995" dy="-0.209" in="SourceAlpha"/>
      <feGaussianBlur result="blur" stdDeviation="1.732"/>
      <feFlood result="flood" flood-opacity="0.15"/>
      <feComposite result="composite" operator="in" in2="blur"/>
      <feBlend result="blend" in="SourceGraphic"/>
    </filter>
  </defs>
  <path class="cls-1" d="M986.516,1171.97h-3.29V1161H932.774v10.97h-3.29a5.489,5.489,0,0,0-5.484,5.48v39.48a5.491,5.491,0,0,0,5.484,5.49h14.258v4.39h-4.387V1229h37.29v-2.19h-4.387v-4.39h14.258a5.491,5.491,0,0,0,5.484-5.49v-39.48A5.489,5.489,0,0,0,986.516,1171.97Zm-51.548-8.78h46.064v39.49H934.968v-39.49Zm48.258,41.68v-26.32h2.193v30.71H930.581v-30.71h2.193v26.32h50.452Zm-13.161,21.94h-24.13v-4.39h24.13v4.39Zm19.741-9.88a3.29,3.29,0,0,1-3.29,3.29H929.484a3.291,3.291,0,0,1-3.291-3.29v-1.09h63.613v1.09Zm0-3.29H926.193v-36.19a3.3,3.3,0,0,1,3.291-3.29h3.29v2.19h-4.387v35.1h59.226v-35.1h-4.387v-2.19h3.29a3.3,3.3,0,0,1,3.29,3.29v36.19Zm-14.258-46.06a3.3,3.3,0,0,0-3.29,3.29,3.244,3.244,0,0,0,.375,1.49l-6.725,7.57a3.278,3.278,0,0,0-1.328-.29,3.226,3.226,0,0,0-2.164.84l-7.728-1.72c0-.07.022-0.14,0.022-0.21a3.291,3.291,0,0,0-6.581,0,3.219,3.219,0,0,0,.278,1.31l-6.452,5.65a3.193,3.193,0,0,0-1.5-.38,3.3,3.3,0,1,0,3.012,1.97l6.453-5.64a3.311,3.311,0,0,0,1.5.38,3.275,3.275,0,0,0,2.378-1.03l7.538,1.67a3.429,3.429,0,0,0-.045.45,3.291,3.291,0,0,0,6.581,0,3.244,3.244,0,0,0-.375-1.49l6.725-7.56A3.29,3.29,0,1,0,975.548,1167.58Zm-35.1,21.94a1.1,1.1,0,1,1,1.1-1.1A1.1,1.1,0,0,1,940.451,1189.52Zm10.968-9.88a1.1,1.1,0,1,1,1.1-1.09A1.1,1.1,0,0,1,951.419,1179.64Zm13.161,4.39a1.1,1.1,0,1,1,1.1-1.1A1.1,1.1,0,0,1,964.58,1184.03Zm10.968-12.06a1.1,1.1,0,1,1,1.1-1.1A1.1,1.1,0,0,1,975.548,1171.97Zm-36.193,21.93h2.193v2.2h-2.193v-2.2Zm10.968-9.87h2.193v12.07h-2.193v-12.07Zm13.161,4.39h2.193v7.68h-2.193v-7.68Zm10.967-12.07h2.194v19.75h-2.194v-19.75Zm0,21.94h2.194v2.19h-2.194v-2.19Zm-35.1,0h2.193v2.19h-2.193v-2.19Zm10.968,0h2.193v2.19h-2.193v-2.19Zm13.161,0h2.193v2.19h-2.193v-2.19Z" transform="translate(-924 -1159)"/>
</svg>
