<svg xmlns="http://www.w3.org/2000/svg" xmlns:xlink="http://www.w3.org/1999/xlink" width="64" height="62" viewBox="0 0 64 62">
  <metadata><?xpacket begin="﻿" id="W5M0MpCehiHzreSzNTczkc9d"?>
<x:xmpmeta xmlns:x="adobe:ns:meta/" x:xmptk="Adobe XMP Core 5.6-c138 79.159824, 2016/09/14-01:09:01        ">
   <rdf:RDF xmlns:rdf="http://www.w3.org/1999/02/22-rdf-syntax-ns#">
      <rdf:Description rdf:about=""/>
   </rdf:RDF>
</x:xmpmeta>
                                                                                                    
                                                                                                    
                                                                                                    
                                                                                                    
                                                                                                    
                                                                                                    
                                                                                                    
                                                                                                    
                                                                                                    
                                                                                                    
                                                                                                    
                                                                                                    
                                                                                                    
                                                                                                    
                                                                                                    
                                                                                                    
                                                                                                    
                                                                                                    
                                                                                                    
                                                                                                    
                           
<?xpacket end="w"?></metadata>
<defs>
    <style>
      .cls-1 {
        fill: #0059a9;
        fill-rule: evenodd;
        filter: url(#filter);
      }
    </style>
    <filter id="filter" x="446" y="1165" width="64" height="62" filterUnits="userSpaceOnUse">
      <feOffset result="offset" dx="3.995" dy="-0.209" in="SourceAlpha"/>
      <feGaussianBlur result="blur" stdDeviation="1.732"/>
      <feFlood result="flood" flood-opacity="0.15"/>
      <feComposite result="composite" operator="in" in2="blur"/>
      <feBlend result="blend" in="SourceGraphic"/>
    </filter>
  </defs>
  <path class="cls-1" d="M446,1167v57h57v-57H446Zm55.161,55.16H447.839v-45.97h53.322v45.97Zm0-47.81H447.839v-5.51h53.322v5.51Zm-51.484-3.67h1.839v1.84h-1.839v-1.84Zm3.678,0h1.838v1.84h-1.838v-1.84Zm3.677,0h1.839v1.84h-1.839v-1.84Zm42.29,7.35H449.677v31.26h49.645v-31.26Zm-1.838,29.42H451.516v-27.58h45.968v27.58Zm-22.984-1.84a11.95,11.95,0,1,0-11.952-11.95A11.963,11.963,0,0,0,474.5,1205.61Zm0-22.06a10.11,10.11,0,1,1-10.113,10.11A10.12,10.12,0,0,1,474.5,1183.55Zm-5.516,3.16v13.9l15.065-6.95Zm1.838,2.87,8.838,4.08-8.838,4.08v-8.16Zm-21.145,21.55h23.9v1.84h-23.9v-1.84Zm25.742,0h23.9v1.84h-23.9v-1.84Zm-25.742,3.68h23.9v1.83h-23.9v-1.83Zm25.742,0h23.9v1.83h-23.9v-1.83Zm-25.742,3.67h23.9v1.84h-23.9v-1.84Zm25.742,0h23.9v1.84h-23.9v-1.84Zm12.871-25.74h1.839v1.84H488.29v-1.84Zm3.678,0h1.838v1.84h-1.838v-1.84Zm-33.1,0h1.839v1.84h-1.839v-1.84Zm-3.678,0h1.839v1.84h-1.839v-1.84Z" transform="translate(-446 -1165)"/>
</svg>
