<?xml version="1.0" encoding="UTF-8"?>
<svg width="43px" height="34px" viewBox="0 0 43 34" version="1.1" xmlns="http://www.w3.org/2000/svg" xmlns:xlink="http://www.w3.org/1999/xlink">
    <!-- Generator: Sketch 43.2 (39069) - http://www.bohemiancoding.com/sketch -->
    <title>“</title>
    <desc>Created with Sketch.</desc>
    <defs></defs>
    <g id="Blocks" stroke="none" stroke-width="1" fill="none" fill-rule="evenodd">
        <g id="04_13_Blocks_Quotes" transform="translate(-839.000000, -3687.000000)" fill="#000000">
            <g id="04_LARGE-QUOTE-FORMAT" transform="translate(280.000000, 2246.000000)">
                <g id="Metrics" transform="translate(1.000000, 1254.000000)">
                    <g id="04_Quote" transform="translate(200.000000, 187.000000)">
                        <path d="M377.287472,26.2726277 C377.287472,28.3332706 376.461791,30.1363061 374.810403,31.6817883 C373.159015,33.2272705 371.211048,34 368.966443,34 C365.439207,34 362.729689,32.8248072 360.837808,30.4743864 C358.945926,28.1239655 358,24.8720622 358,20.7185788 C358,16.8548733 359.627314,12.9590287 362.881991,9.03092812 C366.136668,5.10282754 370.056651,2.12459923 374.642058,0.0961538462 L376.758389,3.52517532 C373.134956,5.29604034 370.297177,7.35665236 368.244966,9.7070732 C366.192756,12.057494 365.00634,14.9069341 364.685682,18.2554789 L367.379195,18.2554789 C369.367273,18.2554789 370.986571,18.4808583 372.237136,18.9316239 C373.487702,19.3823896 374.497759,20.0102323 375.267338,20.8151709 C376.004851,21.587912 376.525912,22.4411342 376.830537,23.374863 C377.135162,24.3085919 377.287472,25.2745037 377.287472,26.2726277 Z M401,26.2726277 C401,28.3332706 400.174318,30.1363061 398.522931,31.6817883 C396.871543,33.2272705 394.923576,34 392.678971,34 C389.151735,34 386.442217,32.8248072 384.550336,30.4743864 C382.658454,28.1239655 381.712528,24.8720622 381.712528,20.7185788 C381.712528,16.8548733 383.339842,12.9590287 386.594519,9.03092812 C389.849196,5.10282754 393.769179,2.12459923 398.354586,0.0961538462 L400.470917,3.52517532 C396.847484,5.29604034 394.009705,7.35665236 391.957494,9.7070732 C389.905284,12.057494 388.718868,14.9069341 388.39821,18.2554789 L391.091723,18.2554789 C393.079801,18.2554789 394.699099,18.4808583 395.949664,18.9316239 C397.20023,19.3823896 398.210287,20.0102323 398.979866,20.8151709 C399.717379,21.587912 400.23844,22.4411342 400.543065,23.374863 C400.84769,24.3085919 401,25.2745037 401,26.2726277 Z" id="“"></path>
                    </g>
                </g>
            </g>
        </g>
    </g>
</svg>