<?xml version="1.0" standalone="no"?>
<!DOCTYPE svg PUBLIC "-//W3C//DTD SVG 1.1//EN" "http://www.w3.org/Graphics/SVG/1.1/DTD/svg11.dtd" >
<svg xmlns="http://www.w3.org/2000/svg" xmlns:xlink="http://www.w3.org/1999/xlink" version="1.1">
<metadata>
Created by FontForge 20161116 at Tue Feb  7 14:44:00 2017
 By Jimmy Warting
Copyright (c) 2010 by Dassault Systmes Company. All rights reserved.
</metadata>
<defs>
<font id="3ds-CondensedLight" horiz-adv-x="504" >
  <font-face 
    font-family="3ds Condensed Light"
    font-weight="300"
    font-stretch="condensed"
    units-per-em="1000"
    panose-1="2 0 5 3 2 0 0 2 0 4"
    ascent="800"
    descent="-200"
    x-height="479"
    cap-height="665"
    bbox="-20 -232 1088 1017"
    underline-thickness="50"
    underline-position="-100"
    unicode-range="U+000D-FB02"
  />
<missing-glyph horiz-adv-x="518" 
d="M422 665v-665h-325v665h325zM157 53h205v559h-205v-559z" />
    <glyph glyph-name="fi" unicode="fi" horiz-adv-x="467" 
d="M101 479v91q0 79 40.5 121.5t111.5 42.5q36 0 68 -6.5t51 -12.5l-8 -50q-21 7 -51 13t-58 6q-46 0 -71.5 -26.5t-25.5 -87.5v-91h226v-479h-58v434h-168v-434h-57v434h-65v45h65z" />
    <glyph glyph-name="fl" unicode="fl" horiz-adv-x="467" 
d="M101 479v91q0 44 12 75t33 51t49.5 29t61.5 9q31 0 65 -7t62 -15v-712h-57v675q-16 4 -33.5 6.5t-33.5 2.5q-22 0 -40.5 -5t-32 -17.5t-21.5 -35t-8 -56.5v-91h113v-45h-113v-434h-57v434h-65v45h65z" />
    <glyph glyph-name=".notdef" horiz-adv-x="518" 
d="M422 665v-665h-325v665h325zM157 53h205v559h-205v-559z" />
    <glyph glyph-name=".null" horiz-adv-x="0" 
 />
    <glyph glyph-name=".null" horiz-adv-x="0" 
 />
    <glyph glyph-name="nonmarkingreturn" unicode="&#xd;" horiz-adv-x="204" 
 />
    <glyph glyph-name="space" unicode=" " horiz-adv-x="204" 
 />
    <glyph glyph-name="A" unicode="A" horiz-adv-x="566" 
d="M144 0h-60v432q0 52 10 97t33.5 77t61.5 50.5t94 18.5q57 0 95 -18.5t61.5 -50.5t33 -77t9.5 -97v-432h-60v264h-278v-264zM422 317v114q0 40 -6 75t-21.5 60.5t-42.5 40.5t-69 15t-69 -15t-42.5 -40.5t-21.5 -60.5t-6 -75v-114h278z" />
    <glyph glyph-name="B" unicode="B" horiz-adv-x="518" 
d="M261 665q87 0 134 -39.5t47 -131.5q0 -66 -25.5 -102t-58.5 -52q19 -6 36.5 -18t31.5 -32t22.5 -48t8.5 -65q0 -41 -11 -75.5t-34.5 -59.5t-60.5 -38.5t-89 -13.5q-48 0 -86 7t-82 20v648h167zM154 59q26 -7 52 -10.5t59 -3.5q73 0 101.5 33.5t28.5 96.5q0 67 -28.5 100
t-101.5 33h-111v-249zM154 361h110q54 0 84.5 33.5t30.5 99.5q0 63 -27.5 90.5t-90.5 27.5h-107v-251z" />
    <glyph glyph-name="C" unicode="C" horiz-adv-x="482" 
d="M60 331q0 101 16.5 167.5t46.5 105.5t73.5 55t97.5 16q35 0 70 -4.5t67 -12.5l-6 -53q-32 8 -67 12.5t-65 4.5q-41 0 -73 -12.5t-53.5 -45t-33 -89t-11.5 -143.5q0 -86 11.5 -142t32.5 -89t52 -46t70 -13q30 0 67 6t75 15l4 -52q-36 -11 -75 -16t-71 -5q-52 0 -94 16.5
t-72 56t-46 105t-16 163.5z" />
    <glyph glyph-name="D" unicode="D" horiz-adv-x="563" 
d="M264 665q115 0 177 -78.5t62 -250.5q0 -173 -57.5 -259.5t-179.5 -86.5q-85 0 -169 26v649h167zM157 55q24 -6 52 -9.5t57 -3.5q42 0 74.5 16.5t55 52t34.5 91.5t12 135q0 147 -47 211t-131 64h-107v-557z" />
    <glyph glyph-name="E" unicode="E" horiz-adv-x="467" 
d="M403 665v-53h-251v-242h222v-53h-222v-180q0 -45 18.5 -64.5t50.5 -19.5h194v-53h-194q-60 0 -94.5 35.5t-34.5 101.5v528h311z" />
    <glyph glyph-name="F" unicode="F" horiz-adv-x="460" 
d="M408 665v-53h-251v-247h221v-53h-221v-312h-60v665h311z" />
    <glyph glyph-name="G" unicode="G" horiz-adv-x="558" 
d="M465 601q-31 8 -74 14.5t-95 6.5q-44 0 -77 -15.5t-54.5 -50t-32 -89t-10.5 -132.5q0 -84 11 -140.5t33 -90t54.5 -48t75.5 -14.5q34 0 71 4.5t60 10.5v255h-133v53h194v-346q-44 -14 -95.5 -21.5t-98.5 -7.5q-55 0 -98.5 17.5t-73.5 58t-46 107t-16 164.5
q0 178 58.5 258t177.5 80q58 0 102 -6.5t73 -12.5z" />
    <glyph glyph-name="H" unicode="H" horiz-adv-x="618" 
d="M157 665v-295h305v295h60v-665h-60v317h-305v-317h-60v665h60z" />
    <glyph glyph-name="I" unicode="I" horiz-adv-x="254" 
d="M157 665v-665h-60v665h60z" />
    <glyph glyph-name="J" unicode="J" horiz-adv-x="253" 
d="M157 665v-607q0 -36 -7.5 -66.5t-23.5 -60t-42 -60.5t-62 -68l-36 43q30 32 51 57.5t34.5 49.5t19.5 49t6 56v607h60z" />
    <glyph glyph-name="K" unicode="K" horiz-adv-x="494" 
d="M157 665v-361l259 361h66l-215 -298q58 -20 94.5 -69t59.5 -114l65 -184h-66l-58 165q-20 57 -52 99.5t-75 54.5l-78 -100v-219h-60v665h60z" />
    <glyph glyph-name="L" unicode="L" horiz-adv-x="426" 
d="M157 665v-612h245v-53h-305v665h60z" />
    <glyph glyph-name="M" unicode="M" horiz-adv-x="723" 
d="M333 215l-178 354v-569h-58v665h72l193 -384l192 384h72v-665h-58v569l-177 -354h-58z" />
    <glyph glyph-name="N" unicode="N" horiz-adv-x="623" 
d="M149 665l319 -417v417h58v-665h-58v160l-313 408v-568h-58v665h52z" />
    <glyph glyph-name="O" unicode="O" horiz-adv-x="567" 
d="M284 675q53 0 94.5 -18.5t70 -59t43.5 -106t15 -159.5q0 -93 -15 -158.5t-43.5 -106t-70 -59t-94.5 -18.5t-95 18.5t-70.5 59t-43.5 106t-15 158.5q0 94 15 159.5t43.5 106t70.5 59t95 18.5zM284 622q-39 0 -69.5 -15t-51 -49t-31 -89.5t-10.5 -136.5t10.5 -136.5
t31 -89.5t51 -49t69.5 -15t69 15t50.5 49t31 89.5t10.5 136.5t-10.5 136.5t-31 89.5t-50.5 49t-69 15z" />
    <glyph glyph-name="P" unicode="P" horiz-adv-x="523" 
d="M268 665q48 0 85.5 -10t62.5 -34t38 -63.5t13 -97.5q0 -113 -52.5 -161.5t-151.5 -48.5q-25 0 -51 3t-55 8v-261h-60v665h171zM157 313q29 -6 55.5 -8.5t51.5 -2.5q79 0 110 40t31 118q0 43 -8 72t-24.5 47t-42.5 25.5t-62 7.5h-111v-299z" />
    <glyph glyph-name="Q" unicode="Q" horiz-adv-x="567" 
d="M241 -69q29 0 62.5 -9.5t65.5 -20.5q26 -9 49 -16t35 -7q20 0 35.5 9t33.5 30l31 -41q-18 -25 -41 -38.5t-58 -13.5q-21 0 -49.5 8.5t-58.5 19.5q-29 11 -56.5 19t-48.5 8v52zM284 675q53 0 94.5 -18.5t70 -59t43.5 -106t15 -159.5q0 -93 -15 -158.5t-43.5 -106t-70 -59
t-94.5 -18.5t-95 18.5t-70.5 59t-43.5 106t-15 158.5q0 94 15 159.5t43.5 106t70.5 59t95 18.5zM284 622q-39 0 -69.5 -15t-51 -49t-31 -89.5t-10.5 -136.5t10.5 -136.5t31 -89.5t51 -49t69.5 -15t69 15t50.5 49t31 89.5t10.5 136.5t-10.5 136.5t-31 89.5t-50.5 49t-69 15z
" />
    <glyph glyph-name="R" unicode="R" horiz-adv-x="538" 
d="M268 665q48 0 85.5 -9.5t62.5 -32.5t38 -61.5t13 -96.5q0 -81 -30.5 -124t-84.5 -63q28 -20 43.5 -47.5t29.5 -69.5l53 -161h-63l-49 148q-8 25 -17.5 46t-21.5 36t-27.5 23t-36.5 8q-25 0 -51 3t-55 8v-272h-60v665h171zM157 324q29 -6 55.5 -8.5t51.5 -2.5q79 0 110 37
t31 115q0 43 -8 71.5t-24.5 45t-42.5 23.5t-62 7h-111v-288z" />
    <glyph glyph-name="S" unicode="S" horiz-adv-x="469" 
d="M379 605q-14 4 -31 7t-34.5 5.5t-34 3.5t-29.5 1q-24 0 -45.5 -2.5t-37.5 -11t-25.5 -25t-9.5 -44.5q0 -32 20.5 -62t50.5 -59.5t66 -60.5t66 -64.5t50.5 -71t20.5 -80.5t-13 -72t-36.5 -46.5t-55 -25t-67.5 -7.5q-49 0 -95.5 11t-77.5 25l10 52q31 -14 75.5 -25
t89.5 -11q48 0 78 20t30 70q0 37 -20.5 70.5t-51 65.5t-66.5 63t-66.5 63.5t-51 66.5t-20.5 73q0 41 15 68.5t40 43.5t57.5 22.5t67.5 6.5t73 -5t64 -12z" />
    <glyph glyph-name="T" unicode="T" horiz-adv-x="471" 
d="M451 665v-53h-185v-612h-60v612h-186v53h431z" />
    <glyph glyph-name="U" unicode="U" horiz-adv-x="581" 
d="M148 665v-431q0 -40 7.5 -75t25 -60.5t45.5 -40t70 -14.5t77 7t61 15v599h59v-633q-35 -14 -82 -28t-115 -14q-56 0 -95.5 18.5t-64.5 50.5t-36.5 76.5t-11.5 97.5v432h60z" />
    <glyph glyph-name="V" unicode="V" horiz-adv-x="476" 
d="M246 68q27 75 52 153t47 155t40 150t30 139h57q-38 -183 -88.5 -348.5t-112.5 -316.5h-61l-206 665h63z" />
    <glyph glyph-name="W" unicode="W" horiz-adv-x="732" 
d="M504 0l-140 450l-138 -450h-70l-142 665h61l118 -599l140 462h64l143 -461q20 71 38.5 147t34 152.5t29 152t23.5 146.5h53q-11 -84 -26.5 -173.5t-35 -177t-41.5 -168t-45 -146.5h-66z" />
    <glyph glyph-name="X" unicode="X" horiz-adv-x="467" 
d="M94 665l144 -267l148 267h63l-180 -324l184 -341h-66l-155 286l-155 -286h-63l188 343l-174 322h66z" />
    <glyph glyph-name="Y" unicode="Y" horiz-adv-x="457" 
d="M200 223l-195 442h65l166 -380q60 96 100.5 195.5t62.5 184.5h58q-35 -121 -83 -231t-114 -204v-230h-60v223z" />
    <glyph glyph-name="Z" unicode="Z" horiz-adv-x="502" 
d="M449 665v-45l-329 -567h336v-53h-410v43l333 569h-322v53h392z" />
    <glyph glyph-name="Agrave" unicode="&#xc0;" horiz-adv-x="566" 
d="M144 0h-60v432q0 52 10 97t33.5 77t61.5 50.5t94 18.5q57 0 95 -18.5t61.5 -50.5t33 -77t9.5 -97v-432h-60v264h-278v-264zM422 317v114q0 40 -6 75t-21.5 60.5t-42.5 40.5t-69 15t-69 -15t-42.5 -40.5t-21.5 -60.5t-6 -75v-114h278zM239 916l71 -161h-57l-81 161h67z
" />
    <glyph glyph-name="Aacute" unicode="&#xc1;" horiz-adv-x="566" 
d="M144 0h-60v432q0 52 10 97t33.5 77t61.5 50.5t94 18.5q57 0 95 -18.5t61.5 -50.5t33 -77t9.5 -97v-432h-60v264h-278v-264zM422 317v114q0 40 -6 75t-21.5 60.5t-42.5 40.5t-69 15t-69 -15t-42.5 -40.5t-21.5 -60.5t-6 -75v-114h278zM390 916l-81 -161h-56l71 161h66z
" />
    <glyph glyph-name="Acircumflex" unicode="&#xc2;" horiz-adv-x="566" 
d="M144 0h-60v432q0 52 10 97t33.5 77t61.5 50.5t94 18.5q57 0 95 -18.5t61.5 -50.5t33 -77t9.5 -97v-432h-60v264h-278v-264zM422 317v114q0 40 -6 75t-21.5 60.5t-42.5 40.5t-69 15t-69 -15t-42.5 -40.5t-21.5 -60.5t-6 -75v-114h278zM314 916l76 -161h-57l-50 106
l-50 -106h-57l76 161h62z" />
    <glyph glyph-name="Atilde" unicode="&#xc3;" horiz-adv-x="566" 
d="M144 0h-60v432q0 52 10 97t33.5 77t61.5 50.5t94 18.5q57 0 95 -18.5t61.5 -50.5t33 -77t9.5 -97v-432h-60v264h-278v-264zM422 317v114q0 40 -6 75t-21.5 60.5t-42.5 40.5t-69 15t-69 -15t-42.5 -40.5t-21.5 -60.5t-6 -75v-114h278zM162 807q8 30 24 48.5t48 18.5
q16 0 30.5 -5t27 -11.5t23.5 -11.5t19 -5q10 0 14.5 12t8.5 26l47 -15q-12 -71 -71 -71q-13 0 -27.5 5t-28 11.5t-25 11.5t-18.5 5q-11 0 -16 -10.5t-10 -23.5z" />
    <glyph glyph-name="Adieresis" unicode="&#xc4;" horiz-adv-x="566" 
d="M144 0h-60v432q0 52 10 97t33.5 77t61.5 50.5t94 18.5q57 0 95 -18.5t61.5 -50.5t33 -77t9.5 -97v-432h-60v264h-278v-264zM422 317v114q0 40 -6 75t-21.5 60.5t-42.5 40.5t-69 15t-69 -15t-42.5 -40.5t-21.5 -60.5t-6 -75v-114h278zM214 874q21 0 31 -11t10 -28t-10 -28
t-31 -11q-20 0 -30 11t-10 28t10 28t30 11zM353 874q20 0 30 -11t10 -28t-10 -28t-30 -11t-30.5 11t-10.5 28t10.5 28t30.5 11z" />
    <glyph glyph-name="Amacron" unicode="&#x100;" horiz-adv-x="566" 
d="M144 0h-60v432q0 52 10 97t33.5 77t61.5 50.5t94 18.5q57 0 95 -18.5t61.5 -50.5t33 -77t9.5 -97v-432h-60v264h-278v-264zM422 317v114q0 40 -6 75t-21.5 60.5t-42.5 40.5t-69 15t-69 -15t-42.5 -40.5t-21.5 -60.5t-6 -75v-114h278zM383 860v-50h-200v50h200z" />
    <glyph glyph-name="Abreve" unicode="&#x102;" horiz-adv-x="566" 
d="M144 0h-60v432q0 52 10 97t33.5 77t61.5 50.5t94 18.5q57 0 95 -18.5t61.5 -50.5t33 -77t9.5 -97v-432h-60v264h-278v-264zM422 317v114q0 40 -6 75t-21.5 60.5t-42.5 40.5t-69 15t-69 -15t-42.5 -40.5t-21.5 -60.5t-6 -75v-114h278zM218 897q1 -32 15.5 -53t49.5 -21
t49.5 21t15.5 53h52q0 -62 -34.5 -93t-82.5 -31t-82.5 31t-34.5 93h52z" />
    <glyph glyph-name="Aring" unicode="&#xc5;" horiz-adv-x="566" 
d="M144 0h-60v432q0 52 10 97t33.5 77t61.5 50.5t94 18.5q57 0 95 -18.5t61.5 -50.5t33 -77t9.5 -97v-432h-60v264h-278v-264zM422 317v114q0 40 -6 75t-21.5 60.5t-42.5 40.5t-69 15t-69 -15t-42.5 -40.5t-21.5 -60.5t-6 -75v-114h278zM364 836q0 -37 -21.5 -59t-59.5 -22
t-59 22t-21 59t21 59t59 22t59.5 -22t21.5 -59zM313 836q0 20 -6.5 31t-23.5 11q-30 0 -30 -42t30 -42q17 0 23.5 11t6.5 31z" />
    <glyph glyph-name="Aringacute" unicode="&#x1fa;" horiz-adv-x="566" 
d="M364 836q0 -37 -21 -59t-59 -22t-59.5 22t-21.5 59q0 61 55 77l48 104h66l-62 -104q26 -8 40 -28t14 -49zM314 836q0 42 -30 42q-17 0 -23.5 -11t-6.5 -31t6.5 -31t23.5 -11q30 0 30 42zM144 0h-60v432q0 52 10 97t33.5 77t61.5 50.5t94 18.5q57 0 95 -18.5t61.5 -50.5
t33 -77t9.5 -97v-432h-60v264h-278v-264zM422 317v114q0 40 -6 75t-21.5 60.5t-42.5 40.5t-69 15t-69 -15t-42.5 -40.5t-21.5 -60.5t-6 -75v-114h278z" />
    <glyph glyph-name="Aogonek" unicode="&#x104;" horiz-adv-x="566" 
d="M390 -102q0 36 13.5 62t23.5 40h-5v264h-278v-264h-60v432q0 52 10 97t33.5 77t61.5 50.5t94 18.5q57 0 95 -18.5t61.5 -50.5t33 -77t9.5 -97v-431q-5 -7 -12 -18t-13 -23.5t-10.5 -26t-4.5 -26.5q0 -18 7.5 -24.5t18.5 -6.5q6 0 19.5 3t24.5 8l6 -47q-23 -13 -54 -13
q-29 0 -51.5 16.5t-22.5 54.5zM422 317v114q0 40 -6 75t-21.5 60.5t-42.5 40.5t-69 15t-69 -15t-42.5 -40.5t-21.5 -60.5t-6 -75v-114h278z" />
    <glyph glyph-name="AE" unicode="&#xc6;" horiz-adv-x="797" 
d="M733 665v-53h-251v-242h221v-53h-221v-180q0 -45 19.5 -64.5t49.5 -19.5h194v-53h-194q-60 0 -94.5 35.5t-34.5 101.5v180h-278v-317h-60v432q0 52 10 97t33.5 77t61.5 50.5t94 18.5q53 0 85.5 -16t53.5 -45v51h311zM422 370v61q0 40 -6 75t-21.5 60.5t-42.5 40.5t-69 15
t-69 -15t-42.5 -40.5t-21.5 -60.5t-6 -75v-61h278z" />
    <glyph glyph-name="AEacute" unicode="&#x1fc;" horiz-adv-x="797" 
d="M733 665v-53h-251v-242h221v-53h-221v-180q0 -45 19.5 -64.5t49.5 -19.5h194v-53h-194q-60 0 -94.5 35.5t-34.5 101.5v180h-278v-317h-60v432q0 52 10 97t33.5 77t61.5 50.5t94 18.5q53 0 85.5 -16t53.5 -45v51h311zM422 370v61q0 40 -6 75t-21.5 60.5t-42.5 40.5t-69 15
t-69 -15t-42.5 -40.5t-21.5 -60.5t-6 -75v-61h278zM565 916l-81 -161h-56l71 161h66z" />
    <glyph glyph-name="Cacute" unicode="&#x106;" horiz-adv-x="482" 
d="M60 331q0 101 16.5 167.5t46.5 105.5t73.5 55t97.5 16q35 0 70 -4.5t67 -12.5l-6 -53q-32 8 -67 12.5t-65 4.5q-41 0 -73 -12.5t-53.5 -45t-33 -89t-11.5 -143.5q0 -86 11.5 -142t32.5 -89t52 -46t70 -13q30 0 67 6t75 15l4 -52q-36 -11 -75 -16t-71 -5q-52 0 -94 16.5
t-72 56t-46 105t-16 163.5zM376 916l-81 -161h-56l71 161h66z" />
    <glyph glyph-name="Ccircumflex" unicode="&#x108;" horiz-adv-x="482" 
d="M60 331q0 101 16.5 167.5t46.5 105.5t73.5 55t97.5 16q35 0 70 -4.5t67 -12.5l-6 -53q-32 8 -67 12.5t-65 4.5q-41 0 -73 -12.5t-53.5 -45t-33 -89t-11.5 -143.5q0 -86 11.5 -142t32.5 -89t52 -46t70 -13q30 0 67 6t75 15l4 -52q-36 -11 -75 -16t-71 -5q-52 0 -94 16.5
t-72 56t-46 105t-16 163.5zM297 916l76 -161h-57l-50 106l-50 -106h-57l76 161h62z" />
    <glyph glyph-name="Ccaron" unicode="&#x10c;" horiz-adv-x="482" 
d="M60 331q0 101 16.5 167.5t46.5 105.5t73.5 55t97.5 16q35 0 70 -4.5t67 -12.5l-6 -53q-32 8 -67 12.5t-65 4.5q-41 0 -73 -12.5t-53.5 -45t-33 -89t-11.5 -143.5q0 -86 11.5 -142t32.5 -89t52 -46t70 -13q30 0 67 6t75 15l4 -52q-36 -11 -75 -16t-71 -5q-52 0 -94 16.5
t-72 56t-46 105t-16 163.5zM235 755l-76 161h57l50 -106l50 106h57l-76 -161h-62z" />
    <glyph glyph-name="Cdotaccent" unicode="&#x10a;" horiz-adv-x="482" 
d="M60 331q0 101 16.5 167.5t46.5 105.5t73.5 55t97.5 16q35 0 70 -4.5t67 -12.5l-6 -53q-32 8 -67 12.5t-65 4.5q-41 0 -73 -12.5t-53.5 -45t-33 -89t-11.5 -143.5q0 -86 11.5 -142t32.5 -89t52 -46t70 -13q30 0 67 6t75 15l4 -52q-36 -11 -75 -16t-71 -5q-52 0 -94 16.5
t-72 56t-46 105t-16 163.5zM266 875q20 0 30 -11t10 -28t-10 -28t-30 -11t-30 11t-10 28t10 28t30 11z" />
    <glyph glyph-name="Ccedilla" unicode="&#xc7;" horiz-adv-x="482" 
d="M60 331q0 101 16.5 167.5t46.5 105.5t73.5 55t97.5 16q35 0 70 -4.5t67 -12.5l-6 -53q-32 8 -67 12.5t-65 4.5q-41 0 -73 -12.5t-53.5 -45t-33 -89t-11.5 -143.5q0 -86 11.5 -142t32.5 -89t52 -46t70 -13q30 0 67 6t75 15l4 -52q-36 -11 -75 -16t-71 -5q-52 0 -94 16.5
t-72 56t-46 105t-16 163.5zM296 -53q11 -20 17 -39.5t6 -35.5q0 -32 -16 -50t-52 -18q-14 0 -30.5 4t-27.5 9l10 44q11 -5 21 -8.5t21 -3.5q20 0 20 26q0 18 -6.5 36.5t-14.5 35.5h52z" />
    <glyph glyph-name="Dcaron" unicode="&#x10e;" horiz-adv-x="563" 
d="M264 665q115 0 177 -78.5t62 -250.5q0 -173 -57.5 -259.5t-179.5 -86.5q-85 0 -169 26v649h167zM157 55q24 -6 52 -9.5t57 -3.5q42 0 74.5 16.5t55 52t34.5 91.5t12 135q0 147 -47 211t-131 64h-107v-557zM251 755l-76 161h57l50 -106l50 106h57l-76 -161h-62z" />
    <glyph glyph-name="Dcroat" unicode="&#x110;" horiz-adv-x="562" 
d="M20 365h76v300h168q114 0 176 -78.5t62 -250.5q0 -173 -57.5 -259.5t-179.5 -86.5q-82 0 -169 26v296h-76v53zM156 365h146v-53h-146v-257q25 -6 52.5 -9.5t56.5 -3.5q42 0 74.5 16.5t55 52t34.5 91.5t12 135q0 73 -12 125.5t-35 85.5t-55.5 48.5t-74.5 15.5h-108v-247z
" />
    <glyph glyph-name="Egrave" unicode="&#xc8;" horiz-adv-x="467" 
d="M403 665v-53h-251v-242h222v-53h-222v-180q0 -45 18.5 -64.5t50.5 -19.5h194v-53h-194q-60 0 -94.5 35.5t-34.5 101.5v528h311zM213 916l71 -161h-57l-81 161h67z" />
    <glyph glyph-name="Eacute" unicode="&#xc9;" horiz-adv-x="467" 
d="M403 665v-53h-251v-242h222v-53h-222v-180q0 -45 18.5 -64.5t50.5 -19.5h194v-53h-194q-60 0 -94.5 35.5t-34.5 101.5v528h311zM360 916l-81 -161h-56l71 161h66z" />
    <glyph glyph-name="Ecircumflex" unicode="&#xca;" horiz-adv-x="467" 
d="M403 665v-53h-251v-242h222v-53h-222v-180q0 -45 18.5 -64.5t50.5 -19.5h194v-53h-194q-60 0 -94.5 35.5t-34.5 101.5v528h311zM277 916l76 -161h-57l-50 106l-50 -106h-57l76 161h62z" />
    <glyph glyph-name="Ecaron" unicode="&#x11a;" horiz-adv-x="467" 
d="M403 665v-53h-251v-242h222v-53h-222v-180q0 -45 18.5 -64.5t50.5 -19.5h194v-53h-194q-60 0 -94.5 35.5t-34.5 101.5v528h311zM217 755l-76 161h57l50 -106l50 106h57l-76 -161h-62z" />
    <glyph glyph-name="Edieresis" unicode="&#xcb;" horiz-adv-x="467" 
d="M403 665v-53h-251v-242h222v-53h-222v-180q0 -45 18.5 -64.5t50.5 -19.5h194v-53h-194q-60 0 -94.5 35.5t-34.5 101.5v528h311zM179 875q21 0 31 -11t10 -28t-10 -28t-31 -11q-20 0 -30 11t-10 28t10 28t30 11zM318 875q20 0 30 -11t10 -28t-10 -28t-30 -11t-30.5 11
t-10.5 28t10.5 28t30.5 11z" />
    <glyph glyph-name="Emacron" unicode="&#x112;" horiz-adv-x="467" 
d="M403 665v-53h-251v-242h222v-53h-222v-180q0 -45 18.5 -64.5t50.5 -19.5h194v-53h-194q-60 0 -94.5 35.5t-34.5 101.5v528h311zM348 860v-50h-200v50h200z" />
    <glyph glyph-name="Ebreve" unicode="&#x114;" horiz-adv-x="467" 
d="M403 665v-53h-251v-242h222v-53h-222v-180q0 -45 18.5 -64.5t50.5 -19.5h194v-53h-194q-60 0 -94.5 35.5t-34.5 101.5v528h311zM183 897q1 -32 15.5 -53t49.5 -21t49.5 21t15.5 53h52q0 -62 -34.5 -93t-82.5 -31t-82.5 31t-34.5 93h52z" />
    <glyph glyph-name="Edotaccent" unicode="&#x116;" horiz-adv-x="467" 
d="M403 665v-53h-251v-242h222v-53h-222v-180q0 -45 18.5 -64.5t50.5 -19.5h194v-53h-194q-60 0 -94.5 35.5t-34.5 101.5v528h311zM248 875q20 0 30 -11t10 -28t-10 -28t-30 -11t-30 11t-10 28t10 28t30 11z" />
    <glyph glyph-name="Eogonek" unicode="&#x118;" horiz-adv-x="467" 
d="M221 0q-60 0 -94.5 35.5t-34.5 101.5v528h311v-53h-251v-242h222v-53h-222v-180q0 -45 18.5 -64.5t50.5 -19.5h194v-53h-32q-11 -14 -24.5 -40.5t-13.5 -52.5q0 -18 9 -24.5t20 -6.5q7 0 17.5 2.5t22.5 7.5l7 -46q-23 -13 -54 -13q-29 0 -52 16.5t-23 54.5
q0 35 13.5 61.5t23.5 40.5h-108z" />
    <glyph glyph-name="Gcircumflex" unicode="&#x11c;" horiz-adv-x="558" 
d="M465 601q-31 8 -74 14.5t-95 6.5q-44 0 -77 -15.5t-54.5 -50t-32 -89t-10.5 -132.5q0 -84 11 -140.5t33 -90t54.5 -48t75.5 -14.5q34 0 71 4.5t60 10.5v255h-133v53h194v-346q-44 -14 -95.5 -21.5t-98.5 -7.5q-55 0 -98.5 17.5t-73.5 58t-46 107t-16 164.5
q0 178 58.5 258t177.5 80q58 0 102 -6.5t73 -12.5zM311 916l76 -161h-57l-50 106l-50 -106h-57l76 161h62z" />
    <glyph glyph-name="Gbreve" unicode="&#x11e;" horiz-adv-x="558" 
d="M465 601q-31 8 -74 14.5t-95 6.5q-44 0 -77 -15.5t-54.5 -50t-32 -89t-10.5 -132.5q0 -84 11 -140.5t33 -90t54.5 -48t75.5 -14.5q34 0 71 4.5t60 10.5v255h-133v53h194v-346q-44 -14 -95.5 -21.5t-98.5 -7.5q-55 0 -98.5 17.5t-73.5 58t-46 107t-16 164.5
q0 178 58.5 258t177.5 80q58 0 102 -6.5t73 -12.5zM215 897q1 -32 15.5 -53t49.5 -21t49.5 21t15.5 53h52q0 -62 -34.5 -93t-82.5 -31t-82.5 31t-34.5 93h52z" />
    <glyph glyph-name="Gdotaccent" unicode="&#x120;" horiz-adv-x="558" 
d="M465 601q-31 8 -74 14.5t-95 6.5q-44 0 -77 -15.5t-54.5 -50t-32 -89t-10.5 -132.5q0 -84 11 -140.5t33 -90t54.5 -48t75.5 -14.5q34 0 71 4.5t60 10.5v255h-133v53h194v-346q-44 -14 -95.5 -21.5t-98.5 -7.5q-55 0 -98.5 17.5t-73.5 58t-46 107t-16 164.5
q0 178 58.5 258t177.5 80q58 0 102 -6.5t73 -12.5zM280 875q20 0 30 -11t10 -28t-10 -28t-30 -11t-30 11t-10 28t10 28t30 11z" />
    <glyph glyph-name="Gcommaaccent" unicode="&#x122;" horiz-adv-x="558" 
d="M465 601q-31 8 -74 14.5t-95 6.5q-44 0 -77 -15.5t-54.5 -50t-32 -89t-10.5 -132.5q0 -84 11 -140.5t33 -90t54.5 -48t75.5 -14.5q34 0 71 4.5t60 10.5v255h-133v53h194v-346q-44 -14 -95.5 -21.5t-98.5 -7.5q-55 0 -98.5 17.5t-73.5 58t-46 107t-16 164.5
q0 178 58.5 258t177.5 80q58 0 102 -6.5t73 -12.5zM346 -46l-75 -142h-55l67 142h63z" />
    <glyph glyph-name="Hcircumflex" unicode="&#x124;" horiz-adv-x="618" 
d="M157 665v-295h305v295h60v-665h-60v317h-305v-317h-60v665h60zM340 916l76 -161h-57l-50 106l-50 -106h-57l76 161h62z" />
    <glyph glyph-name="Hbar" unicode="&#x126;" horiz-adv-x="617" 
d="M156 665v-128h305v128h60v-128h76v-50h-76v-487h-60v317h-305v-317h-60v487h-76v50h76v128h60zM461 370v117h-305v-117h305z" />
    <glyph glyph-name="Igrave" unicode="&#xcc;" horiz-adv-x="254" 
d="M157 665v-665h-60v665h60zM83 916l71 -161h-57l-81 161h67z" />
    <glyph glyph-name="Iacute" unicode="&#xcd;" horiz-adv-x="254" 
d="M157 665v-665h-60v665h60zM235 916l-81 -161h-56l71 161h66z" />
    <glyph glyph-name="Icircumflex" unicode="&#xce;" horiz-adv-x="254" 
d="M157 665v-665h-60v665h60zM157 916l76 -161h-57l-50 106l-50 -106h-57l76 161h62z" />
    <glyph glyph-name="Itilde" unicode="&#x128;" horiz-adv-x="255" 
d="M157 665v-665h-60v665h60zM6 807q8 30 24 48.5t48 18.5q16 0 30.5 -5t27 -11.5t23.5 -11.5t19 -5q10 0 14.5 12t8.5 26l47 -15q-12 -71 -71 -71q-13 0 -27.5 5t-28 11.5t-25 11.5t-18.5 5q-11 0 -16 -10.5t-10 -23.5z" />
    <glyph glyph-name="Idieresis" unicode="&#xcf;" horiz-adv-x="254" 
d="M157 665v-665h-60v665h60zM58 875q21 0 31 -11t10 -28t-10 -28t-31 -11q-20 0 -30 11t-10 28t10 28t30 11zM197 875q20 0 30 -11t10 -28t-10 -28t-30 -11t-30.5 11t-10.5 28t10.5 28t30.5 11z" />
    <glyph glyph-name="Imacron" unicode="&#x12a;" horiz-adv-x="254" 
d="M157 665v-665h-60v665h60zM227 860v-50h-200v50h200z" />
    <glyph glyph-name="Ibreve" unicode="&#x12c;" horiz-adv-x="254" 
d="M157 665v-665h-60v665h60zM62 897q1 -32 15.5 -53t49.5 -21t49.5 21t15.5 53h52q0 -62 -34.5 -93t-82.5 -31t-82.5 31t-34.5 93h52z" />
    <glyph glyph-name="Idotaccent" unicode="&#x130;" horiz-adv-x="254" 
d="M157 665v-665h-60v665h60zM127 875q20 0 30 -11t10 -28t-10 -28t-30 -11t-30 11t-10 28t10 28t30 11z" />
    <glyph glyph-name="Iogonek" unicode="&#x12e;" horiz-adv-x="254" 
d="M65 -102q0 36 13.5 62t23.5 40h-5v665h60v-664q-5 -7 -12 -18t-13 -23.5t-10 -26t-4 -26.5q0 -18 7 -24.5t18 -6.5q7 0 20 3t24 8l7 -47q-23 -13 -54 -13q-29 0 -52 16.5t-23 54.5z" />
    <glyph glyph-name="Jcircumflex" unicode="&#x134;" horiz-adv-x="253" 
d="M157 665v-607q0 -36 -7.5 -66.5t-23.5 -60t-42 -60.5t-62 -68l-36 43q30 32 51 57.5t34.5 49.5t19.5 49t6 56v607h60zM158 916l76 -161h-57l-50 106l-50 -106h-57l76 161h62z" />
    <glyph glyph-name="Kcommaaccent" unicode="&#x136;" horiz-adv-x="494" 
d="M157 665v-361l259 361h66l-215 -298q58 -20 94.5 -69t59.5 -114l65 -184h-66l-58 165q-20 57 -52 99.5t-75 54.5l-78 -100v-219h-60v665h60zM329 -46l-75 -142h-55l67 142h63z" />
    <glyph glyph-name="Lacute" unicode="&#x139;" horiz-adv-x="426" 
d="M157 665v-612h245v-53h-305v665h60zM235 916l-81 -161h-56l71 161h66z" />
    <glyph glyph-name="Lcaron" unicode="&#x13d;" horiz-adv-x="426" 
d="M157 665v-612h245v-53h-305v665h60zM96 755l-76 161h57l50 -106l50 106h57l-76 -161h-62z" />
    <glyph glyph-name="Lcommaaccent" unicode="&#x13b;" horiz-adv-x="426" 
d="M157 665v-612h245v-53h-305v665h60zM298 -45l-75 -143h-55l67 143h63z" />
    <glyph glyph-name="Lslash" unicode="&#x141;" horiz-adv-x="426" 
d="M157 665v-308l160 78v-57l-160 -78v-247h245v-53h-305v271l-75 -37v57l75 36v338h60z" />
    <glyph glyph-name="Nacute" unicode="&#x143;" horiz-adv-x="623" 
d="M149 665l319 -417v417h58v-665h-58v160l-313 408v-568h-58v665h52zM408 916l-81 -161h-56l71 161h66z" />
    <glyph glyph-name="Ncaron" unicode="&#x147;" horiz-adv-x="623" 
d="M149 665l319 -417v417h58v-665h-58v160l-313 408v-568h-58v665h52zM281 755l-76 161h57l50 -106l50 106h57l-76 -161h-62z" />
    <glyph glyph-name="Ntilde" unicode="&#xd1;" horiz-adv-x="623" 
d="M149 665l319 -417v417h58v-665h-58v160l-313 408v-568h-58v665h52zM191 807q8 30 24 48.5t48 18.5q16 0 30.5 -5t27 -11.5t23.5 -11.5t19 -5q10 0 14.5 12t8.5 26l47 -15q-12 -71 -71 -71q-13 0 -27.5 5t-28 11.5t-25 11.5t-18.5 5q-11 0 -16 -10.5t-10 -23.5z" />
    <glyph glyph-name="Ncommaaccent" unicode="&#x145;" horiz-adv-x="623" 
d="M149 665l319 -417v417h58v-665h-58v160l-313 408v-568h-58v665h52zM355 -46l-75 -142h-55l67 142h63z" />
    <glyph glyph-name="Ograve" unicode="&#xd2;" horiz-adv-x="567" 
d="M284 675q53 0 94.5 -18.5t70 -59t43.5 -106t15 -159.5q0 -93 -15 -158.5t-43.5 -106t-70 -59t-94.5 -18.5t-95 18.5t-70.5 59t-43.5 106t-15 158.5q0 94 15 159.5t43.5 106t70.5 59t95 18.5zM284 622q-39 0 -69.5 -15t-51 -49t-31 -89.5t-10.5 -136.5t10.5 -136.5
t31 -89.5t51 -49t69.5 -15t69 15t50.5 49t31 89.5t10.5 136.5t-10.5 136.5t-31 89.5t-50.5 49t-69 15zM242 916l71 -161h-57l-81 161h67z" />
    <glyph glyph-name="Oacute" unicode="&#xd3;" horiz-adv-x="567" 
d="M284 675q53 0 94.5 -18.5t70 -59t43.5 -106t15 -159.5q0 -93 -15 -158.5t-43.5 -106t-70 -59t-94.5 -18.5t-95 18.5t-70.5 59t-43.5 106t-15 158.5q0 94 15 159.5t43.5 106t70.5 59t95 18.5zM284 622q-39 0 -69.5 -15t-51 -49t-31 -89.5t-10.5 -136.5t10.5 -136.5
t31 -89.5t51 -49t69.5 -15t69 15t50.5 49t31 89.5t10.5 136.5t-10.5 136.5t-31 89.5t-50.5 49t-69 15zM390 916l-81 -161h-56l71 161h66z" />
    <glyph glyph-name="Ocircumflex" unicode="&#xd4;" horiz-adv-x="567" 
d="M284 675q53 0 94.5 -18.5t70 -59t43.5 -106t15 -159.5q0 -93 -15 -158.5t-43.5 -106t-70 -59t-94.5 -18.5t-95 18.5t-70.5 59t-43.5 106t-15 158.5q0 94 15 159.5t43.5 106t70.5 59t95 18.5zM284 622q-39 0 -69.5 -15t-51 -49t-31 -89.5t-10.5 -136.5t10.5 -136.5
t31 -89.5t51 -49t69.5 -15t69 15t50.5 49t31 89.5t10.5 136.5t-10.5 136.5t-31 89.5t-50.5 49t-69 15zM315 916l76 -161h-57l-50 106l-50 -106h-57l76 161h62z" />
    <glyph glyph-name="Otilde" unicode="&#xd5;" horiz-adv-x="567" 
d="M284 675q53 0 94.5 -18.5t70 -59t43.5 -106t15 -159.5q0 -93 -15 -158.5t-43.5 -106t-70 -59t-94.5 -18.5t-95 18.5t-70.5 59t-43.5 106t-15 158.5q0 94 15 159.5t43.5 106t70.5 59t95 18.5zM284 622q-39 0 -69.5 -15t-51 -49t-31 -89.5t-10.5 -136.5t10.5 -136.5
t31 -89.5t51 -49t69.5 -15t69 15t50.5 49t31 89.5t10.5 136.5t-10.5 136.5t-31 89.5t-50.5 49t-69 15zM163 807q8 30 24 48.5t48 18.5q16 0 30.5 -5t27 -11.5t23.5 -11.5t19 -5q10 0 14.5 12t8.5 26l47 -15q-12 -71 -71 -71q-13 0 -27.5 5t-28 11.5t-25 11.5t-18.5 5
q-11 0 -16 -10.5t-10 -23.5z" />
    <glyph glyph-name="Odieresis" unicode="&#xd6;" horiz-adv-x="567" 
d="M284 675q53 0 94.5 -18.5t70 -59t43.5 -106t15 -159.5q0 -93 -15 -158.5t-43.5 -106t-70 -59t-94.5 -18.5t-95 18.5t-70.5 59t-43.5 106t-15 158.5q0 94 15 159.5t43.5 106t70.5 59t95 18.5zM284 622q-39 0 -69.5 -15t-51 -49t-31 -89.5t-10.5 -136.5t10.5 -136.5
t31 -89.5t51 -49t69.5 -15t69 15t50.5 49t31 89.5t10.5 136.5t-10.5 136.5t-31 89.5t-50.5 49t-69 15zM214 875q21 0 31 -11t10 -28t-10 -28t-31 -11q-20 0 -30 11t-10 28t10 28t30 11zM353 875q20 0 30 -11t10 -28t-10 -28t-30 -11t-30.5 11t-10.5 28t10.5 28t30.5 11z" />
    <glyph glyph-name="Omacron" unicode="&#x14c;" horiz-adv-x="567" 
d="M284 675q53 0 94.5 -18.5t70 -59t43.5 -106t15 -159.5q0 -93 -15 -158.5t-43.5 -106t-70 -59t-94.5 -18.5t-95 18.5t-70.5 59t-43.5 106t-15 158.5q0 94 15 159.5t43.5 106t70.5 59t95 18.5zM284 622q-39 0 -69.5 -15t-51 -49t-31 -89.5t-10.5 -136.5t10.5 -136.5
t31 -89.5t51 -49t69.5 -15t69 15t50.5 49t31 89.5t10.5 136.5t-10.5 136.5t-31 89.5t-50.5 49t-69 15zM384 861v-50h-200v50h200z" />
    <glyph glyph-name="Obreve" unicode="&#x14e;" horiz-adv-x="567" 
d="M284 675q53 0 94.5 -18.5t70 -59t43.5 -106t15 -159.5q0 -93 -15 -158.5t-43.5 -106t-70 -59t-94.5 -18.5t-95 18.5t-70.5 59t-43.5 106t-15 158.5q0 94 15 159.5t43.5 106t70.5 59t95 18.5zM284 622q-39 0 -69.5 -15t-51 -49t-31 -89.5t-10.5 -136.5t10.5 -136.5
t31 -89.5t51 -49t69.5 -15t69 15t50.5 49t31 89.5t10.5 136.5t-10.5 136.5t-31 89.5t-50.5 49t-69 15zM219 898q1 -32 15.5 -53t49.5 -21t49.5 21t15.5 53h52q0 -62 -34.5 -93t-82.5 -31t-82.5 31t-34.5 93h52z" />
    <glyph glyph-name="Ohungarumlaut" unicode="&#x150;" horiz-adv-x="567" 
d="M284 675q53 0 94.5 -18.5t70 -59t43.5 -106t15 -159.5q0 -93 -15 -158.5t-43.5 -106t-70 -59t-94.5 -18.5t-95 18.5t-70.5 59t-43.5 106t-15 158.5q0 94 15 159.5t43.5 106t70.5 59t95 18.5zM284 622q-39 0 -69.5 -15t-51 -49t-31 -89.5t-10.5 -136.5t10.5 -136.5
t31 -89.5t51 -49t69.5 -15t69 15t50.5 49t31 89.5t10.5 136.5t-10.5 136.5t-31 89.5t-50.5 49t-69 15zM322 916l-56 -161h-49l42 161h63zM434 916l-76 -161h-50l61 161h65z" />
    <glyph glyph-name="Oslash" unicode="&#xd8;" horiz-adv-x="567" 
d="M284 675q77 0 128 -39l44 87l45 -24l-52 -101q27 -42 42.5 -108t15.5 -158q0 -93 -15 -158.5t-43.5 -106t-70 -59t-94.5 -18.5q-38 0 -71.5 9.5t-58.5 28.5l-43 -84l-46 26l53 98q-27 42 -42.5 107.5t-15.5 156.5q0 94 15 159.5t43.5 106t70.5 59t95 18.5zM445 332
q0 71 -7 119.5t-22 82.5l-235 -453q39 -39 103 -39q39 0 69 15t50.5 49t31 89.5t10.5 136.5zM284 622q-39 0 -69.5 -15t-51 -49t-31 -89.5t-10.5 -136.5q0 -70 7 -118.5t21 -82.5l235 453q-20 20 -45.5 29t-55.5 9z" />
    <glyph glyph-name="Oslashacute" unicode="&#x1fe;" horiz-adv-x="567" 
d="M389 916l-81 -161h-56l71 161h66zM284 675q77 0 128 -39l44 87l45 -24l-52 -101q27 -42 42.5 -108t15.5 -158q0 -93 -15 -158.5t-43.5 -106t-70 -59t-94.5 -18.5q-38 0 -71.5 9.5t-58.5 28.5l-43 -84l-46 26l53 98q-27 42 -42.5 107.5t-15.5 156.5q0 94 15 159.5
t43.5 106t70.5 59t95 18.5zM445 332q0 71 -7 119.5t-22 82.5l-235 -453q39 -39 103 -39q39 0 69 15t50.5 49t31 89.5t10.5 136.5zM284 622q-39 0 -69.5 -15t-51 -49t-31 -89.5t-10.5 -136.5q0 -70 7 -118.5t21 -82.5l235 453q-20 20 -45.5 29t-55.5 9z" />
    <glyph glyph-name="OE" unicode="&#x152;" horiz-adv-x="820" 
d="M756 612h-251v-242h221v-53h-221v-180q0 -45 20 -64.5t49 -19.5h194v-53h-194q-95 0 -121 81q-27 -47 -70 -69t-99 -22q-53 0 -95 18.5t-70.5 59t-43.5 106t-15 158.5q0 94 15 159.5t43.5 106t70.5 59t95 18.5q54 0 94 -18t67 -60v68h311v-53zM284 622q-39 0 -69.5 -15
t-51 -49t-31 -89.5t-10.5 -136.5t10.5 -136.5t31 -89.5t51 -49t69.5 -15t69 15t50.5 49t31 89.5t10.5 136.5t-10.5 136.5t-31 89.5t-50.5 49t-69 15z" />
    <glyph glyph-name="Racute" unicode="&#x154;" horiz-adv-x="538" 
d="M268 665q48 0 85.5 -9.5t62.5 -32.5t38 -61.5t13 -96.5q0 -81 -30.5 -124t-84.5 -63q28 -20 43.5 -47.5t29.5 -69.5l53 -161h-63l-49 148q-8 25 -17.5 46t-21.5 36t-27.5 23t-36.5 8q-25 0 -51 3t-55 8v-272h-60v665h171zM157 324q29 -6 55.5 -8.5t51.5 -2.5q79 0 110 37
t31 115q0 43 -8 71.5t-24.5 45t-42.5 23.5t-62 7h-111v-288zM370 916l-81 -161h-56l71 161h66z" />
    <glyph glyph-name="Rcaron" unicode="&#x158;" horiz-adv-x="538" 
d="M268 665q48 0 85.5 -9.5t62.5 -32.5t38 -61.5t13 -96.5q0 -81 -30.5 -124t-84.5 -63q28 -20 43.5 -47.5t29.5 -69.5l53 -161h-63l-49 148q-8 25 -17.5 46t-21.5 36t-27.5 23t-36.5 8q-25 0 -51 3t-55 8v-272h-60v665h171zM157 324q29 -6 55.5 -8.5t51.5 -2.5q79 0 110 37
t31 115q0 43 -8 71.5t-24.5 45t-42.5 23.5t-62 7h-111v-288zM246 755l-76 161h57l50 -106l50 106h57l-76 -161h-62z" />
    <glyph glyph-name="Rcommaaccent" unicode="&#x156;" horiz-adv-x="538" 
d="M268 665q48 0 85.5 -9.5t62.5 -32.5t38 -61.5t13 -96.5q0 -81 -30.5 -124t-84.5 -63q28 -20 43.5 -47.5t29.5 -69.5l53 -161h-63l-49 148q-8 25 -17.5 46t-21.5 36t-27.5 23t-36.5 8q-25 0 -51 3t-55 8v-272h-60v665h171zM157 324q29 -6 55.5 -8.5t51.5 -2.5q79 0 110 37
t31 115q0 43 -8 71.5t-24.5 45t-42.5 23.5t-62 7h-111v-288zM331 -46l-75 -142h-55l67 142h63z" />
    <glyph glyph-name="Sacute" unicode="&#x15a;" horiz-adv-x="469" 
d="M379 605q-14 4 -31 7t-34.5 5.5t-34 3.5t-29.5 1q-24 0 -45.5 -2.5t-37.5 -11t-25.5 -25t-9.5 -44.5q0 -32 20.5 -62t50.5 -59.5t66 -60.5t66 -64.5t50.5 -71t20.5 -80.5t-13 -72t-36.5 -46.5t-55 -25t-67.5 -7.5q-49 0 -95.5 11t-77.5 25l10 52q31 -14 75.5 -25
t89.5 -11q48 0 78 20t30 70q0 37 -20.5 70.5t-51 65.5t-66.5 63t-66.5 63.5t-51 66.5t-20.5 73q0 41 15 68.5t40 43.5t57.5 22.5t67.5 6.5t73 -5t64 -12zM313 916l-81 -161h-56l71 161h66z" />
    <glyph glyph-name="Scircumflex" unicode="&#x15c;" horiz-adv-x="469" 
d="M379 605q-14 4 -31 7t-34.5 5.5t-34 3.5t-29.5 1q-24 0 -45.5 -2.5t-37.5 -11t-25.5 -25t-9.5 -44.5q0 -32 20.5 -62t50.5 -59.5t66 -60.5t66 -64.5t50.5 -71t20.5 -80.5t-13 -72t-36.5 -46.5t-55 -25t-67.5 -7.5q-49 0 -95.5 11t-77.5 25l10 52q31 -14 75.5 -25
t89.5 -11q48 0 78 20t30 70q0 37 -20.5 70.5t-51 65.5t-66.5 63t-66.5 63.5t-51 66.5t-20.5 73q0 41 15 68.5t40 43.5t57.5 22.5t67.5 6.5t73 -5t64 -12zM255 916l76 -161h-57l-50 106l-50 -106h-57l76 161h62z" />
    <glyph glyph-name="Scaron" unicode="&#x160;" horiz-adv-x="469" 
d="M379 605q-14 4 -31 7t-34.5 5.5t-34 3.5t-29.5 1q-24 0 -45.5 -2.5t-37.5 -11t-25.5 -25t-9.5 -44.5q0 -32 20.5 -62t50.5 -59.5t66 -60.5t66 -64.5t50.5 -71t20.5 -80.5t-13 -72t-36.5 -46.5t-55 -25t-67.5 -7.5q-49 0 -95.5 11t-77.5 25l10 52q31 -14 75.5 -25
t89.5 -11q48 0 78 20t30 70q0 37 -20.5 70.5t-51 65.5t-66.5 63t-66.5 63.5t-51 66.5t-20.5 73q0 41 15 68.5t40 43.5t57.5 22.5t67.5 6.5t73 -5t64 -12zM191 755l-76 161h57l50 -106l50 106h57l-76 -161h-62z" />
    <glyph glyph-name="Scedilla" unicode="&#x15e;" horiz-adv-x="469" 
d="M379 605q-14 4 -31 7t-34.5 5.5t-34 3.5t-29.5 1q-24 0 -45.5 -2.5t-37.5 -11t-25.5 -25t-9.5 -44.5q0 -32 20.5 -62t50.5 -59.5t66 -60.5t66 -64.5t50.5 -71t20.5 -80.5t-13 -72t-36.5 -46.5t-55 -25t-67.5 -7.5q-49 0 -95.5 11t-77.5 25l10 52q31 -14 75.5 -25
t89.5 -11q48 0 78 20t30 70q0 37 -20.5 70.5t-51 65.5t-66.5 63t-66.5 63.5t-51 66.5t-20.5 73q0 41 15 68.5t40 43.5t57.5 22.5t67.5 6.5t73 -5t64 -12zM265 -53q11 -20 17 -39.5t6 -35.5q0 -32 -16 -50t-52 -18q-14 0 -30.5 4t-27.5 9l10 44q11 -5 21 -8.5t21 -3.5
q20 0 20 26q0 18 -6.5 36.5t-14.5 35.5h52z" />
    <glyph glyph-name="Scommaaccent" unicode="&#x218;" horiz-adv-x="469" 
d="M379 605q-14 4 -31 7t-34.5 5.5t-34 3.5t-29.5 1q-24 0 -45.5 -2.5t-37.5 -11t-25.5 -25t-9.5 -44.5q0 -32 20.5 -62t50.5 -59.5t66 -60.5t66 -64.5t50.5 -71t20.5 -80.5t-13 -72t-36.5 -46.5t-55 -25t-67.5 -7.5q-49 0 -95.5 11t-77.5 25l10 52q31 -14 75.5 -25
t89.5 -11q48 0 78 20t30 70q0 37 -20.5 70.5t-51 65.5t-66.5 63t-66.5 63.5t-51 66.5t-20.5 73q0 41 15 68.5t40 43.5t57.5 22.5t67.5 6.5t73 -5t64 -12zM261 -46l-75 -142h-55l67 142h63z" />
    <glyph glyph-name="Tcaron" unicode="&#x164;" horiz-adv-x="471" 
d="M451 665v-53h-185v-612h-60v612h-186v53h431zM205 755l-76 161h57l50 -106l50 106h57l-76 -161h-62z" />
    <glyph glyph-name="Tcommaaccent" unicode="&#x162;" horiz-adv-x="471" 
d="M451 665v-53h-185v-613h-60v613h-186v53h431zM266 -46l-75 -142h-55l67 142h63z" />
    <glyph glyph-name="Tbar" unicode="&#x166;" horiz-adv-x="471" 
d="M49 365h157v247h-186v53h431v-53h-185v-247h156v-53h-156v-312h-60v312h-157v53z" />
    <glyph glyph-name="Ugrave" unicode="&#xd9;" horiz-adv-x="581" 
d="M148 665v-431q0 -40 7.5 -75t25 -60.5t45.5 -40t70 -14.5t77 7t61 15v599h59v-633q-35 -14 -82 -28t-115 -14q-56 0 -95.5 18.5t-64.5 50.5t-36.5 76.5t-11.5 97.5v432h60zM250 916l71 -161h-57l-81 161h67z" />
    <glyph glyph-name="Uacute" unicode="&#xda;" horiz-adv-x="581" 
d="M148 665v-431q0 -40 7.5 -75t25 -60.5t45.5 -40t70 -14.5t77 7t61 15v599h59v-633q-35 -14 -82 -28t-115 -14q-56 0 -95.5 18.5t-64.5 50.5t-36.5 76.5t-11.5 97.5v432h60zM397 916l-81 -161h-56l71 161h66z" />
    <glyph glyph-name="Ucircumflex" unicode="&#xdb;" horiz-adv-x="581" 
d="M148 665v-431q0 -40 7.5 -75t25 -60.5t45.5 -40t70 -14.5t77 7t61 15v599h59v-633q-35 -14 -82 -28t-115 -14q-56 0 -95.5 18.5t-64.5 50.5t-36.5 76.5t-11.5 97.5v432h60zM322 916l76 -161h-57l-50 106l-50 -106h-57l76 161h62z" />
    <glyph glyph-name="Utilde" unicode="&#x168;" horiz-adv-x="581" 
d="M148 665v-431q0 -40 7.5 -75t25 -60.5t45.5 -40t70 -14.5t77 7t61 15v599h59v-633q-35 -14 -82 -28t-115 -14q-56 0 -95.5 18.5t-64.5 50.5t-36.5 76.5t-11.5 97.5v432h60zM169 807q8 30 24 48.5t48 18.5q16 0 30.5 -5t27 -11.5t23.5 -11.5t19 -5q10 0 14.5 12t8.5 26
l47 -15q-12 -71 -71 -71q-13 0 -27.5 5t-28 11.5t-25 11.5t-18.5 5q-11 0 -16 -10.5t-10 -23.5z" />
    <glyph glyph-name="Udieresis" unicode="&#xdc;" horiz-adv-x="581" 
d="M148 665v-431q0 -40 7.5 -75t25 -60.5t45.5 -40t70 -14.5t77 7t61 15v599h59v-633q-35 -14 -82 -28t-115 -14q-56 0 -95.5 18.5t-64.5 50.5t-36.5 76.5t-11.5 97.5v432h60zM222 874q21 0 31 -11t10 -28t-10 -28t-31 -11q-20 0 -30 11t-10 28t10 28t30 11zM361 874
q20 0 30 -11t10 -28t-10 -28t-30 -11t-30.5 11t-10.5 28t10.5 28t30.5 11z" />
    <glyph glyph-name="Umacron" unicode="&#x16a;" horiz-adv-x="581" 
d="M148 665v-431q0 -40 7.5 -75t25 -60.5t45.5 -40t70 -14.5t77 7t61 15v599h59v-633q-35 -14 -82 -28t-115 -14q-56 0 -95.5 18.5t-64.5 50.5t-36.5 76.5t-11.5 97.5v432h60zM390 860v-50h-200v50h200z" />
    <glyph glyph-name="Ubreve" unicode="&#x16c;" horiz-adv-x="581" 
d="M148 665v-431q0 -40 7.5 -75t25 -60.5t45.5 -40t70 -14.5t77 7t61 15v599h59v-633q-35 -14 -82 -28t-115 -14q-56 0 -95.5 18.5t-64.5 50.5t-36.5 76.5t-11.5 97.5v432h60zM225 897q1 -32 15.5 -53t49.5 -21t49.5 21t15.5 53h52q0 -62 -34.5 -93t-82.5 -31t-82.5 31
t-34.5 93h52z" />
    <glyph glyph-name="Uring" unicode="&#x16e;" horiz-adv-x="581" 
d="M148 665v-431q0 -40 7.5 -75t25 -60.5t45.5 -40t70 -14.5t77 7t61 15v599h59v-633q-35 -14 -82 -28t-115 -14q-56 0 -95.5 18.5t-64.5 50.5t-36.5 76.5t-11.5 97.5v432h60zM371 836q0 -37 -21.5 -59t-59.5 -22t-59 22t-21 59t21 59t59 22t59.5 -22t21.5 -59zM320 836
q0 20 -6.5 31t-23.5 11q-30 0 -30 -42t30 -42q17 0 23.5 11t6.5 31z" />
    <glyph glyph-name="Uhungarumlaut" unicode="&#x170;" horiz-adv-x="581" 
d="M148 665v-431q0 -40 7.5 -75t25 -60.5t45.5 -40t70 -14.5t77 7t61 15v599h59v-633q-35 -14 -82 -28t-115 -14q-56 0 -95.5 18.5t-64.5 50.5t-36.5 76.5t-11.5 97.5v432h60zM312 916l-56 -161h-49l42 161h63zM424 916l-76 -161h-50l61 161h65z" />
    <glyph glyph-name="Uogonek" unicode="&#x172;" horiz-adv-x="581" 
d="M148 665v-431q0 -40 7.5 -75t25 -60.5t45.5 -40t70 -14.5t77 7t61 15v599h59v-634q-5 -7 -12 -18t-13 -23.5t-10 -26t-4 -26.5q0 -18 7 -24.5t18 -6.5q7 0 20 3t24 8l7 -47q-23 -13 -54 -13q-29 0 -52 16.5t-23 54.5q0 23 7 43.5t16 35.5q-26 -8 -57.5 -12.5t-70.5 -4.5
q-56 0 -95.5 18.5t-64.5 50.5t-36.5 76.5t-11.5 97.5v432h60z" />
    <glyph glyph-name="Wgrave" unicode="&#x1e80;" horiz-adv-x="732" 
d="M323 916l71 -161h-57l-81 161h67zM504 0l-140 450l-138 -450h-70l-142 665h61l118 -599l140 462h64l143 -461q20 71 38.5 147t34 152.5t29 152t23.5 146.5h53q-11 -84 -26.5 -173.5t-35 -177t-41.5 -168t-45 -146.5h-66z" />
    <glyph glyph-name="Wacute" unicode="&#x1e82;" horiz-adv-x="732" 
d="M481 916l-81 -161h-56l71 161h66zM504 0l-140 450l-138 -450h-70l-142 665h61l118 -599l140 462h64l143 -461q20 71 38.5 147t34 152.5t29 152t23.5 146.5h53q-11 -84 -26.5 -173.5t-35 -177t-41.5 -168t-45 -146.5h-66z" />
    <glyph glyph-name="Wcircumflex" unicode="&#x174;" horiz-adv-x="732" 
d="M398 916l76 -161h-57l-50 106l-50 -106h-57l76 161h62zM504 0l-140 450l-138 -450h-70l-142 665h61l118 -599l140 462h64l143 -461q20 71 38.5 147t34 152.5t29 152t23.5 146.5h53q-11 -84 -26.5 -173.5t-35 -177t-41.5 -168t-45 -146.5h-66z" />
    <glyph glyph-name="Wdieresis" unicode="&#x1e84;" horiz-adv-x="732" 
d="M298 874q21 0 31 -11t10 -28t-10 -28t-31 -11q-20 0 -30 11t-10 28t10 28t30 11zM437 874q20 0 30 -11t10 -28t-10 -28t-30 -11t-30.5 11t-10.5 28t10.5 28t30.5 11zM504 0l-140 450l-138 -450h-70l-142 665h61l118 -599l140 462h64l143 -461q20 71 38.5 147t34 152.5
t29 152t23.5 146.5h53q-11 -84 -26.5 -173.5t-35 -177t-41.5 -168t-45 -146.5h-66z" />
    <glyph glyph-name="Ygrave" unicode="&#x1ef2;" horiz-adv-x="457" 
d="M207 916l71 -161h-57l-81 161h67zM200 223l-195 442h65l166 -380q60 96 100.5 195.5t62.5 184.5h58q-35 -121 -83 -231t-114 -204v-230h-60v223z" />
    <glyph glyph-name="Yacute" unicode="&#xdd;" horiz-adv-x="457" 
d="M337 916l-81 -161h-56l71 161h66zM200 223l-195 442h65l166 -380q60 96 100.5 195.5t62.5 184.5h58q-35 -121 -83 -231t-114 -204v-230h-60v223z" />
    <glyph glyph-name="Ycircumflex" unicode="&#x176;" horiz-adv-x="457" 
d="M270 916l76 -161h-57l-50 106l-50 -106h-57l76 161h62zM200 223l-195 442h65l166 -380q60 96 100.5 195.5t62.5 184.5h58q-35 -121 -83 -231t-114 -204v-230h-60v223z" />
    <glyph glyph-name="Ydieresis" unicode="&#x178;" horiz-adv-x="457" 
d="M166 874q21 0 31 -11t10 -28t-10 -28t-31 -11q-20 0 -30 11t-10 28t10 28t30 11zM305 874q20 0 30 -11t10 -28t-10 -28t-30 -11t-30.5 11t-10.5 28t10.5 28t30.5 11zM200 223l-195 442h65l166 -380q60 96 100.5 195.5t62.5 184.5h58q-35 -121 -83 -231t-114 -204v-230
h-60v223z" />
    <glyph glyph-name="Zacute" unicode="&#x179;" horiz-adv-x="502" 
d="M449 665v-45l-329 -567h336v-53h-410v43l333 569h-322v53h392zM353 916l-81 -161h-56l71 161h66z" />
    <glyph glyph-name="Zcaron" unicode="&#x17d;" horiz-adv-x="502" 
d="M449 665v-45l-329 -567h336v-53h-410v43l333 569h-322v53h392zM219 755l-76 161h57l50 -106l50 106h57l-76 -161h-62z" />
    <glyph glyph-name="Zdotaccent" unicode="&#x17b;" horiz-adv-x="502" 
d="M449 665v-45l-329 -567h336v-53h-410v43l333 569h-322v53h392zM250 875q20 0 30 -11t10 -28t-10 -28t-30 -11t-30 11t-10 28t10 28t30 11z" />
    <glyph glyph-name="Eng" unicode="&#x14a;" horiz-adv-x="623" 
d="M149 665l319 -417v417h58v-607q0 -36 -7.5 -66.5t-23.5 -60t-42 -60.5t-62 -68l-36 43q30 32 51.5 59.5t35 52.5t20 49.5t6.5 50.5v101l-313 409v-568h-58v665h52z" />
    <glyph glyph-name="Eth" unicode="&#xd0;" horiz-adv-x="563" 
d="M21 365h76v300h168q114 0 176 -78.5t62 -250.5q0 -173 -57.5 -259.5t-179.5 -86.5q-82 0 -169 26v296h-76v53zM157 365h146v-53h-146v-257q25 -6 52.5 -9.5t56.5 -3.5q42 0 74.5 16.5t55 52t34.5 91.5t12 135q0 73 -12 125.5t-35 85.5t-55.5 48.5t-74.5 15.5h-108v-247z
" />
    <glyph glyph-name="Thorn" unicode="&#xde;" horiz-adv-x="523" 
d="M157 665v-118h111q48 0 85.5 -10t62.5 -34t38 -63.5t13 -97.5q0 -113 -52.5 -161.5t-151.5 -48.5q-25 0 -51 3t-55 8v-143h-60v665h60zM157 197h-5q59 -13 112 -13q79 0 110 40t31 118q0 43 -8 72t-24.5 47t-42.5 25.5t-62 7.5h-111v-297z" />
    <glyph glyph-name="a" unicode="a" horiz-adv-x="426" 
d="M83 472q20 5 50.5 10t57.5 5q31 0 60.5 -7t52 -24t36 -46.5t13.5 -74.5v-310q-33 -11 -72 -22t-90 -11q-31 0 -58.5 8t-48 26t-32.5 46.5t-12 70.5q0 41 13 68t35 43t50.5 22.5t59.5 6.5t54 -3t43 -7v61q0 30 -7.5 50t-21 32t-33 16.5t-43.5 4.5q-25 0 -52.5 -4.5
t-50.5 -10.5zM295 222q-22 4 -47 7.5t-51 3.5q-20 0 -37.5 -3.5t-31.5 -14t-22 -29t-8 -48.5q0 -27 7.5 -45.5t20.5 -29.5t30 -16t36 -5q30 0 56 5.5t47 11.5v163z" />
    <glyph glyph-name="b" unicode="b" horiz-adv-x="470" 
d="M138 730v-260q25 8 53 12.5t58 4.5q34 0 64.5 -11.5t53.5 -40t37 -76t14 -118.5q0 -75 -14.5 -123.5t-38.5 -76t-56.5 -38.5t-68.5 -11q-40 0 -80.5 8.5t-78.5 19.5v710h57zM138 55q25 -5 50.5 -9t50.5 -4q27 0 48.5 8t37.5 30t24.5 60.5t8.5 100.5q0 58 -8.5 96t-23 60
t-34.5 31t-44 9q-25 0 -53 -5.5t-57 -14.5v-362z" />
    <glyph glyph-name="c" unicode="c" horiz-adv-x="391" 
d="M332 423q-23 5 -50 9.5t-50 4.5q-27 0 -49.5 -8.5t-38 -30.5t-24 -60.5t-8.5 -98.5t9 -98t25 -60t38 -30.5t48 -8.5t52.5 4t53.5 12l4 -50q-52 -16 -108 -16q-39 0 -72.5 11.5t-57.5 40t-38 76t-14 119.5q0 73 13.5 120.5t37.5 76t57.5 40t73.5 11.5q27 0 55 -4t49 -9z
" />
    <glyph glyph-name="d" unicode="d" horiz-adv-x="470" 
d="M389 730v-710q-38 -11 -79 -19.5t-80 -8.5q-36 0 -68.5 11t-57 38.5t-38.5 76t-14 123.5q0 71 14.5 118.5t39 76t56.5 40t66 11.5q31 0 54 -4.5t49 -11.5v259h58zM331 417q-29 9 -53.5 14.5t-50.5 5.5q-23 0 -43.5 -9t-36.5 -31t-25.5 -60t-9.5 -96q0 -62 8.5 -100.5
t24.5 -60.5t38 -30t48 -8q23 0 49.5 4t50.5 9v362z" />
    <glyph glyph-name="e" unicode="e" horiz-adv-x="432" 
d="M113 230q1 -49 7.5 -84.5t23 -58.5t43.5 -34t69 -11q25 0 58 6t55 13l4 -50q-22 -8 -53.5 -13.5t-63.5 -5.5q-47 0 -84.5 10.5t-64 38.5t-41 76t-14.5 122q0 132 46.5 190t127.5 58q40 0 70 -16t49.5 -44t29 -65t9.5 -80v-52h-271zM325 280q-2 75 -25 116t-75 41
q-56 0 -81 -40.5t-30 -116.5h211z" />
    <glyph glyph-name="f" unicode="f" horiz-adv-x="313" 
d="M101 479v91q0 84 40.5 123.5t109.5 39.5q17 0 36 -1.5t36 -5.5l-5 -49q-17 4 -34 5t-33 1q-20 0 -36.5 -5t-29.5 -18t-20 -35t-7 -55v-91h140v-50h-140v-429h-57v429h-65v50h65z" />
    <glyph glyph-name="g" unicode="g" horiz-adv-x="470" 
d="M390 -21q0 -91 -41 -133.5t-120 -42.5q-32 0 -71 6t-72 19l7 51q35 -13 71.5 -19.5t63.5 -6.5q57 0 80.5 30.5t23.5 92.5v36q-25 -5 -50 -8.5t-54 -3.5q-34 0 -66 9.5t-56.5 36t-39 74.5t-14.5 125q0 70 15 117t40 74.5t58 39t69 11.5q42 0 79.5 -10.5t76.5 -24.5v-473z
M332 417q-20 7 -47 13.5t-50 6.5q-26 0 -48 -8t-39 -29t-26.5 -58.5t-9.5 -96.5q0 -62 9 -100.5t24.5 -59.5t36.5 -28t46 -7q24 0 50.5 4t53.5 10v353z" />
    <glyph glyph-name="h" unicode="h" horiz-adv-x="490" 
d="M83 730h58v-261q26 8 54 13t58 5q32 0 61 -8t51.5 -26.5t35.5 -49.5t13 -77v-326h-58v323q0 33 -8 55t-22 35t-33.5 18.5t-42.5 5.5q-27 0 -56 -6t-53 -14v-417h-58v730z" />
    <glyph glyph-name="i" unicode="i" horiz-adv-x="224" 
d="M152 666q0 -17 -10 -28t-30 -11q-21 0 -31 11t-10 28t10 28t31 11q20 0 30 -11t10 -28zM141 479v-479h-58v479h58z" />
    <glyph glyph-name="j" unicode="j" horiz-adv-x="224" 
d="M141 479v-424q0 -41 -4.5 -71t-18 -58t-37.5 -57.5t-62 -70.5l-36 35q34 36 53.5 62.5t30 50.5t13.5 49.5t3 59.5v424h58zM152 666q0 -17 -10 -28t-30 -11q-21 0 -31 11t-10 28t10 28t31 11q20 0 30 -11t10 -28z" />
    <glyph glyph-name="k" unicode="k" horiz-adv-x="433" 
d="M141 730v-484l199 233h68l-164 -193q20 -6 37 -19t31 -31t25 -40t20 -45l56 -151h-63l-47 126q-15 41 -38 76t-55 43l-69 -76v-169h-58v730h58z" />
    <glyph glyph-name="l" unicode="l" horiz-adv-x="224" 
d="M141 730v-730h-58v730h58z" />
    <glyph glyph-name="m" unicode="m" horiz-adv-x="728" 
d="M339 323q0 34 -7.5 56t-20.5 35t-30.5 18t-36.5 5q-25 0 -52.5 -6t-50.5 -14v-417h-58v452q34 11 77 23t85 12q33 0 63 -10t50 -32q30 18 68 30t75 12q30 0 57.5 -7.5t48.5 -26.5t33.5 -50t12.5 -77v-326h-58v323q0 34 -7.5 56t-20.5 35t-30.5 18t-36.5 5
q-34 0 -66 -11.5t-49 -24.5q5 -15 8.5 -33.5t3.5 -41.5v-326h-58v323z" />
    <glyph glyph-name="n" unicode="n" horiz-adv-x="490" 
d="M83 452q16 6 36 12t42 11t45.5 8.5t46.5 3.5q32 0 61 -8t51.5 -26.5t35.5 -49.5t13 -77v-326h-58v323q0 33 -8 55t-22 35t-33.5 18.5t-42.5 5.5q-27 0 -56 -6t-53 -14v-417h-58v452z" />
    <glyph glyph-name="o" unicode="o" horiz-adv-x="458" 
d="M229 487q85 0 131 -58t46 -190t-46 -189.5t-131 -57.5t-131 57.5t-46 189.5t46 190t131 58zM230 437q-27 0 -49 -9t-37 -31.5t-23.5 -60.5t-8.5 -97t8.5 -97t23.5 -60.5t37 -31t49 -8.5q26 0 47.5 8.5t36.5 31t23.5 60.5t8.5 97t-8.5 97t-23.5 60.5t-36.5 31.5t-47.5 9z
" />
    <glyph glyph-name="p" unicode="p" horiz-adv-x="473" 
d="M83 452q39 14 82.5 24.5t81.5 10.5q36 0 67.5 -12t55.5 -40.5t37.5 -76t13.5 -117.5q0 -77 -14.5 -125.5t-39.5 -76t-57 -37.5t-66 -10q-28 0 -53.5 3.5t-49.5 8.5v-192h-58v640zM141 56q26 -6 52.5 -10t51.5 -4t46 7.5t36.5 29.5t24.5 61t9 101q0 59 -8.5 97t-24 60
t-36.5 30.5t-46 8.5q-12 0 -26 -2t-28.5 -5t-27.5 -6.5t-23 -6.5v-361z" />
    <glyph glyph-name="q" unicode="q" horiz-adv-x="473" 
d="M390 -188h-58v192q-25 -5 -50 -8.5t-54 -3.5q-34 0 -66 10t-56.5 37.5t-39 76t-14.5 125.5q0 70 15 117.5t40 76t58 40.5t69 12q39 0 78 -10.5t78 -24.5v-640zM332 417q-20 7 -47 13.5t-50 6.5q-26 0 -48 -8.5t-39 -30.5t-26.5 -60t-9.5 -97q0 -62 9 -101t24.5 -61
t36.5 -29.5t46 -7.5q24 0 51.5 4t52.5 9v362z" />
    <glyph glyph-name="r" unicode="r" horiz-adv-x="303" 
d="M83 452q56 20 105.5 27.5t94.5 7.5v-50q-36 0 -75.5 -5.5t-66.5 -14.5v-417h-58v452z" />
    <glyph glyph-name="s" unicode="s" horiz-adv-x="377" 
d="M314 423q-20 5 -51 9.5t-56 4.5q-40 0 -69 -13.5t-29 -53.5q0 -24 16.5 -42.5t41.5 -35t54.5 -33.5t54.5 -38t41.5 -48t16.5 -64q0 -61 -39 -89t-99 -28q-41 0 -79 8.5t-66 20.5l7 51q28 -12 64.5 -21t73.5 -9q15 0 29 3t25.5 10.5t18 20.5t6.5 33q0 27 -16.5 48
t-41.5 38.5t-54 34.5t-54 36.5t-41.5 44t-16.5 57.5q0 32 12 54.5t33 37t49 21t60 6.5q31 0 62.5 -4t51.5 -9z" />
    <glyph glyph-name="t" unicode="t" horiz-adv-x="312" 
d="M156 621v-142h118v-50h-118v-328q0 -30 12 -44.5t40 -14.5q23 0 43 6t37 13l2 -51q-17 -8 -39.5 -13t-45.5 -5q-21 0 -40.5 5.5t-34 18t-23.5 33.5t-9 53v327h-66v50h66l15 142h43z" />
    <glyph glyph-name="u" unicode="u" horiz-adv-x="477" 
d="M396 28q-34 -14 -76.5 -25t-84.5 -11q-32 0 -61 8.5t-51 28t-34.5 51t-12.5 78.5v321h58v-318q0 -68 27.5 -93.5t74.5 -25.5q27 0 54.5 5.5t47.5 11.5v420h58v-451z" />
    <glyph glyph-name="v" unicode="v" horiz-adv-x="391" 
d="M170 0l-158 479h59l133 -414q16 39 34 90t35 106.5t31.5 111.5t23.5 106h51q-24 -127 -64 -245t-88 -234h-57z" />
    <glyph glyph-name="w" unicode="w" horiz-adv-x="669" 
d="M455 0l-121 413l-124 -413h-64l-128 479h60l103 -410l125 410h58l123 -410q20 58 37 111t30.5 103.5t24.5 98.5t20 97h52q-24 -115 -56.5 -231t-80.5 -248h-59z" />
    <glyph glyph-name="x" unicode="x" horiz-adv-x="389" 
d="M86 479l110 -187l110 187h61l-140 -234l145 -245h-63l-115 196l-117 -196h-60l146 243l-140 236h63z" />
    <glyph glyph-name="y" unicode="y" horiz-adv-x="479" 
d="M396 479v-500q0 -91 -40 -133.5t-120 -42.5q-33 0 -72 6t-72 19l7 51q36 -13 72.5 -19.5t63.5 -6.5q57 0 80 30.5t23 92.5v38q-20 -5 -42.5 -9.5t-60.5 -4.5q-32 0 -61 8.5t-51 28t-34.5 51t-12.5 78.5v313h58v-310q0 -68 27.5 -93.5t74.5 -25.5q33 0 57.5 5t44.5 10v414
h58z" />
    <glyph glyph-name="z" unicode="z" horiz-adv-x="406" 
d="M365 479v-40l-255 -389h261v-50h-332v40l256 389h-249v50h319z" />
    <glyph glyph-name="agrave" unicode="&#xe0;" horiz-adv-x="426" 
d="M83 472q20 5 50.5 10t57.5 5q31 0 60.5 -7t52 -24t36 -46.5t13.5 -74.5v-310q-33 -11 -72 -22t-90 -11q-31 0 -58.5 8t-48 26t-32.5 46.5t-12 70.5q0 41 13 68t35 43t50.5 22.5t59.5 6.5t54 -3t43 -7v61q0 30 -7.5 50t-21 32t-33 16.5t-43.5 4.5q-25 0 -52.5 -4.5
t-50.5 -10.5zM295 222q-22 4 -47 7.5t-51 3.5q-20 0 -37.5 -3.5t-31.5 -14t-22 -29t-8 -48.5q0 -27 7.5 -45.5t20.5 -29.5t30 -16t36 -5q30 0 56 5.5t47 11.5v163zM171 730l71 -161h-57l-81 161h67z" />
    <glyph glyph-name="aacute" unicode="&#xe1;" horiz-adv-x="426" 
d="M83 472q20 5 50.5 10t57.5 5q31 0 60.5 -7t52 -24t36 -46.5t13.5 -74.5v-310q-33 -11 -72 -22t-90 -11q-31 0 -58.5 8t-48 26t-32.5 46.5t-12 70.5q0 41 13 68t35 43t50.5 22.5t59.5 6.5t54 -3t43 -7v61q0 30 -7.5 50t-21 32t-33 16.5t-43.5 4.5q-25 0 -52.5 -4.5
t-50.5 -10.5zM295 222q-22 4 -47 7.5t-51 3.5q-20 0 -37.5 -3.5t-31.5 -14t-22 -29t-8 -48.5q0 -27 7.5 -45.5t20.5 -29.5t30 -16t36 -5q30 0 56 5.5t47 11.5v163zM311 730l-81 -161h-56l71 161h66z" />
    <glyph glyph-name="acircumflex" unicode="&#xe2;" horiz-adv-x="426" 
d="M83 472q20 5 50.5 10t57.5 5q31 0 60.5 -7t52 -24t36 -46.5t13.5 -74.5v-310q-33 -11 -72 -22t-90 -11q-31 0 -58.5 8t-48 26t-32.5 46.5t-12 70.5q0 41 13 68t35 43t50.5 22.5t59.5 6.5t54 -3t43 -7v61q0 30 -7.5 50t-21 32t-33 16.5t-43.5 4.5q-25 0 -52.5 -4.5
t-50.5 -10.5zM295 222q-22 4 -47 7.5t-51 3.5q-20 0 -37.5 -3.5t-31.5 -14t-22 -29t-8 -48.5q0 -27 7.5 -45.5t20.5 -29.5t30 -16t36 -5q30 0 56 5.5t47 11.5v163zM247 730l76 -161h-57l-50 106l-50 -106h-57l76 161h62z" />
    <glyph glyph-name="atilde" unicode="&#xe3;" horiz-adv-x="426" 
d="M83 472q20 5 50.5 10t57.5 5q31 0 60.5 -7t52 -24t36 -46.5t13.5 -74.5v-310q-33 -11 -72 -22t-90 -11q-31 0 -58.5 8t-48 26t-32.5 46.5t-12 70.5q0 41 13 68t35 43t50.5 22.5t59.5 6.5t54 -3t43 -7v61q0 30 -7.5 50t-21 32t-33 16.5t-43.5 4.5q-25 0 -52.5 -4.5
t-50.5 -10.5zM295 222q-22 4 -47 7.5t-51 3.5q-20 0 -37.5 -3.5t-31.5 -14t-22 -29t-8 -48.5q0 -27 7.5 -45.5t20.5 -29.5t30 -16t36 -5q30 0 56 5.5t47 11.5v163zM95 621q8 30 24 48.5t48 18.5q16 0 30.5 -5t27 -11.5t23.5 -11.5t19 -5q10 0 14.5 12t8.5 26l47 -15
q-12 -71 -71 -71q-13 0 -27.5 5t-28 11.5t-25 11.5t-18.5 5q-11 0 -16 -10.5t-10 -23.5z" />
    <glyph glyph-name="adieresis" unicode="&#xe4;" horiz-adv-x="426" 
d="M83 472q20 5 50.5 10t57.5 5q31 0 60.5 -7t52 -24t36 -46.5t13.5 -74.5v-310q-33 -11 -72 -22t-90 -11q-31 0 -58.5 8t-48 26t-32.5 46.5t-12 70.5q0 41 13 68t35 43t50.5 22.5t59.5 6.5t54 -3t43 -7v61q0 30 -7.5 50t-21 32t-33 16.5t-43.5 4.5q-25 0 -52.5 -4.5
t-50.5 -10.5zM295 222q-22 4 -47 7.5t-51 3.5q-20 0 -37.5 -3.5t-31.5 -14t-22 -29t-8 -48.5q0 -27 7.5 -45.5t20.5 -29.5t30 -16t36 -5q30 0 56 5.5t47 11.5v163zM147 688q21 0 31 -11t10 -28t-10 -28t-31 -11q-20 0 -30 11t-10 28t10 28t30 11zM286 688q20 0 30 -11
t10 -28t-10 -28t-30 -11t-30.5 11t-10.5 28t10.5 28t30.5 11z" />
    <glyph glyph-name="amacron" unicode="&#x101;" horiz-adv-x="426" 
d="M83 472q20 5 50.5 10t57.5 5q31 0 60.5 -7t52 -24t36 -46.5t13.5 -74.5v-310q-33 -11 -72 -22t-90 -11q-31 0 -58.5 8t-48 26t-32.5 46.5t-12 70.5q0 41 13 68t35 43t50.5 22.5t59.5 6.5t54 -3t43 -7v61q0 30 -7.5 50t-21 32t-33 16.5t-43.5 4.5q-25 0 -52.5 -4.5
t-50.5 -10.5zM295 222q-22 4 -47 7.5t-51 3.5q-20 0 -37.5 -3.5t-31.5 -14t-22 -29t-8 -48.5q0 -27 7.5 -45.5t20.5 -29.5t30 -16t36 -5q30 0 56 5.5t47 11.5v163zM316 674v-50h-200v50h200z" />
    <glyph glyph-name="abreve" unicode="&#x103;" horiz-adv-x="426" 
d="M83 472q20 5 50.5 10t57.5 5q31 0 60.5 -7t52 -24t36 -46.5t13.5 -74.5v-310q-33 -11 -72 -22t-90 -11q-31 0 -58.5 8t-48 26t-32.5 46.5t-12 70.5q0 41 13 68t35 43t50.5 22.5t59.5 6.5t54 -3t43 -7v61q0 30 -7.5 50t-21 32t-33 16.5t-43.5 4.5q-25 0 -52.5 -4.5
t-50.5 -10.5zM295 222q-22 4 -47 7.5t-51 3.5q-20 0 -37.5 -3.5t-31.5 -14t-22 -29t-8 -48.5q0 -27 7.5 -45.5t20.5 -29.5t30 -16t36 -5q30 0 56 5.5t47 11.5v163zM151 711q1 -32 15.5 -53t49.5 -21t49.5 21t15.5 53h52q0 -62 -34.5 -93t-82.5 -31t-82.5 31t-34.5 93h52z
" />
    <glyph glyph-name="aring" unicode="&#xe5;" horiz-adv-x="426" 
d="M83 472q20 5 50.5 10t57.5 5q31 0 60.5 -7t52 -24t36 -46.5t13.5 -74.5v-310q-33 -11 -72 -22t-90 -11q-31 0 -58.5 8t-48 26t-32.5 46.5t-12 70.5q0 41 13 68t35 43t50.5 22.5t59.5 6.5t54 -3t43 -7v61q0 30 -7.5 50t-21 32t-33 16.5t-43.5 4.5q-25 0 -52.5 -4.5
t-50.5 -10.5zM295 222q-22 4 -47 7.5t-51 3.5q-20 0 -37.5 -3.5t-31.5 -14t-22 -29t-8 -48.5q0 -27 7.5 -45.5t20.5 -29.5t30 -16t36 -5q30 0 56 5.5t47 11.5v163zM297 648q0 -37 -21.5 -59t-59.5 -22t-59 22t-21 59t21 59t59 22t59.5 -22t21.5 -59zM246 648q0 20 -6.5 31
t-23.5 11q-30 0 -30 -42t30 -42q17 0 23.5 11t6.5 31z" />
    <glyph glyph-name="aringacute" unicode="&#x1fb;" horiz-adv-x="426" 
d="M296 648q0 -37 -21 -59t-59 -22t-59.5 22t-21.5 59q0 61 55 77l48 104h66l-62 -104q26 -8 40 -28t14 -49zM246 648q0 42 -30 42q-17 0 -23.5 -11t-6.5 -31t6.5 -31t23.5 -11q30 0 30 42zM83 472q20 5 50.5 10t57.5 5q31 0 60.5 -7t52 -24t36 -46.5t13.5 -74.5v-310
q-33 -11 -72 -22t-90 -11q-31 0 -58.5 8t-48 26t-32.5 46.5t-12 70.5q0 41 13 68t35 43t50.5 22.5t59.5 6.5t54 -3t43 -7v61q0 30 -7.5 50t-21 32t-33 16.5t-43.5 4.5q-25 0 -52.5 -4.5t-50.5 -10.5zM295 222q-22 4 -47 7.5t-51 3.5q-20 0 -37.5 -3.5t-31.5 -14t-22 -29
t-8 -48.5q0 -27 7.5 -45.5t20.5 -29.5t30 -16t36 -5q30 0 56 5.5t47 11.5v163z" />
    <glyph glyph-name="aogonek" unicode="&#x105;" horiz-adv-x="426" 
d="M83 472q20 5 50.5 10t57.5 5q31 0 60.5 -7t52 -24t36 -46.5t13.5 -74.5v-310q-5 -7 -12 -18t-13 -23.5t-10 -26t-4 -26.5q0 -18 7 -24.5t18 -6.5q7 0 20 3t24 8l7 -47q-23 -13 -54 -13q-29 0 -52 16.5t-23 54.5q0 26 7.5 46.5t16.5 35.5q-21 -5 -44 -8.5t-50 -3.5
q-31 0 -58.5 8t-48 26t-32.5 46.5t-12 70.5q0 41 13 68t35 43t50.5 22.5t59.5 6.5t54 -3t43 -7v61q0 30 -7.5 50t-21 32t-33 16.5t-43.5 4.5q-25 0 -52.5 -4.5t-50.5 -10.5zM192 42q30 0 56 5.5t47 11.5v163q-22 4 -47 7.5t-51 3.5q-20 0 -37.5 -3.5t-31.5 -14t-22 -29
t-8 -48.5q0 -27 7.5 -45.5t20.5 -29.5t30 -16t36 -5z" />
    <glyph glyph-name="ae" unicode="&#xe6;" horiz-adv-x="671" 
d="M83 472q21 5 51 10t57 5q50 0 86 -16t57 -54q20 40 52 55t79 15q41 0 70.5 -16t49 -44t29 -65t9.5 -80v-52h-271q0 -48 6.5 -83t23 -58.5t44 -35t69.5 -11.5q12 0 28 2t32 4.5t30 6t23 6.5l4 -50q-21 -8 -53 -13.5t-64 -5.5q-47 0 -85 11.5t-64 38.5q-32 -22 -69 -36
t-85 -14q-31 0 -58.5 8t-48.5 26t-33 46.5t-12 70.5q0 41 13 68t35 43t50.5 22.5t59.5 6.5q25 0 51 -2.5t46 -6.5v60q0 30 -7.5 50t-21 32t-33 16.5t-43.5 4.5q-25 0 -52 -4.5t-50 -10.5zM317 85q-25 52 -26 138q-21 4 -45.5 7t-48.5 3q-20 0 -37.5 -3.5t-31.5 -14t-22 -29
t-8 -48.5q0 -54 27.5 -75t66.5 -21q34 0 68.5 12t56.5 31zM564 279q-2 75 -25 116.5t-75 41.5q-56 0 -81 -41t-30 -117h211z" />
    <glyph glyph-name="aeacute" unicode="&#x1fd;" horiz-adv-x="671" 
d="M83 472q21 5 51 10t57 5q50 0 86 -16t57 -54q20 40 52 55t79 15q41 0 70.5 -16t49 -44t29 -65t9.5 -80v-52h-271q0 -48 6.5 -83t23 -58.5t44 -35t69.5 -11.5q12 0 28 2t32 4.5t30 6t23 6.5l4 -50q-21 -8 -53 -13.5t-64 -5.5q-47 0 -85 11.5t-64 38.5q-32 -22 -69 -36
t-85 -14q-31 0 -58.5 8t-48.5 26t-33 46.5t-12 70.5q0 41 13 68t35 43t50.5 22.5t59.5 6.5q25 0 51 -2.5t46 -6.5v60q0 30 -7.5 50t-21 32t-33 16.5t-43.5 4.5q-25 0 -52 -4.5t-50 -10.5zM317 85q-25 52 -26 138q-21 4 -45.5 7t-48.5 3q-20 0 -37.5 -3.5t-31.5 -14t-22 -29
t-8 -48.5q0 -54 27.5 -75t66.5 -21q34 0 68.5 12t56.5 31zM564 279q-2 75 -25 116.5t-75 41.5q-56 0 -81 -41t-30 -117h211zM447 730l-81 -161h-56l71 161h66z" />
    <glyph glyph-name="cacute" unicode="&#x107;" horiz-adv-x="391" 
d="M332 423q-23 5 -50 9.5t-50 4.5q-27 0 -49.5 -8.5t-38 -30.5t-24 -60.5t-8.5 -98.5t9 -98t25 -60t38 -30.5t48 -8.5t52.5 4t53.5 12l4 -50q-52 -16 -108 -16q-39 0 -72.5 11.5t-57.5 40t-38 76t-14 119.5q0 73 13.5 120.5t37.5 76t57.5 40t73.5 11.5q27 0 55 -4t49 -9z
M327 730l-81 -161h-56l71 161h66z" />
    <glyph glyph-name="ccircumflex" unicode="&#x109;" horiz-adv-x="391" 
d="M332 423q-23 5 -50 9.5t-50 4.5q-27 0 -49.5 -8.5t-38 -30.5t-24 -60.5t-8.5 -98.5t9 -98t25 -60t38 -30.5t48 -8.5t52.5 4t53.5 12l4 -50q-52 -16 -108 -16q-39 0 -72.5 11.5t-57.5 40t-38 76t-14 119.5q0 73 13.5 120.5t37.5 76t57.5 40t73.5 11.5q27 0 55 -4t49 -9z
M251 730l76 -161h-57l-50 106l-50 -106h-57l76 161h62z" />
    <glyph glyph-name="ccaron" unicode="&#x10d;" horiz-adv-x="391" 
d="M332 423q-23 5 -50 9.5t-50 4.5q-27 0 -49.5 -8.5t-38 -30.5t-24 -60.5t-8.5 -98.5t9 -98t25 -60t38 -30.5t48 -8.5t52.5 4t53.5 12l4 -50q-52 -16 -108 -16q-39 0 -72.5 11.5t-57.5 40t-38 76t-14 119.5q0 73 13.5 120.5t37.5 76t57.5 40t73.5 11.5q27 0 55 -4t49 -9z
M189 569l-76 161h57l50 -106l50 106h57l-76 -161h-62z" />
    <glyph glyph-name="cdotaccent" unicode="&#x10b;" horiz-adv-x="391" 
d="M332 423q-23 5 -50 9.5t-50 4.5q-27 0 -49.5 -8.5t-38 -30.5t-24 -60.5t-8.5 -98.5t9 -98t25 -60t38 -30.5t48 -8.5t52.5 4t53.5 12l4 -50q-52 -16 -108 -16q-39 0 -72.5 11.5t-57.5 40t-38 76t-14 119.5q0 73 13.5 120.5t37.5 76t57.5 40t73.5 11.5q27 0 55 -4t49 -9z
M220 689q20 0 30 -11t10 -28t-10 -28t-30 -11t-30 11t-10 28t10 28t30 11z" />
    <glyph glyph-name="ccedilla" unicode="&#xe7;" horiz-adv-x="391" 
d="M332 423q-23 5 -50 9.5t-50 4.5q-27 0 -49.5 -8.5t-38 -30.5t-24 -60.5t-8.5 -98.5t9 -98t25 -60t38 -30.5t48 -8.5t52.5 4t53.5 12l4 -50q-52 -16 -108 -16q-39 0 -72.5 11.5t-57.5 40t-38 76t-14 119.5q0 73 13.5 120.5t37.5 76t57.5 40t73.5 11.5q27 0 55 -4t49 -9z
M240 -53q11 -20 17 -39.5t6 -35.5q0 -32 -16 -50t-52 -18q-14 0 -30.5 4t-27.5 9l10 44q11 -5 21 -8.5t21 -3.5q20 0 20 26q0 18 -6.5 36.5t-14.5 35.5h52z" />
    <glyph glyph-name="dcaron" unicode="&#x10f;" 
d="M389 730v-710q-38 -11 -79 -19.5t-80 -8.5q-36 0 -68.5 11t-57 38.5t-38.5 76t-14 123.5q0 71 14.5 118.5t39 76t56.5 40t66 11.5q31 0 54 -4.5t49 -11.5v259h58zM331 417q-29 9 -53.5 14.5t-50.5 5.5q-23 0 -43.5 -9t-36.5 -31t-25.5 -60t-9.5 -96q0 -62 8.5 -100.5
t24.5 -60.5t38 -30t48 -8q23 0 49.5 4t50.5 9v362zM535 665l-67 -213h-53l61 213h59z" />
    <glyph glyph-name="dcroat" unicode="&#x111;" horiz-adv-x="472" 
d="M204 625h127v105h58v-105h71v-50h-71v-555q-38 -11 -79 -19.5t-80 -8.5q-36 0 -68.5 11t-57 38.5t-38.5 76t-14 123.5q0 71 14.5 118.5t39 76t56.5 40t66 11.5q31 0 54 -4.5t49 -11.5v104h-127v50zM231 42q23 0 49.5 4t50.5 9v362q-29 9 -53.5 14.5t-50.5 5.5
q-23 0 -43.5 -9t-36.5 -31t-25.5 -60t-9.5 -96q0 -62 8.5 -100.5t24.5 -60.5t38 -30t48 -8z" />
    <glyph glyph-name="egrave" unicode="&#xe8;" horiz-adv-x="432" 
d="M113 230q1 -49 7.5 -84.5t23 -58.5t43.5 -34t69 -11q25 0 58 6t55 13l4 -50q-22 -8 -53.5 -13.5t-63.5 -5.5q-47 0 -84.5 10.5t-64 38.5t-41 76t-14.5 122q0 132 46.5 190t127.5 58q40 0 70 -16t49.5 -44t29 -65t9.5 -80v-52h-271zM325 280q-2 75 -25 116t-75 41
q-56 0 -81 -40.5t-30 -116.5h211zM186 730l71 -161h-57l-81 161h67z" />
    <glyph glyph-name="eacute" unicode="&#xe9;" horiz-adv-x="432" 
d="M113 230q1 -49 7.5 -84.5t23 -58.5t43.5 -34t69 -11q25 0 58 6t55 13l4 -50q-22 -8 -53.5 -13.5t-63.5 -5.5q-47 0 -84.5 10.5t-64 38.5t-41 76t-14.5 122q0 132 46.5 190t127.5 58q40 0 70 -16t49.5 -44t29 -65t9.5 -80v-52h-271zM325 280q-2 75 -25 116t-75 41
q-56 0 -81 -40.5t-30 -116.5h211zM330 730l-81 -161h-56l71 161h66z" />
    <glyph glyph-name="ecircumflex" unicode="&#xea;" horiz-adv-x="432" 
d="M113 230q1 -49 7.5 -84.5t23 -58.5t43.5 -34t69 -11q25 0 58 6t55 13l4 -50q-22 -8 -53.5 -13.5t-63.5 -5.5q-47 0 -84.5 10.5t-64 38.5t-41 76t-14.5 122q0 132 46.5 190t127.5 58q40 0 70 -16t49.5 -44t29 -65t9.5 -80v-52h-271zM325 280q-2 75 -25 116t-75 41
q-56 0 -81 -40.5t-30 -116.5h211zM255 730l76 -161h-57l-50 106l-50 -106h-57l76 161h62z" />
    <glyph glyph-name="ecaron" unicode="&#x11b;" horiz-adv-x="432" 
d="M113 230q1 -49 7.5 -84.5t23 -58.5t43.5 -34t69 -11q25 0 58 6t55 13l4 -50q-22 -8 -53.5 -13.5t-63.5 -5.5q-47 0 -84.5 10.5t-64 38.5t-41 76t-14.5 122q0 132 46.5 190t127.5 58q40 0 70 -16t49.5 -44t29 -65t9.5 -80v-52h-271zM325 280q-2 75 -25 116t-75 41
q-56 0 -81 -40.5t-30 -116.5h211zM193 569l-76 161h57l50 -106l50 106h57l-76 -161h-62z" />
    <glyph glyph-name="edieresis" unicode="&#xeb;" horiz-adv-x="432" 
d="M113 230q1 -49 7.5 -84.5t23 -58.5t43.5 -34t69 -11q25 0 58 6t55 13l4 -50q-22 -8 -53.5 -13.5t-63.5 -5.5q-47 0 -84.5 10.5t-64 38.5t-41 76t-14.5 122q0 132 46.5 190t127.5 58q40 0 70 -16t49.5 -44t29 -65t9.5 -80v-52h-271zM325 280q-2 75 -25 116t-75 41
q-56 0 -81 -40.5t-30 -116.5h211zM155 688q21 0 31 -11t10 -28t-10 -28t-31 -11q-20 0 -30 11t-10 28t10 28t30 11zM294 688q20 0 30 -11t10 -28t-10 -28t-30 -11t-30.5 11t-10.5 28t10.5 28t30.5 11z" />
    <glyph glyph-name="emacron" unicode="&#x113;" horiz-adv-x="432" 
d="M113 230q1 -49 7.5 -84.5t23 -58.5t43.5 -34t69 -11q25 0 58 6t55 13l4 -50q-22 -8 -53.5 -13.5t-63.5 -5.5q-47 0 -84.5 10.5t-64 38.5t-41 76t-14.5 122q0 132 46.5 190t127.5 58q40 0 70 -16t49.5 -44t29 -65t9.5 -80v-52h-271zM325 280q-2 75 -25 116t-75 41
q-56 0 -81 -40.5t-30 -116.5h211zM324 674v-50h-200v50h200z" />
    <glyph glyph-name="ebreve" unicode="&#x115;" horiz-adv-x="432" 
d="M113 230q1 -49 7.5 -84.5t23 -58.5t43.5 -34t69 -11q25 0 58 6t55 13l4 -50q-22 -8 -53.5 -13.5t-63.5 -5.5q-47 0 -84.5 10.5t-64 38.5t-41 76t-14.5 122q0 132 46.5 190t127.5 58q40 0 70 -16t49.5 -44t29 -65t9.5 -80v-52h-271zM325 280q-2 75 -25 116t-75 41
q-56 0 -81 -40.5t-30 -116.5h211zM159 711q1 -32 15.5 -53t49.5 -21t49.5 21t15.5 53h52q0 -62 -34.5 -93t-82.5 -31t-82.5 31t-34.5 93h52z" />
    <glyph glyph-name="edotaccent" unicode="&#x117;" horiz-adv-x="432" 
d="M113 230q1 -49 7.5 -84.5t23 -58.5t43.5 -34t69 -11q25 0 58 6t55 13l4 -50q-22 -8 -53.5 -13.5t-63.5 -5.5q-47 0 -84.5 10.5t-64 38.5t-41 76t-14.5 122q0 132 46.5 190t127.5 58q40 0 70 -16t49.5 -44t29 -65t9.5 -80v-52h-271zM325 280q-2 75 -25 116t-75 41
q-56 0 -81 -40.5t-30 -116.5h211zM224 689q20 0 30 -11t10 -28t-10 -28t-30 -11t-30 11t-10 28t10 28t30 11z" />
    <glyph glyph-name="eogonek" unicode="&#x119;" horiz-adv-x="432" 
d="M113 230q1 -49 7.5 -84.5t23 -58.5t43.5 -34t69 -11q25 0 58 6t55 13l4 -50q-11 -15 -25 -41.5t-14 -52.5q0 -18 7 -24.5t18 -6.5q7 0 20.5 3t24.5 8l6 -47q-23 -13 -54 -13q-29 0 -52 16.5t-23 54.5q0 29 9 51t19 37q-13 -2 -26.5 -3t-26.5 -1q-47 0 -84.5 10.5
t-64 38.5t-41 76t-14.5 122q0 132 46.5 190t127.5 58q40 0 70 -16t49.5 -44t29 -65t9.5 -80v-52h-271zM325 280q-2 75 -25 116t-75 41q-56 0 -81 -40.5t-30 -116.5h211z" />
    <glyph glyph-name="gcircumflex" unicode="&#x11d;" horiz-adv-x="470" 
d="M390 -21q0 -91 -41 -133.5t-120 -42.5q-32 0 -71 6t-72 19l7 51q35 -13 71.5 -19.5t63.5 -6.5q57 0 80.5 30.5t23.5 92.5v36q-25 -5 -50 -8.5t-54 -3.5q-34 0 -66 9.5t-56.5 36t-39 74.5t-14.5 125q0 70 15 117t40 74.5t58 39t69 11.5q42 0 79.5 -10.5t76.5 -24.5v-473z
M332 417q-20 7 -47 13.5t-50 6.5q-26 0 -48 -8t-39 -29t-26.5 -58.5t-9.5 -96.5q0 -62 9 -100.5t24.5 -59.5t36.5 -28t46 -7q24 0 50.5 4t53.5 10v353zM265 730l76 -161h-57l-50 106l-50 -106h-57l76 161h62z" />
    <glyph glyph-name="gbreve" unicode="&#x11f;" horiz-adv-x="470" 
d="M390 -21q0 -91 -41 -133.5t-120 -42.5q-32 0 -71 6t-72 19l7 51q35 -13 71.5 -19.5t63.5 -6.5q57 0 80.5 30.5t23.5 92.5v36q-25 -5 -50 -8.5t-54 -3.5q-34 0 -66 9.5t-56.5 36t-39 74.5t-14.5 125q0 70 15 117t40 74.5t58 39t69 11.5q42 0 79.5 -10.5t76.5 -24.5v-473z
M332 417q-20 7 -47 13.5t-50 6.5q-26 0 -48 -8t-39 -29t-26.5 -58.5t-9.5 -96.5q0 -62 9 -100.5t24.5 -59.5t36.5 -28t46 -7q24 0 50.5 4t53.5 10v353zM169 711q1 -32 15.5 -53t49.5 -21t49.5 21t15.5 53h52q0 -62 -34.5 -93t-82.5 -31t-82.5 31t-34.5 93h52z" />
    <glyph glyph-name="gdotaccent" unicode="&#x121;" horiz-adv-x="470" 
d="M390 -21q0 -91 -41 -133.5t-120 -42.5q-32 0 -71 6t-72 19l7 51q35 -13 71.5 -19.5t63.5 -6.5q57 0 80.5 30.5t23.5 92.5v36q-25 -5 -50 -8.5t-54 -3.5q-34 0 -66 9.5t-56.5 36t-39 74.5t-14.5 125q0 70 15 117t40 74.5t58 39t69 11.5q42 0 79.5 -10.5t76.5 -24.5v-473z
M332 417q-20 7 -47 13.5t-50 6.5q-26 0 -48 -8t-39 -29t-26.5 -58.5t-9.5 -96.5q0 -62 9 -100.5t24.5 -59.5t36.5 -28t46 -7q24 0 50.5 4t53.5 10v353zM234 689q20 0 30 -11t10 -28t-10 -28t-30 -11t-30 11t-10 28t10 28t30 11z" />
    <glyph glyph-name="gcommaaccent" unicode="&#x123;" horiz-adv-x="470" 
d="M390 -21q0 -91 -41 -133.5t-120 -42.5q-32 0 -71 6t-72 19l7 51q35 -13 71.5 -19.5t63.5 -6.5q57 0 80.5 30.5t23.5 92.5v36q-25 -5 -50 -8.5t-54 -3.5q-34 0 -66 9.5t-56.5 36t-39 74.5t-14.5 125q0 70 15 117t40 74.5t58 39t69 11.5q42 0 79.5 -10.5t76.5 -24.5v-473z
M332 417q-20 7 -47 13.5t-50 6.5q-26 0 -48 -8t-39 -29t-26.5 -58.5t-9.5 -96.5q0 -62 9 -100.5t24.5 -59.5t36.5 -28t46 -7q24 0 50.5 4t53.5 10v353zM194 569l81 161h56l-71 -161h-66z" />
    <glyph glyph-name="hcircumflex" unicode="&#x125;" horiz-adv-x="490" 
d="M83 730h58v-261q26 8 54 13t58 5q32 0 61 -8t51.5 -26.5t35.5 -49.5t13 -77v-326h-58v323q0 33 -8 55t-22 35t-33.5 18.5t-42.5 5.5q-27 0 -56 -6t-53 -14v-417h-58v730zM144 942l76 -161h-57l-50 106l-50 -106h-57l76 161h62z" />
    <glyph glyph-name="hbar" unicode="&#x127;" horiz-adv-x="490" 
d="M83 575h-71v50h71v105h58v-105h127v-50h-127v-106q26 8 54 13t58 5q32 0 61 -8t51.5 -26.5t35.5 -49.5t13 -77v-326h-58v323q0 33 -8 55t-22 35t-33.5 18.5t-42.5 5.5q-27 0 -56 -6t-53 -14v-417h-58v575z" />
    <glyph glyph-name="igrave" unicode="&#xec;" horiz-adv-x="224" 
d="M141 479v-479h-58v479h58zM70 730l71 -161h-57l-81 161h67z" />
    <glyph glyph-name="iacute" unicode="&#xed;" horiz-adv-x="224" 
d="M141 479v-479h-58v479h58zM222 730l-81 -161h-56l71 161h66z" />
    <glyph glyph-name="icircumflex" unicode="&#xee;" horiz-adv-x="224" 
d="M141 479v-479h-58v479h58zM143 730l76 -161h-57l-50 106l-50 -106h-57l76 161h62z" />
    <glyph glyph-name="itilde" unicode="&#x129;" horiz-adv-x="224" 
d="M141 479v-479h-58v479h58zM-9 621q8 30 24 48.5t48 18.5q16 0 30.5 -5t27 -11.5t23.5 -11.5t19 -5q10 0 14.5 12t8.5 26l47 -15q-12 -71 -71 -71q-13 0 -27.5 5t-28 11.5t-25 11.5t-18.5 5q-11 0 -16 -10.5t-10 -23.5z" />
    <glyph glyph-name="idieresis" unicode="&#xef;" horiz-adv-x="224" 
d="M141 479v-479h-58v479h58zM42 688q21 0 31 -11t10 -28t-10 -28t-31 -11q-20 0 -30 11t-10 28t10 28t30 11zM181 688q20 0 30 -11t10 -28t-10 -28t-30 -11t-30.5 11t-10.5 28t10.5 28t30.5 11z" />
    <glyph glyph-name="imacron" unicode="&#x12b;" horiz-adv-x="224" 
d="M141 479v-479h-58v479h58zM212 674v-50h-200v50h200z" />
    <glyph glyph-name="ibreve" unicode="&#x12d;" horiz-adv-x="224" 
d="M141 479v-479h-58v479h58zM47 711q1 -32 15.5 -53t49.5 -21t49.5 21t15.5 53h52q0 -62 -34.5 -93t-82.5 -31t-82.5 31t-34.5 93h52z" />
    <glyph glyph-name="iogonek" unicode="&#x12f;" horiz-adv-x="224" 
d="M83 479h58v-478q-5 -7 -12 -18t-13 -23.5t-10 -26t-4 -26.5q0 -18 7 -24.5t18 -6.5q7 0 20 3t24 8l7 -47q-23 -13 -54 -13q-29 0 -52 16.5t-23 54.5q0 36 13.5 62.5t21.5 39.5h-1v479zM152 666q0 -17 -10 -28t-30 -11q-21 0 -31 11t-10 28t10 28t31 11q20 0 30 -11
t10 -28z" />
    <glyph glyph-name="dotlessi" unicode="&#x131;" horiz-adv-x="224" 
d="M141 479v-479h-58v479h58z" />
    <glyph glyph-name="jcircumflex" unicode="&#x135;" horiz-adv-x="224" 
d="M141 479v-424q0 -41 -4.5 -71t-18 -58t-37.5 -57.5t-62 -70.5l-37 35q32 35 51.5 61.5t30.5 51t15 50t4 59.5v424h58zM143 730l76 -161h-57l-50 106l-50 -106h-57l76 161h62z" />
    <glyph glyph-name="kcommaaccent" unicode="&#x137;" horiz-adv-x="433" 
d="M141 730v-484l199 233h68l-164 -193q20 -6 37 -19t31 -31t25 -40t20 -45l56 -151h-63l-47 126q-15 41 -38 76t-55 43l-69 -76v-169h-58v730h58zM285 -46l-75 -142h-55l67 142h63z" />
    <glyph glyph-name="lacute" unicode="&#x13a;" horiz-adv-x="224" 
d="M141 730v-730h-58v730h58zM220 933l-81 -161h-56l71 161h66z" />
    <glyph glyph-name="lcaron" unicode="&#x13e;" horiz-adv-x="257" 
d="M141 730v-730h-58v730h58zM288 665l-67 -213h-53l61 213h59z" />
    <glyph glyph-name="lcommaaccent" unicode="&#x13c;" horiz-adv-x="224" 
d="M141 730v-730h-58v730h58zM146 -46l-75 -142h-55l67 142h63z" />
    <glyph glyph-name="lslash" unicode="&#x142;" horiz-adv-x="224" 
d="M141 730v-322l63 31v-55l-63 -31v-353h-58v325l-63 -30v55l63 30v350h58z" />
    <glyph glyph-name="nacute" unicode="&#x144;" horiz-adv-x="490" 
d="M83 452q16 6 36 12t42 11t45.5 8.5t46.5 3.5q32 0 61 -8t51.5 -26.5t35.5 -49.5t13 -77v-326h-58v323q0 33 -8 55t-22 35t-33.5 18.5t-42.5 5.5q-27 0 -56 -6t-53 -14v-417h-58v452zM350 730l-81 -161h-56l71 161h66z" />
    <glyph glyph-name="ncaron" unicode="&#x148;" horiz-adv-x="490" 
d="M83 452q16 6 36 12t42 11t45.5 8.5t46.5 3.5q32 0 61 -8t51.5 -26.5t35.5 -49.5t13 -77v-326h-58v323q0 33 -8 55t-22 35t-33.5 18.5t-42.5 5.5q-27 0 -56 -6t-53 -14v-417h-58v452zM218 569l-76 161h57l50 -106l50 106h57l-76 -161h-62z" />
    <glyph glyph-name="ntilde" unicode="&#xf1;" horiz-adv-x="490" 
d="M83 452q16 6 36 12t42 11t45.5 8.5t46.5 3.5q32 0 61 -8t51.5 -26.5t35.5 -49.5t13 -77v-326h-58v323q0 33 -8 55t-22 35t-33.5 18.5t-42.5 5.5q-27 0 -56 -6t-53 -14v-417h-58v452zM129 621q8 30 24 48.5t48 18.5q16 0 30.5 -5t27 -11.5t23.5 -11.5t19 -5q10 0 14.5 12
t8.5 26l47 -15q-12 -71 -71 -71q-13 0 -27.5 5t-28 11.5t-25 11.5t-18.5 5q-11 0 -16 -10.5t-10 -23.5z" />
    <glyph glyph-name="ncommaaccent" unicode="&#x146;" horiz-adv-x="490" 
d="M83 452q16 6 36 12t42 11t45.5 8.5t46.5 3.5q32 0 61 -8t51.5 -26.5t35.5 -49.5t13 -77v-326h-58v323q0 33 -8 55t-22 35t-33.5 18.5t-42.5 5.5q-27 0 -56 -6t-53 -14v-417h-58v452zM293 -46l-75 -142h-55l67 142h63z" />
    <glyph glyph-name="ograve" unicode="&#xf2;" horiz-adv-x="458" 
d="M229 487q85 0 131 -58t46 -190t-46 -189.5t-131 -57.5t-131 57.5t-46 189.5t46 190t131 58zM230 437q-27 0 -49 -9t-37 -31.5t-23.5 -60.5t-8.5 -97t8.5 -97t23.5 -60.5t37 -31t49 -8.5q26 0 47.5 8.5t36.5 31t23.5 60.5t8.5 97t-8.5 97t-23.5 60.5t-36.5 31.5t-47.5 9z
M179 730l71 -161h-57l-81 161h67z" />
    <glyph glyph-name="oacute" unicode="&#xf3;" horiz-adv-x="458" 
d="M229 487q85 0 131 -58t46 -190t-46 -189.5t-131 -57.5t-131 57.5t-46 189.5t46 190t131 58zM230 437q-27 0 -49 -9t-37 -31.5t-23.5 -60.5t-8.5 -97t8.5 -97t23.5 -60.5t37 -31t49 -8.5q26 0 47.5 8.5t36.5 31t23.5 60.5t8.5 97t-8.5 97t-23.5 60.5t-36.5 31.5t-47.5 9z
M338 730l-81 -161h-56l71 161h66z" />
    <glyph glyph-name="ocircumflex" unicode="&#xf4;" horiz-adv-x="458" 
d="M229 487q85 0 131 -58t46 -190t-46 -189.5t-131 -57.5t-131 57.5t-46 189.5t46 190t131 58zM230 437q-27 0 -49 -9t-37 -31.5t-23.5 -60.5t-8.5 -97t8.5 -97t23.5 -60.5t37 -31t49 -8.5q26 0 47.5 8.5t36.5 31t23.5 60.5t8.5 97t-8.5 97t-23.5 60.5t-36.5 31.5t-47.5 9z
M259 730l76 -161h-57l-50 106l-50 -106h-57l76 161h62z" />
    <glyph glyph-name="otilde" unicode="&#xf5;" horiz-adv-x="458" 
d="M229 487q85 0 131 -58t46 -190t-46 -189.5t-131 -57.5t-131 57.5t-46 189.5t46 190t131 58zM230 437q-27 0 -49 -9t-37 -31.5t-23.5 -60.5t-8.5 -97t8.5 -97t23.5 -60.5t37 -31t49 -8.5q26 0 47.5 8.5t36.5 31t23.5 60.5t8.5 97t-8.5 97t-23.5 60.5t-36.5 31.5t-47.5 9z
M107 621q8 30 24 48.5t48 18.5q16 0 30.5 -5t27 -11.5t23.5 -11.5t19 -5q10 0 14.5 12t8.5 26l47 -15q-12 -71 -71 -71q-13 0 -27.5 5t-28 11.5t-25 11.5t-18.5 5q-11 0 -16 -10.5t-10 -23.5z" />
    <glyph glyph-name="odieresis" unicode="&#xf6;" horiz-adv-x="458" 
d="M229 487q85 0 131 -58t46 -190t-46 -189.5t-131 -57.5t-131 57.5t-46 189.5t46 190t131 58zM230 437q-27 0 -49 -9t-37 -31.5t-23.5 -60.5t-8.5 -97t8.5 -97t23.5 -60.5t37 -31t49 -8.5q26 0 47.5 8.5t36.5 31t23.5 60.5t8.5 97t-8.5 97t-23.5 60.5t-36.5 31.5t-47.5 9z
M158 688q21 0 31 -11t10 -28t-10 -28t-31 -11q-20 0 -30 11t-10 28t10 28t30 11zM297 688q20 0 30 -11t10 -28t-10 -28t-30 -11t-30.5 11t-10.5 28t10.5 28t30.5 11z" />
    <glyph glyph-name="omacron" unicode="&#x14d;" horiz-adv-x="458" 
d="M229 487q85 0 131 -58t46 -190t-46 -189.5t-131 -57.5t-131 57.5t-46 189.5t46 190t131 58zM230 437q-27 0 -49 -9t-37 -31.5t-23.5 -60.5t-8.5 -97t8.5 -97t23.5 -60.5t37 -31t49 -8.5q26 0 47.5 8.5t36.5 31t23.5 60.5t8.5 97t-8.5 97t-23.5 60.5t-36.5 31.5t-47.5 9z
M329 674v-50h-200v50h200z" />
    <glyph glyph-name="obreve" unicode="&#x14f;" horiz-adv-x="458" 
d="M229 487q85 0 131 -58t46 -190t-46 -189.5t-131 -57.5t-131 57.5t-46 189.5t46 190t131 58zM230 437q-27 0 -49 -9t-37 -31.5t-23.5 -60.5t-8.5 -97t8.5 -97t23.5 -60.5t37 -31t49 -8.5q26 0 47.5 8.5t36.5 31t23.5 60.5t8.5 97t-8.5 97t-23.5 60.5t-36.5 31.5t-47.5 9z
M164 711q1 -32 15.5 -53t49.5 -21t49.5 21t15.5 53h52q0 -62 -34.5 -93t-82.5 -31t-82.5 31t-34.5 93h52z" />
    <glyph glyph-name="ohungarumlaut" unicode="&#x151;" horiz-adv-x="458" 
d="M229 487q85 0 131 -58t46 -190t-46 -189.5t-131 -57.5t-131 57.5t-46 189.5t46 190t131 58zM230 437q-27 0 -49 -9t-37 -31.5t-23.5 -60.5t-8.5 -97t8.5 -97t23.5 -60.5t37 -31t49 -8.5q26 0 47.5 8.5t36.5 31t23.5 60.5t8.5 97t-8.5 97t-23.5 60.5t-36.5 31.5t-47.5 9z
M260 730l-56 -161h-49l42 161h63zM372 730l-76 -161h-50l61 161h65z" />
    <glyph glyph-name="oslash" unicode="&#xf8;" horiz-adv-x="458" 
d="M229 487q53 0 90 -22l39 78l41 -20l-43 -89q24 -30 37 -78t13 -117q0 -132 -46 -189.5t-131 -57.5q-47 0 -83 17l-46 -90l-41 21l48 98q-27 29 -41 78.5t-14 122.5q0 132 46 190t131 58zM230 437q-27 0 -49 -9t-37 -31.5t-23.5 -60.5t-8.5 -97q0 -51 6 -86t18 -58
l159 322q-26 20 -65 20zM346 239q0 89 -20 135l-157 -317q13 -8 28.5 -11.5t32.5 -3.5q26 0 47.5 8.5t36.5 31t23.5 60.5t8.5 97z" />
    <glyph glyph-name="oslashacute" unicode="&#x1ff;" horiz-adv-x="458" 
d="M229 487q53 0 90 -22l39 78l41 -20l-43 -89q24 -30 37 -78t13 -117q0 -132 -46 -189.5t-131 -57.5q-47 0 -83 17l-46 -90l-41 21l48 98q-27 29 -41 78.5t-14 122.5q0 132 46 190t131 58zM230 437q-27 0 -49 -9t-37 -31.5t-23.5 -60.5t-8.5 -97q0 -51 6 -86t18 -58
l159 322q-26 20 -65 20zM346 239q0 89 -20 135l-157 -317q13 -8 28.5 -11.5t32.5 -3.5q26 0 47.5 8.5t36.5 31t23.5 60.5t8.5 97zM338 730l-81 -161h-56l71 161h66z" />
    <glyph glyph-name="oe" unicode="&#x153;" horiz-adv-x="726" 
d="M407 230q0 -48 6.5 -83t23 -58.5t44 -35t69.5 -11.5q12 0 28 2t32 4.5t30 6t23 6.5l4 -50q-21 -8 -52.5 -13.5t-64.5 -5.5q-63 0 -107.5 19.5t-66.5 72.5q-19 -51 -55 -71.5t-92 -20.5q-85 0 -131 57.5t-46 189.5t46 190t131 58q54 0 90.5 -21.5t56.5 -70.5
q20 49 56 70.5t88 21.5q40 0 70 -16t49.5 -44t29 -65t9.5 -80v-52h-271zM230 437q-27 0 -49 -9t-37 -31.5t-23.5 -60.5t-8.5 -97t8.5 -97t23.5 -60.5t37 -31t49 -8.5q26 0 47.5 8.5t36.5 31t23.5 60.5t8.5 97t-8.5 97t-23.5 60.5t-36.5 31.5t-47.5 9zM619 280q-2 75 -25 116
t-75 41q-56 0 -81 -40.5t-30 -116.5h211z" />
    <glyph glyph-name="racute" unicode="&#x155;" horiz-adv-x="303" 
d="M83 452q56 20 105.5 27.5t94.5 7.5v-50q-36 0 -75.5 -5.5t-66.5 -14.5v-417h-58v452zM287 730l-81 -161h-56l71 161h66z" />
    <glyph glyph-name="rcommaaccent" unicode="&#x157;" horiz-adv-x="303" 
d="M83 452q56 20 105.5 27.5t94.5 7.5v-50q-36 0 -75.5 -5.5t-66.5 -14.5v-417h-58v452zM142 -46l-75 -142h-55l67 142h63z" />
    <glyph glyph-name="rcaron" unicode="&#x159;" horiz-adv-x="303" 
d="M83 452q56 20 105.5 27.5t94.5 7.5v-50q-36 0 -75.5 -5.5t-66.5 -14.5v-417h-58v452zM153 569l-76 161h57l50 -106l50 106h57l-76 -161h-62z" />
    <glyph glyph-name="sacute" unicode="&#x15b;" horiz-adv-x="377" 
d="M314 423q-20 5 -51 9.5t-56 4.5q-40 0 -69 -13.5t-29 -53.5q0 -24 16.5 -42.5t41.5 -35t54.5 -33.5t54.5 -38t41.5 -48t16.5 -64q0 -61 -39 -89t-99 -28q-41 0 -79 8.5t-66 20.5l7 51q28 -12 64.5 -21t73.5 -9q15 0 29 3t25.5 10.5t18 20.5t6.5 33q0 27 -16.5 48
t-41.5 38.5t-54 34.5t-54 36.5t-41.5 44t-16.5 57.5q0 32 12 54.5t33 37t49 21t60 6.5q31 0 62.5 -4t51.5 -9zM288 730l-81 -161h-56l71 161h66z" />
    <glyph glyph-name="scircumflex" unicode="&#x15d;" horiz-adv-x="377" 
d="M314 423q-20 5 -51 9.5t-56 4.5q-40 0 -69 -13.5t-29 -53.5q0 -24 16.5 -42.5t41.5 -35t54.5 -33.5t54.5 -38t41.5 -48t16.5 -64q0 -61 -39 -89t-99 -28q-41 0 -79 8.5t-66 20.5l7 51q28 -12 64.5 -21t73.5 -9q15 0 29 3t25.5 10.5t18 20.5t6.5 33q0 27 -16.5 48
t-41.5 38.5t-54 34.5t-54 36.5t-41.5 44t-16.5 57.5q0 32 12 54.5t33 37t49 21t60 6.5q31 0 62.5 -4t51.5 -9zM222 730l76 -161h-57l-50 106l-50 -106h-57l76 161h62z" />
    <glyph glyph-name="scaron" unicode="&#x161;" horiz-adv-x="377" 
d="M314 423q-20 5 -51 9.5t-56 4.5q-40 0 -69 -13.5t-29 -53.5q0 -24 16.5 -42.5t41.5 -35t54.5 -33.5t54.5 -38t41.5 -48t16.5 -64q0 -61 -39 -89t-99 -28q-41 0 -79 8.5t-66 20.5l7 51q28 -12 64.5 -21t73.5 -9q15 0 29 3t25.5 10.5t18 20.5t6.5 33q0 27 -16.5 48
t-41.5 38.5t-54 34.5t-54 36.5t-41.5 44t-16.5 57.5q0 32 12 54.5t33 37t49 21t60 6.5q31 0 62.5 -4t51.5 -9zM147 569l-76 161h57l50 -106l50 106h57l-76 -161h-62z" />
    <glyph glyph-name="scedilla" unicode="&#x15f;" horiz-adv-x="377" 
d="M314 423q-20 5 -51 9.5t-56 4.5q-40 0 -69 -13.5t-29 -53.5q0 -24 16.5 -42.5t41.5 -35t54.5 -33.5t54.5 -38t41.5 -48t16.5 -64q0 -61 -39 -89t-99 -28q-41 0 -79 8.5t-66 20.5l7 51q28 -12 64.5 -21t73.5 -9q15 0 29 3t25.5 10.5t18 20.5t6.5 33q0 27 -16.5 48
t-41.5 38.5t-54 34.5t-54 36.5t-41.5 44t-16.5 57.5q0 32 12 54.5t33 37t49 21t60 6.5q31 0 62.5 -4t51.5 -9zM222 -53q11 -20 17 -39.5t6 -35.5q0 -32 -16 -50t-52 -18q-14 0 -30.5 4t-27.5 9l10 44q11 -5 21 -8.5t21 -3.5q20 0 20 26q0 18 -6.5 36.5t-14.5 35.5h52z" />
    <glyph glyph-name="scommaaccent" unicode="&#x219;" horiz-adv-x="377" 
d="M314 423q-20 5 -51 9.5t-56 4.5q-40 0 -69 -13.5t-29 -53.5q0 -24 16.5 -42.5t41.5 -35t54.5 -33.5t54.5 -38t41.5 -48t16.5 -64q0 -61 -39 -89t-99 -28q-41 0 -79 8.5t-66 20.5l7 51q28 -12 64.5 -21t73.5 -9q15 0 29 3t25.5 10.5t18 20.5t6.5 33q0 27 -16.5 48
t-41.5 38.5t-54 34.5t-54 36.5t-41.5 44t-16.5 57.5q0 32 12 54.5t33 37t49 21t60 6.5q31 0 62.5 -4t51.5 -9zM255 -46l-75 -142h-55l67 142h63z" />
    <glyph glyph-name="germandbls" unicode="&#xdf;" horiz-adv-x="434" 
d="M84 574q0 79 36.5 121.5t110.5 42.5q68 0 107 -41t39 -112q0 -27 -5.5 -48t-14 -38.5t-19 -31t-20.5 -25.5q-16 -18 -27.5 -36t-11.5 -46q0 -15 4.5 -26t13 -21.5t20 -22t25.5 -26.5t29.5 -31t28 -34t21 -38t8.5 -44q0 -36 -11 -60t-30 -38.5t-43.5 -20.5t-52.5 -6
q-23 0 -48 4.5t-47 12.5l7 50q23 -8 46.5 -12.5t40.5 -4.5q18 0 32.5 2.5t25 10.5t16.5 22t6 38q0 31 -21 57t-45 50q-15 15 -30 29.5t-26.5 30.5t-19 34.5t-7.5 42.5q0 41 15.5 66t34.5 47q18 22 33 46.5t15 67.5q0 55 -25 78.5t-64 23.5q-49 0 -69.5 -26.5t-20.5 -87.5
v-574h-57v574z" />
    <glyph glyph-name="longs" unicode="&#x17f;" horiz-adv-x="295" 
d="M101 479v91q0 84 40.5 123.5t109.5 39.5q17 0 36 -1.5t36 -5.5l-5 -49q-17 4 -34 5t-33 1q-20 0 -36.5 -5t-29.5 -18t-20 -35t-7 -55v-570h-57v429h-65v50h65z" />
    <glyph glyph-name="tcaron" unicode="&#x165;" horiz-adv-x="312" 
d="M308 665l-50 -140h-51l42 140h59zM156 621v-142h118v-50h-118v-328q0 -30 12 -44.5t40 -14.5q23 0 43 6t37 13l2 -51q-17 -8 -39.5 -13t-45.5 -5q-21 0 -40.5 5.5t-34 18t-23.5 33.5t-9 53v327h-66v50h66l15 142h43z" />
    <glyph glyph-name="tcommaaccent" unicode="&#x163;" horiz-adv-x="312" 
d="M156 621v-142h118v-50h-118v-328q0 -30 12 -44.5t40 -14.5q23 0 43 6t37 13l2 -51q-17 -8 -39.5 -13t-45.5 -5q-21 0 -40.5 5.5t-34 18t-23.5 33.5t-9 53v327h-66v50h66l15 142h43zM241 -46l-75 -142h-55l67 142h63z" />
    <glyph glyph-name="tbar" unicode="&#x167;" horiz-adv-x="325" 
d="M44 268h66v161h-66v50h66l15 142h43v-142h118v-50h-118v-161h102v-50h-102v-117q0 -30 12 -44.5t40 -14.5q23 0 43 6t37 13l2 -51q-17 -8 -39.5 -13t-45.5 -5q-21 0 -40.5 5.5t-34 18t-23.5 33.5t-9 53v116h-66v50z" />
    <glyph glyph-name="ugrave" unicode="&#xf9;" horiz-adv-x="477" 
d="M396 28q-34 -14 -76.5 -25t-84.5 -11q-32 0 -61 8.5t-51 28t-34.5 51t-12.5 78.5v321h58v-318q0 -68 27.5 -93.5t74.5 -25.5q27 0 54.5 5.5t47.5 11.5v420h58v-451zM203 730l71 -161h-57l-81 161h67z" />
    <glyph glyph-name="uacute" unicode="&#xfa;" horiz-adv-x="477" 
d="M396 28q-34 -14 -76.5 -25t-84.5 -11q-32 0 -61 8.5t-51 28t-34.5 51t-12.5 78.5v321h58v-318q0 -68 27.5 -93.5t74.5 -25.5q27 0 54.5 5.5t47.5 11.5v420h58v-451zM335 730l-81 -161h-56l71 161h66z" />
    <glyph glyph-name="ucircumflex" unicode="&#xfb;" horiz-adv-x="477" 
d="M396 28q-34 -14 -76.5 -25t-84.5 -11q-32 0 -61 8.5t-51 28t-34.5 51t-12.5 78.5v321h58v-318q0 -68 27.5 -93.5t74.5 -25.5q27 0 54.5 5.5t47.5 11.5v420h58v-451zM267 730l76 -161h-57l-50 106l-50 -106h-57l76 161h62z" />
    <glyph glyph-name="utilde" unicode="&#x169;" horiz-adv-x="477" 
d="M396 28q-34 -14 -76.5 -25t-84.5 -11q-32 0 -61 8.5t-51 28t-34.5 51t-12.5 78.5v321h58v-318q0 -68 27.5 -93.5t74.5 -25.5q27 0 54.5 5.5t47.5 11.5v420h58v-451zM115 621q8 30 24 48.5t48 18.5q16 0 30.5 -5t27 -11.5t23.5 -11.5t19 -5q10 0 14.5 12t8.5 26l47 -15
q-12 -71 -71 -71q-13 0 -27.5 5t-28 11.5t-25 11.5t-18.5 5q-11 0 -16 -10.5t-10 -23.5z" />
    <glyph glyph-name="udieresis" unicode="&#xfc;" horiz-adv-x="477" 
d="M396 28q-34 -14 -76.5 -25t-84.5 -11q-32 0 -61 8.5t-51 28t-34.5 51t-12.5 78.5v321h58v-318q0 -68 27.5 -93.5t74.5 -25.5q27 0 54.5 5.5t47.5 11.5v420h58v-451zM167 688q21 0 31 -11t10 -28t-10 -28t-31 -11q-20 0 -30 11t-10 28t10 28t30 11zM306 688q20 0 30 -11
t10 -28t-10 -28t-30 -11t-30.5 11t-10.5 28t10.5 28t30.5 11z" />
    <glyph glyph-name="umacron" unicode="&#x16b;" horiz-adv-x="477" 
d="M396 28q-34 -14 -76.5 -25t-84.5 -11q-32 0 -61 8.5t-51 28t-34.5 51t-12.5 78.5v321h58v-318q0 -68 27.5 -93.5t74.5 -25.5q27 0 54.5 5.5t47.5 11.5v420h58v-451zM343 674v-50h-200v50h200z" />
    <glyph glyph-name="ubreve" unicode="&#x16d;" horiz-adv-x="477" 
d="M396 28q-34 -14 -76.5 -25t-84.5 -11q-32 0 -61 8.5t-51 28t-34.5 51t-12.5 78.5v321h58v-318q0 -68 27.5 -93.5t74.5 -25.5q27 0 54.5 5.5t47.5 11.5v420h58v-451zM178 711q1 -32 15.5 -53t49.5 -21t49.5 21t15.5 53h52q0 -62 -34.5 -93t-82.5 -31t-82.5 31t-34.5 93h52
z" />
    <glyph glyph-name="uring" unicode="&#x16f;" horiz-adv-x="477" 
d="M396 28q-34 -14 -76.5 -25t-84.5 -11q-32 0 -61 8.5t-51 28t-34.5 51t-12.5 78.5v321h58v-318q0 -68 27.5 -93.5t74.5 -25.5q27 0 54.5 5.5t47.5 11.5v420h58v-451zM324 648q0 -37 -21.5 -59t-59.5 -22t-59 22t-21 59t21 59t59 22t59.5 -22t21.5 -59zM273 648
q0 20 -6.5 31t-23.5 11q-30 0 -30 -42t30 -42q17 0 23.5 11t6.5 31z" />
    <glyph glyph-name="uhungarumlaut" unicode="&#x171;" horiz-adv-x="477" 
d="M396 28q-34 -14 -76.5 -25t-84.5 -11q-32 0 -61 8.5t-51 28t-34.5 51t-12.5 78.5v321h58v-318q0 -68 27.5 -93.5t74.5 -25.5q27 0 54.5 5.5t47.5 11.5v420h58v-451zM270 730l-56 -161h-49l42 161h63zM382 730l-76 -161h-50l61 161h65z" />
    <glyph glyph-name="uogonek" unicode="&#x173;" horiz-adv-x="477" 
d="M396 27q-5 -7 -12 -18t-13 -24t-10 -26.5t-4 -26.5q0 -18 7 -24.5t18 -6.5q7 0 20 3t24 8l7 -47q-23 -13 -54 -13q-29 0 -52 16.5t-23 54.5q0 26 7.5 46t15.5 35q-21 -5 -45 -8.5t-47 -3.5q-31 0 -60 8.5t-51 28t-35 51t-13 78.5v321h58v-318q0 -34 8.5 -57t22.5 -36.5
t32.5 -19.5t38.5 -6q27 0 54.5 5.5t47.5 11.5v420h58v-452z" />
    <glyph glyph-name="wgrave" unicode="&#x1e81;" horiz-adv-x="669" 
d="M294 730l71 -161h-57l-81 161h67zM455 0l-121 413l-124 -413h-64l-128 479h60l103 -410l125 410h58l123 -410q20 58 37 111t30.5 103.5t24.5 98.5t20 97h52q-24 -115 -56.5 -231t-80.5 -248h-59z" />
    <glyph glyph-name="wacute" unicode="&#x1e83;" horiz-adv-x="669" 
d="M446 730l-81 -161h-56l71 161h66zM455 0l-121 413l-124 -413h-64l-128 479h60l103 -410l125 410h58l123 -410q20 58 37 111t30.5 103.5t24.5 98.5t20 97h52q-24 -115 -56.5 -231t-80.5 -248h-59z" />
    <glyph glyph-name="wcircumflex" unicode="&#x175;" horiz-adv-x="669" 
d="M365 730l76 -161h-57l-50 106l-50 -106h-57l76 161h62zM455 0l-121 413l-124 -413h-64l-128 479h60l103 -410l125 410h58l123 -410q20 58 37 111t30.5 103.5t24.5 98.5t20 97h52q-24 -115 -56.5 -231t-80.5 -248h-59z" />
    <glyph glyph-name="wdieresis" unicode="&#x1e85;" horiz-adv-x="669" 
d="M265 688q21 0 31 -11t10 -28t-10 -28t-31 -11q-20 0 -30 11t-10 28t10 28t30 11zM404 688q20 0 30 -11t10 -28t-10 -28t-30 -11t-30.5 11t-10.5 28t10.5 28t30.5 11zM455 0l-121 413l-124 -413h-64l-128 479h60l103 -410l125 410h58l123 -410q20 58 37 111t30.5 103.5
t24.5 98.5t20 97h52q-24 -115 -56.5 -231t-80.5 -248h-59z" />
    <glyph glyph-name="ygrave" unicode="&#x1ef3;" horiz-adv-x="479" 
d="M396 479v-500q0 -91 -40 -133.5t-120 -42.5q-33 0 -72 6t-72 19l7 51q36 -13 72.5 -19.5t63.5 -6.5q57 0 80 30.5t23 92.5v38q-20 -5 -42.5 -9.5t-60.5 -4.5q-32 0 -61 8.5t-51 28t-34.5 51t-12.5 78.5v313h58v-310q0 -68 27.5 -93.5t74.5 -25.5q33 0 57.5 5t44.5 10v414
h58zM207 730l71 -161h-57l-81 161h67z" />
    <glyph glyph-name="yacute" unicode="&#xfd;" horiz-adv-x="479" 
d="M396 479v-500q0 -91 -40 -133.5t-120 -42.5q-33 0 -72 6t-72 19l7 51q36 -13 72.5 -19.5t63.5 -6.5q57 0 80 30.5t23 92.5v38q-20 -5 -42.5 -9.5t-60.5 -4.5q-32 0 -61 8.5t-51 28t-34.5 51t-12.5 78.5v313h58v-310q0 -68 27.5 -93.5t74.5 -25.5q33 0 57.5 5t44.5 10v414
h58zM351 730l-81 -161h-56l71 161h66z" />
    <glyph glyph-name="ycircumflex" unicode="&#x177;" horiz-adv-x="479" 
d="M396 479v-500q0 -91 -40 -133.5t-120 -42.5q-33 0 -72 6t-72 19l7 51q36 -13 72.5 -19.5t63.5 -6.5q57 0 80 30.5t23 92.5v38q-20 -5 -42.5 -9.5t-60.5 -4.5q-32 0 -61 8.5t-51 28t-34.5 51t-12.5 78.5v313h58v-310q0 -68 27.5 -93.5t74.5 -25.5q33 0 57.5 5t44.5 10v414
h58zM267 730l76 -161h-57l-50 106l-50 -106h-57l76 161h62z" />
    <glyph glyph-name="ydieresis" unicode="&#xff;" horiz-adv-x="479" 
d="M396 479v-500q0 -91 -40 -133.5t-120 -42.5q-33 0 -72 6t-72 19l7 51q36 -13 72.5 -19.5t63.5 -6.5q57 0 80 30.5t23 92.5v38q-20 -5 -42.5 -9.5t-60.5 -4.5q-32 0 -61 8.5t-51 28t-34.5 51t-12.5 78.5v313h58v-310q0 -68 27.5 -93.5t74.5 -25.5q33 0 57.5 5t44.5 10v414
h58zM167 688q21 0 31 -11t10 -28t-10 -28t-31 -11q-20 0 -30 11t-10 28t10 28t30 11zM306 688q20 0 30 -11t10 -28t-10 -28t-30 -11t-30.5 11t-10.5 28t10.5 28t30.5 11z" />
    <glyph glyph-name="zacute" unicode="&#x17a;" horiz-adv-x="406" 
d="M365 479v-40l-255 -389h261v-50h-332v40l256 389h-249v50h319zM313 730l-81 -161h-56l71 161h66z" />
    <glyph glyph-name="zcaron" unicode="&#x17e;" horiz-adv-x="406" 
d="M365 479v-40l-255 -389h261v-50h-332v40l256 389h-249v50h319zM172 569l-76 161h57l50 -106l50 106h57l-76 -161h-62z" />
    <glyph glyph-name="zdotaccent" unicode="&#x17c;" horiz-adv-x="406" 
d="M365 479v-40l-255 -389h261v-50h-332v40l256 389h-249v50h319zM204 689q20 0 30 -11t10 -28t-10 -28t-30 -11t-30 11t-10 28t10 28t30 11z" />
    <glyph glyph-name="eng" unicode="&#x14b;" horiz-adv-x="490" 
d="M83 452q16 6 36 12t42 11t45.5 8.5t46.5 3.5q32 0 61 -8t51.5 -26.5t35.5 -49.5t13 -77v-271q0 -41 -4.5 -71t-17.5 -58t-37 -57.5t-62 -70.5l-38 35q31 34 51 61t31 52.5t15 51.5t4 57v268q0 33 -8 55t-22 35t-33.5 18.5t-42.5 5.5q-27 0 -56 -6t-53 -14v-417h-58v452z
" />
    <glyph glyph-name="eth" unicode="&#xf0;" horiz-adv-x="458" 
d="M269 730q15 -20 29 -42t26 -45l84 21v-47l-68 -16h5q32 -83 46.5 -173t14.5 -184q0 -130 -46 -191t-132 -61q-39 0 -71.5 13t-56 42.5t-36 76.5t-12.5 115q0 132 47 190t130 58q34 0 61 -11t45 -31q-7 35 -17.5 74t-25.5 70l-145 -34v47l128 29h-4q-14 27 -30 51t-34 48
h62zM228 437q-26 0 -47.5 -9t-36.5 -31.5t-23.5 -60.5t-8.5 -97q0 -58 8.5 -96t23.5 -60.5t36.5 -31.5t47.5 -9t48 9t37.5 31t24 59.5t8.5 94.5q0 43 -4.5 79.5t-17 63.5t-36 42.5t-60.5 15.5z" />
    <glyph glyph-name="thorn" unicode="&#xfe;" horiz-adv-x="473" 
d="M140 730v-260q26 8 53.5 12.5t53.5 4.5q36 0 67.5 -12t55.5 -40.5t37.5 -76t13.5 -117.5q0 -77 -14.5 -125.5t-39.5 -76t-57 -37.5t-66 -10q-28 0 -53.5 3.5t-49.5 8.5v-192h-58v918h57zM141 56q26 -6 53 -10t51 -4q25 0 46 7.5t36.5 29.5t24.5 61t9 101q0 59 -8.5 97
t-24 60t-36.5 30.5t-46 8.5q-23 0 -54 -6.5t-51 -13.5v-361z" />
    <glyph glyph-name="ampersand" unicode="&#x26;" horiz-adv-x="492" 
d="M384 157q14 22 25 48.5t21 57.5l48 -17q-11 -38 -26 -72.5t-38 -66.5l73 -107h-66l-42 59q-30 -33 -68 -51t-91 -18q-83 0 -128 45.5t-45 130.5q0 36 8.5 64.5t24.5 52.5t39 44t51 39q-34 47 -55.5 86.5t-21.5 86.5q0 68 36.5 102.5t94.5 34.5t96 -33t38 -100
q0 -61 -31.5 -107t-77.5 -82zM203 320q-24 -17 -42 -32t-30 -32t-18 -38t-6 -50q0 -36 8.5 -60t24 -39t37 -21t47.5 -6q38 0 69 16.5t57 48.5zM217 400q37 30 58.5 61.5t21.5 80.5q0 22 -6 37.5t-16 25t-23.5 13.5t-27.5 4q-28 0 -49.5 -17t-21.5 -64q0 -19 4 -35t12 -32
t20 -34t28 -40z" />
    <glyph glyph-name="grave" unicode="`" horiz-adv-x="460" 
d="M209 730l71 -161h-57l-81 161h67z" />
    <glyph glyph-name="acute" unicode="&#xb4;" horiz-adv-x="460" 
d="M317 730l-81 -161h-56l71 161h66z" />
    <glyph glyph-name="circumflex" unicode="&#x2c6;" horiz-adv-x="460" 
d="M261 730l76 -161h-57l-50 106l-50 -106h-57l76 161h62z" />
    <glyph glyph-name="caron" unicode="&#x2c7;" horiz-adv-x="460" 
d="M199 569l-76 161h57l50 -106l50 106h57l-76 -161h-62z" />
    <glyph glyph-name="tilde" unicode="&#x2dc;" horiz-adv-x="460" 
d="M109 621q8 30 24 48.5t48 18.5q16 0 30.5 -5t27 -11.5t23.5 -11.5t19 -5q10 0 14.5 12t8.5 26l47 -15q-12 -71 -71 -71q-13 0 -27.5 5t-28 11.5t-25 11.5t-18.5 5q-11 0 -16 -10.5t-10 -23.5z" />
    <glyph glyph-name="dieresis" unicode="&#xa8;" horiz-adv-x="460" 
d="M160 688q21 0 31 -11t10 -28t-10 -28t-31 -11q-20 0 -30 11t-10 28t10 28t30 11zM299 688q20 0 30 -11t10 -28t-10 -28t-30 -11t-30.5 11t-10.5 28t10.5 28t30.5 11z" />
    <glyph glyph-name="macron" unicode="&#xaf;" horiz-adv-x="460" 
d="M330 674v-50h-200v50h200z" />
    <glyph glyph-name="breve" unicode="&#x2d8;" horiz-adv-x="460" 
d="M165 711q1 -32 15.5 -53t49.5 -21t49.5 21t15.5 53h52q0 -62 -34.5 -93t-82.5 -31t-82.5 31t-34.5 93h52z" />
    <glyph glyph-name="ring" unicode="&#x2da;" horiz-adv-x="460" 
d="M310 648q0 -37 -21.5 -59t-59.5 -22t-59 22t-21 59t21 59t59 22t59.5 -22t21.5 -59zM259 648q0 20 -6.5 31t-23.5 11q-30 0 -30 -42t30 -42q17 0 23.5 11t6.5 31z" />
    <glyph glyph-name="hungarumlaut" unicode="&#x2dd;" horiz-adv-x="460" 
d="M233 730l-56 -161h-49l42 161h63zM345 730l-76 -161h-50l61 161h65z" />
    <glyph glyph-name="dotaccent" unicode="&#x2d9;" horiz-adv-x="460" 
d="M230 689q20 0 30 -11t10 -28t-10 -28t-30 -11t-30 11t-10 28t10 28t30 11z" />
    <glyph glyph-name="cedilla" unicode="&#xb8;" horiz-adv-x="460" 
d="M271 -53q11 -20 17 -39.5t6 -35.5q0 -32 -16 -50t-52 -18q-14 0 -30.5 4t-27.5 9l10 44q11 -5 21 -8.5t21 -3.5q20 0 20 26q0 18 -6.5 36.5t-14.5 35.5h52z" />
    <glyph glyph-name="ogonek" unicode="&#x2db;" horiz-adv-x="460" 
d="M257 0q-5 -7 -11.5 -17.5t-12.5 -23t-10 -26t-4 -26.5q0 -18 7 -24.5t18 -6.5q7 0 20.5 3t24.5 8l6 -47q-23 -13 -54 -13q-29 0 -52 16.5t-23 54.5q0 35 14 61.5t23 40.5h54z" />
    <glyph glyph-name="commaaccentcomb" horiz-adv-x="20" 
d="M285 -46l-75 -142h-55l67 142h63z" />
    <glyph glyph-name="comma" unicode="," horiz-adv-x="240" 
d="M150 68l-72 -201h-55l66 201h61z" />
    <glyph glyph-name="semicolon" unicode=";" horiz-adv-x="240" 
d="M121 487q38 0 38 -38q0 -40 -38 -40q-18 0 -28.5 10.5t-10.5 29.5q0 18 10.5 28t28.5 10zM150 68l-72 -201h-55l66 201h61z" />
    <glyph glyph-name="colon" unicode=":" horiz-adv-x="240" 
d="M120 70q38 0 38 -38q0 -40 -38 -40q-18 0 -28.5 10.5t-10.5 29.5q0 18 10.5 28t28.5 10zM121 487q38 0 38 -38q0 -40 -38 -40q-18 0 -28.5 10.5t-10.5 29.5q0 18 10.5 28t28.5 10z" />
    <glyph glyph-name="period" unicode="." horiz-adv-x="239" 
d="M120 70q38 0 38 -38q0 -40 -38 -40q-18 0 -28.5 10.5t-10.5 29.5q0 18 10.5 28t28.5 10z" />
    <glyph glyph-name="ellipsis" unicode="&#x2026;" horiz-adv-x="702" 
d="M583 70q18 0 28.5 -10t10.5 -28q0 -19 -10.5 -29.5t-28.5 -10.5q-17 0 -28 10.5t-11 29.5q0 18 11 28t28 10zM120 70q38 0 38 -38q0 -40 -38 -40q-18 0 -28.5 10.5t-10.5 29.5q0 18 10.5 28t28.5 10zM351 70q18 0 28.5 -10t10.5 -28q0 -19 -10.5 -29.5t-28.5 -10.5
q-17 0 -28 10.5t-11 29.5q0 18 11 28t28 10z" />
    <glyph glyph-name="hyphen" unicode="-" horiz-adv-x="328" 
d="M271 298v-54h-214v54h214z" />
    <glyph glyph-name="exclam" unicode="!" horiz-adv-x="258" 
d="M159 665l-3 -515h-54l-3 515h60zM130 70q17 0 27.5 -10t10.5 -28q0 -19 -10.5 -29.5t-27.5 -10.5q-18 0 -29 10.5t-11 29.5q0 18 11 28t29 10z" />
    <glyph glyph-name="exclamdown" unicode="&#xa1;" horiz-adv-x="258" 
d="M99 -188l3 517h54l3 -517h-60zM130 409q-18 0 -29 10t-11 29q0 18 11 28.5t29 10.5q17 0 27.5 -10.5t10.5 -28.5q0 -19 -10.5 -29t-27.5 -10z" />
    <glyph glyph-name="question" unicode="?" horiz-adv-x="352" 
d="M34 640q23 12 61 23.5t77 11.5q68 0 110.5 -37.5t42.5 -117.5q0 -28 -6 -50.5t-15.5 -41t-21.5 -35t-25 -31.5q-23 -29 -43 -64.5t-20 -87.5v-60h-55v60q0 33 6.5 59t17 48t23.5 40.5t26 35.5q21 28 37.5 56t16.5 68q0 57 -24 81t-72 24q-29 0 -62.5 -11t-59.5 -25z
M167 70q17 0 27.5 -10t10.5 -28q0 -19 -10.5 -29.5t-27.5 -10.5q-18 0 -29 10.5t-11 29.5q0 18 11 28t29 10z" />
    <glyph glyph-name="questiondown" unicode="&#xbf;" horiz-adv-x="318" 
d="M281 -161q-23 -12 -61 -23.5t-77 -11.5q-68 0 -110.5 37.5t-42.5 117.5q0 55 21 91t47 67q12 15 23 30.5t20 34t14.5 40t5.5 47.5v60h55v-60q0 -33 -6.5 -59t-17 -48t-23.5 -40.5t-26 -35.5q-21 -28 -37.5 -56t-16.5 -68q0 -57 24 -81t72 -24q29 0 62.5 11t59.5 25z
M148 409q-17 0 -27.5 10t-10.5 29q0 18 10.5 28.5t27.5 10.5q18 0 29 -10.5t11 -28.5q0 -19 -11 -29t-29 -10z" />
    <glyph glyph-name="quoteleft" unicode="&#x2018;" horiz-adv-x="258" 
d="M69 452l67 213h53l-61 -213h-59z" />
    <glyph glyph-name="quoteright" unicode="&#x2019;" horiz-adv-x="258" 
d="M189 665l-67 -213h-53l61 213h59z" />
    <glyph glyph-name="quotedblleft" unicode="&#x201c;" horiz-adv-x="407" 
d="M69 452l66 213h54l-61 -213h-59zM226 452l59 213h53l-52 -213h-60z" />
    <glyph glyph-name="quotedblright" unicode="&#x201d;" horiz-adv-x="407" 
d="M181 665l-59 -213h-53l53 213h59zM338 665l-66 -213h-54l61 213h59z" />
    <glyph glyph-name="quotesinglbase" unicode="&#x201a;" horiz-adv-x="258" 
d="M189 53l-67 -213h-53l61 213h59z" />
    <glyph glyph-name="quotedblbase" unicode="&#x201e;" horiz-adv-x="407" 
d="M181 53l-59 -213h-53l53 213h59zM338 53l-66 -213h-54l61 213h59z" />
    <glyph glyph-name="guilsinglleft" unicode="&#x2039;" horiz-adv-x="295" 
d="M237 452l-117 -181l117 -181h-58l-121 181l121 181h58z" />
    <glyph glyph-name="guilsinglright" unicode="&#x203a;" horiz-adv-x="295" 
d="M116 452l121 -181l-121 -181h-58l117 181l-117 181h58z" />
    <glyph glyph-name="guillemotleft" unicode="&#xab;" horiz-adv-x="457" 
d="M231 452l-111 -181l111 -181h-58l-115 181l115 181h58zM399 452l-111 -181l111 -181h-58l-115 181l115 181h58z" />
    <glyph glyph-name="guillemotright" unicode="&#xbb;" horiz-adv-x="457" 
d="M284 452l115 -181l-115 -181h-58l111 181l-111 181h58zM116 452l115 -181l-115 -181h-58l111 181l-111 181h58z" />
    <glyph glyph-name="slash" unicode="/" horiz-adv-x="403" 
d="M376 730l-285 -783h-56l284 783h57z" />
    <glyph glyph-name="bar" unicode="|" horiz-adv-x="255" 
d="M154 800v-1000h-53v1000h53z" />
    <glyph glyph-name="endash" unicode="&#x2013;" horiz-adv-x="485" 
d="M428 295v-48h-371v48h371z" />
    <glyph glyph-name="emdash" unicode="&#x2014;" horiz-adv-x="661" 
d="M604 295v-48h-547v48h547z" />
    <glyph glyph-name="bullet" unicode="&#x2022;" horiz-adv-x="328" 
d="M164 351q33 0 53 -21t20 -59t-20 -59.5t-53 -21.5q-32 0 -53 21.5t-21 59.5t21 59t53 21z" />
    <glyph glyph-name="periodcentered" unicode="&#xb7;" horiz-adv-x="240" 
d="M120 309q38 0 38 -38q0 -40 -38 -40q-18 0 -28.5 10.5t-10.5 29.5q0 18 10.5 28t28.5 10z" />
    <glyph glyph-name="parenleft" unicode="(" horiz-adv-x="265" 
d="M252 730q-30 -47 -54.5 -95.5t-42 -103.5t-27.5 -119t-10 -142t10 -141.5t27.5 -118.5t42 -103.5t54.5 -94.5h-61q-66 92 -100 209.5t-34 248.5t34 249.5t100 210.5h61z" />
    <glyph glyph-name="parenright" unicode=")" horiz-adv-x="265" 
d="M74 730q66 -92 100 -210.5t34 -249.5t-34 -248.5t-100 -209.5h-61q30 46 54.5 94.5t42 103.5t27.5 118.5t10 141.5t-10 142t-27.5 119t-42 103.5t-54.5 95.5h61z" />
    <glyph glyph-name="bracketleft" unicode="[" horiz-adv-x="270" 
d="M257 731v-50h-99v-819h99v-50h-156v919h156z" />
    <glyph glyph-name="bracketright" unicode="]" horiz-adv-x="270" 
d="M169 731v-919h-156v50h99v819h-99v50h156z" />
    <glyph glyph-name="braceleft" unicode="{" horiz-adv-x="307" 
d="M286 679q-13 4 -30.5 5.5t-28.5 1.5q-21 0 -33.5 -7t-19.5 -20t-9 -31t-2 -39q0 -25 2.5 -53.5t5 -57.5t5 -56.5t2.5 -49.5q0 -25 -5.5 -42.5t-13.5 -29.5t-18.5 -19t-20.5 -10q10 -3 20.5 -9.5t18.5 -18.5t13.5 -30t5.5 -43q0 -23 -2.5 -50.5t-5 -57t-5 -57.5t-2.5 -51
q0 -22 2 -40t9 -31t19.5 -20t33.5 -7q11 0 28.5 1.5t30.5 5.5l4 -51q-11 -4 -30 -6t-32 -2q-68 0 -95 38.5t-27 108.5q0 23 2.5 51t5.5 57.5t5.5 58.5t2.5 53q0 43 -20 57t-58 15v56q38 1 58 15.5t20 56.5q0 24 -2.5 52t-5.5 57t-5.5 58t-2.5 54q0 69 27 107.5t95 38.5
q13 0 32 -2t30 -6z" />
    <glyph glyph-name="braceright" unicode="}" horiz-adv-x="307" 
d="M17 730q11 4 30 6t32 2q68 0 95 -38.5t27 -107.5q0 -25 -2.5 -54t-5.5 -58t-5.5 -57t-2.5 -52q0 -42 20 -56.5t58 -15.5v-56q-38 -1 -58 -15t-20 -57q0 -24 2.5 -53t5.5 -58.5t5.5 -57.5t2.5 -51q0 -70 -27 -108.5t-95 -38.5q-13 0 -32 2t-30 6l4 51q13 -4 30.5 -5.5
t28.5 -1.5q21 0 33.5 7t19.5 20t9 31t2 40q0 23 -2.5 51t-5 57.5t-5 57t-2.5 50.5q0 25 5.5 43t13.5 30t18.5 18.5t20.5 9.5q-10 3 -20.5 10t-18.5 19t-13.5 29.5t-5.5 42.5q0 22 2.5 49.5t5 56.5t5 57.5t2.5 53.5q0 21 -2 39t-9 31t-19.5 20t-33.5 7q-11 0 -28.5 -1.5
t-30.5 -5.5z" />
    <glyph glyph-name="asterisk" unicode="*" horiz-adv-x="354" 
d="M156 548l-3 117h49l-3 -117l105 40l13 -42l-107 -37l72 -100l-35 -28l-70 101l-69 -101l-35 28l71 100l-106 37l13 42z" />
    <glyph glyph-name="dagger" unicode="&#x2020;" horiz-adv-x="370" 
d="M213 665v-186h127v-48h-127v-283h-56v283h-127v48h127v186h56z" />
    <glyph glyph-name="daggerdbl" unicode="&#x2021;" horiz-adv-x="370" 
d="M213 665v-153h127v-50h-127v-100h127v-50h-127v-164h-56v164h-127v50h127v100h-127v50h127v153h56z" />
    <glyph glyph-name="section" unicode="&#xa7;" horiz-adv-x="458" 
d="M408 188q0 -43 -12.5 -71t-32.5 -47q16 -21 25.5 -45.5t9.5 -53.5q0 -50 -15.5 -82t-40.5 -51t-57 -26.5t-65 -7.5q-26 0 -51 4.5t-47.5 11t-41.5 14.5t-33 16l13 55q14 -8 33.5 -16.5t41 -16t44.5 -12t44 -4.5q24 0 44.5 5.5t35.5 18.5t24 34t9 51q0 28 -11 50t-29 40
t-41.5 33.5t-48.5 30.5q-27 17 -54 34.5t-48.5 38.5t-34.5 47t-13 59q0 42 15 70t38 46q-18 20 -30.5 46t-12.5 55q0 45 15 76t40.5 49.5t58 26.5t67.5 8q41 0 79 -6t58 -11l-6 -55q-11 3 -27.5 6.5t-35 6t-36.5 4.5t-31 2q-23 0 -44 -4.5t-37.5 -16t-26.5 -31.5t-10 -50
q0 -22 9.5 -40.5t25.5 -34.5t37 -30.5t44 -28.5q29 -18 58 -36.5t52 -42t37.5 -52.5t14.5 -67zM349 182q0 26 -12 48t-30.5 41t-42 34.5t-46.5 29.5q-18 11 -35.5 22t-34.5 23q-14 -11 -22 -29.5t-8 -47.5q0 -22 9.5 -40t26 -33.5t37 -29t43.5 -27.5q26 -16 50 -32t44 -33
q21 24 21 74z" />
    <glyph glyph-name="paragraph" unicode="&#xb6;" horiz-adv-x="535" 
d="M333 -158h-55v393h-45q-50 0 -85 11.5t-57.5 37.5t-32.5 68t-10 104q0 58 10.5 98t33 65t57.5 35.5t84 10.5h100v-823zM438 665v-823h-55v823h55z" />
    <glyph glyph-name="asciicircum" unicode="^" 
d="M274 665l139 -304h-54l-107 237l-107 -237h-54l138 304h45z" />
    <glyph glyph-name="asciitilde" unicode="~" 
d="M54 294q10 33 34 54.5t64 21.5q18 0 46 -8.5t57.5 -18.5t55.5 -18.5t40 -8.5q24 0 35.5 16t22.5 39l41 -24q-10 -33 -34 -54.5t-64 -21.5q-18 0 -46 8.5t-57 18.5t-55 18.5t-41 8.5q-23 0 -34.5 -15.5t-22.5 -39.5z" />
    <glyph glyph-name="brokenbar" unicode="&#xa6;" horiz-adv-x="255" 
d="M154 800v-401h-53v401h53zM154 201v-401h-53v401h53z" />
    <glyph glyph-name="backslash" unicode="\" horiz-adv-x="403" 
d="M63 730l284 -783h-56l-285 783h57z" />
    <glyph glyph-name="underscore" unicode="_" horiz-adv-x="565" 
d="M561 -11v-40h-557v40h557z" />
    <glyph glyph-name="quotesingle" unicode="'" horiz-adv-x="258" 
d="M158 665l-5 -213h-49l-5 213h59z" />
    <glyph glyph-name="quotedbl" unicode="&#x22;" horiz-adv-x="380" 
d="M158 665l-5 -213h-49l-5 213h59zM280 665l-5 -213h-49l-5 213h59z" />
    <glyph glyph-name="at" unicode="@" horiz-adv-x="717" 
d="M470 161q0 -42 10.5 -67t47.5 -25q45 0 66 52.5t21 164.5q0 57 -12.5 108.5t-42.5 90.5t-78.5 61.5t-120.5 22.5t-121 -28t-80 -75.5t-44.5 -110t-13.5 -131.5q0 -68 10.5 -131t39 -111t78.5 -77t129 -29q54 0 103.5 13.5t98.5 37.5l13 -52q-48 -23 -101.5 -37.5
t-114.5 -14.5q-92 0 -152 33.5t-95.5 89t-50 128t-14.5 150.5q0 79 18 151t56 126t98 86t143 32q86 0 145 -27.5t95.5 -74t52.5 -107.5t16 -126q0 -137 -36.5 -201.5t-106.5 -64.5q-38 0 -59.5 12t-33.5 35q-19 -17 -39 -28t-51 -11q-54 0 -86.5 45.5t-32.5 151.5
q0 46 10 81t28 58t42.5 34.5t52.5 11.5q30 0 57.5 -6t54.5 -17v-224zM414 351q-27 9 -56 9q-36 0 -56 -33t-20 -105q0 -47 5.5 -76t14.5 -44.5t20 -20.5t22 -5q23 0 39.5 9.5t30.5 26.5v239z" />
    <glyph glyph-name="copyright" unicode="&#xa9;" horiz-adv-x="655" 
d="M196 332q0 51 9.5 87.5t28 58.5t45 32t60.5 10q12 0 25.5 -1.5t26.5 -4.5t24.5 -6t18.5 -6l-7 -43q-17 5 -42 10.5t-45 5.5q-23 0 -39.5 -6t-28 -21.5t-17 -43.5t-5.5 -72q0 -45 5.5 -73t17 -44t28 -21.5t39.5 -5.5q20 0 46.5 6.5t43.5 13.5l6 -45q-16 -8 -45 -14t-53 -6
q-34 0 -60.5 10t-44.5 32t-27.5 58t-9.5 89zM603 332q0 -342 -275 -342q-276 0 -276 342q0 343 276 343q275 0 275 -343zM553 332q0 149 -55 223.5t-170 74.5q-116 0 -171 -74.5t-55 -223.5t55 -223t171 -74q115 0 170 74t55 223z" />
    <glyph glyph-name="registered" unicode="&#xae;" horiz-adv-x="548" 
d="M504 419q0 -121 -60.5 -188t-169.5 -67t-169.5 67t-60.5 188t60.5 188t169.5 67t169.5 -67t60.5 -188zM454 419q0 104 -46 159t-134 55t-134 -55t-46 -159t46 -159t134 -55t134 55t46 159zM276 566q42 0 64.5 -19t22.5 -63q0 -38 -13 -53.5t-30 -22.5q15 -8 22.5 -23.5
t12.5 -34.5l19 -67h-50l-19 66q-5 14 -13 29t-25 15h-12.5t-12.5 1v-111h-48v283h82zM242 432q5 -1 13 -1.5t14 -0.5q20 0 33 8.5t13 44.5q0 26 -10 36t-33 10h-30v-97z" />
    <glyph glyph-name="trademark" unicode="&#x2122;" horiz-adv-x="659" 
d="M250 665v-40h-81v-259h-53v259h-82v40h216zM462 429h-44l-73 150v-213h-51v299h55l91 -186l91 186h55v-299h-51v213z" />
    <glyph glyph-name="Euro" unicode="&#x20ac;" 
d="M178 213q11 -88 46 -129.5t89 -41.5q29 0 62 5t65 16l5 -53q-29 -11 -65 -15.5t-68 -4.5q-80 0 -130.5 55.5t-66.5 167.5h-81v50h76v7q-1 12 -1.5 26.5t-0.5 32.5v22t1 22h-75v50h78q11 132 62 192t139 60q33 0 68 -4.5t61 -12.5l-7 -54q-28 8 -60.5 13t-61.5 5
q-59 0 -93.5 -46t-44.5 -153l227 1l-17 -51h-213q-1 -9 -1 -21.5v-23.5q0 -18 0.5 -34.5t1.5 -30.5h185l-18 -50h-162z" />
    <glyph glyph-name="dollar" unicode="$" 
d="M233 19q-22 1 -45 5t-44.5 10t-40 13t-31.5 15l11 52q31 -15 76.5 -28.5t89.5 -13.5q24 0 45 3t36.5 12.5t24.5 26.5t9 45q0 26 -11 47.5t-29 39.5t-41.5 34t-48.5 32q-29 18 -56.5 37.5t-50 42t-36 48.5t-13.5 59q0 35 12 60.5t33 42t48.5 25t59.5 10.5v93h55v-93
q30 -2 62.5 -6t52.5 -9l-7 -55q-11 3 -28 6.5t-35 5.5t-36.5 3.5t-32.5 1.5q-23 0 -45 -2.5t-39 -10.5t-27.5 -24t-10.5 -43q0 -23 10.5 -41.5t27.5 -35t39.5 -32t46.5 -30.5q29 -19 58 -39.5t52.5 -44.5t38 -52.5t14.5 -63.5q0 -39 -11 -65t-30 -42.5t-44.5 -25
t-53.5 -11.5v-106h-55v104z" />
    <glyph glyph-name="cent" unicode="&#xa2;" 
d="M409 514q-25 8 -61 16.5t-71 8.5q-29 0 -55 -8.5t-45.5 -31.5t-31 -64t-11.5 -105q0 -110 37.5 -158.5t108.5 -48.5q31 0 67.5 9.5t63.5 21.5l8 -53q-25 -11 -57 -20.5t-64 -11.5v-153h-56v155q-38 4 -69 20.5t-53.5 47.5t-35 78t-12.5 113q0 67 13 114t36 78t54 46.5
t67 19.5v142h56v-138q37 -2 69 -10t49 -14l-7 -54v0z" />
    <glyph glyph-name="sterling" unicode="&#xa3;" 
d="M192 325l-10 -116q-4 -47 -17 -88t-38 -68h302v-53h-378v42q35 27 51 72.5t20 98.5l8 112h-80v50h86l12 129q4 51 20 83.5t39 52t52.5 27.5t61.5 8q34 0 66 -5.5t56 -13.5l-6 -54q-28 8 -59.5 14t-57.5 6q-50 0 -77.5 -25.5t-33.5 -91.5l-12 -130h202v-50h-207z" />
    <glyph glyph-name="florin" unicode="&#x192;" 
d="M173 375v133q0 46 12 77.5t32.5 51.5t48 29t58.5 9q27 0 59.5 -4.5t57.5 -12.5l-7 -53q-26 7 -55.5 12t-53.5 5q-20 0 -37 -5t-29 -17.5t-18.5 -34.5t-6.5 -56v-134h194v-50h-194v-325h-61v325h-107v50h107z" />
    <glyph glyph-name="yen" unicode="&#xa5;" 
d="M101 665l161 -337l147 337h59l-105 -239h106v-50h-126l-45 -105h171v-54h-178v-217h-59v217h-177v54h172l-51 105h-121v50l98 -1l-117 240h65z" />
    <glyph glyph-name="ordfeminine" unicode="&#xaa;" horiz-adv-x="306" 
d="M60 662q20 6 41 9.5t40 3.5q20 0 38 -4.5t31.5 -15.5t21.5 -29t8 -44v-191q-17 -8 -44.5 -17t-56.5 -9q-19 0 -36.5 4.5t-31 15t-21.5 28t-8 44.5t8 45t21.5 28t30 14t33.5 4q11 0 26 -1.5t29 -4.5v39q0 34 -14.5 44t-35.5 10q-18 0 -37.5 -3.5t-36.5 -8.5zM190 502
q-14 4 -28.5 5.5t-26.5 1.5q-17 0 -31.5 -9.5t-14.5 -43.5q0 -30 14.5 -41.5t36.5 -11.5q23 0 50 9v90z" />
    <glyph glyph-name="ordmasculine" unicode="&#xba;" horiz-adv-x="306" 
d="M270 517q0 -83 -32 -119.5t-84 -36.5q-53 0 -84.5 36.5t-31.5 119.5t31.5 119.5t84.5 36.5q52 0 84 -36.5t32 -119.5zM221 517q0 67 -19 91.5t-49 24.5q-14 0 -26.5 -5.5t-21.5 -19t-14 -36t-5 -55.5t5 -55.5t14 -36t21.5 -19t26.5 -5.5q30 0 49 24.5t19 91.5z" />
    <glyph glyph-name="numbersign" unicode="#" horiz-adv-x="592" 
d="M287 665l-33 -204h123l33 204h57l-32 -204h117l-8 -50h-117l-24 -155h117l-8 -50h-117l-31 -206h-58l32 206h-123l-32 -206h-57l31 206h-117l7 50h118l24 155h-118l8 50h118l32 204h58zM222 256h124l24 155h-124z" />
    <glyph glyph-name="zero" unicode="0" 
d="M446 333q0 -93 -12 -158t-36 -106t-60.5 -59.5t-85.5 -18.5q-50 0 -86.5 18.5t-60.5 59.5t-35.5 106t-11.5 158q0 92 11.5 157t35.5 106t60.5 60t86.5 19q49 0 85.5 -18.5t60.5 -59.5t36 -106t12 -158zM385 333q0 81 -7.5 136t-23.5 89t-41.5 49t-60.5 15q-36 0 -61 -15
t-41.5 -49t-24 -89t-7.5 -136t7.5 -136t24 -89.5t41.5 -49.5t61 -15q35 0 60.5 15t41.5 49.5t23.5 89.5t7.5 136z" />
    <glyph glyph-name="one" unicode="1" 
d="M258 665h47v-665h-61v605l-123 -43v57z" />
    <glyph glyph-name="two" unicode="2" 
d="M74 655q25 8 64 14t74 6q37 0 71.5 -8t61 -28t42 -54t15.5 -86q0 -42 -11.5 -78t-30 -69.5t-43 -65t-50.5 -62.5l-141 -171h280v-53h-352v48l171 217q25 33 46.5 61t36.5 55.5t23.5 56t8.5 62.5q0 36 -10 59.5t-27 37.5t-40 19.5t-50 5.5q-32 0 -69 -6.5t-65 -14.5z" />
    <glyph glyph-name="three" unicode="3" 
d="M402 665v-43l-177 -237q36 0 70.5 -10.5t60.5 -33t42 -58t16 -86.5q0 -60 -16.5 -100t-44.5 -64t-66 -33.5t-81 -9.5q-35 0 -73.5 5t-74.5 16l5 52q35 -9 73 -15t71 -6t60 7.5t46 25.5t29 47.5t10 73.5q0 42 -12 69t-31.5 42.5t-44.5 21.5t-50 6h-60v45l173 232h-260v53
h335z" />
    <glyph glyph-name="four" unicode="4" 
d="M380 665v-438h78v-50h-78v-177h-59v177h-291v39l272 449h78zM321 227v369l-223 -370z" />
    <glyph glyph-name="five" unicode="5" 
d="M94 61q35 -9 66.5 -14t63.5 -5q30 0 55 6.5t43 24.5t28 49t10 80q0 47 -9 77t-26 47.5t-41 24t-54 6.5q-13 0 -28.5 -1.5t-32 -4t-32.5 -5.5t-29 -6l-20 25l22 300h296v-54h-243l-14 -209q15 3 38.5 5.5t44.5 2.5q44 0 79.5 -10.5t60 -35t37.5 -64t13 -97.5
q0 -62 -14.5 -103t-41 -65.5t-63 -34.5t-79.5 -10q-36 0 -70 5t-72 16l5 50h7z" />
    <glyph glyph-name="six" unicode="6" 
d="M415 604q-32 8 -65 13t-62 5q-36 0 -64.5 -12.5t-48.5 -42t-30.5 -77.5t-10.5 -118q28 10 62 17t71 7q41 0 74 -10t55.5 -32.5t34.5 -59t12 -88.5q0 -99 -46.5 -157.5t-130.5 -58.5q-50 0 -87 19t-61 59.5t-36 105t-12 154.5q0 99 15 165.5t43 107t69 57.5t92 17
q35 0 69.5 -5t63.5 -11zM134 314q0 -46 4 -94.5t17.5 -88t39.5 -64.5t71 -25q52 0 84 43.5t32 119.5q0 77 -29 107.5t-88 30.5q-30 0 -65.5 -7.5t-65.5 -21.5z" />
    <glyph glyph-name="seven" unicode="7" 
d="M432 665v-44l-263 -621h-63l258 612h-293v53h361z" />
    <glyph glyph-name="eight" unicode="8" 
d="M252 316q-60 0 -94.5 -32t-34.5 -109q0 -64 34.5 -98.5t94.5 -34.5t94 34.5t34 98.5q0 77 -34 109t-94 32zM252 -10q-95 0 -143 50.5t-48 134.5q0 39 8.5 68t23 50t33.5 34t40 18q-94 36 -94 159q0 40 13 71.5t36.5 53.5t56.5 34t74 12q81 0 130 -45.5t49 -125.5
q0 -123 -94 -159q21 -5 40 -18t33.5 -34t23 -50t8.5 -68q0 -84 -48 -134.5t-142 -50.5zM252 376q54 0 85.5 30t31.5 96q0 57 -31 88.5t-86 31.5q-56 0 -87 -31.5t-31 -88.5q0 -66 32 -96t86 -30z" />
    <glyph glyph-name="nine" unicode="9" 
d="M97 60q27 -8 56 -13t55 -5q44 0 74.5 17.5t49.5 50t28 79t10 105.5q-28 -10 -62 -17t-71 -7q-83 0 -129.5 43t-46.5 147q0 46 12 85.5t35.5 68.5t56.5 45t75 16q49 0 85.5 -19t60.5 -59.5t36 -104.5t12 -154q0 -102 -16.5 -169.5t-46.5 -107t-71.5 -55.5t-91.5 -16
q-32 0 -65 5.5t-59 13.5l5 51h8zM370 351q0 46 -3.5 94.5t-17 88t-39 64.5t-70.5 25q-52 0 -85 -43t-33 -119q0 -77 29 -107.5t88 -30.5q30 0 65.5 7t65.5 21z" />
    <glyph glyph-name="onesuperior" unicode="&#xb9;" horiz-adv-x="261" 
d="M127 665h35v-334h-51v283l-70 -22v47z" />
    <glyph glyph-name="twosuperior" unicode="&#xb2;" horiz-adv-x="284" 
d="M50 660q17 7 38 11t44 4q45 0 73.5 -23t28.5 -73q0 -37 -18.5 -66.5t-50.5 -69.5l-57 -68h128v-43h-194v36l82 101q18 22 38 49.5t20 59.5q0 30 -14.5 41t-37.5 11q-20 0 -40 -4t-37 -10z" />
    <glyph glyph-name="threesuperior" unicode="&#xb3;" horiz-adv-x="284" 
d="M225 665v-40l-87 -98q19 0 36.5 -6t30.5 -17.5t21 -29.5t8 -43q0 -58 -32.5 -85.5t-81.5 -27.5q-26 0 -47 4.5t-39 10.5l6 45q19 -6 38 -10.5t42 -4.5q27 0 44.5 13t17.5 54q0 18 -5.5 29.5t-14.5 17.5t-21 8t-26 2h-41v36l87 97h-123v45h187z" />
    <glyph glyph-name="fraction" unicode="&#x2044;" horiz-adv-x="431" 
d="M414 665l-343 -665h-54l342 665h55z" />
    <glyph glyph-name="onequarter" unicode="&#xbc;" horiz-adv-x="650" 
d="M568 343v-223h40v-43h-40v-77h-55v77h-125v37l119 229h61zM513 120v142l-70 -142h70zM508 665l-343 -665h-54l342 665h55zM131 665h35v-334h-51v283l-70 -22v47z" />
    <glyph glyph-name="onehalf" unicode="&#xbd;" horiz-adv-x="646" 
d="M493 665l-343 -665h-54l342 665h55zM392 328q17 7 38 11t44 4q45 0 73.5 -23t28.5 -73q0 -37 -18.5 -66.5t-50.5 -69.5l-57 -68h128v-43h-194v36l82 101q18 22 38 49.5t20 59.5q0 30 -14.5 41t-37.5 11q-20 0 -40 -4t-37 -10zM131 665h35v-334h-51v283l-70 -22v47z" />
    <glyph glyph-name="threequarters" unicode="&#xbe;" horiz-adv-x="650" 
d="M568 343v-223h40v-43h-40v-77h-55v77h-125v37l119 229h61zM513 120v142l-70 -142h70zM225 665v-40l-87 -98q19 0 36.5 -6t30.5 -17.5t21 -29.5t8 -43q0 -58 -32.5 -85.5t-81.5 -27.5q-26 0 -47 4.5t-39 10.5l6 45q19 -6 38 -10.5t42 -4.5q27 0 44.5 13t17.5 54
q0 18 -5.5 29.5t-14.5 17.5t-21 8t-26 2h-41v36l87 97h-123v45h187zM532 665l-343 -665h-54l342 665h55z" />
    <glyph glyph-name="percent" unicode="%" horiz-adv-x="708" 
d="M177 631q-14 0 -27 -6t-22.5 -20.5t-15 -39.5t-5.5 -62q0 -38 5.5 -63t15 -40t22.5 -21.5t27 -6.5q13 0 25.5 6t22 21t15 40t5.5 63t-5.5 63t-15 39.5t-22 20.5t-25.5 6zM177 676q27 0 50 -9t39.5 -30t26 -54t9.5 -81q0 -93 -35.5 -134t-89.5 -41q-27 0 -50 10t-40 31
t-26.5 54.5t-9.5 80.5q0 48 9.5 81t26.5 53.5t40 29.5t50 9zM532 297q-14 0 -26.5 -6t-22.5 -20.5t-15.5 -39.5t-5.5 -63t5.5 -63t15.5 -40t22.5 -21.5t26.5 -6.5t26.5 6t21.5 21t14.5 40t5.5 63q0 39 -5.5 64t-14.5 39.5t-21.5 20.5t-26.5 6zM532 342q27 0 49.5 -9
t39.5 -30t26.5 -54t9.5 -81t-9.5 -81t-26.5 -54t-39.5 -31t-49.5 -10q-56 0 -91 41t-35 136t35 134t91 39zM547 665l-343 -665h-54l342 665h55z" />
    <glyph glyph-name="perthousand" unicode="&#x2030;" horiz-adv-x="1013" 
d="M836 297q-14 0 -26.5 -6t-22.5 -20.5t-15.5 -39.5t-5.5 -63t5.5 -63t15.5 -40t22.5 -21.5t26.5 -6.5t26.5 6t21.5 21t14.5 40t5.5 63q0 39 -5.5 64t-14.5 39.5t-21.5 20.5t-26.5 6zM836 342q27 0 50 -9t40 -30t26.5 -54t9.5 -81q0 -94 -36 -135t-90 -41q-27 0 -50 10
t-40 31t-26.5 54.5t-9.5 81.5t9.5 81t26.5 53.5t40 29.5t50 9zM177 631q-14 0 -27 -6t-22.5 -20.5t-15 -39.5t-5.5 -62q0 -38 5.5 -63t15 -40t22.5 -21.5t27 -6.5q13 0 25.5 6t22 21t15 40t5.5 63t-5.5 63t-15 39.5t-22 20.5t-25.5 6zM177 676q27 0 50 -9t39.5 -30t26 -54
t9.5 -81q0 -93 -35.5 -134t-89.5 -41q-27 0 -50 10t-40 31t-26.5 54.5t-9.5 80.5q0 48 9.5 81t26.5 53.5t40 29.5t50 9zM532 297q-14 0 -26.5 -6t-22.5 -20.5t-15.5 -39.5t-5.5 -63t5.5 -63t15.5 -40t22.5 -21.5t26.5 -6.5t26.5 6t21.5 21t14.5 40t5.5 63q0 39 -5.5 64
t-14.5 39.5t-21.5 20.5t-26.5 6zM532 342q27 0 49.5 -9t39.5 -30t26.5 -54t9.5 -81t-9.5 -81t-26.5 -54t-39.5 -31t-49.5 -10q-56 0 -91 41t-35 136t35 134t91 39zM547 665l-343 -665h-54l342 665h55z" />
    <glyph glyph-name="plus" unicode="+" 
d="M226 342v181h51v-181h164v-45h-164v-182h-51v182h-163v45h163z" />
    <glyph glyph-name="minus" unicode="&#x2212;" 
d="M441 342v-45h-378v45h378z" />
    <glyph glyph-name="plusminus" unicode="&#xb1;" 
d="M226 342v181h51v-181h164v-45h-164v-182h-51v182h-163v45h163zM441 45v-45h-378v45h378z" />
    <glyph glyph-name="multiply" unicode="&#xd7;" 
d="M425 160l-36 -34l-137 156l-137 -156l-36 34l139 159l-139 159l36 34l137 -156l137 156l36 -34l-139 -159z" />
    <glyph glyph-name="divide" unicode="&#xf7;" 
d="M256 189q38 0 38 -38q0 -40 -38 -40q-18 0 -28.5 10.5t-10.5 29.5q0 18 10.5 28t28.5 10zM256 527q38 0 38 -38q0 -40 -38 -40q-18 0 -28.5 10.5t-10.5 29.5q0 18 10.5 28t28.5 10zM441 342v-45h-378v45h378z" />
    <glyph glyph-name="equal" unicode="=" 
d="M441 242v-45h-378v45h378zM441 442v-45h-378v45h378z" />
    <glyph glyph-name="notequal" unicode="&#x2260;" 
d="M270 442l52 138h52l-52 -138h119v-45h-135l-58 -155h193v-45h-210l-51 -139h-52l52 139h-117v45h133l58 155h-191v45h207z" />
    <glyph glyph-name="approxequal" unicode="&#x2248;" 
d="M54 203q10 33 34 54.5t64 21.5q18 0 46 -8.5t57.5 -18.5t55.5 -18.5t40 -8.5q24 0 35.5 16t22.5 39l41 -24q-10 -33 -34 -54.5t-64 -21.5q-18 0 -46 8.5t-57 18.5t-55 18.5t-41 8.5q-23 0 -34.5 -15.5t-22.5 -39.5zM54 379q10 33 34 54.5t64 21.5q18 0 46 -8.5
t57.5 -18.5t55.5 -18.5t40 -8.5q24 0 35.5 16t22.5 39l41 -24q-10 -33 -34 -54.5t-64 -21.5q-18 0 -46 8.5t-57 18.5t-55 18.5t-41 8.5q-23 0 -34.5 -15.5t-22.5 -39.5z" />
    <glyph glyph-name="less" unicode="&#x3c;" 
d="M441 532v-51l-321 -162l321 -163v-50l-378 193v40z" />
    <glyph glyph-name="greater" unicode="&#x3e;" 
d="M441 339v-40l-378 -193v50l321 163l-321 162v51z" />
    <glyph glyph-name="lessequal" unicode="&#x2264;" 
d="M441 532v-51l-322 -162l322 -163v-50l-378 193v40zM441 45v-45h-378v45h378z" />
    <glyph glyph-name="greaterequal" unicode="&#x2265;" 
d="M441 45v-45h-378v45h378zM441 339v-40l-378 -193v50l321 163l-321 162v51z" />
    <glyph glyph-name="logicalnot" unicode="&#xac;" 
d="M441 442v-245h-51v200h-327v45h378z" />
    <glyph glyph-name="Delta" unicode="&#x394;" 
d="M284 665l184 -665h-432l183 665h65zM109 45h287l-144 536z" />
    <glyph glyph-name="Delta" unicode="&#x2206;" 
d="M284 665l184 -665h-432l183 665h65zM109 45h287l-144 536z" />
    <glyph glyph-name="Omega" unicode="&#x3a9;" horiz-adv-x="574" 
d="M164 50q-48 38 -73.5 110t-25.5 175q0 177 56.5 258.5t165.5 81.5t166 -81.5t57 -258.5q0 -104 -25.5 -175.5t-73.5 -109.5h115v-50h-213v45q34 12 60.5 33.5t43.5 56t26 83.5t9 116q0 81 -10.5 136.5t-31.5 90t-52 49.5t-71 15t-71 -15t-52 -49.5t-31.5 -90
t-10.5 -136.5q0 -67 9 -116t26.5 -83.5t43.5 -56t61 -33.5v-45h-214v50h116z" />
    <glyph glyph-name="Omega" unicode="&#x2126;" horiz-adv-x="574" 
d="M164 50q-48 38 -73.5 110t-25.5 175q0 177 56.5 258.5t165.5 81.5t166 -81.5t57 -258.5q0 -104 -25.5 -175.5t-73.5 -109.5h115v-50h-213v45q34 12 60.5 33.5t43.5 56t26 83.5t9 116q0 81 -10.5 136.5t-31.5 90t-52 49.5t-71 15t-71 -15t-52 -49.5t-31.5 -90
t-10.5 -136.5q0 -67 9 -116t26.5 -83.5t43.5 -56t61 -33.5v-45h-214v50h116z" />
    <glyph glyph-name="mu" unicode="&#xb5;" horiz-adv-x="477" 
d="M76 479h58v-318q0 -68 27.5 -93.5t74.5 -25.5q27 0 54.5 5.5t47.5 11.5v420h58v-451q-34 -14 -76.5 -25t-84.5 -11q-64 0 -101 34v-214h-58v667z" />
    <glyph glyph-name="mu" unicode="&#x3bc;" horiz-adv-x="477" 
d="M76 479h58v-318q0 -68 27.5 -93.5t74.5 -25.5q27 0 54.5 5.5t47.5 11.5v420h58v-451q-34 -14 -76.5 -25t-84.5 -11q-64 0 -101 34v-214h-58v667z" />
    <glyph glyph-name="pi" unicode="&#x3c0;" horiz-adv-x="508" 
d="M480 479v-50h-84v-429h-58v429h-167v-429h-57v429h-86v50h452z" />
    <glyph glyph-name="degree" unicode="&#xb0;" horiz-adv-x="328" 
d="M271 561q0 -51 -29.5 -82.5t-77.5 -31.5t-77 31.5t-29 82.5t29 82.5t77 31.5t77.5 -31.5t29.5 -82.5zM218 561q0 32 -14.5 50.5t-39.5 18.5t-39 -18.5t-14 -50.5t14 -50.5t39 -18.5t39.5 18.5t14.5 50.5z" />
    <glyph glyph-name="infinity" unicode="&#x221e;" horiz-adv-x="566" 
d="M258 319q-32 37 -55.5 56.5t-46.5 19.5q-26 0 -43.5 -18t-17.5 -58q0 -41 17.5 -57t43.5 -16q23 0 46.5 17.5t55.5 55.5zM525 318q0 -59 -32 -88t-83 -29q-36 0 -66 19t-61 57q-31 -38 -61 -57t-66 -19q-51 0 -83 29t-32 88q0 60 32 91t83 31q36 0 66 -19t61 -57
q31 38 61 57t66 19q51 0 83 -31t32 -91zM308 319q32 -38 55.5 -55.5t46.5 -17.5q26 0 43.5 16t17.5 57q0 40 -17.5 58t-43.5 18q-23 0 -46.5 -19.5t-55.5 -56.5z" />
    <glyph glyph-name="partialdiff" unicode="&#x2202;" 
d="M148 639q28 15 62.5 25.5t80.5 10.5q78 0 114.5 -47.5t36.5 -147.5q0 -30 -2.5 -68t-9.5 -79q-29 -176 -87 -259t-154 -83q-69 0 -108 45.5t-39 123.5q0 112 52 173.5t152 61.5q42 0 77 -11.5t56 -23.5q5 38 7 68t2 53q0 83 -26.5 116t-77.5 33q-37 0 -68 -12t-61 -26z
M370 309q-23 17 -53 28t-75 11q-32 0 -59 -10t-46 -32t-29.5 -58t-10.5 -87q0 -57 24 -90t71 -33q34 0 61 15t49 47t38.5 83.5t29.5 125.5z" />
    <glyph glyph-name="integral" unicode="&#x222b;" horiz-adv-x="249" 
d="M265 685h-11q-2 0 -3.5 0.5t-3.5 0.5q-45 0 -70 -27.5t-25 -88.5v-599q0 -79 -37 -121.5t-108 -42.5h-12t-15 2l4 47h11q2 0 3.5 -0.5t3.5 -0.5q45 0 70 27.5t25 88.5v599q0 79 37 121.5t108 42.5h10.5t16.5 -2z" />
    <glyph glyph-name="radical" unicode="&#x221a;" 
d="M159 479l101 -395l154 581h55l-175 -665h-66l-116 434h-78v45h125z" />
    <glyph glyph-name="summation" unicode="&#x2211;" 
d="M435 665v-45h-300q46 -67 95 -137t95 -137l-191 -301h323v-45h-392v38l197 308l-197 282v37h370z" />
    <glyph glyph-name="product" unicode="&#x220f;" horiz-adv-x="592" 
d="M551 665v-45h-65v-620h-56v620h-268v-620h-56v620h-65v45h510z" />
    <glyph glyph-name="lozenge" unicode="&#x25ca;" 
d="M277 666l166 -333l-166 -333h-50l-166 333l166 333h50zM121 333l131 -262l131 262l-131 262z" />
    <glyph glyph-name="apple" horiz-adv-x="1138" 
d="M828 784h5q30 0 42 -38l47 -156l-499 59l-56 -72l217 -33l-123 -351l-317 23q-13 1 -26 4.5t-23.5 10t-17 16t-6.5 22.5q0 5 1 12t3 14l153 410q7 16 29 26.5t48 12.5zM176 290q-1 -5 -1.5 -9t-0.5 -7q0 -16 12 -25t31 -11l226 -21l97 265l-188 27l-8 68l71 89l481 -54
l-34 112q-5 14 -17.5 18.5t-24.5 5.5l-452 -34q-16 -1 -33.5 -8.5t-23.5 -26.5zM951 486l80 -279q1 -2 1 -9q0 -19 -16 -29.5t-42 -10.5l-234 13v348zM822 190l151 -12h3q14 0 22.5 8.5t8.5 18.5q0 6 -1 7l-65 211l-119 22v-255zM68 9h25q19 -1 32 10t13 38q0 29 -13 40
t-32 10h-25v-98zM95 122q27 0 44.5 -15.5t18.5 -49.5q-1 -33 -18.5 -48t-44.5 -15h-45v128h45zM240 52q-3 21 -23 21q-12 0 -19 -8t-7 -21zM192 32q1 -13 8.5 -19t18.5 -6q9 -1 15.5 3t11.5 11l12 -6q-6 -10 -15.5 -16t-23.5 -6q-21 0 -34 12.5t-14 35.5q1 19 13 32t33 14
q22 -1 32 -13t11 -32zM287 21q8 -14 25 -14q22 0 19 13q1 7 -7.5 9.5t-19 5.5t-19.5 8t-9 17t10 19t27 8q25 -1 36 -18l-12 -8q-6 12 -25 12q-18 0 -18 -13q0 -7 8.5 -9.5t19 -5t19 -8t8.5 -17.5q0 -13 -9.5 -20t-26.5 -7q-15 0 -25 6t-15 16zM392 113q-2 -8 -11 -8
q-10 0 -10 8q0 9 10 9q9 0 11 -9zM390 86v-92h-18v92h18zM481 69q-7 4 -21 4q-12 0 -20 -8t-8 -24q0 -32 26 -32q17 0 23 13v47zM500 -8q0 -39 -43 -39q-28 0 -41 21l12 9q5 -8 11.5 -12t17.5 -4q26 0 24 24v16q-8 -13 -27 -13q-20 0 -30 12.5t-11 34.5q1 23 14.5 34.5
t33.5 11.5q26 -2 39 -11v-84zM548 86v-17q10 16 32 18q31 -1 32 -31v-62h-19v62q0 17 -18 17q-10 0 -15.5 -4.5t-10.5 -11.5v-63h-17v92h16zM701 52q-3 21 -23 21q-13 0 -20.5 -8t-7.5 -21zM652 32q3 -25 28 -25q18 -2 25 14l14 -6q-5 -10 -15 -16t-24 -6q-47 0 -47 48
q0 19 12 32t33 14q22 -1 32.5 -13t10.5 -32zM803 63q-8 10 -23 10q-13 0 -20 -9t-7 -24t7 -24t20 -9q15 0 23 13v43zM822 126v-108q0 -5 0.5 -12t2.5 -12l-16 -1q0 3 -1 6.5t-1 7.5q-5 -6 -12.5 -10t-18.5 -4q-19 0 -30.5 13t-11.5 35q0 21 13 33t30 13q20 -1 26 -10v49h19z
M921 20q10 -13 24 -13t20.5 9.5t6.5 24.5q0 32 -27 32q-8 0 -13.5 -4.5t-10.5 -10.5v-38zM921 126v-54q9 13 31 15q19 -1 28 -13t9 -33q0 -22 -10.5 -35t-28.5 -13q-23 0 -32 14q0 -8 -3 -14l-16 1q2 6 3.5 12.5t1.5 11.5v108h17zM1016 86l27 -75l27 75h18l-40 -100
q-6 -17 -16 -25t-29 -9l-4 13q23 1 31 21l3 7l-35 93h18zM204 -62l-1 -14h-39v-113h-18v113h-39v14h97zM312 -163q6 -13 24 -13q13 0 19 9t6 24q0 32 -24 32q-16 0 -25 -14v-38zM309 -97v-15q12 14 33 16q20 -1 29 -13.5t9 -33.5q1 -21 -9 -34.5t-32 -13.5q-10 0 -16.5 4
t-10.5 8v-50l-18 -1v132zM440 -96q22 -1 34 -14t13 -33q-1 -21 -13 -34t-34 -14q-21 1 -33 14t-13 34q1 20 13 33t33 14zM440 -111q-13 0 -20 -9t-7 -23q0 -15 7 -24t20 -9t20 9t7 24q0 14 -7 23t-20 9zM527 -163q8 -13 23 -13q14 0 20 9t6 24t-5.5 23.5t-19.5 8.5
q-15 0 -24 -14v-38zM525 -97v-15q10 14 33 16q18 -1 27.5 -13.5t9.5 -33.5q2 -21 -9 -34.5t-31 -13.5q-9 0 -16 4t-12 8v-50l-18 -1v132zM637 -57v-54q10 13 31 15q31 -1 32 -31v-62h-19v62q0 16 -18 16t-26 -16v-62h-18v131zM721 -115q6 7 15.5 12.5t24.5 6.5
q20 -2 27.5 -11t7.5 -21v-37q0 -5 1 -11.5t3 -11.5l-16 -3q-1 4 -1 7.5t-2 7.5q-4 -6 -11 -10.5t-18 -4.5q-32 0 -32 26q-1 17 19 24q5 2 17 4t22 3v7q0 7 -4 11.5t-16 4.5q-10 0 -15 -3.5t-9 -8.5zM778 -146q-8 -1 -17.5 -3t-14.5 -3q-9 -4 -9 -11q0 -13 18 -13q17 0 23 14
v16zM885 -115q-8 6 -21 4q-13 0 -21 -7.5t-8 -24.5q0 -31 27 -32q16 2 23 14v46zM902 -191q0 -39 -41 -39q-31 0 -41 21l12 9q5 -8 11.5 -12t17.5 -4q26 0 24 24v16q-8 -13 -28 -13q-19 0 -29 12.5t-10 33.5q0 23 13.5 35t33.5 12q11 -1 21 -3.5t16 -7.5v-84zM994 -131
q-1 20 -23 20q-12 0 -19 -8t-7 -20zM945 -151q2 -13 9.5 -19t18.5 -6q18 -1 25 13l13 -5q-5 -10 -14 -16.5t-24 -6.5q-21 0 -33.5 12.5t-13.5 35.5q1 20 13 33t32 14q21 -1 31.5 -13t12.5 -32zM204 -98l27 -75l27 75h18l-40 -100q-6 -17 -16 -25t-29 -9l-4 13q23 1 31 21
l4 7l-36 93h18z" />
    <glyph glyph-name="uni00A0" unicode="&#xa0;" horiz-adv-x="204" 
 />
    <glyph glyph-name="uni00AD" unicode="&#xad;" horiz-adv-x="328" 
d="M271 298v-54h-214v54h214z" />
    <glyph glyph-name="afii10065" unicode="&#x430;" horiz-adv-x="426" 
d="M83 472q20 5 50.5 10t57.5 5q31 0 60.5 -7t52 -24t36 -46.5t13.5 -74.5v-310q-33 -11 -72 -22t-90 -11q-31 0 -58.5 8t-48 26t-32.5 46.5t-12 70.5q0 41 13 68t35 43t50.5 22.5t59.5 6.5t54 -3t43 -7v61q0 30 -7.5 50t-21 32t-33 16.5t-43.5 4.5q-25 0 -52.5 -4.5
t-50.5 -10.5zM295 222q-22 4 -47 7.5t-51 3.5q-20 0 -37.5 -3.5t-31.5 -14t-22 -29t-8 -48.5q0 -27 7.5 -45.5t20.5 -29.5t30 -16t36 -5q30 0 56 5.5t47 11.5v163z" />
    <glyph glyph-name="afii10017" unicode="&#x410;" horiz-adv-x="566" 
d="M144 0h-60v432q0 52 10 97t33.5 77t61.5 50.5t94 18.5q57 0 95 -18.5t61.5 -50.5t33 -77t9.5 -97v-432h-60v264h-278v-264zM422 317v114q0 40 -6 75t-21.5 60.5t-42.5 40.5t-69 15t-69 -15t-42.5 -40.5t-21.5 -60.5t-6 -75v-114h278z" />
    <glyph glyph-name="afii10019" unicode="&#x412;" horiz-adv-x="518" 
d="M261 665q87 0 134 -39.5t47 -131.5q0 -66 -25.5 -102t-58.5 -52q19 -6 36.5 -18t31.5 -32t22.5 -48t8.5 -65q0 -41 -11 -75.5t-34.5 -59.5t-60.5 -38.5t-89 -13.5q-48 0 -86 7t-82 20v648h167zM154 59q26 -7 52 -10.5t59 -3.5q73 0 101.5 33.5t28.5 96.5q0 67 -28.5 100
t-101.5 33h-111v-249zM154 361h110q54 0 84.5 33.5t30.5 99.5q0 63 -27.5 90.5t-90.5 27.5h-107v-251z" />
    <glyph glyph-name="afii10022" unicode="&#x415;" horiz-adv-x="467" 
d="M403 665v-53h-251v-242h222v-53h-222v-180q0 -45 18.5 -64.5t50.5 -19.5h194v-53h-194q-60 0 -94.5 35.5t-34.5 101.5v528h311z" />
    <glyph glyph-name="afii10070" unicode="&#x435;" horiz-adv-x="432" 
d="M113 230q1 -49 7.5 -84.5t23 -58.5t43.5 -34t69 -11q25 0 58 6t55 13l4 -50q-22 -8 -53.5 -13.5t-63.5 -5.5q-47 0 -84.5 10.5t-64 38.5t-41 76t-14.5 122q0 132 46.5 190t127.5 58q40 0 70 -16t49.5 -44t29 -65t9.5 -80v-52h-271zM325 280q-2 75 -25 116t-75 41
q-56 0 -81 -40.5t-30 -116.5h211z" />
    <glyph glyph-name="afii10028" unicode="&#x41a;" horiz-adv-x="494" 
d="M157 665v-361l259 361h66l-215 -298q58 -20 94.5 -69t59.5 -114l65 -184h-66l-58 165q-20 57 -52 99.5t-75 54.5l-78 -100v-219h-60v665h60z" />
    <glyph glyph-name="afii10030" unicode="&#x41c;" horiz-adv-x="723" 
d="M333 215l-178 354v-569h-58v665h72l193 -384l192 384h72v-665h-58v569l-177 -354h-58z" />
    <glyph glyph-name="afii10031" unicode="&#x41d;" horiz-adv-x="618" 
d="M157 665v-295h305v295h60v-665h-60v317h-305v-317h-60v665h60z" />
    <glyph glyph-name="afii10032" unicode="&#x41e;" horiz-adv-x="567" 
d="M284 675q53 0 94.5 -18.5t70 -59t43.5 -106t15 -159.5q0 -93 -15 -158.5t-43.5 -106t-70 -59t-94.5 -18.5t-95 18.5t-70.5 59t-43.5 106t-15 158.5q0 94 15 159.5t43.5 106t70.5 59t95 18.5zM284 622q-39 0 -69.5 -15t-51 -49t-31 -89.5t-10.5 -136.5t10.5 -136.5
t31 -89.5t51 -49t69.5 -15t69 15t50.5 49t31 89.5t10.5 136.5t-10.5 136.5t-31 89.5t-50.5 49t-69 15z" />
    <glyph glyph-name="afii10034" unicode="&#x420;" horiz-adv-x="523" 
d="M268 665q48 0 85.5 -10t62.5 -34t38 -63.5t13 -97.5q0 -113 -52.5 -161.5t-151.5 -48.5q-25 0 -51 3t-55 8v-261h-60v665h171zM157 313q29 -6 55.5 -8.5t51.5 -2.5q79 0 110 40t31 118q0 43 -8 72t-24.5 47t-42.5 25.5t-62 7.5h-111v-299z" />
    <glyph glyph-name="afii10035" unicode="&#x421;" horiz-adv-x="482" 
d="M60 331q0 101 16.5 167.5t46.5 105.5t73.5 55t97.5 16q35 0 70 -4.5t67 -12.5l-6 -53q-32 8 -67 12.5t-65 4.5q-41 0 -73 -12.5t-53.5 -45t-33 -89t-11.5 -143.5q0 -86 11.5 -142t32.5 -89t52 -46t70 -13q30 0 67 6t75 15l4 -52q-36 -11 -75 -16t-71 -5q-52 0 -94 16.5
t-72 56t-46 105t-16 163.5z" />
    <glyph glyph-name="afii10036" unicode="&#x422;" horiz-adv-x="471" 
d="M451 665v-53h-185v-612h-60v612h-186v53h431z" />
    <glyph glyph-name="afii10039" unicode="&#x425;" horiz-adv-x="467" 
d="M94 665l144 -267l148 267h63l-180 -324l184 -341h-66l-155 286l-155 -286h-63l188 343l-174 322h66z" />
    <glyph glyph-name="afii10087" unicode="&#x445;" horiz-adv-x="389" 
d="M86 479l110 -187l110 187h61l-140 -234l145 -245h-63l-115 196l-117 -196h-60l146 243l-140 236h63z" />
    <glyph glyph-name="afii10083" unicode="&#x441;" horiz-adv-x="391" 
d="M332 423q-23 5 -50 9.5t-50 4.5q-27 0 -49.5 -8.5t-38 -30.5t-24 -60.5t-8.5 -98.5t9 -98t25 -60t38 -30.5t48 -8.5t52.5 4t53.5 12l4 -50q-52 -16 -108 -16q-39 0 -72.5 11.5t-57.5 40t-38 76t-14 119.5q0 73 13.5 120.5t37.5 76t57.5 40t73.5 11.5q27 0 55 -4t49 -9z
" />
    <glyph glyph-name="afii10082" unicode="&#x440;" horiz-adv-x="472" 
d="M83 452q39 14 82.5 24.5t81.5 10.5q36 0 67.5 -12t55.5 -40.5t37.5 -76t13.5 -117.5q0 -77 -14.5 -125.5t-39.5 -76t-57 -37.5t-66 -10q-28 0 -53.5 3.5t-49.5 8.5v-192h-58v640zM141 56q26 -6 52.5 -10t51.5 -4t46 7.5t36.5 29.5t24.5 61t9 101q0 59 -8.5 97t-24 60
t-36.5 30.5t-46 8.5q-12 0 -26 -2t-28.5 -5t-27.5 -6.5t-23 -6.5v-361z" />
    <glyph glyph-name="afii10080" unicode="&#x43e;" horiz-adv-x="458" 
d="M229 487q85 0 131 -58t46 -190t-46 -189.5t-131 -57.5t-131 57.5t-46 189.5t46 190t131 58zM230 437q-27 0 -49 -9t-37 -31.5t-23.5 -60.5t-8.5 -97t8.5 -97t23.5 -60.5t37 -31t49 -8.5q26 0 47.5 8.5t36.5 31t23.5 60.5t8.5 97t-8.5 97t-23.5 60.5t-36.5 31.5t-47.5 9z
" />
    <glyph glyph-name="afii10057" unicode="&#x408;" horiz-adv-x="253" 
d="M157 665v-607q0 -36 -7.5 -66.5t-23.5 -60t-42 -60.5t-62 -68l-36 43q30 32 51 57.5t34.5 49.5t19.5 49t6 56v607h60z" />
    <glyph glyph-name="afii10071" unicode="&#x451;" horiz-adv-x="432" 
d="M113 230q1 -49 7.5 -84.5t23 -58.5t43.5 -34t69 -11q25 0 58 6t55 13l4 -50q-22 -8 -53.5 -13.5t-63.5 -5.5q-47 0 -84.5 10.5t-64 38.5t-41 76t-14.5 122q0 132 46.5 190t127.5 58q40 0 70 -16t49.5 -44t29 -65t9.5 -80v-52h-271zM325 280q-2 75 -25 116t-75 41
q-56 0 -81 -40.5t-30 -116.5h211zM148 688q21 0 31 -11t10 -28t-10 -28t-31 -11q-20 0 -30 11t-10 28t10 28t30 11zM287 688q20 0 30 -11t10 -28t-10 -28t-30 -11t-30.5 11t-10.5 28t10.5 28t30.5 11z" />
    <glyph glyph-name="afii10023" unicode="&#x401;" horiz-adv-x="467" 
d="M403 665v-53h-251v-242h222v-53h-222v-180q0 -45 18.5 -64.5t50.5 -19.5h194v-53h-194q-60 0 -94.5 35.5t-34.5 101.5v528h311zM164 874q21 0 31 -11t10 -28t-10 -28t-31 -11q-20 0 -30 11t-10 28t10 28t30 11zM303 874q20 0 30 -11t10 -28t-10 -28t-30 -11t-30.5 11
t-10.5 28t10.5 28t30.5 11z" />
    <glyph glyph-name="afii10105" unicode="&#x458;" horiz-adv-x="224" 
d="M141 479v-424q0 -41 -4.5 -71t-18 -58t-37.5 -57.5t-62 -70.5l-36 35q34 36 53.5 62.5t30 50.5t13.5 49.5t3 59.5v424h58zM152 666q0 -17 -10 -28t-30 -11q-21 0 -31 11t-10 28t10 28t31 11q20 0 30 -11t10 -28z" />
    <glyph glyph-name="afii10054" unicode="&#x405;" horiz-adv-x="469" 
d="M379 605q-14 4 -31 7t-34.5 5.5t-34 3.5t-29.5 1q-24 0 -45.5 -2.5t-37.5 -11t-25.5 -25t-9.5 -44.5q0 -32 20.5 -62t50.5 -59.5t66 -60.5t66 -64.5t50.5 -71t20.5 -80.5t-13 -72t-36.5 -46.5t-55 -25t-67.5 -7.5q-49 0 -95.5 11t-77.5 25l10 52q31 -14 75.5 -25
t89.5 -11q48 0 78 20t30 70q0 37 -20.5 70.5t-51 65.5t-66.5 63t-66.5 63.5t-51 66.5t-20.5 73q0 41 15 68.5t40 43.5t57.5 22.5t67.5 6.5t73 -5t64 -12z" />
    <glyph glyph-name="afii10102" unicode="&#x455;" horiz-adv-x="377" 
d="M314 423q-20 5 -51 9.5t-56 4.5q-40 0 -69 -13.5t-29 -53.5q0 -24 16.5 -42.5t41.5 -35t54.5 -33.5t54.5 -38t41.5 -48t16.5 -64q0 -61 -39 -89t-99 -28q-41 0 -79 8.5t-66 20.5l7 51q28 -12 64.5 -21t73.5 -9q15 0 29 3t25.5 10.5t18 20.5t6.5 33q0 27 -16.5 48
t-41.5 38.5t-54 34.5t-54 36.5t-41.5 44t-16.5 57.5q0 32 12 54.5t33 37t49 21t60 6.5q31 0 62.5 -4t51.5 -9z" />
    <glyph glyph-name="afii10104" unicode="&#x457;" horiz-adv-x="224" 
d="M141 479v-479h-58v479h58zM44 688q21 0 31 -11t10 -28t-10 -28t-31 -11q-20 0 -30 11t-10 28t10 28t30 11zM183 688q20 0 30 -11t10 -28t-10 -28t-30 -11t-30.5 11t-10.5 28t10.5 28t30.5 11z" />
    <glyph glyph-name="afii10020" unicode="&#x413;" horiz-adv-x="418" 
d="M408 665v-53h-251v-612h-60v665h311z" />
    <glyph glyph-name="afii10076" unicode="&#x43a;" horiz-adv-x="428" 
d="M136 479v-233l199 233h68l-164 -193q20 -6 37 -19t31 -31t25 -40t20 -45l56 -151h-63l-47 126q-15 41 -38 76t-55 43l-69 -76v-169h-58v479h58z" />
    <glyph glyph-name="afii10072" unicode="&#x436;" horiz-adv-x="622" 
d="M223 245q-32 -8 -55 -43t-38 -76l-47 -126h-63l56 151q9 23 20 45t25 40t31 31t37 19l-164 193h68l189 -222v222h58v-222l189 222h68l-164 -193q20 -6 37 -19t31 -31t25 -40t20 -45l56 -151h-63l-47 126q-15 41 -38 76t-55 43l-59 -65v-180h-58v180z" />
    <glyph glyph-name="afii10024" unicode="&#x416;" horiz-adv-x="722" 
d="M263 319q-43 -12 -75 -54.5t-52 -99.5l-58 -165h-66l65 184q23 65 59.5 114t94.5 69l-215 298h66l249 -347v347h60v-347l249 347h66l-215 -298q58 -20 94.5 -69t59.5 -114l65 -184h-66l-58 165q-20 57 -52 99.5t-75 54.5l-68 -87v-232h-60v232z" />
    <glyph glyph-name="afii10061" unicode="&#x40c;" horiz-adv-x="494" 
d="M157 665v-361l259 361h66l-215 -298q58 -20 94.5 -69t59.5 -114l65 -184h-66l-58 165q-20 57 -52 99.5t-75 54.5l-78 -100v-219h-60v665h60zM366 916l-81 -161h-56l71 161h66z" />
    <glyph glyph-name="afii10109" unicode="&#x45c;" horiz-adv-x="428" 
d="M136 479v-233l199 233h68l-164 -193q20 -6 37 -19t31 -31t25 -40t20 -45l56 -151h-63l-47 126q-15 41 -38 76t-55 43l-69 -76v-169h-58v479h58zM341 730l-81 -161h-56l71 161h66z" />
    <glyph glyph-name="afii10056" unicode="&#x407;" horiz-adv-x="254" 
d="M157 665v-665h-60v665h60zM62 871q21 0 31 -11t10 -28t-10 -28t-31 -11q-20 0 -30 11t-10 28t10 28t30 11zM201 871q20 0 30 -11t10 -28t-10 -28t-30 -11t-30.5 11t-10.5 28t10.5 28t30.5 11z" />
    <glyph glyph-name="afii10055" unicode="&#x406;" horiz-adv-x="254" 
d="M157 665v-665h-60v665h60z" />
    <glyph glyph-name="afii10103" unicode="&#x456;" horiz-adv-x="221" 
d="M152 666q0 -17 -10 -28t-30 -11q-21 0 -31 11t-10 28t10 28t31 11q20 0 30 -11t10 -28zM141 479v-479h-58v479h58zM152 666q0 -17 -10 -28t-30 -11q-21 0 -31 11t-10 28t10 28t31 11q20 0 30 -11t10 -28zM141 479v-479h-58v479h58z" />
    <glyph glyph-name="afii10046" unicode="&#x42c;" horiz-adv-x="517" 
d="M157 665v-260h111q48 0 85.5 -10t62.5 -34t38 -63.5t13 -97.5q0 -113 -52.5 -161.5t-151.5 -48.5q-25 0 -71.5 5.5t-94.5 19.5v650h60zM157 53q29 -6 55.5 -8.5t51.5 -2.5q79 0 110 40t31 118q0 43 -8 72t-24.5 47t-42.5 25.5t-62 7.5h-111v-299z" />
    <glyph glyph-name="afii10018" unicode="&#x411;" horiz-adv-x="523" 
d="M408 665v-53h-251v-207h111q48 0 85.5 -10t62.5 -34t38 -63.5t13 -97.5q0 -113 -52.5 -161.5t-151.5 -48.5q-25 0 -71.5 5.5t-94.5 19.5v650h311zM157 53q29 -6 55.5 -8.5t51.5 -2.5q79 0 110 40t31 118q0 43 -8 72t-24.5 47t-42.5 25.5t-62 7.5h-111v-299z" />
    <glyph glyph-name="afii10033" unicode="&#x41f;" horiz-adv-x="619" 
d="M522 665v-665h-60v612h-305v-612h-60v665h425z" />
    <glyph glyph-name="afii10029" unicode="&#x41b;" horiz-adv-x="563" 
d="M466 665v-665h-60v612h-198l-29 -376q-11 -132 -49.5 -188.5t-93.5 -56.5q-12 0 -20.5 1t-14.5 3q-7 2 -11 5v54q4 -2 9 -3q9 -3 31 -3q14 0 28.5 10t27 32.5t21.5 58.5t13 88l32 428h314z" />
    <glyph glyph-name="afii10021" unicode="&#x414;" horiz-adv-x="552" 
d="M-5 53h35q17 15 32 41q13 22 24 58.5t16 90.5l32 422h314v-612h79l-11 -210h-51v157h-408l-10 -157h-52v210zM161 243q-5 -53 -16 -89t-23 -59q-14 -26 -30 -42h296v559h-198z" />
    <glyph glyph-name="afii10026" unicode="&#x418;" horiz-adv-x="623" 
d="M155 80v-80h-58v665h58v-503l313 410v93h58v-665h-58v488z" />
    <glyph glyph-name="afii10040" unicode="&#x426;" horiz-adv-x="621" 
d="M97 0v665h60v-612h305v612h60v-612h79l-11 -210h-51v157h-442z" />
    <glyph glyph-name="afii10038" unicode="&#x424;" horiz-adv-x="664" 
d="M108 332q0 -59 12.5 -99t37 -64.5t60.5 -35t84 -10.5v417q-48 0 -84 -10.5t-60.5 -35t-37 -64.5t-12.5 -98zM556 332q0 58 -12.5 98t-37 64.5t-60.5 35t-84 10.5v-417q48 0 84 10.5t60.5 35t37 64.5t12.5 99zM362 -20h-60v90q-59 0 -105.5 14.5t-79 46t-50 81.5
t-17.5 120t17.5 119.5t50 81t79 46t105.5 14.5v92h60v-92q59 0 105.5 -14.5t79 -46t50 -81t17.5 -119.5t-17.5 -120t-50 -81.5t-79 -46t-105.5 -14.5v-90z" />
    <glyph glyph-name="afii10042" unicode="&#x428;" horiz-adv-x="816" 
d="M97 0v665h60v-612h221v612h60v-612h221v612h60v-665h-622z" />
    <glyph glyph-name="afii10041" unicode="&#x427;" horiz-adv-x="578" 
d="M135 665v-180q0 -40 7.5 -75t25 -60.5t45.5 -40t70 -14.5t77 7t61 15v348h60v-665h-60v261q-28 -8 -62 -14t-76 -6q-56 0 -95.5 18.5t-64.5 50.5t-36.5 76.5t-11.5 97.5v181h60z" />
    <glyph glyph-name="afii10037" unicode="&#x423;" horiz-adv-x="482" 
d="M60 27q51 34 91 78.5t62 82.5l-193 477h63l168 -428q30 50 54 104.5t42.5 110t32 109.5t22.5 104h60q-12 -59 -30 -125t-43 -132t-56.5 -129.5t-69 -119.5t-80.5 -101t-92 -74z" />
    <glyph glyph-name="afii10025" unicode="&#x417;" horiz-adv-x="434" 
d="M188 370q24 0 45 5.5t36.5 20t24.5 38.5t9 61t-8 61.5t-23.5 38.5t-39 20t-53.5 6q-32 0 -66.5 -4t-63.5 -12l-6 52q31 9 66 13.5t70 4.5q41 0 75 -9t58.5 -30t38 -55.5t13.5 -85.5q0 -48 -13 -77t-29 -46q-18 -19 -42 -28q25 -10 44 -30q17 -17 31 -48.5t14 -81.5
q0 -56 -14 -93.5t-39.5 -60t-61.5 -31.5t-81 -9q-36 0 -74 5t-71 14l6 53q32 -9 67.5 -13.5t71.5 -4.5q62 0 99 31.5t37 108.5q0 72 -31 102.5t-94 30.5h-65v53h69z" />
    <glyph glyph-name="afii10043" unicode="&#x429;" horiz-adv-x="818" 
d="M97 0v665h60v-612h221v612h60v-612h221v612h60v-612h79l-11 -210h-51v157h-639z" />
    <glyph glyph-name="afii10045" unicode="&#x42b;" horiz-adv-x="725" 
d="M628 665v-665h-60v665h60zM157 665v-260h106q46 0 82 -10t61 -34t38 -63.5t13 -97.5q0 -113 -51.5 -161.5t-147.5 -48.5q-25 0 -69 5.5t-92 19.5v650h60zM157 53q29 -6 53 -8.5t49 -2.5q76 0 106 40t30 118q0 43 -7.5 72t-23.5 47t-41 25.5t-60 7.5h-106v-299z" />
    <glyph glyph-name="afii10044" unicode="&#x42a;" horiz-adv-x="550" 
d="M200 665v-260h106q46 0 82 -10t61 -34t38 -63.5t13 -97.5q0 -113 -51.5 -161.5t-147.5 -48.5q-25 0 -69 5.5t-92 19.5v596h-140v54h200zM200 53q29 -6 53 -8.5t49 -2.5q76 0 106 40t30 118q0 43 -7.5 72t-23.5 47t-41 25.5t-60 7.5h-106v-299z" />
    <glyph glyph-name="afii10053" unicode="&#x404;" horiz-adv-x="482" 
d="M60 331q0 101 16.5 167.5t46.5 105.5t73.5 55t97.5 16q35 0 70 -4.5t67 -12.5l-6 -53q-32 8 -67 12.5t-65 4.5q-39 0 -70 -11.5t-52.5 -40.5t-34 -79.5t-14.5 -128.5h236v-50h-236q1 -80 13 -132t33.5 -82.5t51.5 -43t68 -12.5q30 0 67 6t75 15l4 -52q-36 -11 -75 -16
t-71 -5q-52 0 -94 16.5t-72 56t-46 105t-16 163.5z" />
    <glyph glyph-name="afii10047" unicode="&#x42d;" horiz-adv-x="482" 
d="M422 331q0 -98 -16 -163.5t-46 -105t-72 -56t-94 -16.5q-32 0 -71 5t-75 16l4 52q38 -9 75 -15t67 -6q38 0 68 12.5t51.5 43t33.5 82.5t13 132h-236v50h236q-2 78 -14.5 128.5t-34.5 79.5t-52.5 40.5t-69.5 11.5q-30 0 -65 -4.5t-67 -12.5l-6 53q32 8 67 12.5t70 4.5
q54 0 97.5 -16t73.5 -55t46.5 -105.5t16.5 -167.5z" />
    <glyph glyph-name="afii10048" unicode="&#x42e;" horiz-adv-x="772" 
d="M497 674q50 0 90 -18t67.5 -58.5t42.5 -106t15 -159.5q0 -93 -14 -158.5t-41 -106t-67.5 -59t-92.5 -18.5q-50 0 -89 17.5t-67 56.5t-43.5 101t-16.5 152h-124v-317h-60v665h60v-295h125q3 84 19 142t44 94t66 52t86 16zM497 621q-35 0 -63.5 -14.5t-48.5 -48.5
t-31 -89.5t-11 -136.5t10.5 -136t30.5 -89t48.5 -49t64.5 -15q37 0 65.5 15t48 49t29.5 89t10 136t-10.5 136.5t-30.5 89.5t-48.5 48.5t-63.5 14.5z" />
    <glyph glyph-name="afii10049" unicode="&#x42f;" horiz-adv-x="528" 
d="M431 665v-665h-60v261h-106q-41 0 -64 -31.5t-39 -81.5l-49 -148h-63l53 161q7 21 14 38t15.5 31.5t19 26t24.5 21.5q-54 20 -84.5 63t-30.5 124q0 58 13 96.5t38 61.5t62.5 32.5t85.5 9.5h171zM371 612h-111q-36 0 -62 -7t-42.5 -23.5t-24.5 -45t-8 -71.5q0 -78 31 -115
t110 -37h107v299z" />
    <glyph glyph-name="afii10085" unicode="&#x443;" horiz-adv-x="397" 
d="M154 14l-145 465h60l125 -419q36 85 71 188t57 231h56q-7 -42 -20 -96.5t-31.5 -115.5t-43 -125t-54 -125t-64.5 -116.5t-75 -98.5l-31 39q38 47 67.5 91.5t44.5 81.5h-17z" />
    <glyph glyph-name="afii10086" unicode="&#x444;" horiz-adv-x="644" 
d="M351 479q37 8 67 8q36 0 67.5 -12t55.5 -40.5t37.5 -76t13.5 -117.5q0 -77 -14.5 -125.5t-39.5 -76t-57 -37.5t-66 -10q-17 0 -33 1.5t-31 3.5v-185h-58v185q-16 -2 -31.5 -3.5t-32.5 -1.5q-35 0 -66.5 10t-56.5 37.5t-39.5 76t-14.5 125.5q0 70 13.5 117.5t37.5 76
t55.5 40.5t67.5 12q30 0 67 -8v186h58v-186zM228 42q16 0 32 1.5t33 3.5v381q-17 4 -34.5 6.5t-31.5 2.5q-25 0 -46 -8.5t-36.5 -30.5t-24 -60t-8.5 -97q0 -62 9 -101t24.5 -61t36.5 -29.5t46 -7.5zM417 437q-14 0 -31.5 -2.5t-34.5 -6.5v-381q17 -2 33 -3.5t32 -1.5
q25 0 46 7.5t36.5 29.5t24.5 61t9 101q0 59 -8.5 97t-24 60t-36.5 30.5t-46 8.5z" />
    <glyph glyph-name="afii10058" unicode="&#x409;" horiz-adv-x="808" 
d="M457 665v-260h106q48 0 84 -11t61 -35.5t37.5 -63.5t12.5 -94q0 -111 -49 -161t-143 -50q-36 0 -76 5.5t-93 19.5v597h-189l-29 -376q-10 -132 -49 -188.5t-94 -56.5q-12 0 -20.5 1t-14.5 3q-7 2 -11 5v54q4 -2 9 -3q9 -3 31 -3q14 0 28.5 10t27 32.5t21.5 58.5t13 88
l32 428h305zM457 55q28 -7 52.5 -10.5t49.5 -3.5q79 0 109 41t30 119q0 83 -31.5 118.5t-103.5 35.5h-106v-300z" />
    <glyph glyph-name="afii10059" unicode="&#x40a;" horiz-adv-x="857" 
d="M151 665v-261h296v261h60v-259h106q47 0 83.5 -11t61 -35.5t37 -63.5t12.5 -95q0 -111 -49 -161t-143 -50q-36 0 -76 5.5t-92 19.5v336h-296v-351h-60v665h60zM507 54q28 -7 52.5 -10.5t48.5 -3.5q79 0 109 41t30 120q0 83 -31 118.5t-103 35.5h-106v-301z" />
    <glyph glyph-name="afii10145" unicode="&#x40f;" horiz-adv-x="619" 
d="M97 0v665h60v-612h305v612h60v-665h-183v-150h-60v150h-182z" />
    <glyph glyph-name="afii10050" unicode="&#x490;" horiz-adv-x="413" 
d="M352 665v115h56v-168h-251v-612h-60v665h255z" />
    <glyph glyph-name="afii10066" unicode="&#x431;" horiz-adv-x="464" 
d="M412 228q0 -123 -45.5 -180t-133.5 -57q-91 0 -134 66t-43 216v25q0 108 12 180t36 116t60.5 66.5t85.5 31.5l128 24l6 -55l-128 -24q-33 -6 -58 -20.5t-42.5 -43t-28 -74t-13.5 -112.5q9 21 27 39q14 15 38.5 27.5t61.5 12.5q82 0 126.5 -57t44.5 -181zM115 230
q0 -103 30.5 -147.5t87.5 -44.5t87.5 44t30.5 146t-30.5 146t-88.5 44q-54 0 -85.5 -44t-31.5 -144z" />
    <glyph glyph-name="afii10068" unicode="&#x433;" horiz-adv-x="339" 
d="M334 429h-199v-429h-57v479h256v-50z" />
    <glyph glyph-name="afii10079" unicode="&#x43d;" horiz-adv-x="487" 
d="M136 479v-214h215v214h58v-479h-58v218h-215v-218h-58v479h58z" />
    <glyph glyph-name="afii10084" unicode="&#x442;" horiz-adv-x="365" 
d="M10 479h345v-48h-144v-431h-57v431h-144v48z" />
    <glyph glyph-name="afii10098" unicode="&#x491;" horiz-adv-x="336" 
d="M334 429h-199v-429h-57v479h202v131h54v-181z" />
    <glyph glyph-name="afii10060" unicode="&#x40b;" horiz-adv-x="615" 
d="M501 0v161q0 40 -7.5 75.5t-25 61t-46 40.5t-69.5 15q-47 0 -81 -7.5t-56 -15.5v-330h-60v613h-176v52h413v-52h-177v-231q29 9 62 15t76 6q57 0 96.5 -18.5t64 -51.5t35.5 -77.5t11 -95.5v-160h-60z" />
    <glyph glyph-name="afii10051" unicode="&#x402;" horiz-adv-x="605" 
d="M501 162q0 40 -7.5 75t-25 61t-46 41t-69.5 15q-47 0 -80.5 -8t-56.5 -16v-330h-60v615h-176v50h413v-50h-177v-232q29 9 62 15t76 6q57 0 96.5 -18.5t64 -51t35.5 -77.5t11 -97v-26q0 -37 -8.5 -67.5t-25.5 -60t-43 -59.5t-60 -66l-29 41q30 33 50.5 60t32.5 51.5
t17.5 48.5t5.5 51v29v0z" />
    <glyph glyph-name="afii10077" unicode="&#x43b;" horiz-adv-x="452" 
d="M374 479v-479h-60v431h-154l-23 -282q-7 -80 -36.5 -119.5t-74.5 -39.5q-8 0 -14 1t-11 3q-6 2 -11 5v49q2 -2 6 -3q6 -3 19 -3q23 0 41.5 27t23.5 81l27 329h267z" />
    <glyph glyph-name="afii10094" unicode="&#x44c;" horiz-adv-x="434" 
d="M137 303q18 5 40.5 10t52.5 5q85 0 124.5 -43t39.5 -121q0 -77 -41.5 -120t-126.5 -43q-38 0 -76 7.5t-72 17.5v462h59v-175zM136 53q14 -4 35.5 -9.5t53.5 -5.5q59 0 84 32t25 84t-24.5 84t-83.5 32q-30 0 -51.5 -4.5t-38.5 -9.5v-203z" />
    <glyph glyph-name="afii10093" unicode="&#x44b;" horiz-adv-x="616" 
d="M137 303q17 5 38.5 10t50.5 5q82 0 121 -43t39 -121q0 -77 -40 -120t-118 -43q-42 0 -79 7.5t-71 17.5v463h59v-176zM137 53q11 -5 33 -10t53 -5q52 0 77.5 30t25.5 86q0 52 -24 84t-80 32q-29 0 -50 -4.5t-35 -9.5v-203zM538 479v-479h-58v479h58z" />
    <glyph glyph-name="afii10092" unicode="&#x44a;" horiz-adv-x="468" 
d="M179 303q17 5 39 10t51 5q82 0 120.5 -43t38.5 -121q0 -77 -40 -120t-118 -43q-42 0 -79 7.5t-71 17.5v413h-120v50h179v-176zM179 53q11 -5 33.5 -10t52.5 -5q52 0 77.5 30t25.5 86q0 52 -23.5 84t-79.5 32q-30 0 -51 -4.5t-35 -9.5v-203z" />
    <glyph glyph-name="afii10074" unicode="&#x438;" horiz-adv-x="497" 
d="M136 479v-342l225 288v54h58v-479h-58v340l-225 -287v-53h-58v479h58z" />
    <glyph glyph-name="afii10069" unicode="&#x434;" horiz-adv-x="449" 
d="M373 0h-319l-9 -127h-50v174h30q12 11 23 27q9 14 17 34t10 49l26 322h268v-432h65l-11 -174h-50v127zM132 157q-2 -27 -10 -47.5t-16 -34.5q-10 -17 -22 -28h226v384h-156z" />
    <glyph glyph-name="afii10067" unicode="&#x432;" horiz-adv-x="430" 
d="M78 462q28 9 66 17t76 8q40 0 69 -10.5t48 -28.5t27.5 -41.5t8.5 -49.5q0 -32 -10.5 -52t-23.5 -32q-15 -14 -33 -22q25 -7 45 -22q17 -13 31.5 -36.5t14.5 -61.5q0 -60 -41.5 -100t-127.5 -40q-38 0 -77 7.5t-73 17.5v446zM136 225v-174q13 -5 35.5 -10t57.5 -5
q58 0 83.5 29.5t25.5 68.5q0 37 -25.5 64t-83.5 27h-93zM217 442q-25 0 -47.5 -5.5t-33.5 -10.5v-154h79q55 0 76.5 25t21.5 58q0 16 -5 31.5t-16.5 28t-29.5 20t-45 7.5z" />
    <glyph glyph-name="afii10101" unicode="&#x454;" horiz-adv-x="391" 
d="M332 423q-23 5 -50 9.5t-50 4.5q-26 0 -47 -7.5t-37 -27t-25 -53t-11 -85.5h165v-50h-165q2 -52 12 -85t25.5 -52.5t37 -27t45.5 -7.5q26 0 52.5 4t53.5 12l4 -50q-52 -16 -108 -16q-39 0 -72.5 11.5t-57.5 40t-38 76t-14 119.5q0 73 13.5 120.5t37.5 76t57.5 40
t73.5 11.5q27 0 55 -4t49 -9z" />
    <glyph glyph-name="afii10095" unicode="&#x44d;" horiz-adv-x="391" 
d="M53 474q21 5 49 9t55 4q40 0 73.5 -11.5t57.5 -40t37.5 -76t13.5 -120.5q0 -72 -14 -119.5t-38 -76t-57.5 -40t-72.5 -11.5q-56 0 -108 16l4 50q27 -8 53.5 -12t52.5 -4q24 0 45.5 7.5t37 27t25.5 52.5t12 85h-165v50h165q-2 52 -11 85.5t-25 53t-37 27t-47 7.5
q-23 0 -50 -4.5t-50 -9.5z" />
    <glyph glyph-name="afii10078" unicode="&#x43c;" horiz-adv-x="581" 
d="M270 118l-134 250v-368h-58v479h57l155 -287l156 287h57v-479h-58v368l-134 -250h-41z" />
    <glyph glyph-name="afii10088" unicode="&#x446;" horiz-adv-x="489" 
d="M78 0v479h58v-432h215v432h58v-432h65l-11 -174h-50v127h-335z" />
    <glyph glyph-name="afii10090" unicode="&#x448;" horiz-adv-x="699" 
d="M78 0v479h58v-432h185v432h57v-432h185v432h58v-479h-543z" />
    <glyph glyph-name="afii10091" unicode="&#x449;" horiz-adv-x="701" 
d="M78 479h58v-432h185v432h57v-432h185v432h58v-432h65l-11 -174h-50v127h-547v479z" />
    <glyph glyph-name="afii10089" unicode="&#x447;" horiz-adv-x="468" 
d="M332 201q-13 -9 -30 -15q-15 -6 -36 -10.5t-48 -4.5q-29 0 -56 8.5t-47.5 28.5t-32.5 51.5t-12 78.5v141h58v-141q0 -35 8 -57.5t21.5 -36.5t31.5 -19.5t38 -5.5q25 0 44.5 4.5t33.5 10.5q16 7 27 16v229h58v-479h-58v201z" />
    <glyph glyph-name="afii10073" unicode="&#x437;" horiz-adv-x="352" 
d="M139 487q40 0 70 -10.5t49 -28.5t28.5 -41.5t9.5 -48.5q0 -31 -11 -51t-24 -32q-15 -15 -34 -23q23 -6 41 -20q16 -12 29 -36t13 -62q0 -63 -43.5 -102.5t-127.5 -39.5q-28 0 -56 4t-54 12l5 45q23 -7 48.5 -11.5t54.5 -4.5q31 0 52.5 8t35 21.5t19.5 31t6 37.5
q0 17 -5 33.5t-17 29t-32 20.5t-49 8h-52v45h44q55 0 76.5 24.5t21.5 58.5q0 14 -5 29.5t-17 28t-30.5 20.5t-45.5 8q-26 0 -51 -4t-44 -9l-6 47q19 5 47 9t54 4z" />
    <glyph glyph-name="afii10096" unicode="&#x44e;" horiz-adv-x="628" 
d="M576 238q0 -132 -45 -189.5t-124 -57.5q-75 0 -120 53t-50 174h-101v-218h-58v478h58v-213h101q6 117 50.5 169t119.5 52q39 0 70.5 -14t53.5 -44t33.5 -77t11.5 -113zM516 238q0 58 -8 97t-22.5 62t-34.5 32.5t-44 9.5t-44.5 -9.5t-35.5 -32.5t-23 -62t-8 -97
q0 -59 8 -97.5t23 -61t35.5 -32t44.5 -9.5t44 9.5t34.5 32t22.5 61t8 97.5z" />
    <glyph glyph-name="afii10097" unicode="&#x44f;" horiz-adv-x="463" 
d="M327 0v185h-78q-35 0 -66 -29.5t-48 -76.5l-28 -79h-62l31 88q12 35 27.5 57t29.5 34q16 14 32 21q-27 5 -48 22q-18 14 -32.5 40.5t-14.5 71.5q0 33 10 61t30.5 48t51.5 31.5t74 11.5q38 0 76 -7t73 -18v-461h-58zM327 424q-14 5 -37 10t-54 5q-58 0 -82.5 -29
t-24.5 -78q0 -47 24.5 -73.5t82.5 -26.5h91v192z" />
    <glyph glyph-name="afii10106" unicode="&#x459;" horiz-adv-x="652" 
d="M365 477v-174q17 5 39.5 10t51.5 5q83 0 122 -43t39 -121q0 -77 -40 -119.5t-120 -42.5q-42 0 -79.5 6.5t-71.5 17.5v414h-145l-23 -280q-6 -75 -34.5 -117t-77.5 -42q-8 0 -14 1t-11 3q-6 2 -11 5v47q2 -2 6 -3q8 -2 16 -2q26 0 44.5 27.5t23.5 80.5l27 327h258z
M452 270q-30 0 -51 -5t-36 -10v-203q12 -5 34.5 -9.5t52.5 -4.5q54 0 80 30t26 86q0 52 -24.5 84t-81.5 32z" />
    <glyph glyph-name="afii10107" unicode="&#x45a;" horiz-adv-x="695" 
d="M408 303q17 5 39 10t52 5q83 0 122 -43t39 -121q0 -77 -40.5 -120t-120.5 -43q-42 0 -79 7.5t-71 17.5v235h-213v-251h-58v478h58v-180h213v180h59v-175zM407 53q11 -5 34 -10t54 -5q54 0 80 30t26 86q0 52 -24.5 84t-82.5 32q-30 0 -51 -4.5t-36 -9.5v-203z" />
    <glyph glyph-name="afii10108" unicode="&#x45b;" horiz-adv-x="490" 
d="M7 646h77v84h57v-84h146v-47h-146v-162q26 8 55 14.5t59 6.5q33 0 62 -8.5t50.5 -27t34 -49.5t12.5 -76v-297h-57v294q0 34 -8.5 56t-23 35.5t-34 19t-42.5 5.5q-29 0 -59 -7.5t-49 -13.5v-389h-57v599h-77v47z" />
    <glyph glyph-name="afii10193" unicode="&#x45f;" horiz-adv-x="487" 
d="M272 0v-120h-58v120h-136v479h58v-432h215v432h58v-479h-137z" />
    <glyph glyph-name="afii61352" unicode="&#x2116;" horiz-adv-x="890" 
d="M721 447q-16 0 -29.5 -6t-24 -21t-16.5 -40.5t-6 -64.5t6 -65t16.5 -41t24 -21.5t29.5 -6.5t29.5 6.5t23.5 21.5t16 40.5t6 64.5t-6 64.5t-16 41t-23.5 21.5t-29.5 6zM721 487q26 0 48.5 -9.5t39 -30t26 -53.5t9.5 -80t-9.5 -80t-26 -54t-39 -30.5t-48.5 -9.5
q-27 0 -49.5 10t-39 31t-25.5 54t-9 80t9 79.5t25.5 53t39 30t49.5 9.5zM826 48v-48h-209v48h209zM149 665l319 -417v417h58v-665h-58v160l-313 408v-568h-58v665h52z" />
    <glyph glyph-name="afii10099" unicode="&#x452;" horiz-adv-x="486" 
d="M357 294q0 34 -8.5 56t-23 35.5t-34 19t-42.5 5.5q-29 0 -59 -7.5t-49 -13.5v-389h-57v599h-77v47h77v84h57v-84h146v-47h-146v-162q26 8 55 14.5t59 6.5q33 0 62.5 -8.5t51 -27t34 -49.5t12.5 -76v-180q0 -41 -4.5 -71t-18 -58t-37.5 -57.5t-62 -70.5l-36 35
q34 36 53.5 62.5t30 50.5t13.5 49.5t3 59.5v177v0z" />
    <glyph glyph-name="uni20BD" unicode="&#x20bd;" horiz-adv-x="516" 
d="M24 324h69v341h169q97 0 147.5 -45t50.5 -152q0 -54 -13 -91t-38.5 -60t-62 -33t-83.5 -10h-110v-88h199v-48h-199v-138h-60v138h-69v48h69v88h-69v50zM263 324q75 0 106 33.5t31 111.5t-32 112t-106 34h-109v-291h110z" />
    <glyph glyph-name="currency" unicode="&#xa4;" horiz-adv-x="516" 
d="M24 324h69v341h169q97 0 147.5 -45t50.5 -152q0 -54 -13 -91t-38.5 -60t-62 -33t-83.5 -10h-110v-88h199v-48h-199v-138h-60v138h-69v48h69v88h-69v50zM263 324q75 0 106 33.5t31 111.5t-32 112t-106 34h-109v-291h110z" />
    <glyph glyph-name="nonbreakingspace" horiz-adv-x="210" 
 />
    <glyph glyph-name="afii10027" unicode="&#x419;" horiz-adv-x="623" 
d="M155 80v-80h-58v665h58v-503l313 410v93h58v-665h-58v488zM246 897q1 -32 15.5 -53t49.5 -21t49.5 21t15.5 53h52q0 -62 -34.5 -93t-82.5 -31t-82.5 31t-34.5 93h52z" />
    <glyph glyph-name="afii10075" unicode="&#x439;" horiz-adv-x="497" 
d="M136 479v-342l225 288v54h58v-479h-58v340l-225 -287v-53h-58v479h58zM183 711q1 -32 15.5 -53t49.5 -21t49.5 21t15.5 53h52q0 -62 -34.5 -93t-82.5 -31t-82.5 31t-34.5 93h52z" />
    <glyph glyph-name="afii10081" unicode="&#x43f;" horiz-adv-x="487" 
d="M409 479v-479h-58v432h-215v-432h-58v479h331z" />
    <glyph glyph-name="afii10062" unicode="&#x40e;" horiz-adv-x="482" 
d="M60 27q51 34 91 78.5t62 82.5l-193 477h63l168 -428q30 50 54 104.5t42.5 110t32 109.5t22.5 104h60q-12 -59 -30 -125t-43 -132t-56.5 -129.5t-69 -119.5t-80.5 -101t-92 -74zM180 897q1 -32 15.5 -53t49.5 -21t49.5 21t15.5 53h52q0 -62 -34.5 -93t-82.5 -31t-82.5 31
t-34.5 93h52z" />
    <glyph glyph-name="afii10110" unicode="&#x45e;" horiz-adv-x="397" 
d="M154 14l-145 465h60l125 -419q36 85 71 188t57 231h56q-7 -42 -20 -96.5t-31.5 -115.5t-43 -125t-54 -125t-64.5 -116.5t-75 -98.5l-31 39q38 47 67.5 91.5t44.5 81.5h-17zM135 711q1 -32 15.5 -53t49.5 -21t49.5 21t15.5 53h52q0 -62 -34.5 -93t-82.5 -31t-82.5 31
t-34.5 93h52z" />
    <glyph glyph-name="afii10052" unicode="&#x403;" horiz-adv-x="418" 
d="M408 665v-53h-251v-612h-60v665h311zM350 916l-81 -161h-56l71 161h66z" />
    <glyph glyph-name="afii10100" unicode="&#x453;" horiz-adv-x="348" 
d="M339 429h-199v-429h-57v479h256v-50zM315 730l-81 -161h-56l71 161h66z" />
    </font>
</defs>
</svg>
