<?xml version="1.0" standalone="no"?>
<!DOCTYPE svg PUBLIC "-//W3C//DTD SVG 1.1//EN" "http://www.w3.org/Graphics/SVG/1.1/DTD/svg11.dtd" >
<svg xmlns="http://www.w3.org/2000/svg" xmlns:xlink="http://www.w3.org/1999/xlink" version="1.1">
<metadata>
Created by FontForge 20161116 at Tue Feb  7 14:43:45 2017
 By Jimmy Wärting
Copyright (c) 2010 by Dassault Systmes Company. All rights reserved.
</metadata>
<defs>
<font id="3ds-CondensedBold" horiz-adv-x="518" >
  <font-face 
    font-family="3ds Condensed"
    font-weight="700"
    font-stretch="condensed"
    units-per-em="1000"
    panose-1="2 0 5 3 2 0 0 2 0 4"
    ascent="800"
    descent="-200"
    x-height="487"
    cap-height="665"
    bbox="-42 -232 1088 1013"
    underline-thickness="50"
    underline-position="-100"
    unicode-range="U+000D-FB02"
  />
<missing-glyph horiz-adv-x="480" 
d="M413 665v-665h-347v665h347zM196 108h87v450h-87v-450z" />
    <glyph glyph-name="fi" unicode="fi" horiz-adv-x="543" 
d="M74 487v53q0 59 19.5 98t52 62t75 32.5t87.5 9.5q19 0 41 -1.5t43.5 -3.5t41 -6t34.5 -8l-11 -120q-29 7 -68.5 11.5t-69.5 4.5q-32 0 -54.5 -15t-22.5 -61v-56h248v-487h-168v373h-80v-373h-168v373h-59v114h59z" />
    <glyph glyph-name="fl" unicode="fl" horiz-adv-x="543" 
d="M74 487v53q0 52 16.5 90t46 63t70.5 37t90 12q50 0 95.5 -7t97.5 -18v-717h-168v617h-7q-12 0 -25 -2t-23.5 -9.5t-17.5 -22.5t-7 -40v-56h41v-114h-41v-373h-168v373h-59v114h59z" />
    <glyph glyph-name=".notdef" horiz-adv-x="480" 
d="M413 665v-665h-347v665h347zM196 108h87v450h-87v-450z" />
    <glyph glyph-name=".null" horiz-adv-x="0" 
 />
    <glyph glyph-name=".null" horiz-adv-x="0" 
 />
    <glyph glyph-name="nonmarkingreturn" unicode="&#xd;" horiz-adv-x="233" 
 />
    <glyph glyph-name="space" unicode=" " horiz-adv-x="233" 
 />
    <glyph glyph-name="exclam" unicode="!" horiz-adv-x="277" 
d="M230 665l-22 -470h-135l-23 470h180zM46 65q0 38 25.5 58t67.5 20q41 0 66 -20t25 -58t-25 -57.5t-66 -19.5q-42 0 -67.5 19.5t-25.5 57.5z" />
    <glyph glyph-name="quotedbl" unicode="&#x22;" horiz-adv-x="419" 
d="M202 665l-25 -213h-120l-25 213h170zM387 665l-25 -213h-120l-25 213h170z" />
    <glyph glyph-name="numbersign" unicode="#" horiz-adv-x="606" 
d="M324 665l-28 -180h54l28 180h133l-28 -180h91l-16 -105h-91l-16 -105h91l-16 -105h-92l-26 -170h-133l27 170h-55l-26 -170h-126l27 170h-92l16 105h92l16 105h-92l16 105h92l28 180h126zM263 275h55l16 105h-54z" />
    <glyph glyph-name="dollar" unicode="$" 
d="M218 9q-47 3 -86.5 12.5t-69.5 20.5l13 120q16 -5 36 -10.5t41 -10t42 -7.5t39 -3q23 0 41 10.5t18 41.5q0 25 -17.5 44t-44 37t-57.5 37t-57.5 43.5t-44 57t-17.5 76.5q0 81 40.5 120t109.5 51v93h117v-86q23 -2 44.5 -5.5t41.5 -5.5l41 -6l-9 -119q-43 8 -80 14t-63 6
q-33 0 -51.5 -13t-18.5 -43q0 -21 17.5 -38t44 -33.5t57.5 -35.5t57.5 -45t44 -61t17.5 -84q0 -69 -33 -110t-96 -58v-103h-117v93z" />
    <glyph glyph-name="percent" unicode="%" horiz-adv-x="743" 
d="M179 595q-14 0 -21.5 -20.5t-7.5 -74.5q0 -55 7.5 -76t21.5 -21q15 0 21 21t6 75q0 55 -6 75.5t-21 20.5zM179 676q33 0 61.5 -9.5t49 -30.5t32 -55t11.5 -82q0 -47 -11.5 -80.5t-32 -55.5t-49 -32t-61.5 -10t-61.5 10t-49 32t-32 56t-11.5 81q0 48 11.5 81.5t32 54.5
t49 30.5t61.5 9.5zM603 665l-345 -665h-119l344 665h120zM564 264q-14 0 -21.5 -20.5t-7.5 -74.5q0 -55 7.5 -76t21.5 -21q15 0 21 21t6 75q0 55 -6 75.5t-21 20.5zM564 345q33 0 61.5 -9.5t49 -30.5t32 -55t11.5 -82q0 -47 -11.5 -80.5t-32 -55.5t-49 -32t-61.5 -10
t-61.5 10t-49 32t-32 56t-11.5 81q0 48 11.5 81.5t32 54.5t49 30.5t61.5 9.5z" />
    <glyph glyph-name="ampersand" unicode="&#x26;" horiz-adv-x="610" 
d="M416 279q6 18 13 37.5t15 55.5l134 -29q-11 -57 -29 -111.5t-41 -89.5l102 -143h-196l-19 26q-51 -38 -143 -38q-98 0 -154 47t-56 149q0 63 31 108t74 80q-26 33 -43 71t-17 77q0 78 47 117.5t139 39.5q87 0 136 -39t49 -115q0 -52 -26.5 -93t-65.5 -78zM239 256
q-12 -12 -19 -30.5t-7 -46.5q0 -39 15 -55t38 -16q14 0 30.5 5.5t31.5 22.5zM275 454q11 13 20.5 30t9.5 40q0 27 -8 38.5t-23 11.5q-14 0 -22 -12t-8 -38q0 -23 10.5 -39t20.5 -31z" />
    <glyph glyph-name="quotesingle" unicode="'" horiz-adv-x="234" 
d="M202 665l-25 -213h-120l-25 213h170z" />
    <glyph glyph-name="parenleft" unicode="(" horiz-adv-x="308" 
d="M40 271q0 125 32 243t103 216h133q-30 -50 -54 -101.5t-41 -107t-26.5 -117.5t-9.5 -133t9.5 -133t26.5 -117.5t41 -107t54 -101.5h-133q-71 98 -103 216t-32 243z" />
    <glyph glyph-name="parenright" unicode=")" horiz-adv-x="308" 
d="M268 271q0 -125 -32 -243t-103 -216h-133q30 50 54 101.5t41 107t26.5 117.5t9.5 133t-9.5 133t-26.5 117.5t-41 107t-54 101.5h133q71 -98 103 -216t32 -243z" />
    <glyph glyph-name="asterisk" unicode="*" horiz-adv-x="386" 
d="M152 556l-30 109h142l-28 -109l103 60l32 -111l-121 -16l88 -85l-93 -82l-52 105l-52 -105l-92 82l89 85l-123 16l32 111z" />
    <glyph glyph-name="plus" unicode="+" 
d="M190 372v154h137v-154h145v-107h-145v-155h-137v155h-144v107h144z" />
    <glyph glyph-name="comma" unicode="," horiz-adv-x="254" 
d="M221 152l-88 -285h-124l45 285h167z" />
    <glyph glyph-name="hyphen" unicode="-" horiz-adv-x="356" 
d="M310 327v-112h-264v112h264z" />
    <glyph glyph-name="period" unicode="." horiz-adv-x="254" 
d="M127 159q45 0 71.5 -22t26.5 -63q0 -40 -26.5 -62t-71.5 -22t-71.5 22t-26.5 62q0 41 26.5 63t71.5 22z" />
    <glyph glyph-name="slash" unicode="/" horiz-adv-x="417" 
d="M421 730l-286 -783h-135l286 783h135z" />
    <glyph glyph-name="zero" unicode="0" 
d="M488 330q0 -175 -54.5 -259t-174.5 -84t-174.5 84t-54.5 255q0 178 54.5 264t174.5 86t174.5 -85t54.5 -261zM319 329q0 62 -3.5 106.5t-10.5 72t-18.5 40t-27.5 12.5q-17 0 -28.5 -12.5t-19 -40.5t-10.5 -72t-3 -107q0 -62 3 -104.5t10.5 -69t19 -38t28.5 -11.5
q16 0 27.5 11.5t18.5 38t10.5 69.5t3.5 105z" />
    <glyph glyph-name="one" unicode="1" 
d="M245 665h127v-665h-164v522l-118 -35v129z" />
    <glyph glyph-name="two" unicode="2" 
d="M58 650q18 6 39.5 11t45.5 8t49 5t48 2q43 0 82 -9t69 -31.5t48 -59.5t18 -94q0 -37 -8.5 -69.5t-23.5 -62.5t-35.5 -58t-44.5 -55l-100 -115h221v-122h-413v109l137 176q44 56 68 102.5t24 94.5q0 43 -18 58.5t-44 15.5q-32 0 -71 -8.5t-74 -19.5z" />
    <glyph glyph-name="three" unicode="3" 
d="M450 665v-102l-136 -168q32 -5 60 -17.5t48.5 -34t32.5 -54t12 -77.5q0 -117 -61.5 -171t-167.5 -54q-54 0 -105.5 11t-83.5 22l16 119q16 -5 35.5 -10t40.5 -9t42.5 -6.5t40.5 -2.5q31 0 50.5 19.5t19.5 74.5q0 48 -19 67t-53 19h-83v95l123 160h-198v119h386z" />
    <glyph glyph-name="four" unicode="4" 
d="M438 665v-413h54v-121h-54v-131h-160v131h-263v109l219 425h204zM278 252v235l-114 -235h114z" />
    <glyph glyph-name="five" unicode="5" 
d="M451 539h-217l-9 -129h21q47 0 87.5 -9t70.5 -31.5t47 -61.5t17 -99q0 -116 -59 -169t-164 -53q-54 0 -103.5 10t-78.5 20l16 119q13 -4 31 -9t37.5 -9t40 -7t38.5 -3q32 0 51.5 20.5t19.5 75.5q0 53 -21 70.5t-57 17.5q-34 0 -61.5 -3.5t-57.5 -8.5l-27 37l26 348h352
v-126z" />
    <glyph glyph-name="six" unicode="6" 
d="M445 541q-32 7 -66 11t-60 4t-46.5 -7t-34 -24.5t-21 -47.5t-7.5 -77q19 5 42.5 9.5t43.5 4.5q97 0 145 -48.5t48 -153.5t-55.5 -165t-161.5 -60q-54 0 -96.5 17.5t-72 57.5t-45.5 104.5t-16 158.5q0 103 20 171t57 108t87.5 56t112.5 16q41 0 75 -4t64 -10zM211 279
q0 -19 1 -48t7 -56.5t18 -47t35 -19.5q26 0 37.5 27t11.5 69q0 48 -12.5 68t-38.5 20q-15 0 -32.5 -4.5t-26.5 -8.5z" />
    <glyph glyph-name="seven" unicode="7" 
d="M469 665v-104l-208 -561h-189l222 539h-247v126h422z" />
    <glyph glyph-name="eight" unicode="8" 
d="M257 277q-28 0 -44 -23t-16 -68q0 -37 14 -60t46 -23t46 23t14 60q0 45 -16 68t-44 23zM257 -13q-51 0 -93 12.5t-72.5 37t-47 61t-16.5 84.5q0 60 26.5 98t65.5 57q-39 17 -61 53.5t-22 96.5q0 51 17 87t46.5 58.5t69.5 33t87 10.5q46 0 86 -10.5t70 -33t47 -58.5
t17 -87q0 -60 -22.5 -97t-60.5 -53q38 -18 65 -56.5t27 -98.5q0 -48 -17 -84.5t-47 -61t-72 -37t-93 -12.5zM257 398q30 0 42 23t12 65q0 37 -14 56.5t-40 19.5t-40 -19.5t-14 -56.5q0 -42 12 -65t42 -23z" />
    <glyph glyph-name="nine" unicode="9" 
d="M73 122q32 -7 66 -11t60 -4t46.5 7t34 24.5t21 47.5t7.5 77q-19 -6 -41 -10t-45 -4q-97 0 -145 48.5t-48 153.5t56.5 165t162.5 60q54 0 96 -17.5t71.5 -57.5t45 -104.5t15.5 -158.5q0 -104 -19.5 -171.5t-55.5 -107.5t-87.5 -56t-115.5 -16q-40 0 -74 4t-64 10zM307 383
q0 23 -1 52.5t-6.5 56t-17.5 45t-34 18.5q-26 0 -38.5 -27t-12.5 -69q0 -48 12.5 -68t38.5 -20q17 0 33.5 4t25.5 8z" />
    <glyph glyph-name="colon" unicode=":" horiz-adv-x="254" 
d="M127 499q45 0 71.5 -22t26.5 -63q0 -40 -26.5 -62t-71.5 -22t-71.5 22t-26.5 62q0 41 26.5 63t71.5 22zM127 159q45 0 71.5 -22t26.5 -63q0 -40 -26.5 -62t-71.5 -22t-71.5 22t-26.5 62q0 41 26.5 63t71.5 22z" />
    <glyph glyph-name="semicolon" unicode=";" horiz-adv-x="254" 
d="M206 152l-88 -285h-124l45 285h167zM127 499q45 0 71.5 -22t26.5 -63q0 -40 -26.5 -62t-71.5 -22t-71.5 22t-26.5 62q0 41 26.5 63t71.5 22z" />
    <glyph glyph-name="less" unicode="&#x3c;" 
d="M472 547v-122l-276 -107l276 -107v-122l-426 181v96z" />
    <glyph glyph-name="equal" unicode="=" 
d="M472 274v-107h-426v107h426zM472 472v-107h-426v107h426z" />
    <glyph glyph-name="greater" unicode="&#x3e;" 
d="M472 366v-96l-426 -181v122l276 107l-276 107v122z" />
    <glyph glyph-name="question" unicode="?" horiz-adv-x="398" 
d="M26 646q25 12 67.5 21t90.5 9q40 0 74.5 -10t59.5 -30t39 -50.5t14 -72.5q0 -32 -6.5 -56.5t-17 -44t-23.5 -35.5t-26 -31q-17 -19 -30 -39.5t-13 -55.5v-58h-144v68q0 34 6.5 61t16.5 48t22 37t23 30q12 14 20 28t8 36q0 32 -11 43t-31 11q-23 0 -57 -8.5t-63 -22.5z
M91 65q0 38 25 58t67 20t66.5 -20t24.5 -58t-24.5 -57.5t-66.5 -19.5t-67 19.5t-25 57.5z" />
    <glyph glyph-name="at" unicode="@" horiz-adv-x="751" 
d="M536 183q0 -30 5.5 -47t20.5 -17q11 0 19.5 7t14.5 25.5t9 51t3 83.5q0 127 -62 192t-170 65q-60 0 -104 -21.5t-73 -61t-43 -96.5t-14 -128q0 -86 13.5 -148.5t42.5 -103t74.5 -60t109.5 -19.5q54 0 108.5 12.5t94.5 26.5l17 -92q-45 -17 -103 -28.5t-118 -11.5
q-96 0 -162.5 30t-108 85.5t-60 134t-18.5 174.5q0 82 19.5 154t61 126t106.5 85t157 31q93 0 158 -27.5t106 -75t59.5 -111t18.5 -134.5q0 -56 -8 -104.5t-26.5 -84.5t-50 -56.5t-77.5 -20.5q-38 0 -65 12.5t-42 33.5q-17 -14 -42 -30t-58 -16q-30 0 -56.5 11t-46.5 36
t-32 66t-12 100q0 101 47.5 150t128.5 49q41 0 83 -8t75 -21v-218zM396 332q-5 1 -8.5 1h-7.5q-35 0 -35 -106q0 -59 6.5 -81.5t18.5 -22.5t26 13v196z" />
    <glyph glyph-name="A" unicode="A" horiz-adv-x="568" 
d="M217 0h-169v432q0 56 11.5 101.5t38.5 77t72 48.5t112 17t112 -17t73 -48.5t40 -77t12 -101.5v-432h-173v216h-129v-216zM346 340v103q0 55 -12.5 84t-51.5 29t-52 -29t-13 -84v-103h129z" />
    <glyph glyph-name="B" unicode="B" horiz-adv-x="557" 
d="M270 665q52 0 94.5 -9t73 -29t47 -53t16.5 -81q0 -61 -26 -97t-75 -56v-1q24 -6 45.5 -17.5t38.5 -30t27 -45t10 -62.5q0 -55 -18.5 -92.5t-51.5 -61t-78 -33.5t-98 -10q-45 0 -99 7.5t-113 22.5v648h207zM235 103q10 -2 19 -2h16q40 0 53 23t13 69q0 42 -13 63t-45 21
h-43v-174zM235 393h41q23 0 36.5 18.5t13.5 62.5q0 45 -12.5 61.5t-38.5 16.5h-40v-159z" />
    <glyph glyph-name="C" unicode="C" horiz-adv-x="491" 
d="M446 534q-23 7 -57.5 14.5t-71.5 7.5q-27 0 -47.5 -10t-33.5 -34.5t-19.5 -67t-6.5 -108.5q0 -69 6 -112.5t19 -68t33.5 -34t48.5 -9.5q14 0 33 2t38.5 5.5t37 7.5t28.5 8l9 -122q-12 -5 -29.5 -9.5t-38.5 -8t-43 -6t-42 -2.5q-67 0 -119 17.5t-87 58.5t-53.5 107.5
t-18.5 165.5q0 94 18 158.5t53 105t87 58.5t120 18q21 0 42.5 -1.5t41.5 -4.5t37.5 -6.5t29.5 -7.5z" />
    <glyph glyph-name="D" unicode="D" horiz-adv-x="584" 
d="M288 665q125 0 194.5 -77t69.5 -245q0 -75 -12 -140t-44.5 -112.5t-90 -75t-147.5 -27.5q-39 0 -87.5 6.5t-107.5 20.5v650h225zM235 109q8 -1 14.5 -1h13.5q34 0 56 15t35 44.5t18 72.5t5 100q0 58 -6 97.5t-17 64t-28 35t-38 10.5h-53v-438z" />
    <glyph glyph-name="E" unicode="E" horiz-adv-x="487" 
d="M440 665v-118h-210v-151h197v-119h-197v-91q0 -42 15 -55t37 -13h167v-118h-174q-52 0 -92.5 9t-68 31t-42 58.5t-14.5 91.5v475h382z" />
    <glyph glyph-name="F" unicode="F" horiz-adv-x="484" 
d="M460 665v-118h-222v-174h193v-118h-193v-255h-172v665h394z" />
    <glyph glyph-name="G" unicode="G" horiz-adv-x="592" 
d="M524 532q-16 4 -38.5 8.5t-47 8t-49.5 5.5t-46 2q-35 0 -60 -12t-41 -38t-24 -68t-8 -103q0 -72 7.5 -116t21.5 -67.5t34 -31.5t45 -8q12 0 26 1t27 3v144h-65v123h236v-352q-20 -8 -45.5 -15.5t-55 -14t-60.5 -10.5t-62 -4q-67 0 -120.5 15.5t-90.5 54.5t-56.5 106.5
t-19.5 171.5q0 97 22 162.5t62.5 105t96.5 56.5t125 17q27 0 55 -1.5t54 -4.5t48.5 -7t37.5 -8z" />
    <glyph glyph-name="H" unicode="H" horiz-adv-x="632" 
d="M238 665v-262h156v262h172v-665h-172v278h-156v-278h-172v665h172z" />
    <glyph glyph-name="I" unicode="I" horiz-adv-x="304" 
d="M238 665v-665h-172v665h172z" />
    <glyph glyph-name="J" unicode="J" horiz-adv-x="301" 
d="M238 665v-561q0 -59 -17.5 -103.5t-46 -79.5t-65 -64t-73.5 -57l-71 90q25 28 44 49.5t32 44t19 49.5t6 65v567h172z" />
    <glyph glyph-name="K" unicode="K" horiz-adv-x="576" 
d="M238 665v-276l168 276h173l-200 -313q48 -18 81 -59t54 -106l61 -187h-186l-43 138q-13 42 -27.5 66t-31.5 32l-49 -79v-157h-172v665h172z" />
    <glyph glyph-name="L" unicode="L" horiz-adv-x="454" 
d="M238 665v-547h201v-118h-373v665h172z" />
    <glyph glyph-name="M" unicode="M" horiz-adv-x="776" 
d="M327 200l-90 195v-395h-171v665h169l153 -305l153 305h169v-665h-171v395l-90 -195h-122z" />
    <glyph glyph-name="N" unicode="N" horiz-adv-x="639" 
d="M203 665l202 -299v299h168v-665h-168v140l-171 258v-398h-168v665h137z" />
    <glyph glyph-name="O" unicode="O" horiz-adv-x="588" 
d="M556 331q0 -178 -65 -260.5t-197 -82.5t-197 82.5t-65 260.5q0 180 64.5 262.5t197.5 82.5t197.5 -82.5t64.5 -262.5zM378 332q0 63 -5 106t-15.5 69.5t-26 37.5t-36.5 11q-22 0 -38 -11t-26.5 -37.5t-15.5 -69.5t-5 -106t5 -106t15.5 -69.5t26.5 -37.5t38 -11
q21 0 36.5 11t26 37.5t15.5 69.5t5 106z" />
    <glyph glyph-name="P" unicode="P" horiz-adv-x="528" 
d="M267 665q58 0 102 -11t73 -37t44 -68t15 -103q0 -64 -16 -107t-44.5 -69.5t-68 -37.5t-85.5 -11q-25 0 -49 3v-224h-172v665h201zM238 344q8 -1 14.5 -1.5t12.5 -0.5q35 0 50.5 24.5t15.5 79.5q0 30 -4 50t-12 31t-20 15.5t-28 4.5h-29v-203z" />
    <glyph glyph-name="Q" unicode="Q" horiz-adv-x="588" 
d="M237 -52q42 0 73 -8.5t62 -17.5q33 -10 55.5 -15.5t32.5 -5.5q20 0 35 7.5t33 26.5l55 -106q-25 -27 -56 -41t-74 -14q-30 0 -58 8.5t-55 19t-52.5 19.5t-50.5 9v118zM556 331q0 -178 -65 -260.5t-197 -82.5t-197 82.5t-65 260.5q0 180 64.5 262.5t197.5 82.5
t197.5 -82.5t64.5 -262.5zM378 332q0 63 -5 106t-15.5 69.5t-26 37.5t-36.5 11q-22 0 -38 -11t-26.5 -37.5t-15.5 -69.5t-5 -106t5 -106t15.5 -69.5t26.5 -37.5t38 -11q21 0 36.5 11t26 37.5t15.5 69.5t5 106z" />
    <glyph glyph-name="R" unicode="R" horiz-adv-x="552" 
d="M267 665q58 0 102 -10.5t73 -36t44 -67t15 -102.5q0 -35 -8.5 -60.5t-22 -44.5t-31.5 -32.5t-37 -23.5q38 -16 63 -47t35 -83l30 -158h-177l-21 137q-8 49 -25 71t-48 22h-8t-13 1v-231h-172v665h201zM238 351q8 -1 14.5 -1.5t12.5 -0.5q35 0 50.5 22.5t15.5 77.5
q0 30 -4 49.5t-12 30t-20 14.5t-28 4h-29v-196z" />
    <glyph glyph-name="S" unicode="S" horiz-adv-x="478" 
d="M415 540q-14 3 -32 6t-37 5t-37.5 3.5t-31.5 1.5q-33 0 -51.5 -13t-18.5 -45q0 -28 21 -47.5t52 -39.5q28 -19 58 -42t54.5 -51.5t40 -65t15.5 -82.5q0 -96 -59 -139.5t-169 -43.5q-26 0 -52 2.5t-49.5 7t-43.5 9t-35 9.5l15 118q17 -5 38 -9.5t42.5 -8t42 -5.5t38.5 -2
q26 0 42.5 12.5t16.5 47.5q0 33 -25 57t-58 47q-27 19 -55 41t-51.5 48.5t-38.5 58.5t-15 71q0 51 18 86.5t51 57.5t78.5 31.5t99.5 9.5q18 0 38 -1t40 -3.5t38.5 -5.5t32.5 -6z" />
    <glyph glyph-name="T" unicode="T" horiz-adv-x="515" 
d="M501 665v-118h-157v-547h-172v547h-158v118h487z" />
    <glyph glyph-name="U" unicode="U" horiz-adv-x="600" 
d="M228 665v-456q0 -55 19.5 -78t54.5 -23q22 0 39 3t25 5v549h172v-632q-21 -7 -47.5 -15t-57 -15t-65 -11.5t-71.5 -4.5q-67 0 -113 15.5t-74.5 45t-41 73t-12.5 99.5v445h172z" />
    <glyph glyph-name="V" unicode="V" horiz-adv-x="555" 
d="M197 0l-197 665h179l110 -471q19 60 34.5 117.5t28 115.5t22 117t16.5 121h165q-19 -104 -40.5 -194.5t-46 -172t-51.5 -155.5t-58 -143h-162z" />
    <glyph glyph-name="W" unicode="W" horiz-adv-x="783" 
d="M471 0l-82 349l-88 -349h-166l-131 665h174l60 -435l76 318h150l76 -318q32 109 49.5 221t25.5 214h164q-19 -171 -56.5 -339.5t-92.5 -325.5h-159z" />
    <glyph glyph-name="X" unicode="X" horiz-adv-x="542" 
d="M4 665h189l84 -208l92 208h173l-169 -326l168 -339h-191l-87 202l-91 -202h-172l167 329z" />
    <glyph glyph-name="Y" unicode="Y" horiz-adv-x="550" 
d="M190 232l-192 433h181l108 -281q18 36 33 69.5t27.5 67t23 69t18.5 75.5h163q-32 -127 -79 -231.5t-113 -197.5v-236h-170v232z" />
    <glyph glyph-name="Z" unicode="Z" horiz-adv-x="521" 
d="M480 665v-109l-248 -437h256v-119h-456v109l248 438h-241v118h441z" />
    <glyph glyph-name="bracketleft" unicode="[" horiz-adv-x="307" 
d="M290 733v-103h-85v-714h85v-104h-224v921h224z" />
    <glyph glyph-name="backslash" unicode="\" horiz-adv-x="491" 
d="M170 730l286 -783h-135l-286 783h135z" />
    <glyph glyph-name="bracketright" unicode="]" horiz-adv-x="307" 
d="M241 733v-921h-224v104h85v714h-85v103h224z" />
    <glyph glyph-name="asciicircum" unicode="^" 
d="M259 519l-65 -158h-137l140 304h123l140 -304h-137z" />
    <glyph glyph-name="underscore" unicode="_" horiz-adv-x="589" 
d="M589 -10v-101h-589v101h589z" />
    <glyph glyph-name="grave" unicode="`" horiz-adv-x="474" 
d="M250 730l64 -161h-116l-108 161h160z" />
    <glyph glyph-name="a" unicode="a" horiz-adv-x="455" 
d="M53 477q34 11 76.5 16.5t78.5 5.5q44 0 81.5 -8.5t65 -28t43 -51t15.5 -77.5v-309q-17 -6 -39.5 -13t-48.5 -12t-54 -8.5t-55 -3.5q-41 0 -76.5 7.5t-61.5 26.5t-40.5 51.5t-14.5 81.5q0 44 15 73t39.5 46.5t56 25t64.5 7.5q24 0 47 -3v25q0 32 -11.5 43t-36.5 11
q-34 0 -69 -4.5t-69 -13.5zM245 213q-6 1 -12.5 1.5t-10.5 0.5q-21 0 -32 -15.5t-11 -51.5q0 -34 10.5 -48.5t30.5 -14.5q5 0 12.5 0.5t12.5 1.5v126z" />
    <glyph glyph-name="b" unicode="b" horiz-adv-x="496" 
d="M50 730h169v-234q22 3 42 3q47 0 85.5 -13.5t65.5 -42.5t41.5 -76t14.5 -114q0 -75 -16 -126t-44 -81.5t-67 -44t-85 -13.5q-61 0 -114 11t-92 24v707zM251 383q-8 0 -16.5 -1t-16.5 -3v-272q11 -2 18.5 -2.5t16.5 -0.5q23 0 33 31.5t10 115.5q0 40 -3 65.5t-8.5 40.5
t-14 20.5t-19.5 5.5z" />
    <glyph glyph-name="c" unicode="c" horiz-adv-x="379" 
d="M343 373q-18 4 -42 7t-42 3q-16 0 -27.5 -5t-18.5 -20t-10 -42t-3 -72q0 -76 10.5 -108t46.5 -32q21 0 44 4.5t46 11.5l12 -113q-24 -6 -53 -12.5t-69 -6.5q-48 0 -87 14.5t-66.5 45.5t-42 80t-14.5 118q0 72 16 120.5t44.5 78t69 42t90.5 12.5q26 0 58 -4t51 -9z" />
    <glyph glyph-name="d" unicode="d" horiz-adv-x="496" 
d="M445 23q-19 -7 -46 -13t-55.5 -11t-56 -8t-48.5 -3q-46 0 -84.5 13.5t-67 44t-44.5 81.5t-16 126q0 67 15 114t42 76t65.5 42.5t85.5 13.5q19 0 42 -3v234h168v-707zM278 379q-9 2 -17.5 3t-15.5 1q-11 0 -19.5 -5.5t-14 -20.5t-8.5 -40.5t-3 -65.5q0 -84 9.5 -115.5
t33.5 -31.5q8 0 16 0.5t19 2.5v272z" />
    <glyph glyph-name="e" unicode="e" horiz-adv-x="453" 
d="M201 199q2 -54 19.5 -74.5t57.5 -20.5q22 0 57.5 5.5t67.5 13.5l13 -110q-28 -12 -72.5 -18.5t-87.5 -6.5q-49 0 -91 11.5t-72.5 40.5t-48 78.5t-17.5 125.5q0 75 15 124t43 78.5t67 41t87 11.5q50 0 85 -14.5t57 -42.5t32 -67.5t10 -89.5v-86h-222zM267 287q3 48 -4 79
t-28 31q-22 0 -29.5 -30.5t-5.5 -79.5h67z" />
    <glyph glyph-name="f" unicode="f" horiz-adv-x="354" 
d="M75 487v74q0 92 50.5 136t135.5 44q26 0 54.5 -2.5t46.5 -7.5l-11 -111q-15 2 -32.5 3.5t-31.5 1.5q-10 0 -18 -2t-14 -8.5t-9.5 -19t-3.5 -34.5v-74h102v-114h-102v-373h-167v373h-60v114h60z" />
    <glyph glyph-name="g" unicode="g" horiz-adv-x="492" 
d="M443 25q0 -69 -17 -113t-47 -68.5t-71 -34t-89 -9.5q-20 0 -42 2.5t-43 6t-40 8t-31 8.5l13 114q28 -8 65 -15.5t72 -7.5t48.5 17t13.5 66v6q-12 -2 -29.5 -3.5t-28.5 -1.5q-43 0 -78 12.5t-60.5 42.5t-39.5 80t-14 125q0 67 16.5 113t45.5 74t69.5 40.5t87.5 12.5
q53 0 105.5 -11.5t93.5 -29.5v-434zM275 380q-8 2 -15 3t-13 1q-12 0 -21 -4.5t-15.5 -18t-10 -38t-3.5 -64.5q0 -43 3 -70.5t8 -43.5t13 -22.5t19 -6.5q18 0 35 4v260z" />
    <glyph glyph-name="h" unicode="h" horiz-adv-x="504" 
d="M220 730v-235q11 2 22.5 3t22.5 1q46 0 82.5 -9.5t61 -30.5t37.5 -56t13 -86v-317h-168v311q0 42 -7 57t-32 15q-9 0 -16.5 -1t-15.5 -3v-379h-168v730h168z" />
    <glyph glyph-name="i" unicode="i" horiz-adv-x="273" 
d="M220 487v-487h-167v487h167zM230 657q0 -42 -25.5 -63.5t-68.5 -21.5q-42 0 -68 21.5t-26 63.5t26 63.5t68 21.5q43 0 68.5 -21.5t25.5 -63.5z" />
    <glyph glyph-name="j" unicode="j" horiz-adv-x="273" 
d="M220 487v-403q0 -48 -9 -86.5t-28.5 -71.5t-52 -63t-78.5 -63l-75 79q23 25 37.5 46.5t23 45t12 50.5t3.5 62v404h167zM230 657q0 -42 -25.5 -63.5t-68.5 -21.5q-42 0 -68 21.5t-26 63.5t26 63.5t68 21.5q43 0 68.5 -21.5t25.5 -63.5z" />
    <glyph glyph-name="k" unicode="k" horiz-adv-x="479" 
d="M220 730v-391l81 148h166l-129 -202q48 -13 76.5 -45.5t39.5 -101.5l23 -138h-175l-19 125q-5 31 -14.5 44.5t-20.5 17.5l-28 -38v-149h-168v730h168z" />
    <glyph glyph-name="l" unicode="l" horiz-adv-x="274" 
d="M221 730v-730h-168v730h168z" />
    <glyph glyph-name="m" unicode="m" horiz-adv-x="726" 
d="M51 459q37 13 87.5 26.5t110.5 13.5q41 0 72 -6t55 -25q29 15 63 23t69 8q88 0 130.5 -41.5t42.5 -140.5v-317h-167v311q0 42 -5.5 57t-30.5 15q-18 0 -33 -10q3 -14 4 -28.5t1 -27.5v-317h-167v311q0 42 -6 57t-30 15q-16 0 -28 -4v-379h-168v459v0z" />
    <glyph glyph-name="n" unicode="n" horiz-adv-x="503" 
d="M51 459q37 13 90 26.5t112 13.5q50 0 88.5 -9.5t64.5 -30.5t39 -56t13 -86v-317h-168v311q0 42 -7 57t-32 15q-9 0 -16.5 -1t-15.5 -3v-379h-168v459v0z" />
    <glyph glyph-name="o" unicode="o" horiz-adv-x="490" 
d="M463 244q0 -134 -56 -195t-162 -61t-162 61t-56 195t56 194.5t162 60.5t162 -60.5t56 -194.5zM290 244q0 78 -10 108.5t-35 30.5t-35 -30.5t-10 -108.5t10 -109t35 -31t35 31t10 109z" />
    <glyph glyph-name="p" unicode="p" horiz-adv-x="495" 
d="M50 459q41 18 96 29t106 11q47 0 87 -13.5t68.5 -42.5t44.5 -76t16 -114q0 -75 -15 -126t-42 -81.5t-63.5 -44t-79.5 -13.5q-11 0 -25 1.5t-26 3.5v-181h-167v647zM251 383q-8 0 -16.5 -1t-16.5 -3v-272q11 -2 18.5 -2.5t16.5 -0.5q23 0 33 31.5t10 115.5q0 40 -3 65.5
t-8.5 40.5t-14 20.5t-19.5 5.5z" />
    <glyph glyph-name="q" unicode="q" horiz-adv-x="495" 
d="M445 -188h-167v181q-12 -2 -26 -3.5t-25 -1.5q-43 0 -79.5 13.5t-63.5 44t-42 81.5t-15 126q0 67 16.5 114t46 76.5t70 43t87.5 13.5q53 0 105 -11.5t93 -29.5v-647zM278 380q-9 2 -17.5 3t-15.5 1q-11 0 -19.5 -5.5t-14 -20.5t-8.5 -40.5t-3 -65.5q0 -84 9.5 -115.5
t33.5 -31.5q8 0 16 0.5t19 2.5v272z" />
    <glyph glyph-name="r" unicode="r" horiz-adv-x="345" 
d="M323 375q-26 0 -53.5 -1t-52.5 -4v-370h-167v455q64 27 133.5 35.5t139.5 8.5v-124z" />
    <glyph glyph-name="s" unicode="s" horiz-adv-x="416" 
d="M365 374q-31 8 -59.5 11.5t-57.5 3.5q-23 0 -36.5 -6t-13.5 -26q0 -12 14.5 -23t35.5 -23.5t46.5 -27.5t46.5 -36t35.5 -48.5t14.5 -64.5q0 -39 -14 -67t-39 -46t-59 -26t-73 -8q-49 0 -91 7t-77 17l10 110q29 -8 64 -14.5t59 -6.5q23 0 34 7.5t11 25.5q0 13 -14 24.5
t-34.5 24t-44.5 27.5t-44.5 34.5t-34.5 45.5t-14 61q0 42 16 70.5t45 46t68.5 25t86.5 7.5q34 0 67.5 -4t58.5 -9z" />
    <glyph glyph-name="t" unicode="t" horiz-adv-x="359" 
d="M236 621v-134h103v-114h-103v-223q0 -23 7 -32.5t28 -9.5q17 0 32.5 2.5t29.5 6.5l3 -114q-17 -5 -42 -10t-56 -5q-82 0 -125.5 40.5t-43.5 125.5v219h-59v114h66l25 134h135z" />
    <glyph glyph-name="u" unicode="u" horiz-adv-x="499" 
d="M212 487v-319q0 -32 7.5 -48t30.5 -16q9 0 17 1t14 3v379h168v-461q-38 -13 -92 -25.5t-109 -12.5q-43 0 -80 8.5t-64.5 29.5t-43 57t-15.5 91v313h167z" />
    <glyph glyph-name="v" unicode="v" horiz-adv-x="463" 
d="M5 487h171l54 -352q13 34 23.5 77.5t19 90.5t15 94.5t9.5 89.5h161q-19 -122 -50.5 -243t-87.5 -244h-191z" />
    <glyph glyph-name="w" unicode="w" horiz-adv-x="761" 
d="M445 0l-63 342l-75 -342h-190l-109 487h175l47 -321l63 321h181l59 -322q13 41 22.5 80t17 78t12.5 79.5t9 84.5h159q-12 -103 -42.5 -225t-82.5 -262h-183z" />
    <glyph glyph-name="x" unicode="x" horiz-adv-x="446" 
d="M188 487l45 -161l50 161h160l-107 -238l110 -249h-182l-53 161l-52 -161h-159l108 239l-102 248h182z" />
    <glyph glyph-name="y" unicode="y" horiz-adv-x="502" 
d="M212 487v-307q0 -35 10 -49.5t29 -14.5q9 0 17 1t13 3v367h168v-462q0 -69 -17 -113t-47 -68.5t-71.5 -34t-89.5 -9.5q-20 0 -43 2.5t-44.5 6t-39.5 8t-28 8.5l13 114q28 -8 65 -15.5t72 -7.5t48.5 17t13.5 62v10q-9 -2 -23.5 -3.5t-27.5 -1.5q-41 0 -75 9.5t-58.5 31.5
t-38 57.5t-13.5 87.5v301h167z" />
    <glyph glyph-name="z" unicode="z" horiz-adv-x="438" 
d="M401 487v-96l-175 -277h185v-114h-382v96l180 277h-171v114h363z" />
    <glyph glyph-name="braceleft" unicode="{" horiz-adv-x="347" 
d="M25 328q36 1 53 9.5t17 40.5q0 18 -2 41.5t-5 50t-5 54t-2 52.5q0 46 11 78t31.5 51.5t49.5 28t64 8.5q23 0 47.5 -2.5t46.5 -7.5l-10 -104q-14 3 -26.5 5t-23.5 2q-21 0 -35 -11.5t-14 -46.5q0 -46 6.5 -100.5t6.5 -100.5q0 -43 -21 -66.5t-69 -37.5q47 -15 68.5 -38
t21.5 -72q0 -48 -6.5 -101.5t-6.5 -96.5q0 -32 13 -43.5t33 -11.5q12 0 25.5 2.5t27.5 5.5l10 -106q-19 -5 -41.5 -8t-52.5 -3q-36 0 -64.5 8.5t-49 28t-31.5 51t-11 77.5q0 25 2 53t5 55t5 51t2 41q0 16 -4.5 25.5t-13 15t-21.5 7t-31 2.5v113z" />
    <glyph glyph-name="bar" unicode="|" horiz-adv-x="269" 
d="M203 800v-1000h-137v1000h137z" />
    <glyph glyph-name="braceright" unicode="}" horiz-adv-x="347" 
d="M322 215q-18 -1 -31 -2.5t-21.5 -7t-13 -15t-4.5 -25.5q0 -17 2 -41t5 -51t5 -55t2 -53q0 -46 -11 -77.5t-31.5 -51t-49 -28t-64.5 -8.5q-30 0 -52.5 3t-41.5 8l10 106q14 -3 27.5 -5.5t25.5 -2.5q20 0 33 11.5t13 43.5q0 43 -6.5 96.5t-6.5 101.5q0 49 21.5 72t68.5 38
q-48 14 -69 37.5t-21 66.5q0 46 6.5 100.5t6.5 100.5q0 35 -14 46.5t-35 11.5q-11 0 -23.5 -2t-26.5 -5l-10 104q22 5 46.5 7.5t47.5 2.5q35 0 64 -8.5t49.5 -28t31.5 -51.5t11 -78q0 -25 -2 -52.5t-5 -54t-5 -50t-2 -41.5q0 -32 17 -40.5t53 -9.5v-113z" />
    <glyph glyph-name="asciitilde" unicode="~" 
d="M483 356q-8 -22 -18 -43t-26 -37t-40 -25.5t-59 -9.5q-24 0 -47.5 7.5t-44 17t-37 17t-27.5 7.5q-16 0 -27 -8.5t-22 -40.5l-101 38q7 21 16 41.5t23.5 37t36.5 26.5t55 10q25 0 50 -7.5t47.5 -16.5t41 -16.5t29.5 -7.5t24.5 7t24.5 41z" />
    <glyph glyph-name="Adieresis" unicode="&#xc4;" horiz-adv-x="568" 
d="M217 0h-169v432q0 56 11.5 101.5t38.5 77t72 48.5t112 17t112 -17t73 -48.5t40 -77t12 -101.5v-432h-173v216h-129v-216zM346 340v103q0 55 -12.5 84t-51.5 29t-52 -29t-13 -84v-103h129zM272 835q0 -31 -21 -47.5t-59 -16.5t-59 16.5t-21 47.5t21 47.5t59 16.5t59 -16.5
t21 -47.5zM457 835q0 -31 -21 -47.5t-59 -16.5t-59 16.5t-21 47.5t21 47.5t59 16.5t59 -16.5t21 -47.5z" />
    <glyph glyph-name="Aring" unicode="&#xc5;" horiz-adv-x="568" 
d="M217 0h-169v432q0 56 11.5 101.5t38.5 77t72 48.5t112 17t112 -17t73 -48.5t40 -77t12 -101.5v-432h-173v216h-129v-216zM346 340v103q0 55 -12.5 84t-51.5 29t-52 -29t-13 -84v-103h129zM402 835q0 -51 -32 -72t-86 -21t-86 21t-32 72t32 72t86 21t86 -21t32 -72z
M316 835q0 32 -32 32q-33 0 -33 -32t33 -32q32 0 32 32z" />
    <glyph glyph-name="Ccedilla" unicode="&#xc7;" horiz-adv-x="491" 
d="M446 534q-23 7 -57.5 14.5t-71.5 7.5q-27 0 -47.5 -10t-33.5 -34.5t-19.5 -67t-6.5 -108.5q0 -69 6 -112.5t19 -68t33.5 -34t48.5 -9.5q14 0 33 2t38.5 5.5t37 7.5t28.5 8l9 -122q-12 -5 -29.5 -9.5t-38.5 -8t-43 -6t-42 -2.5q-67 0 -119 17.5t-87 58.5t-53.5 107.5
t-18.5 165.5q0 94 18 158.5t53 105t87 58.5t120 18q21 0 42.5 -1.5t41.5 -4.5t37.5 -6.5t29.5 -7.5zM339 -35q14 -18 22.5 -37.5t8.5 -39.5q0 -42 -23.5 -67t-86.5 -25q-23 0 -50 5t-52 17l13 86q12 -5 24.5 -9t26.5 -4q10 0 14.5 5t4.5 19q0 13 -5.5 26t-11.5 24h115z" />
    <glyph glyph-name="Eacute" unicode="&#xc9;" horiz-adv-x="487" 
d="M440 665v-118h-210v-151h197v-119h-197v-91q0 -42 15 -55t37 -13h167v-118h-174q-52 0 -92.5 9t-68 31t-42 58.5t-14.5 91.5v475h382zM396 916l-108 -161h-118l66 161h160z" />
    <glyph glyph-name="Ntilde" unicode="&#xd1;" horiz-adv-x="639" 
d="M203 665l202 -299v299h168v-665h-168v140l-171 258v-398h-168v665h137zM157 801q3 16 10.5 33t19.5 31t29 23t41 9q16 0 32 -5t30 -10.5t25 -10.5t18 -5q8 0 15.5 7t12.5 24l82 -31q-4 -17 -11.5 -34.5t-18.5 -31.5t-27 -22.5t-36 -8.5q-15 0 -31.5 5t-32 10.5t-29 10.5
t-21.5 5q-18 0 -28 -31z" />
    <glyph glyph-name="Odieresis" unicode="&#xd6;" horiz-adv-x="588" 
d="M556 331q0 -178 -65 -260.5t-197 -82.5t-197 82.5t-65 260.5q0 180 64.5 262.5t197.5 82.5t197.5 -82.5t64.5 -262.5zM378 332q0 63 -5 106t-15.5 69.5t-26 37.5t-36.5 11q-22 0 -38 -11t-26.5 -37.5t-15.5 -69.5t-5 -106t5 -106t15.5 -69.5t26.5 -37.5t38 -11
q21 0 36.5 11t26 37.5t15.5 69.5t5 106zM282 835q0 -31 -21 -47.5t-59 -16.5t-59 16.5t-21 47.5t21 47.5t59 16.5t59 -16.5t21 -47.5zM467 835q0 -31 -21 -47.5t-59 -16.5t-59 16.5t-21 47.5t21 47.5t59 16.5t59 -16.5t21 -47.5z" />
    <glyph glyph-name="Udieresis" unicode="&#xdc;" horiz-adv-x="600" 
d="M228 665v-456q0 -55 19.5 -78t54.5 -23q22 0 39 3t25 5v549h172v-632q-21 -7 -47.5 -15t-57 -15t-65 -11.5t-71.5 -4.5q-67 0 -113 15.5t-74.5 45t-41 73t-12.5 99.5v445h172zM290 835q0 -31 -21 -47.5t-59 -16.5t-59 16.5t-21 47.5t21 47.5t59 16.5t59 -16.5t21 -47.5z
M475 835q0 -31 -21 -47.5t-59 -16.5t-59 16.5t-21 47.5t21 47.5t59 16.5t59 -16.5t21 -47.5z" />
    <glyph glyph-name="aacute" unicode="&#xe1;" horiz-adv-x="455" 
d="M53 477q34 11 76.5 16.5t78.5 5.5q44 0 81.5 -8.5t65 -28t43 -51t15.5 -77.5v-309q-17 -6 -39.5 -13t-48.5 -12t-54 -8.5t-55 -3.5q-41 0 -76.5 7.5t-61.5 26.5t-40.5 51.5t-14.5 81.5q0 44 15 73t39.5 46.5t56 25t64.5 7.5q24 0 47 -3v25q0 32 -11.5 43t-36.5 11
q-34 0 -69 -4.5t-69 -13.5zM245 213q-6 1 -12.5 1.5t-10.5 0.5q-21 0 -32 -15.5t-11 -51.5q0 -34 10.5 -48.5t30.5 -14.5q5 0 12.5 0.5t12.5 1.5v126zM381 730l-108 -161h-118l66 161h160z" />
    <glyph glyph-name="agrave" unicode="&#xe0;" horiz-adv-x="455" 
d="M53 477q34 11 76.5 16.5t78.5 5.5q44 0 81.5 -8.5t65 -28t43 -51t15.5 -77.5v-309q-17 -6 -39.5 -13t-48.5 -12t-54 -8.5t-55 -3.5q-41 0 -76.5 7.5t-61.5 26.5t-40.5 51.5t-14.5 81.5q0 44 15 73t39.5 46.5t56 25t64.5 7.5q24 0 47 -3v25q0 32 -11.5 43t-36.5 11
q-34 0 -69 -4.5t-69 -13.5zM245 213q-6 1 -12.5 1.5t-10.5 0.5q-21 0 -32 -15.5t-11 -51.5q0 -34 10.5 -48.5t30.5 -14.5q5 0 12.5 0.5t12.5 1.5v126zM231 730l64 -161h-116l-108 161h160z" />
    <glyph glyph-name="acircumflex" unicode="&#xe2;" horiz-adv-x="455" 
d="M53 477q34 11 76.5 16.5t78.5 5.5q44 0 81.5 -8.5t65 -28t43 -51t15.5 -77.5v-309q-17 -6 -39.5 -13t-48.5 -12t-54 -8.5t-55 -3.5q-41 0 -76.5 7.5t-61.5 26.5t-40.5 51.5t-14.5 81.5q0 44 15 73t39.5 46.5t56 25t64.5 7.5q24 0 47 -3v25q0 32 -11.5 43t-36.5 11
q-34 0 -69 -4.5t-69 -13.5zM245 213q-6 1 -12.5 1.5t-10.5 0.5q-21 0 -32 -15.5t-11 -51.5q0 -34 10.5 -48.5t30.5 -14.5q5 0 12.5 0.5t12.5 1.5v126zM300 730l89 -161h-122l-40 80l-41 -80h-122l89 161h147z" />
    <glyph glyph-name="adieresis" unicode="&#xe4;" horiz-adv-x="455" 
d="M53 477q34 11 76.5 16.5t78.5 5.5q44 0 81.5 -8.5t65 -28t43 -51t15.5 -77.5v-309q-17 -6 -39.5 -13t-48.5 -12t-54 -8.5t-55 -3.5q-41 0 -76.5 7.5t-61.5 26.5t-40.5 51.5t-14.5 81.5q0 44 15 73t39.5 46.5t56 25t64.5 7.5q24 0 47 -3v25q0 32 -11.5 43t-36.5 11
q-34 0 -69 -4.5t-69 -13.5zM245 213q-6 1 -12.5 1.5t-10.5 0.5q-21 0 -32 -15.5t-11 -51.5q0 -34 10.5 -48.5t30.5 -14.5q5 0 12.5 0.5t12.5 1.5v126zM215 651q0 -31 -21 -47.5t-59 -16.5t-59 16.5t-21 47.5t21 47.5t59 16.5t59 -16.5t21 -47.5zM400 651q0 -31 -21 -47.5
t-59 -16.5t-59 16.5t-21 47.5t21 47.5t59 16.5t59 -16.5t21 -47.5z" />
    <glyph glyph-name="atilde" unicode="&#xe3;" horiz-adv-x="455" 
d="M53 477q34 11 76.5 16.5t78.5 5.5q44 0 81.5 -8.5t65 -28t43 -51t15.5 -77.5v-309q-17 -6 -39.5 -13t-48.5 -12t-54 -8.5t-55 -3.5q-41 0 -76.5 7.5t-61.5 26.5t-40.5 51.5t-14.5 81.5q0 44 15 73t39.5 46.5t56 25t64.5 7.5q24 0 47 -3v25q0 32 -11.5 43t-36.5 11
q-34 0 -69 -4.5t-69 -13.5zM245 213q-6 1 -12.5 1.5t-10.5 0.5q-21 0 -32 -15.5t-11 -51.5q0 -34 10.5 -48.5t30.5 -14.5q5 0 12.5 0.5t12.5 1.5v126zM65 616q3 16 10.5 33t19.5 31t29 23t41 9q16 0 32 -5t30 -10.5t25 -10.5t18 -5q8 0 15.5 7t12.5 24l82 -31
q-4 -17 -11.5 -34.5t-18.5 -31.5t-27 -22.5t-36 -8.5q-15 0 -31.5 5t-32 10.5t-29 10.5t-21.5 5q-18 0 -28 -31z" />
    <glyph glyph-name="aring" unicode="&#xe5;" horiz-adv-x="455" 
d="M53 477q34 11 76.5 16.5t78.5 5.5q44 0 81.5 -8.5t65 -28t43 -51t15.5 -77.5v-309q-17 -6 -39.5 -13t-48.5 -12t-54 -8.5t-55 -3.5q-41 0 -76.5 7.5t-61.5 26.5t-40.5 51.5t-14.5 81.5q0 44 15 73t39.5 46.5t56 25t64.5 7.5q24 0 47 -3v25q0 32 -11.5 43t-36.5 11
q-34 0 -69 -4.5t-69 -13.5zM245 213q-6 1 -12.5 1.5t-10.5 0.5q-21 0 -32 -15.5t-11 -51.5q0 -34 10.5 -48.5t30.5 -14.5q5 0 12.5 0.5t12.5 1.5v126zM346 649q0 -51 -32 -72t-86 -21t-86 21t-32 72t32 72t86 21t86 -21t32 -72zM260 649q0 32 -32 32q-33 0 -33 -32t33 -32
q32 0 32 32z" />
    <glyph glyph-name="ccedilla" unicode="&#xe7;" horiz-adv-x="379" 
d="M343 373q-18 4 -42 7t-42 3q-16 0 -27.5 -5t-18.5 -20t-10 -42t-3 -72q0 -76 10.5 -108t46.5 -32q21 0 44 4.5t46 11.5l12 -113q-24 -6 -53 -12.5t-69 -6.5q-48 0 -87 14.5t-66.5 45.5t-42 80t-14.5 118q0 72 16 120.5t44.5 78t69 42t90.5 12.5q26 0 58 -4t51 -9z
M281 -35q14 -18 22.5 -37.5t8.5 -39.5q0 -42 -23.5 -67t-86.5 -25q-23 0 -50 5t-52 17l13 86q12 -5 24.5 -9t26.5 -4q10 0 14.5 5t4.5 19q0 13 -5.5 26t-11.5 24h115z" />
    <glyph glyph-name="eacute" unicode="&#xe9;" horiz-adv-x="449" 
d="M201 199q2 -54 19.5 -74.5t57.5 -20.5q22 0 57.5 5.5t67.5 13.5l13 -110q-28 -12 -72.5 -18.5t-87.5 -6.5q-49 0 -91 11.5t-72.5 40.5t-48 78.5t-17.5 125.5q0 75 15 124t43 78.5t67 41t87 11.5q50 0 85 -14.5t57 -42.5t32 -67.5t10 -89.5v-86h-222zM267 287q3 48 -4 79
t-28 31q-22 0 -29.5 -30.5t-5.5 -79.5h67zM399 730l-108 -161h-118l66 161h160z" />
    <glyph glyph-name="egrave" unicode="&#xe8;" horiz-adv-x="449" 
d="M201 199q2 -54 19.5 -74.5t57.5 -20.5q22 0 57.5 5.5t67.5 13.5l13 -110q-28 -12 -72.5 -18.5t-87.5 -6.5q-49 0 -91 11.5t-72.5 40.5t-48 78.5t-17.5 125.5q0 75 15 124t43 78.5t67 41t87 11.5q50 0 85 -14.5t57 -42.5t32 -67.5t10 -89.5v-86h-222zM267 287q3 48 -4 79
t-28 31q-22 0 -29.5 -30.5t-5.5 -79.5h67zM227 730l64 -161h-116l-108 161h160z" />
    <glyph glyph-name="ecircumflex" unicode="&#xea;" horiz-adv-x="449" 
d="M201 199q2 -54 19.5 -74.5t57.5 -20.5q22 0 57.5 5.5t67.5 13.5l13 -110q-28 -12 -72.5 -18.5t-87.5 -6.5q-49 0 -91 11.5t-72.5 40.5t-48 78.5t-17.5 125.5q0 75 15 124t43 78.5t67 41t87 11.5q50 0 85 -14.5t57 -42.5t32 -67.5t10 -89.5v-86h-222zM267 287q3 48 -4 79
t-28 31q-22 0 -29.5 -30.5t-5.5 -79.5h67zM308 730l89 -161h-122l-40 80l-41 -80h-122l89 161h147z" />
    <glyph glyph-name="edieresis" unicode="&#xeb;" horiz-adv-x="449" 
d="M201 199q2 -54 19.5 -74.5t57.5 -20.5q22 0 57.5 5.5t67.5 13.5l13 -110q-28 -12 -72.5 -18.5t-87.5 -6.5q-49 0 -91 11.5t-72.5 40.5t-48 78.5t-17.5 125.5q0 75 15 124t43 78.5t67 41t87 11.5q50 0 85 -14.5t57 -42.5t32 -67.5t10 -89.5v-86h-222zM267 287q3 48 -4 79
t-28 31q-22 0 -29.5 -30.5t-5.5 -79.5h67zM222 651q0 -31 -21 -47.5t-59 -16.5t-59 16.5t-21 47.5t21 47.5t59 16.5t59 -16.5t21 -47.5zM407 651q0 -31 -21 -47.5t-59 -16.5t-59 16.5t-21 47.5t21 47.5t59 16.5t59 -16.5t21 -47.5z" />
    <glyph glyph-name="iacute" unicode="&#xed;" horiz-adv-x="260" 
d="M297 730l-108 -161h-118l66 161h160zM208 487v-487h-155v487h155z" />
    <glyph glyph-name="igrave" unicode="&#xec;" horiz-adv-x="257" 
d="M125 730l64 -161h-116l-108 161h160zM205 487v-487h-155v487h155z" />
    <glyph glyph-name="icircumflex" unicode="&#xee;" horiz-adv-x="260" 
d="M208 487v-487h-155v487h155zM204 730l89 -161h-122l-40 80l-41 -80h-122l89 161h147z" />
    <glyph glyph-name="idieresis" unicode="&#xef;" horiz-adv-x="260" 
d="M118 651q0 -31 -21 -47.5t-59 -16.5t-59 16.5t-21 47.5t21 47.5t59 16.5t59 -16.5t21 -47.5zM303 651q0 -31 -21 -47.5t-59 -16.5t-59 16.5t-21 47.5t21 47.5t59 16.5t59 -16.5t21 -47.5zM208 487v-487h-155v487h155z" />
    <glyph glyph-name="ntilde" unicode="&#xf1;" horiz-adv-x="503" 
d="M51 459q37 13 90 26.5t112 13.5q50 0 88.5 -9.5t64.5 -30.5t39 -56t13 -86v-317h-168v311q0 42 -7 57t-32 15q-9 0 -16.5 -1t-15.5 -3v-379h-168v459zM92 616q3 16 10.5 33t19.5 31t29 23t41 9q16 0 32 -5t30 -10.5t25 -10.5t18 -5q8 0 15.5 7t12.5 24l82 -31
q-4 -17 -11.5 -34.5t-18.5 -31.5t-27 -22.5t-36 -8.5q-15 0 -31.5 5t-32 10.5t-29 10.5t-21.5 5q-18 0 -28 -31z" />
    <glyph glyph-name="oacute" unicode="&#xf3;" horiz-adv-x="490" 
d="M463 244q0 -134 -56 -195t-162 -61t-162 61t-56 195t56 194.5t162 60.5t162 -60.5t56 -194.5zM290 244q0 78 -10 108.5t-35 30.5t-35 -30.5t-10 -108.5t10 -109t35 -31t35 31t10 109zM408 730l-108 -161h-118l66 161h160z" />
    <glyph glyph-name="ograve" unicode="&#xf2;" horiz-adv-x="490" 
d="M463 244q0 -134 -56 -195t-162 -61t-162 61t-56 195t56 194.5t162 60.5t162 -60.5t56 -194.5zM290 244q0 78 -10 108.5t-35 30.5t-35 -30.5t-10 -108.5t10 -109t35 -31t35 31t10 109zM244 730l64 -161h-116l-108 161h160z" />
    <glyph glyph-name="ocircumflex" unicode="&#xf4;" horiz-adv-x="490" 
d="M463 244q0 -134 -56 -195t-162 -61t-162 61t-56 195t56 194.5t162 60.5t162 -60.5t56 -194.5zM290 244q0 78 -10 108.5t-35 30.5t-35 -30.5t-10 -108.5t10 -109t35 -31t35 31t10 109zM319 730l89 -161h-122l-40 80l-41 -80h-122l89 161h147z" />
    <glyph glyph-name="odieresis" unicode="&#xf6;" horiz-adv-x="490" 
d="M463 244q0 -134 -56 -195t-162 -61t-162 61t-56 195t56 194.5t162 60.5t162 -60.5t56 -194.5zM290 244q0 78 -10 108.5t-35 30.5t-35 -30.5t-10 -108.5t10 -109t35 -31t35 31t10 109zM233 651q0 -31 -21 -47.5t-59 -16.5t-59 16.5t-21 47.5t21 47.5t59 16.5t59 -16.5
t21 -47.5zM418 651q0 -31 -21 -47.5t-59 -16.5t-59 16.5t-21 47.5t21 47.5t59 16.5t59 -16.5t21 -47.5z" />
    <glyph glyph-name="otilde" unicode="&#xf5;" horiz-adv-x="490" 
d="M463 244q0 -134 -56 -195t-162 -61t-162 61t-56 195t56 194.5t162 60.5t162 -60.5t56 -194.5zM290 244q0 78 -10 108.5t-35 30.5t-35 -30.5t-10 -108.5t10 -109t35 -31t35 31t10 109zM83 616q3 16 10.5 33t19.5 31t29 23t41 9q16 0 32 -5t30 -10.5t25 -10.5t18 -5
q8 0 15.5 7t12.5 24l82 -31q-4 -17 -11.5 -34.5t-18.5 -31.5t-27 -22.5t-36 -8.5q-15 0 -31.5 5t-32 10.5t-29 10.5t-21.5 5q-18 0 -28 -31z" />
    <glyph glyph-name="uacute" unicode="&#xfa;" horiz-adv-x="499" 
d="M212 487v-319q0 -32 7.5 -48t30.5 -16q9 0 17 1t14 3v379h168v-461q-38 -13 -92 -25.5t-109 -12.5q-43 0 -80 8.5t-64.5 29.5t-43 57t-15.5 91v313h167zM414 730l-108 -161h-118l66 161h160z" />
    <glyph glyph-name="ugrave" unicode="&#xf9;" horiz-adv-x="499" 
d="M212 487v-319q0 -32 7.5 -48t30.5 -16q9 0 17 1t14 3v379h168v-461q-38 -13 -92 -25.5t-109 -12.5q-43 0 -80 8.5t-64.5 29.5t-43 57t-15.5 91v313h167zM245 730l64 -161h-116l-108 161h160z" />
    <glyph glyph-name="ucircumflex" unicode="&#xfb;" horiz-adv-x="499" 
d="M212 487v-319q0 -32 7.5 -48t30.5 -16q9 0 17 1t14 3v379h168v-461q-38 -13 -92 -25.5t-109 -12.5q-43 0 -80 8.5t-64.5 29.5t-43 57t-15.5 91v313h167zM320 730l89 -161h-122l-40 80l-41 -80h-122l89 161h147z" />
    <glyph glyph-name="udieresis" unicode="&#xfc;" horiz-adv-x="499" 
d="M212 487v-319q0 -32 7.5 -48t30.5 -16q9 0 17 1t14 3v379h168v-461q-38 -13 -92 -25.5t-109 -12.5q-43 0 -80 8.5t-64.5 29.5t-43 57t-15.5 91v313h167zM235 651q0 -31 -21 -47.5t-59 -16.5t-59 16.5t-21 47.5t21 47.5t59 16.5t59 -16.5t21 -47.5zM420 651
q0 -31 -21 -47.5t-59 -16.5t-59 16.5t-21 47.5t21 47.5t59 16.5t59 -16.5t21 -47.5z" />
    <glyph glyph-name="dagger" unicode="&#x2020;" horiz-adv-x="407" 
d="M276 665v-157h104v-105h-104v-255h-146v255h-104v105h104v157h146z" />
    <glyph glyph-name="degree" unicode="&#xb0;" horiz-adv-x="342" 
d="M289 561q0 -52 -32.5 -83.5t-85.5 -31.5t-85.5 31.5t-32.5 83.5t32.5 83.5t85.5 31.5t85.5 -31.5t32.5 -83.5zM216 561q0 24 -12 40t-33 16t-33 -16t-12 -40t12 -40t33 -16t33 16t12 40z" />
    <glyph glyph-name="cent" unicode="&#xa2;" 
d="M211 59q-73 23 -111.5 88.5t-38.5 187.5q0 114 36.5 177t107.5 88v142h118v-127q35 -1 67.5 -5t56.5 -9l-13 -120q-12 3 -29 6t-35 5t-35 3.5t-29 1.5q-20 0 -35.5 -7t-26 -25.5t-16 -50t-5.5 -79.5q0 -57 6 -90t18 -50.5t29.5 -22.5t40.5 -5q24 0 59 3.5t64 11.5l9 -115
q-28 -8 -56 -12t-65 -8v-131h-117v143z" />
    <glyph glyph-name="sterling" unicode="&#xa3;" 
d="M119 390l6 84q4 58 21.5 97t46.5 62t68.5 33t89.5 10q43 0 78 -5t56 -10l-14 -120q-20 5 -49 10t-52 5q-15 0 -27.5 -2.5t-21.5 -10t-14.5 -22t-7.5 -38.5l-8 -93h162v-99h-171q-2 -24 -4.5 -48t-10 -46.5t-21 -42.5t-37.5 -36h274v-118h-450v91q24 15 38 34.5t22 43.5
t11.5 54t5.5 68h-77v99h86z" />
    <glyph glyph-name="section" unicode="&#xa7;" horiz-adv-x="502" 
d="M50 256q0 50 17.5 81t50.5 51q-23 25 -36.5 55t-13.5 66q0 45 16 77t45.5 52t71 29t92.5 9q35 0 73.5 -3t69.5 -10l-9 -110q-33 8 -65 12t-68 4q-31 0 -47.5 -12t-16.5 -40q0 -21 17.5 -38.5t44 -35t57 -37.5t57 -46t44 -60.5t17.5 -81.5q0 -55 -16.5 -88.5t-64.5 -50.5
q33 -49 33 -112q0 -87 -54.5 -127t-154.5 -40q-51 0 -88 8t-68 18l18 114q29 -10 64.5 -17t64.5 -7q24 0 39.5 10t15.5 39q0 23 -15.5 42.5t-38 38t-49.5 38t-49.5 44t-38 55.5t-15.5 73zM217 309q-5 -7 -10 -17.5t-5 -25.5q0 -13 7 -23.5t18.5 -20t25 -18.5t26.5 -19
l24 -18q11 16 11 44q0 15 -9.5 28.5t-23.5 25.5t-31 23t-33 21z" />
    <glyph glyph-name="bullet" unicode="&#x2022;" horiz-adv-x="342" 
d="M171 401q60 0 97 -31.5t37 -98.5q0 -66 -37 -98.5t-97 -32.5q-58 0 -96.5 32.5t-38.5 98.5q0 67 38.5 98.5t96.5 31.5z" />
    <glyph glyph-name="paragraph" unicode="&#xb6;" horiz-adv-x="605" 
d="M382 -158h-108v380h-27q-56 0 -98.5 11.5t-70.5 37.5t-42 69t-14 105q0 64 12.5 106.5t40.5 68t71.5 35.5t105.5 10h130v-823zM539 665v-823h-108v823h108z" />
    <glyph glyph-name="germandbls" unicode="&#xdf;" horiz-adv-x="503" 
d="M49 0v561q0 86 51.5 133.5t156.5 47.5q52 0 88.5 -15t59.5 -39.5t33.5 -55.5t10.5 -63q0 -35 -7.5 -60.5t-17 -46.5t-17 -40t-7.5 -41q0 -21 14 -46t31.5 -55t31.5 -65t14 -76q0 -74 -32.5 -112.5t-104.5 -38.5q-54 0 -92 11l5 109l22 -4t21 -2q13 0 20 7t7 27
q0 26 -12 49t-26 48t-26 55t-12 72q0 34 6 56t13 41.5t13 43t6 60.5q0 65 -41 65t-41 -65v-561h-168z" />
    <glyph glyph-name="registered" unicode="&#xae;" horiz-adv-x="536" 
d="M256 441q3 -1 6 -1h9q10 0 15.5 6t5.5 29q0 20 -5 27.5t-15 7.5h-16v-69zM265 566q51 0 86 -20.5t35 -64.5q0 -30 -9.5 -47t-35.5 -26q20 -5 30 -16.5t14 -34.5l12 -74h-103l-8 70q-2 18 -6.5 23t-15.5 5h-8v-98h-98v283h107zM502 416q0 -128 -58 -194t-177 -66
q-118 0 -176.5 66t-58.5 194t58.5 194t176.5 66q119 0 177 -66t58 -194zM431 416q0 105 -38.5 152t-125.5 47q-86 0 -124.5 -47t-38.5 -152t38.5 -152t124.5 -47q87 0 125.5 47t38.5 152z" />
    <glyph glyph-name="copyright" unicode="&#xa9;" horiz-adv-x="636" 
d="M443 154q-21 -7 -47 -12.5t-55 -5.5q-40 0 -71.5 10.5t-53.5 34t-33.5 61t-11.5 91.5q0 102 43 147t123 45q29 0 56 -4t46 -10l-7 -88q-21 7 -39 9.5t-32 2.5q-11 0 -20 -3t-15.5 -13.5t-10.5 -31t-4 -54.5q0 -33 3.5 -53.5t9.5 -32.5t14.5 -16.5t18.5 -4.5q17 0 36.5 4
t41.5 13zM606 332q0 -170 -73 -257t-215 -87t-215 87t-73 257t73 257t215 87t215 -87t73 -257zM531 332q0 138 -56 206.5t-157 68.5q-100 0 -156.5 -68.5t-56.5 -206.5t56.5 -206.5t156.5 -68.5q101 0 157 68.5t56 206.5z" />
    <glyph glyph-name="trademark" unicode="&#x2122;" horiz-adv-x="797" 
d="M307 665v-77h-77v-222h-129v222h-79v77h285zM493 665l40 -130l39 130h158v-299h-114v181l-35 -118h-97l-35 119v-182h-114v299h158z" />
    <glyph glyph-name="acute" unicode="&#xb4;" horiz-adv-x="474" 
d="M382 730l-108 -161h-118l66 161h160z" />
    <glyph glyph-name="dieresis" unicode="&#xa8;" horiz-adv-x="474" 
d="M224 651q0 -31 -21 -47.5t-59 -16.5t-59 16.5t-21 47.5t21 47.5t59 16.5t59 -16.5t21 -47.5zM409 651q0 -31 -21 -47.5t-59 -16.5t-59 16.5t-21 47.5t21 47.5t59 16.5t59 -16.5t21 -47.5z" />
    <glyph glyph-name="notequal" unicode="&#x2260;" 
d="M260 472l42 108h108l-41 -108h103v-107h-142q-8 -22 -17.5 -46t-17.5 -45h177v-107h-217l-40 -109h-108l40 109h-101v107h141l34 91h-175v107h214z" />
    <glyph glyph-name="AE" unicode="&#xc6;" horiz-adv-x="792" 
d="M745 665v-118h-210v-151h197v-119h-197v-91q0 -42 15 -55t37 -13h167v-118h-175q-51 0 -91.5 9t-68 31t-42 58.5t-14.5 91.5v67h-130v-257h-169v432q0 56 11.5 101.5t38 77t68 48.5t101.5 17q13 0 28.5 -2t30 -6.5t27 -11.5t19.5 -16v25h357zM362 386v57q0 55 -12.5 84
t-51.5 29t-52 -29t-13 -84v-57h129z" />
    <glyph glyph-name="Oslash" unicode="&#xd8;" horiz-adv-x="588" 
d="M556 331q0 -178 -65 -260.5t-197 -82.5q-76 0 -127 25l-43 -81l-70 39l49 91v1q-71 83 -71 268q0 180 64.5 262.5t197.5 82.5q74 0 125 -25l46 85l70 -39l-51 -95q72 -84 72 -271zM378 332q0 19 -0.5 36t-1.5 33l-139 -258q20 -35 58 -35q21 0 36.5 11t26 37.5t15.5 69.5
t5 106zM210 332q0 -19 0.5 -35.5t1.5 -31.5l138 257q-18 34 -55 34q-22 0 -38 -11t-26.5 -37.5t-15.5 -69.5t-5 -106z" />
    <glyph glyph-name="infinity" unicode="&#x221e;" horiz-adv-x="580" 
d="M237 319q-14 17 -30.5 31t-36.5 14q-15 0 -27 -9.5t-12 -35.5t12 -35.5t27 -9.5q20 0 36.5 14t30.5 31zM559 319q0 -69 -39 -103.5t-106 -34.5q-42 0 -70.5 14.5t-53.5 37.5q-25 -23 -53.5 -37.5t-70.5 -14.5q-67 0 -106 34.5t-39 103.5t39 103.5t106 34.5
q42 0 70.5 -14.5t53.5 -37.5q25 23 53.5 37.5t70.5 14.5q67 0 106 -34.5t39 -103.5zM343 319q14 -17 30.5 -31t36.5 -14q15 0 27 9.5t12 35.5t-12 35.5t-27 9.5q-20 0 -36.5 -14t-30.5 -31z" />
    <glyph glyph-name="plusminus" unicode="&#xb1;" 
d="M190 392v134h137v-134h145v-107h-145v-125h-137v125h-144v107h144zM472 107v-107h-426v107h426z" />
    <glyph glyph-name="lessequal" unicode="&#x2264;" 
d="M472 526v-121l-276 -87l276 -87v-121l-426 160v96zM472 107v-107h-426v107h426z" />
    <glyph glyph-name="greaterequal" unicode="&#x2265;" 
d="M472 366v-96l-426 -160v121l276 87l-276 87v121zM472 107v-107h-426v107h426z" />
    <glyph glyph-name="yen" unicode="&#xa5;" 
d="M187 665l92 -248l93 248h139l-96 -227h72v-80h-99l-25 -72h124v-80h-131v-206h-166v206h-141v80h143l-36 72h-107v80h68l-109 227h179z" />
    <glyph glyph-name="mu" unicode="&#xb5;" horiz-adv-x="505" 
d="M218 487v-319q0 -34 6 -49t32 -15q6 0 14 1t16 3v379h169v-457q-38 -16 -92 -29t-109 -13q-11 0 -18.5 0.5t-17.5 2.5v-179h-168v675h168z" />
    <glyph glyph-name="mu" unicode="&#x3bc;" horiz-adv-x="505" 
d="M218 487v-319q0 -34 6 -49t32 -15q6 0 14 1t16 3v379h169v-457q-38 -16 -92 -29t-109 -13q-11 0 -18.5 0.5t-17.5 2.5v-179h-168v675h168z" />
    <glyph glyph-name="partialdiff" unicode="&#x2202;" horiz-adv-x="525" 
d="M112 631q42 21 81.5 33t89.5 12q44 0 80 -12.5t61 -40.5t38.5 -71.5t13.5 -104.5q0 -83 -14 -165t-45.5 -147.5t-83 -106t-126.5 -40.5q-41 0 -73.5 13t-55.5 37t-35.5 57.5t-12.5 74.5q0 52 12.5 94.5t37.5 73t62.5 47.5t88.5 17t88 -16q2 17 2 34v27q0 62 -17.5 88.5
t-46.5 26.5q-16 0 -33.5 -4.5t-34.5 -11t-33.5 -14.5t-30.5 -15zM219 104q16 0 28 14t21 37t14.5 51.5t10.5 59.5q-14 11 -25 15.5t-25 4.5q-12 0 -23.5 -5t-19.5 -17t-13 -33t-5 -51q0 -34 10 -55t27 -21z" />
    <glyph glyph-name="summation" unicode="&#x2211;" 
d="M50 88l168 259l-168 229v89h416v-118h-218l157 -201l-163 -228h243v-118h-435v88z" />
    <glyph glyph-name="product" unicode="&#x220f;" horiz-adv-x="606" 
d="M594 665v-116h-58v-549h-170v549h-111v-549h-169v549h-58v116h566z" />
    <glyph glyph-name="pi" unicode="&#x3c0;" horiz-adv-x="551" 
d="M539 487v-114h-63v-373h-171v373h-60v-373h-171v373h-62v114h527z" />
    <glyph glyph-name="integral" unicode="&#x222b;" horiz-adv-x="292" 
d="M305 624q-9 2 -19 1.5t-16 -0.5q-26 0 -34.5 -15.5t-8.5 -45.5v-585q0 -40 -10 -73t-31 -56.5t-54 -36.5t-80 -13q-11 0 -29 1.5t-32 3.5v115q8 -2 15.5 -2h18.5q28 0 34.5 15.5t6.5 45.5v585q0 40 10 73.5t31 56.5t54 36t80 13q17 0 35 -1t29 -3v-115z" />
    <glyph glyph-name="ordfeminine" unicode="&#xaa;" horiz-adv-x="320" 
d="M37 657q28 10 56.5 14.5t65.5 4.5q56 0 90 -27.5t34 -79.5v-172q-9 -4 -23.5 -10t-33 -11t-40 -9t-43.5 -4q-59 0 -92 23.5t-33 76.5q0 28 12 46t31 27.5t42.5 13t46.5 3.5h8.5t9.5 -1v13q0 17 -6 26.5t-25 9.5q-41 0 -92 -21zM168 491q-2 1 -7 1h-7q-11 0 -17.5 -9
t-6.5 -23t4.5 -24t17.5 -10h7.5t8.5 1v64z" />
    <glyph glyph-name="ordmasculine" unicode="&#xba;" horiz-adv-x="320" 
d="M305 516q0 -85 -37 -122.5t-108 -37.5t-108 37.5t-37 122.5t37 122.5t108 37.5t108 -37.5t37 -122.5zM183 516q0 44 -5.5 63.5t-17.5 19.5t-17.5 -19.5t-5.5 -63.5t5.5 -63.5t17.5 -19.5t17.5 19.5t5.5 63.5z" />
    <glyph glyph-name="Omega" unicode="&#x3a9;" horiz-adv-x="588" 
d="M127 97q-18 21 -35 45t-30 54t-21 66.5t-8 82.5q0 89 18.5 152t52.5 102.5t82 58t108 18.5t108 -18.5t82.5 -58t53 -102.5t18.5 -152q0 -46 -8 -82.5t-21.5 -66.5t-31 -54t-36.5 -45h104v-97h-256v94q27 23 45.5 47.5t30 54t17 66t5.5 83.5q0 124 -27.5 177.5t-83.5 53.5
t-83 -53.5t-27 -177.5q0 -47 5.5 -83.5t17 -66t30 -54t44.5 -47.5v-94h-255v97h101z" />
    <glyph glyph-name="Omega" unicode="&#x2126;" horiz-adv-x="588" 
d="M127 97q-18 21 -35 45t-30 54t-21 66.5t-8 82.5q0 89 18.5 152t52.5 102.5t82 58t108 18.5t108 -18.5t82.5 -58t53 -102.5t18.5 -152q0 -46 -8 -82.5t-21.5 -66.5t-31 -54t-36.5 -45h104v-97h-256v94q27 23 45.5 47.5t30 54t17 66t5.5 83.5q0 124 -27.5 177.5t-83.5 53.5
t-83 -53.5t-27 -177.5q0 -47 5.5 -83.5t17 -66t30 -54t44.5 -47.5v-94h-255v97h101z" />
    <glyph glyph-name="ae" unicode="&#xe6;" horiz-adv-x="659" 
d="M414 199q2 -54 19 -74.5t57 -20.5q11 0 27 1.5t33 4.5t34.5 6.5t31.5 7.5l13 -112q-32 -11 -75.5 -17.5t-86.5 -6.5q-38 0 -71 6.5t-57 23.5q-9 -5 -23 -10.5t-31 -10t-35 -7t-34 -2.5q-41 0 -76.5 7.5t-61.5 26.5t-40.5 51.5t-14.5 81.5q0 44 15 73t39.5 46.5t56 25
t64.5 7.5q24 0 47 -3v22q0 35 -11 46t-34 11q-28 0 -67.5 -4.5t-73.5 -13.5l-6 112q34 11 76.5 16.5t78.5 5.5q38 0 70.5 -6t57.5 -20q20 14 48 20t66 6q50 0 85 -14.5t57.5 -42.5t33 -67.5t10.5 -89.5v-86h-222zM230 214q-4 0 -8 1q-21 0 -32 -15.5t-11 -51.5
q0 -34 11.5 -47t29.5 -13q14 0 23 2t20 7q-12 26 -16 53t-6 64h-11zM480 287q3 48 -4 79t-28 31q-22 0 -29.5 -30.5t-5.5 -79.5h67z" />
    <glyph glyph-name="oslash" unicode="&#xf8;" horiz-adv-x="490" 
d="M463 244q0 -134 -56 -195t-162 -61q-58 0 -105 19l-47 -82l-49 30l48 84q-65 62 -65 205q0 134 56 194.5t162 60.5q61 0 103 -19l48 84l49 -30l-49 -85q67 -61 67 -205zM290 266l-79 -136q10 -26 34 -26q25 0 35 31t10 109v22zM200 225l77 134q-10 24 -32 24
q-25 0 -35 -30.5t-10 -108.5v-19z" />
    <glyph glyph-name="questiondown" unicode="&#xbf;" horiz-adv-x="341" 
d="M343 -165q-25 -12 -67.5 -21t-90.5 -9q-41 0 -75 10t-59 30t-39 50.5t-14 72.5q0 31 6.5 56t17 44.5t23.5 35.5t26 31q17 19 30 39.5t13 55.5v58h144v-68q0 -35 -6.5 -61.5t-16.5 -47.5t-22 -37t-23 -30q-12 -14 -20 -28t-8 -36q0 -32 11 -43t31 -11q23 0 57 8.5t63 22.5
zM278 416q0 -38 -25 -58t-67 -20t-66.5 20t-24.5 58t24.5 57.5t66.5 19.5t67 -19.5t25 -57.5z" />
    <glyph glyph-name="exclamdown" unicode="&#xa1;" horiz-adv-x="277" 
d="M50 -188l23 470h135l22 -470h-180zM46 421q0 38 25.5 57.5t67.5 19.5q41 0 66 -19.5t25 -57.5t-25 -58t-66 -20q-42 0 -67.5 20t-25.5 58z" />
    <glyph glyph-name="logicalnot" unicode="&#xac;" 
d="M472 472v-305h-129v198h-297v107h426z" />
    <glyph glyph-name="radical" unicode="&#x221a;" 
d="M200 487l63 -262l112 440h133l-177 -665h-137l-107 384h-79v103h192z" />
    <glyph glyph-name="florin" unicode="&#x192;" 
d="M129 394v80q0 59 17 98t45.5 62t66.5 32.5t79 9.5q43 0 78.5 -4.5t66.5 -10.5l-14 -120q-22 5 -52 10t-54 5q-26 0 -44 -16t-18 -66v-80h156v-99h-156v-295h-171v295h-94v99h94z" />
    <glyph glyph-name="approxequal" unicode="&#x2248;" 
d="M483 446q-8 -22 -18 -43t-26 -37t-40 -25.5t-59 -9.5q-24 0 -47.5 7.5t-44 17t-37 17t-27.5 7.5q-16 0 -27 -8.5t-22 -40.5l-101 38q7 21 16 41.5t23.5 37t36.5 26.5t55 10q25 0 50 -7.5t47.5 -16.5t41 -16.5t29.5 -7.5t24.5 7t24.5 41zM483 251q-8 -22 -18 -43t-26 -37
t-40 -25.5t-59 -9.5q-24 0 -47.5 7.5t-44 17t-37 17t-27.5 7.5q-16 0 -27 -8.5t-22 -40.5l-101 38q7 21 16 41.5t23.5 37t36.5 26.5t55 10q25 0 50 -7.5t47.5 -16.5t41 -16.5t29.5 -7.5t24.5 7t24.5 41z" />
    <glyph glyph-name="Delta" unicode="&#x394;" 
d="M182 666h153l169 -666h-491zM259 454q-20 -86 -42 -179t-42 -178h167z" />
    <glyph glyph-name="Delta" unicode="&#x2206;" 
d="M182 666h153l169 -666h-491zM259 454q-20 -86 -42 -179t-42 -178h167z" />
    <glyph glyph-name="guillemotleft" unicode="&#xab;" horiz-adv-x="529" 
d="M304 452l-103 -181l103 -181h-143l-131 181l131 181h143zM499 452l-75 -181l75 -181h-144l-104 181l104 181h144z" />
    <glyph glyph-name="guillemotright" unicode="&#xbb;" horiz-adv-x="529" 
d="M368 452l131 -181l-131 -181h-143l104 181l-104 181h143zM175 452l103 -181l-103 -181h-145l75 181l-75 181h145z" />
    <glyph glyph-name="ellipsis" unicode="&#x2026;" horiz-adv-x="694" 
d="M127 159q45 0 71.5 -22t26.5 -63q0 -40 -26.5 -62t-71.5 -22t-71.5 22t-26.5 62q0 41 26.5 63t71.5 22zM347 159q45 0 71.5 -22t26.5 -63q0 -40 -26.5 -62t-71.5 -22t-71.5 22t-26.5 62q0 41 26.5 63t71.5 22zM567 159q45 0 71.5 -22t26.5 -63q0 -40 -26.5 -62t-71.5 -22
t-71.5 22t-26.5 62q0 41 26.5 63t71.5 22z" />
    <glyph glyph-name="uni00A0" horiz-adv-x="233" 
 />
    <glyph glyph-name="Agrave" unicode="&#xc0;" horiz-adv-x="568" 
d="M217 0h-169v432q0 56 11.5 101.5t38.5 77t72 48.5t112 17t112 -17t73 -48.5t40 -77t12 -101.5v-432h-173v216h-129v-216zM346 340v103q0 55 -12.5 84t-51.5 29t-52 -29t-13 -84v-103h129zM278 916l64 -161h-116l-108 161h160z" />
    <glyph glyph-name="Atilde" unicode="&#xc3;" horiz-adv-x="568" 
d="M217 0h-169v432q0 56 11.5 101.5t38.5 77t72 48.5t112 17t112 -17t73 -48.5t40 -77t12 -101.5v-432h-173v216h-129v-216zM346 340v103q0 55 -12.5 84t-51.5 29t-52 -29t-13 -84v-103h129zM127 802q3 16 10.5 33t19.5 31t29 23t41 9q16 0 32 -5t30 -10.5t25 -10.5t18 -5
q8 0 15.5 7t12.5 24l82 -31q-4 -17 -11.5 -34.5t-18.5 -31.5t-27 -22.5t-36 -8.5q-15 0 -31.5 5t-32 10.5t-29 10.5t-21.5 5q-18 0 -28 -31z" />
    <glyph glyph-name="Otilde" unicode="&#xd5;" horiz-adv-x="588" 
d="M556 331q0 -178 -65 -260.5t-197 -82.5t-197 82.5t-65 260.5q0 180 64.5 262.5t197.5 82.5t197.5 -82.5t64.5 -262.5zM378 332q0 63 -5 106t-15.5 69.5t-26 37.5t-36.5 11q-22 0 -38 -11t-26.5 -37.5t-15.5 -69.5t-5 -106t5 -106t15.5 -69.5t26.5 -37.5t38 -11
q21 0 36.5 11t26 37.5t15.5 69.5t5 106zM132 801q3 16 10.5 33t19.5 31t29 23t41 9q16 0 32 -5t30 -10.5t25 -10.5t18 -5q8 0 15.5 7t12.5 24l82 -31q-4 -17 -11.5 -34.5t-18.5 -31.5t-27 -22.5t-36 -8.5q-15 0 -31.5 5t-32 10.5t-29 10.5t-21.5 5q-18 0 -28 -31z" />
    <glyph glyph-name="OE" unicode="&#x152;" horiz-adv-x="808" 
d="M761 665v-118h-210v-151h197v-119h-197v-91q0 -42 15 -55t37 -13h167v-118h-175q-53 0 -89.5 7t-59.5 28q-49 -47 -152 -47q-132 0 -197 82.5t-65 260.5q0 180 64.5 262.5t197.5 82.5q32 0 63 -7.5t48 -24.5v21h356zM378 332q0 63 -5 106t-15.5 69.5t-26 37.5t-36.5 11
q-22 0 -38 -11t-26.5 -37.5t-15.5 -69.5t-5 -106t5 -106t15.5 -69.5t26.5 -37.5t38 -11q21 0 36.5 11t26 37.5t15.5 69.5t5 106z" />
    <glyph glyph-name="oe" unicode="&#x153;" horiz-adv-x="712" 
d="M464 199q3 -54 20 -74.5t57 -20.5q11 0 27 1.5t33 4t34 6t31 7.5l14 -110q-32 -13 -75 -19t-86 -6q-45 0 -79.5 8.5t-60.5 28.5q-46 -37 -134 -37q-106 0 -162 61t-56 195t56 194.5t162 60.5q81 0 128 -32q22 18 54.5 25t75.5 7q99 0 141 -57t42 -157v-86h-222zM290 244
q0 78 -10 108.5t-35 30.5t-35 -30.5t-10 -108.5t10 -109t35 -31t35 31t10 109zM530 287q3 48 -4 79t-28 31q-22 0 -29.5 -30.5t-5.5 -79.5h67z" />
    <glyph glyph-name="endash" unicode="&#x2013;" horiz-adv-x="517" 
d="M472 324v-106h-426v106h426z" />
    <glyph glyph-name="emdash" unicode="&#x2014;" horiz-adv-x="683" 
d="M638 324v-106h-592v106h592z" />
    <glyph glyph-name="quotedblleft" unicode="&#x201c;" horiz-adv-x="422" 
d="M208 452l41 213h118l-11 -213h-148zM19 452l76 213h121l-44 -213h-153z" />
    <glyph glyph-name="quotedblright" unicode="&#x201d;" horiz-adv-x="422" 
d="M214 665l-41 -213h-118l11 213h148zM403 665l-76 -213h-121l44 213h153z" />
    <glyph glyph-name="quoteleft" unicode="&#x2018;" horiz-adv-x="234" 
d="M7 452l66 213h123l-29 -213h-160z" />
    <glyph glyph-name="quoteright" unicode="&#x2019;" horiz-adv-x="234" 
d="M223 665l-66 -213h-123l29 213h160z" />
    <glyph glyph-name="divide" unicode="&#xf7;" 
d="M342 502q0 -32 -22 -49.5t-61 -17.5q-41 0 -62.5 17.5t-21.5 49.5t21.5 49.5t62.5 17.5q39 0 61 -17.5t22 -49.5zM472 372v-107h-426v107h426zM342 135q0 -32 -22 -49.5t-61 -17.5q-41 0 -62.5 17.5t-21.5 49.5t21.5 49.5t62.5 17.5q39 0 61 -17.5t22 -49.5z" />
    <glyph glyph-name="lozenge" unicode="&#x25ca;" 
d="M207 666h103l167 -333l-167 -333h-103l-167 333zM259 509l-82 -176l82 -176l81 176z" />
    <glyph glyph-name="ydieresis" unicode="&#xff;" horiz-adv-x="502" 
d="M212 487v-307q0 -35 10 -49.5t29 -14.5q9 0 17 1t13 3v367h168v-462q0 -69 -17 -113t-47 -68.5t-71.5 -34t-89.5 -9.5q-20 0 -43 2.5t-44.5 6t-39.5 8t-28 8.5l13 114q28 -8 65 -15.5t72 -7.5t48.5 17t13.5 62v10q-9 -2 -23.5 -3.5t-27.5 -1.5q-41 0 -75 9.5t-58.5 31.5
t-38 57.5t-13.5 87.5v301h167zM235 651q0 -31 -21 -47.5t-59 -16.5t-59 16.5t-21 47.5t21 47.5t59 16.5t59 -16.5t21 -47.5zM420 651q0 -31 -21 -47.5t-59 -16.5t-59 16.5t-21 47.5t21 47.5t59 16.5t59 -16.5t21 -47.5z" />
    <glyph glyph-name="Ydieresis" unicode="&#x178;" horiz-adv-x="550" 
d="M279 835q0 -31 -21 -47.5t-59 -16.5t-59 16.5t-21 47.5t21 47.5t59 16.5t59 -16.5t21 -47.5zM464 835q0 -31 -21 -47.5t-59 -16.5t-59 16.5t-21 47.5t21 47.5t59 16.5t59 -16.5t21 -47.5zM190 232l-192 433h181l108 -281q18 36 33 69.5t27.5 67t23 69t18.5 75.5h163
q-32 -127 -79 -231.5t-113 -197.5v-236h-170v232z" />
    <glyph glyph-name="fraction" unicode="&#x2044;" horiz-adv-x="484" 
d="M473 665l-343 -665h-119l343 665h119z" />
    <glyph glyph-name="Euro" unicode="&#x20ac;" 
d="M86 437q6 57 21 101.5t42 75t69 46.5t102 16q54 0 98 -5.5t66 -10.5l-18 -123q-26 8 -60.5 13.5t-59.5 5.5q-38 0 -58.5 -26.5t-23.5 -92.5h182l-23 -79h-166q0 -6 -0.5 -15t-0.5 -15q0 -11 0.5 -21t1.5 -21h146l-21 -79h-115q3 -54 21 -76.5t50 -22.5q25 0 62.5 6.5
t65.5 15.5l15 -120q-13 -6 -33 -10t-43 -7t-47 -4.5t-45 -1.5q-53 0 -91 16.5t-64.5 45.5t-43 69.5t-25.5 88.5h-68v79h58q-1 11 -1.5 23t-0.5 23v26h-56v79h64z" />
    <glyph glyph-name="guilsinglleft" unicode="&#x2039;" horiz-adv-x="330" 
d="M300 452l-99 -181l99 -181h-143l-127 181l127 181h143z" />
    <glyph glyph-name="guilsinglright" unicode="&#x203a;" horiz-adv-x="330" 
d="M173 452l127 -181l-127 -181h-143l99 181l-99 181h143z" />
    <glyph glyph-name="daggerdbl" unicode="&#x2021;" horiz-adv-x="407" 
d="M130 547v118h146v-118h104v-105h-104v-71h104v-106h-104v-117h-146v117h-104v106h104v71h-104v105h104z" />
    <glyph glyph-name="periodcentered" unicode="&#xb7;" horiz-adv-x="254" 
d="M127 355q45 0 71.5 -22t26.5 -63q0 -40 -26.5 -62t-71.5 -22t-71.5 22t-26.5 62q0 41 26.5 63t71.5 22z" />
    <glyph glyph-name="quotesinglbase" unicode="&#x201a;" horiz-adv-x="234" 
d="M223 52l-66 -213h-123l29 213h160z" />
    <glyph glyph-name="quotedblbase" unicode="&#x201e;" horiz-adv-x="422" 
d="M214 53l-41 -213h-118l11 213h148zM403 53l-76 -213h-121l44 213h153z" />
    <glyph glyph-name="perthousand" unicode="&#x2030;" horiz-adv-x="1077" 
d="M898 264q-14 0 -21.5 -20.5t-7.5 -74.5q0 -55 7.5 -76t21.5 -21q15 0 21 21t6 75q0 55 -6 75.5t-21 20.5zM898 345q33 0 61.5 -9.5t49 -30.5t32 -55t11.5 -82q0 -47 -11.5 -80.5t-32 -55.5t-49 -32t-61.5 -10t-61.5 10t-49 32t-32 56t-11.5 81q0 48 11.5 81.5t32 54.5
t49 30.5t61.5 9.5zM179 595q-14 0 -21.5 -20.5t-7.5 -74.5q0 -55 7.5 -76t21.5 -21q15 0 21 21t6 75q0 55 -6 75.5t-21 20.5zM179 676q33 0 61.5 -9.5t49 -30.5t32 -55t11.5 -82q0 -47 -11.5 -80.5t-32 -55.5t-49 -32t-61.5 -10t-61.5 10t-49 32t-32 56t-11.5 81
q0 48 11.5 81.5t32 54.5t49 30.5t61.5 9.5zM603 665l-345 -665h-119l344 665h120zM564 264q-14 0 -21.5 -20.5t-7.5 -74.5q0 -55 7.5 -76t21.5 -21q15 0 21 21t6 75q0 55 -6 75.5t-21 20.5zM564 345q33 0 61.5 -9.5t49 -30.5t32 -55t11.5 -82q0 -47 -11.5 -80.5t-32 -55.5
t-49 -32t-61.5 -10t-61.5 10t-49 32t-32 56t-11.5 81q0 48 11.5 81.5t32 54.5t49 30.5t61.5 9.5z" />
    <glyph glyph-name="Acircumflex" unicode="&#xc2;" horiz-adv-x="568" 
d="M217 0h-169v432q0 56 11.5 101.5t38.5 77t72 48.5t112 17t112 -17t73 -48.5t40 -77t12 -101.5v-432h-173v216h-129v-216zM346 340v103q0 55 -12.5 84t-51.5 29t-52 -29t-13 -84v-103h129zM358 916l89 -161h-122l-40 80l-41 -80h-122l89 161h147z" />
    <glyph glyph-name="Ecircumflex" unicode="&#xca;" horiz-adv-x="487" 
d="M440 665v-118h-210v-151h197v-119h-197v-91q0 -42 15 -55t37 -13h167v-118h-174q-52 0 -92.5 9t-68 31t-42 58.5t-14.5 91.5v475h382zM325 916l89 -161h-122l-40 80l-41 -80h-122l89 161h147z" />
    <glyph glyph-name="Aacute" unicode="&#xc1;" horiz-adv-x="568" 
d="M217 0h-169v432q0 56 11.5 101.5t38.5 77t72 48.5t112 17t112 -17t73 -48.5t40 -77t12 -101.5v-432h-173v216h-129v-216zM346 340v103q0 55 -12.5 84t-51.5 29t-52 -29t-13 -84v-103h129zM449 916l-108 -161h-118l66 161h160z" />
    <glyph glyph-name="Edieresis" unicode="&#xcb;" horiz-adv-x="487" 
d="M440 665v-118h-210v-151h197v-119h-197v-91q0 -42 15 -55t37 -13h167v-118h-174q-52 0 -92.5 9t-68 31t-42 58.5t-14.5 91.5v475h382zM240 835q0 -31 -21 -47.5t-59 -16.5t-59 16.5t-21 47.5t21 47.5t59 16.5t59 -16.5t21 -47.5zM425 835q0 -31 -21 -47.5t-59 -16.5
t-59 16.5t-21 47.5t21 47.5t59 16.5t59 -16.5t21 -47.5z" />
    <glyph glyph-name="Egrave" unicode="&#xc8;" horiz-adv-x="487" 
d="M440 665v-118h-210v-151h197v-119h-197v-91q0 -42 15 -55t37 -13h167v-118h-174q-52 0 -92.5 9t-68 31t-42 58.5t-14.5 91.5v475h382zM269 916l64 -161h-116l-108 161h160z" />
    <glyph glyph-name="Iacute" unicode="&#xcd;" horiz-adv-x="304" 
d="M238 665v-665h-172v665h172zM316 916l-108 -161h-118l66 161h160z" />
    <glyph glyph-name="Icircumflex" unicode="&#xce;" horiz-adv-x="304" 
d="M238 665v-665h-172v665h172zM226 916l89 -161h-122l-40 80l-41 -80h-122l89 161h147z" />
    <glyph glyph-name="Idieresis" unicode="&#xcf;" horiz-adv-x="304" 
d="M238 665v-665h-172v665h172zM140 835q0 -31 -21 -47.5t-59 -16.5t-59 16.5t-21 47.5t21 47.5t59 16.5t59 -16.5t21 -47.5zM325 835q0 -31 -21 -47.5t-59 -16.5t-59 16.5t-21 47.5t21 47.5t59 16.5t59 -16.5t21 -47.5z" />
    <glyph glyph-name="Igrave" unicode="&#xcc;" horiz-adv-x="304" 
d="M238 665v-665h-172v665h172zM143 916l64 -161h-116l-108 161h160z" />
    <glyph glyph-name="Oacute" unicode="&#xd3;" horiz-adv-x="588" 
d="M556 331q0 -178 -65 -260.5t-197 -82.5t-197 82.5t-65 260.5q0 180 64.5 262.5t197.5 82.5t197.5 -82.5t64.5 -262.5zM378 332q0 63 -5 106t-15.5 69.5t-26 37.5t-36.5 11q-22 0 -38 -11t-26.5 -37.5t-15.5 -69.5t-5 -106t5 -106t15.5 -69.5t26.5 -37.5t38 -11
q21 0 36.5 11t26 37.5t15.5 69.5t5 106zM452 916l-108 -161h-118l66 161h160z" />
    <glyph glyph-name="Ocircumflex" unicode="&#xd4;" horiz-adv-x="588" 
d="M556 331q0 -178 -65 -260.5t-197 -82.5t-197 82.5t-65 260.5q0 180 64.5 262.5t197.5 82.5t197.5 -82.5t64.5 -262.5zM378 332q0 63 -5 106t-15.5 69.5t-26 37.5t-36.5 11q-22 0 -38 -11t-26.5 -37.5t-15.5 -69.5t-5 -106t5 -106t15.5 -69.5t26.5 -37.5t38 -11
q21 0 36.5 11t26 37.5t15.5 69.5t5 106zM368 916l89 -161h-122l-40 80l-41 -80h-122l89 161h147z" />
    <glyph glyph-name="Ograve" unicode="&#xd2;" horiz-adv-x="588" 
d="M556 331q0 -178 -65 -260.5t-197 -82.5t-197 82.5t-65 260.5q0 180 64.5 262.5t197.5 82.5t197.5 -82.5t64.5 -262.5zM378 332q0 63 -5 106t-15.5 69.5t-26 37.5t-36.5 11q-22 0 -38 -11t-26.5 -37.5t-15.5 -69.5t-5 -106t5 -106t15.5 -69.5t26.5 -37.5t38 -11
q21 0 36.5 11t26 37.5t15.5 69.5t5 106zM288 916l64 -161h-116l-108 161h160z" />
    <glyph glyph-name="Uacute" unicode="&#xda;" horiz-adv-x="600" 
d="M228 665v-456q0 -55 19.5 -78t54.5 -23q22 0 39 3t25 5v549h172v-632q-21 -7 -47.5 -15t-57 -15t-65 -11.5t-71.5 -4.5q-67 0 -113 15.5t-74.5 45t-41 73t-12.5 99.5v445h172zM464 916l-108 -161h-118l66 161h160z" />
    <glyph glyph-name="Ucircumflex" unicode="&#xdb;" horiz-adv-x="600" 
d="M228 665v-456q0 -55 19.5 -78t54.5 -23q22 0 39 3t25 5v549h172v-632q-21 -7 -47.5 -15t-57 -15t-65 -11.5t-71.5 -4.5q-67 0 -113 15.5t-74.5 45t-41 73t-12.5 99.5v445h172zM376 916l89 -161h-122l-40 80l-41 -80h-122l89 161h147z" />
    <glyph glyph-name="Ugrave" unicode="&#xd9;" horiz-adv-x="600" 
d="M228 665v-456q0 -55 19.5 -78t54.5 -23q22 0 39 3t25 5v549h172v-632q-21 -7 -47.5 -15t-57 -15t-65 -11.5t-71.5 -4.5q-67 0 -113 15.5t-74.5 45t-41 73t-12.5 99.5v445h172zM290 916l64 -161h-116l-108 161h160z" />
    <glyph glyph-name="dotlessi" unicode="&#x131;" horiz-adv-x="260" 
d="M208 487v-487h-155v487h155z" />
    <glyph glyph-name="circumflex" unicode="&#x2c6;" horiz-adv-x="474" 
d="M310 730l89 -161h-122l-40 80l-41 -80h-122l89 161h147z" />
    <glyph glyph-name="tilde" unicode="&#x2dc;" horiz-adv-x="474" 
d="M74 616q3 16 10.5 33t19.5 31t29 23t41 9q16 0 32 -5t30 -10.5t25 -10.5t18 -5q8 0 15.5 7t12.5 24l82 -31q-4 -17 -11.5 -34.5t-18.5 -31.5t-27 -22.5t-36 -8.5q-15 0 -31.5 5t-32 10.5t-29 10.5t-21.5 5q-18 0 -28 -31z" />
    <glyph glyph-name="macron" unicode="&#xaf;" horiz-adv-x="474" 
d="M375 694v-90h-276v90h276z" />
    <glyph glyph-name="breve" unicode="&#x2d8;" horiz-adv-x="474" 
d="M200 722q1 -29 10 -41.5t27 -12.5t27 12.5t10 41.5h111q-2 -41 -13 -68.5t-30.5 -44.5t-46 -24.5t-58.5 -7.5t-58.5 7.5t-46 24.5t-31 44.5t-13.5 68.5h112z" />
    <glyph glyph-name="dotaccent" unicode="&#x2d9;" horiz-adv-x="474" 
d="M320 651q0 -32 -21.5 -49.5t-61.5 -17.5t-61.5 17.5t-21.5 49.5t21.5 49.5t61.5 17.5t61.5 -17.5t21.5 -49.5z" />
    <glyph glyph-name="ring" unicode="&#x2da;" horiz-adv-x="474" 
d="M355 649q0 -51 -32 -72t-86 -21t-86 21t-32 72t32 72t86 21t86 -21t32 -72zM269 649q0 32 -32 32q-33 0 -33 -32t33 -32q32 0 32 32z" />
    <glyph glyph-name="cedilla" unicode="&#xb8;" horiz-adv-x="474" 
d="M301 -35q14 -18 22.5 -37.5t8.5 -39.5q0 -42 -23.5 -67t-86.5 -25q-23 0 -50 5t-52 17l13 86q12 -5 24.5 -9t26.5 -4q10 0 14.5 5t4.5 19q0 13 -5.5 26t-11.5 24h115z" />
    <glyph glyph-name="hungarumlaut" unicode="&#x2dd;" horiz-adv-x="474" 
d="M425 730l-67 -161h-104l35 161h136zM247 730l-34 -161h-102l17 161h119z" />
    <glyph glyph-name="ogonek" unicode="&#x2db;" horiz-adv-x="474" 
d="M338 -182q-20 -9 -45.5 -13.5t-50.5 -4.5q-48 0 -80.5 19.5t-32.5 68.5q0 35 18 65t44 47h110q-15 -15 -28.5 -37t-13.5 -45q0 -24 20 -24q11 0 22.5 3t22.5 8z" />
    <glyph glyph-name="caron" unicode="&#x2c7;" horiz-adv-x="474" 
d="M163 569l-89 161h122l41 -80l40 80h122l-89 -161h-147z" />
    <glyph glyph-name="commaaccentcomb" horiz-adv-x="474" 
d="M352 -46l-92 -142h-118l50 142h160z" />
    <glyph glyph-name="apple" horiz-adv-x="1114" 
d="M828 784h5q30 0 42 -38l47 -156l-499 59l-56 -72l217 -33l-123 -351l-317 23q-13 1 -26 4.5t-23.5 10t-17 16t-6.5 22.5q0 5 1 12t3 14l153 410q7 16 29 26.5t48 12.5zM176 290q-1 -5 -1.5 -9t-0.5 -7q0 -16 12 -25t31 -11l226 -21l97 265l-188 27l-8 68l71 89l481 -54
l-34 112q-5 14 -17.5 18.5t-24.5 5.5l-452 -34q-16 -1 -33.5 -8.5t-23.5 -26.5zM951 486l80 -279q1 -2 1 -9q0 -19 -16 -29.5t-42 -10.5l-234 13v348zM822 190l151 -12h3q14 0 22.5 8.5t8.5 18.5q0 6 -1 7l-65 211l-119 22v-255zM68 9h25q19 -1 32 10t13 38q0 29 -13 40
t-32 10h-25v-98zM95 122q27 0 44.5 -15.5t18.5 -49.5q-1 -33 -18.5 -48t-44.5 -15h-45v128h45zM240 52q-3 21 -23 21q-12 0 -19 -8t-7 -21zM192 32q1 -13 8.5 -19t18.5 -6q9 -1 15.5 3t11.5 11l12 -6q-6 -10 -15.5 -16t-23.5 -6q-21 0 -34 12.5t-14 35.5q1 19 13 32t33 14
q22 -1 32 -13t11 -32zM287 21q8 -14 25 -14q22 0 19 13q1 7 -7.5 9.5t-19 5.5t-19.5 8t-9 17t10 19t27 8q25 -1 36 -18l-12 -8q-6 12 -25 12q-18 0 -18 -13q0 -7 8.5 -9.5t19 -5t19 -8t8.5 -17.5q0 -13 -9.5 -20t-26.5 -7q-15 0 -25 6t-15 16zM392 113q-2 -8 -11 -8
q-10 0 -10 8q0 9 10 9q9 0 11 -9zM390 86v-92h-18v92h18zM481 69q-7 4 -21 4q-12 0 -20 -8t-8 -24q0 -32 26 -32q17 0 23 13v47zM500 -8q0 -39 -43 -39q-28 0 -41 21l12 9q5 -8 11.5 -12t17.5 -4q26 0 24 24v16q-8 -13 -27 -13q-20 0 -30 12.5t-11 34.5q1 23 14.5 34.5
t33.5 11.5q26 -2 39 -11v-84zM548 86v-17q10 16 32 18q31 -1 32 -31v-62h-19v62q0 17 -18 17q-10 0 -15.5 -4.5t-10.5 -11.5v-63h-17v92h16zM701 52q-3 21 -23 21q-13 0 -20.5 -8t-7.5 -21zM652 32q3 -25 28 -25q18 -2 25 14l14 -6q-5 -10 -15 -16t-24 -6q-47 0 -47 48
q0 19 12 32t33 14q22 -1 32.5 -13t10.5 -32zM803 63q-8 10 -23 10q-13 0 -20 -9t-7 -24t7 -24t20 -9q15 0 23 13v43zM822 126v-108q0 -5 0.5 -12t2.5 -12l-16 -1q0 3 -1 6.5t-1 7.5q-5 -6 -12.5 -10t-18.5 -4q-19 0 -30.5 13t-11.5 35q0 21 13 33t30 13q20 -1 26 -10v49h19z
M921 20q10 -13 24 -13t20.5 9.5t6.5 24.5q0 32 -27 32q-8 0 -13.5 -4.5t-10.5 -10.5v-38zM921 126v-54q9 13 31 15q19 -1 28 -13t9 -33q0 -22 -10.5 -35t-28.5 -13q-23 0 -32 14q0 -8 -3 -14l-16 1q2 6 3.5 12.5t1.5 11.5v108h17zM1016 86l27 -75l27 75h18l-40 -100
q-6 -17 -16 -25t-29 -9l-4 13q23 1 31 21l3 7l-35 93h18zM204 -62l-1 -14h-39v-113h-18v113h-39v14h97zM312 -163q6 -13 24 -13q13 0 19 9t6 24q0 32 -24 32q-16 0 -25 -14v-38zM309 -97v-15q12 14 33 16q20 -1 29 -13.5t9 -33.5q1 -21 -9 -34.5t-32 -13.5q-10 0 -16.5 4
t-10.5 8v-50l-18 -1v132zM440 -96q22 -1 34 -14t13 -33q-1 -21 -13 -34t-34 -14q-21 1 -33 14t-13 34q1 20 13 33t33 14zM440 -111q-13 0 -20 -9t-7 -23q0 -15 7 -24t20 -9t20 9t7 24q0 14 -7 23t-20 9zM527 -163q8 -13 23 -13q14 0 20 9t6 24t-5.5 23.5t-19.5 8.5
q-15 0 -24 -14v-38zM525 -97v-15q10 14 33 16q18 -1 27.5 -13.5t9.5 -33.5q2 -21 -9 -34.5t-31 -13.5q-9 0 -16 4t-12 8v-50l-18 -1v132zM637 -57v-54q10 13 31 15q31 -1 32 -31v-62h-19v62q0 16 -18 16t-26 -16v-62h-18v131zM721 -115q6 7 15.5 12.5t24.5 6.5
q20 -2 27.5 -11t7.5 -21v-37q0 -5 1 -11.5t3 -11.5l-16 -3q-1 4 -1 7.5t-2 7.5q-4 -6 -11 -10.5t-18 -4.5q-32 0 -32 26q-1 17 19 24q5 2 17 4t22 3v7q0 7 -4 11.5t-16 4.5q-10 0 -15 -3.5t-9 -8.5zM778 -146q-8 -1 -17.5 -3t-14.5 -3q-9 -4 -9 -11q0 -13 18 -13q17 0 23 14
v16zM885 -115q-8 6 -21 4q-13 0 -21 -7.5t-8 -24.5q0 -31 27 -32q16 2 23 14v46zM902 -191q0 -39 -41 -39q-31 0 -41 21l12 9q5 -8 11.5 -12t17.5 -4q26 0 24 24v16q-8 -13 -28 -13q-19 0 -29 12.5t-10 33.5q0 23 13.5 35t33.5 12q11 -1 21 -3.5t16 -7.5v-84zM994 -131
q-1 20 -23 20q-12 0 -19 -8t-7 -20zM945 -151q2 -13 9.5 -19t18.5 -6q18 -1 25 13l13 -5q-5 -10 -14 -16.5t-24 -6.5q-21 0 -33.5 12.5t-13.5 35.5q1 20 13 33t32 14q21 -1 31.5 -13t12.5 -32zM204 -98l27 -75l27 75h18l-40 -100q-6 -17 -16 -25t-29 -9l-4 13q23 1 31 21
l4 7l-36 93h18z" />
    <glyph glyph-name="brokenbar" unicode="&#xa6;" horiz-adv-x="271" 
d="M204 800v-401h-137v401h137zM204 201v-401h-137v401h137z" />
    <glyph glyph-name="twosuperior" unicode="&#xb2;" horiz-adv-x="298" 
d="M29 660q18 6 46.5 11t57.5 5q60 0 94.5 -25t34.5 -79q0 -23 -6.5 -41.5t-17 -35t-24 -30.5t-28.5 -28l-28 -27h109v-78h-238v63l55 63q29 32 43.5 54.5t14.5 50.5q0 18 -10.5 24.5t-26.5 6.5t-33.5 -4t-32.5 -9z" />
    <glyph glyph-name="threesuperior" unicode="&#xb3;" horiz-adv-x="298" 
d="M262 665v-62l-84 -79q36 -2 63 -25.5t27 -66.5q0 -66 -40 -90.5t-106 -24.5q-29 0 -58 6.5t-42 12.5l10 76q9 -3 21 -6t24.5 -5.5t23.5 -4t19 -1.5q14 0 22.5 7.5t8.5 26.5t-7.5 26t-23.5 7h-56v54l75 74h-107v75h230z" />
    <glyph glyph-name="onesuperior" unicode="&#xb9;" horiz-adv-x="298" 
d="M122 665h87v-334h-118v239l-57 -16v84z" />
    <glyph glyph-name="onequarter" unicode="&#xbc;" horiz-adv-x="691" 
d="M634 343v-202h34v-73h-34v-68h-114v68h-122v58l90 217h146zM520 141v124l-48 -124h48zM566 665l-343 -665h-119l343 665h119zM122 665h87v-334h-118v239l-57 -16v84z" />
    <glyph glyph-name="onehalf" unicode="&#xbd;" horiz-adv-x="688" 
d="M122 665h87v-334h-118v239l-57 -16v84zM412 328q18 6 46.5 11t57.5 5q60 0 94.5 -25t34.5 -79q0 -23 -6.5 -41.5t-17 -35t-24 -30.5t-28.5 -28l-28 -27h109v-78h-238v63l55 63q29 32 43.5 54.5t14.5 50.5q0 18 -10.5 24.5t-26.5 6.5t-33.5 -4t-32.5 -9zM566 665
l-343 -665h-119l343 665h119z" />
    <glyph glyph-name="threequarters" unicode="&#xbe;" horiz-adv-x="685" 
d="M628 343v-202h34v-73h-34v-68h-114v68h-122v58l90 217h146zM514 141v124l-48 -124h48zM282 665v-62l-84 -79q36 -2 63 -25.5t27 -66.5q0 -66 -40 -90.5t-106 -24.5q-29 0 -58 6.5t-42 12.5l10 76q9 -3 21 -6t24.5 -5.5t23.5 -4t19 -1.5q14 0 22.5 7.5t8.5 26.5t-7.5 26
t-23.5 7h-56v54l75 74h-107v75h230zM594 665l-343 -665h-119l343 665h119z" />
    <glyph glyph-name="Eth" unicode="&#xd0;" horiz-adv-x="604" 
d="M308 665q125 0 194.5 -77t69.5 -245q0 -75 -12 -140t-44.5 -112.5t-89.5 -75t-147 -27.5q-40 0 -88.5 6.5t-107.5 20.5v261h-67v116h67v273h225zM255 392h72v-116h-72v-166q8 -1 14.5 -1h13.5q34 0 56 15t35 44t18 72t5 100q0 58 -6 97.5t-17 64t-28 35t-38 10.5h-53
v-155z" />
    <glyph glyph-name="multiply" unicode="&#xd7;" 
d="M174 317l-117 135l82 85l119 -124l120 125l82 -86l-119 -135l119 -134l-83 -87l-119 126l-119 -125l-83 85l118 135v0z" />
    <glyph glyph-name="Yacute" unicode="&#xdd;" horiz-adv-x="550" 
d="M447 916l-108 -161h-118l66 161h160zM190 232l-192 433h181l108 -281q18 36 33 69.5t27.5 67t23 69t18.5 75.5h163q-32 -127 -79 -231.5t-113 -197.5v-236h-170v232z" />
    <glyph glyph-name="Thorn" unicode="&#xde;" horiz-adv-x="532" 
d="M238 665v-109h29q58 0 102 -11t73 -37t44 -68t15 -103q0 -64 -16 -107t-44.5 -69.5t-68 -37.5t-85.5 -11q-25 0 -49 3v-115h-172v665h172zM238 235q8 -1 14.5 -1.5t12.5 -0.5q35 0 50.5 24.5t15.5 79.5q0 30 -4 50t-12 31t-20 15.5t-28 4.5h-29v-203z" />
    <glyph glyph-name="eth" unicode="&#xf0;" horiz-adv-x="492" 
d="M321 730q17 -21 27 -36.5t18 -27.5l103 23v-91l-62 -13q17 -44 27.5 -83t16.5 -76t8.5 -74t2.5 -77q0 -66 -13.5 -119.5t-40.5 -90.5t-68 -57t-96 -20q-105 0 -161 60.5t-56 195.5q0 125 51 190t149 65q17 0 35.5 -4t32.5 -9q-5 17 -12 36t-13 31l-155 -35v92l115 25
q-11 21 -26 46.5t-31 48.5h148zM289 244q0 78 -10 108.5t-36 30.5q-25 0 -35 -30.5t-10 -108.5t10 -109t35 -31q26 0 36 31t10 109z" />
    <glyph glyph-name="yacute" unicode="&#xfd;" horiz-adv-x="502" 
d="M212 487v-307q0 -35 10 -49.5t29 -14.5q9 0 17 1t13 3v367h168v-462q0 -69 -17 -113t-47 -68.5t-71.5 -34t-89.5 -9.5q-20 0 -43 2.5t-44.5 6t-39.5 8t-28 8.5l13 114q28 -8 65 -15.5t72 -7.5t48.5 17t13.5 62v10q-9 -2 -23.5 -3.5t-27.5 -1.5q-41 0 -75 9.5t-58.5 31.5
t-38 57.5t-13.5 87.5v301h167zM411 730l-108 -161h-118l66 161h160z" />
    <glyph glyph-name="thorn" unicode="&#xfe;" horiz-adv-x="495" 
d="M50 730h168v-232q8 1 17 1.5t17 0.5q47 0 87 -13.5t68.5 -43t44.5 -76.5t16 -114q0 -75 -15 -126t-42 -81.5t-63.5 -44t-79.5 -13.5q-11 0 -25 1.5t-26 3.5v-181h-167v918zM251 384q-8 0 -16.5 -1t-16.5 -3v-273q11 -2 18.5 -2.5t16.5 -0.5q23 0 33 31.5t10 116.5
q0 40 -3 65.5t-8.5 40.5t-14 20.5t-19.5 5.5z" />
    <glyph glyph-name="Amacron" unicode="&#x100;" horiz-adv-x="568" 
d="M217 0h-169v432q0 56 11.5 101.5t38.5 77t72 48.5t112 17t112 -17t73 -48.5t40 -77t12 -101.5v-432h-173v216h-129v-216zM346 340v103q0 55 -12.5 84t-51.5 29t-52 -29t-13 -84v-103h129zM422 880v-90h-276v90h276z" />
    <glyph glyph-name="amacron" unicode="&#x101;" horiz-adv-x="455" 
d="M53 477q34 11 76.5 16.5t78.5 5.5q44 0 81.5 -8.5t65 -28t43 -51t15.5 -77.5v-309q-17 -6 -39.5 -13t-48.5 -12t-54 -8.5t-55 -3.5q-41 0 -76.5 7.5t-61.5 26.5t-40.5 51.5t-14.5 81.5q0 44 15 73t39.5 46.5t56 25t64.5 7.5q24 0 47 -3v25q0 32 -11.5 43t-36.5 11
q-34 0 -69 -4.5t-69 -13.5zM245 213q-6 1 -12.5 1.5t-10.5 0.5q-21 0 -32 -15.5t-11 -51.5q0 -34 10.5 -48.5t30.5 -14.5q5 0 12.5 0.5t12.5 1.5v126zM365 694v-90h-276v90h276z" />
    <glyph glyph-name="Abreve" unicode="&#x102;" horiz-adv-x="568" 
d="M217 0h-169v432q0 56 11.5 101.5t38.5 77t72 48.5t112 17t112 -17t73 -48.5t40 -77t12 -101.5v-432h-173v216h-129v-216zM346 340v103q0 55 -12.5 84t-51.5 29t-52 -29t-13 -84v-103h129zM248 908q1 -29 10 -41.5t27 -12.5t27 12.5t10 41.5h111q-2 -41 -13 -68.5
t-30.5 -44.5t-46 -24.5t-58.5 -7.5t-58.5 7.5t-46 24.5t-31 44.5t-13.5 68.5h112z" />
    <glyph glyph-name="abreve" unicode="&#x103;" horiz-adv-x="455" 
d="M53 477q34 11 76.5 16.5t78.5 5.5q44 0 81.5 -8.5t65 -28t43 -51t15.5 -77.5v-309q-17 -6 -39.5 -13t-48.5 -12t-54 -8.5t-55 -3.5q-41 0 -76.5 7.5t-61.5 26.5t-40.5 51.5t-14.5 81.5q0 44 15 73t39.5 46.5t56 25t64.5 7.5q24 0 47 -3v25q0 32 -11.5 43t-36.5 11
q-34 0 -69 -4.5t-69 -13.5zM245 213q-6 1 -12.5 1.5t-10.5 0.5q-21 0 -32 -15.5t-11 -51.5q0 -34 10.5 -48.5t30.5 -14.5q5 0 12.5 0.5t12.5 1.5v126zM191 722q1 -29 10 -41.5t27 -12.5t27 12.5t10 41.5h111q-2 -41 -13 -68.5t-30.5 -44.5t-46 -24.5t-58.5 -7.5t-58.5 7.5
t-46 24.5t-31 44.5t-13.5 68.5h112z" />
    <glyph glyph-name="Aogonek" unicode="&#x104;" horiz-adv-x="568" 
d="M556 -182q-20 -9 -45.5 -13.5t-50.5 -4.5q-48 0 -80.5 19.5t-32.5 68.5q0 35 18 65t44 47h-63v216h-129v-216h-169v432q0 56 11.5 101.5t38.5 77t72 48.5t112 17t112 -17t73 -48.5t40 -77t12 -101.5v-432q-15 -15 -28.5 -37t-13.5 -45q0 -24 20 -24q11 0 22.5 3t22.5 8z
M346 340v103q0 55 -12.5 84t-51.5 29t-52 -29t-13 -84v-103h129z" />
    <glyph glyph-name="aogonek" unicode="&#x105;" horiz-adv-x="455" 
d="M450 -157q-20 -9 -45.5 -13.5t-50.5 -4.5q-48 0 -80.5 19.5t-32.5 68.5q0 22 10 42t24 37q-15 -2 -30 -3t-29 -1q-41 0 -76.5 7.5t-61.5 26.5t-40.5 51.5t-14.5 81.5q0 44 15 73t39.5 46.5t56 25t64.5 7.5q24 0 47 -3v25q0 32 -11.5 43t-36.5 11q-34 0 -69 -4.5
t-69 -13.5l-6 112q34 11 76.5 16.5t78.5 5.5q44 0 81.5 -8.5t65 -28t43 -51t15.5 -77.5v-309q-15 -15 -28.5 -37t-13.5 -45q0 -24 20 -24q11 0 22.5 3t22.5 8zM245 213q-6 1 -12.5 1.5t-10.5 0.5q-21 0 -32 -15.5t-11 -51.5q0 -34 10.5 -48.5t30.5 -14.5q5 0 12.5 0.5
t12.5 1.5v126z" />
    <glyph glyph-name="Cacute" unicode="&#x106;" horiz-adv-x="491" 
d="M446 534q-23 7 -57.5 14.5t-71.5 7.5q-27 0 -47.5 -10t-33.5 -34.5t-19.5 -67t-6.5 -108.5q0 -69 6 -112.5t19 -68t33.5 -34t48.5 -9.5q14 0 33 2t38.5 5.5t37 7.5t28.5 8l9 -122q-12 -5 -29.5 -9.5t-38.5 -8t-43 -6t-42 -2.5q-67 0 -119 17.5t-87 58.5t-53.5 107.5
t-18.5 165.5q0 94 18 158.5t53 105t87 58.5t120 18q21 0 42.5 -1.5t41.5 -4.5t37.5 -6.5t29.5 -7.5zM429 916l-108 -161h-118l66 161h160z" />
    <glyph glyph-name="cacute" unicode="&#x107;" horiz-adv-x="379" 
d="M343 373q-18 4 -42 7t-42 3q-16 0 -27.5 -5t-18.5 -20t-10 -42t-3 -72q0 -76 10.5 -108t46.5 -32q21 0 44 4.5t46 11.5l12 -113q-24 -6 -53 -12.5t-69 -6.5q-48 0 -87 14.5t-66.5 45.5t-42 80t-14.5 118q0 72 16 120.5t44.5 78t69 42t90.5 12.5q26 0 58 -4t51 -9z
M378 730l-108 -161h-118l66 161h160z" />
    <glyph glyph-name="Ccircumflex" unicode="&#x108;" horiz-adv-x="491" 
d="M446 534q-23 7 -57.5 14.5t-71.5 7.5q-27 0 -47.5 -10t-33.5 -34.5t-19.5 -67t-6.5 -108.5q0 -69 6 -112.5t19 -68t33.5 -34t48.5 -9.5q14 0 33 2t38.5 5.5t37 7.5t28.5 8l9 -122q-12 -5 -29.5 -9.5t-38.5 -8t-43 -6t-42 -2.5q-67 0 -119 17.5t-87 58.5t-53.5 107.5
t-18.5 165.5q0 94 18 158.5t53 105t87 58.5t120 18q21 0 42.5 -1.5t41.5 -4.5t37.5 -6.5t29.5 -7.5zM340 916l89 -161h-122l-40 80l-41 -80h-122l89 161h147z" />
    <glyph glyph-name="ccircumflex" unicode="&#x109;" horiz-adv-x="379" 
d="M343 373q-18 4 -42 7t-42 3q-16 0 -27.5 -5t-18.5 -20t-10 -42t-3 -72q0 -76 10.5 -108t46.5 -32q21 0 44 4.5t46 11.5l12 -113q-24 -6 -53 -12.5t-69 -6.5q-48 0 -87 14.5t-66.5 45.5t-42 80t-14.5 118q0 72 16 120.5t44.5 78t69 42t90.5 12.5q26 0 58 -4t51 -9z
M284 730l89 -161h-122l-40 80l-41 -80h-122l89 161h147z" />
    <glyph glyph-name="Cdotaccent" unicode="&#x10a;" horiz-adv-x="491" 
d="M446 534q-23 7 -57.5 14.5t-71.5 7.5q-27 0 -47.5 -10t-33.5 -34.5t-19.5 -67t-6.5 -108.5q0 -69 6 -112.5t19 -68t33.5 -34t48.5 -9.5q14 0 33 2t38.5 5.5t37 7.5t28.5 8l9 -122q-12 -5 -29.5 -9.5t-38.5 -8t-43 -6t-42 -2.5q-67 0 -119 17.5t-87 58.5t-53.5 107.5
t-18.5 165.5q0 94 18 158.5t53 105t87 58.5t120 18q21 0 42.5 -1.5t41.5 -4.5t37.5 -6.5t29.5 -7.5zM349 835q0 -32 -21.5 -49.5t-61.5 -17.5t-61.5 17.5t-21.5 49.5t21.5 49.5t61.5 17.5t61.5 -17.5t21.5 -49.5z" />
    <glyph glyph-name="cdotaccent" unicode="&#x10b;" horiz-adv-x="379" 
d="M343 373q-18 4 -42 7t-42 3q-16 0 -27.5 -5t-18.5 -20t-10 -42t-3 -72q0 -76 10.5 -108t46.5 -32q21 0 44 4.5t46 11.5l12 -113q-24 -6 -53 -12.5t-69 -6.5q-48 0 -87 14.5t-66.5 45.5t-42 80t-14.5 118q0 72 16 120.5t44.5 78t69 42t90.5 12.5q26 0 58 -4t51 -9z
M294 651q0 -32 -21.5 -49.5t-61.5 -17.5t-61.5 17.5t-21.5 49.5t21.5 49.5t61.5 17.5t61.5 -17.5t21.5 -49.5z" />
    <glyph glyph-name="Ccaron" unicode="&#x10c;" horiz-adv-x="491" 
d="M446 534q-23 7 -57.5 14.5t-71.5 7.5q-27 0 -47.5 -10t-33.5 -34.5t-19.5 -67t-6.5 -108.5q0 -69 6 -112.5t19 -68t33.5 -34t48.5 -9.5q14 0 33 2t38.5 5.5t37 7.5t28.5 8l9 -122q-12 -5 -29.5 -9.5t-38.5 -8t-43 -6t-42 -2.5q-67 0 -119 17.5t-87 58.5t-53.5 107.5
t-18.5 165.5q0 94 18 158.5t53 105t87 58.5t120 18q21 0 42.5 -1.5t41.5 -4.5t37.5 -6.5t29.5 -7.5zM193 755l-89 161h122l41 -80l40 80h122l-89 -161h-147z" />
    <glyph glyph-name="ccaron" unicode="&#x10d;" horiz-adv-x="379" 
d="M343 373q-18 4 -42 7t-42 3q-16 0 -27.5 -5t-18.5 -20t-10 -42t-3 -72q0 -76 10.5 -108t46.5 -32q21 0 44 4.5t46 11.5l12 -113q-24 -6 -53 -12.5t-69 -6.5q-48 0 -87 14.5t-66.5 45.5t-42 80t-14.5 118q0 72 16 120.5t44.5 78t69 42t90.5 12.5q26 0 58 -4t51 -9z
M137 569l-89 161h122l41 -80l40 80h122l-89 -161h-147z" />
    <glyph glyph-name="Dcaron" unicode="&#x10e;" horiz-adv-x="583" 
d="M288 665q125 0 194.5 -77t69.5 -245q0 -75 -12 -140t-44.5 -112.5t-90 -75t-147.5 -27.5q-39 0 -87.5 6.5t-107.5 20.5v650h225zM235 109q8 -1 14.5 -1h13.5q34 0 56 15t35 44.5t18 72.5t5 100q0 58 -6 97.5t-17 64t-28 35t-38 10.5h-53v-438zM216 755l-89 161h122
l41 -80l40 80h122l-89 -161h-147z" />
    <glyph glyph-name="dcaron" unicode="&#x10f;" horiz-adv-x="619" 
d="M635 665l-66 -213h-103l29 213h140zM445 23q-19 -7 -46 -13t-55.5 -11t-56 -8t-48.5 -3q-46 0 -84.5 13.5t-67 44t-44.5 81.5t-16 126q0 67 15 114t42 76t65.5 42.5t85.5 13.5q19 0 42 -3v234h168v-707zM278 379q-9 2 -17.5 3t-15.5 1q-11 0 -19.5 -5.5t-14 -20.5
t-8.5 -40.5t-3 -65.5q0 -84 9.5 -115.5t33.5 -31.5q8 0 16 0.5t19 2.5v272z" />
    <glyph glyph-name="Dcroat" unicode="&#x110;" horiz-adv-x="604" 
d="M308 665q125 0 194.5 -77t69.5 -245q0 -75 -12 -140t-44.5 -112.5t-89.5 -75t-147 -27.5q-40 0 -88.5 6.5t-107.5 20.5v261h-67v116h67v273h225zM255 392h72v-116h-72v-166q8 -1 14.5 -1h13.5q34 0 56 15t35 44t18 72t5 100q0 58 -6 97.5t-17 64t-28 35t-38 10.5h-53
v-155z" />
    <glyph glyph-name="dcroat" unicode="&#x111;" horiz-adv-x="543" 
d="M445 665h82v-95h-82v-547q-19 -7 -46 -13t-55.5 -11t-56 -8t-48.5 -3q-46 0 -84.5 13.5t-67 44t-44.5 81.5t-16 126q0 67 15 114t42 76t65.5 42.5t85.5 13.5q19 0 42 -3v74h-127v95h127v65h168v-65zM278 379q-9 2 -17.5 3t-15.5 1q-11 0 -19.5 -5.5t-14 -20.5t-8.5 -40.5
t-3 -65.5q0 -84 9.5 -115.5t33.5 -31.5q8 0 16 0.5t19 2.5v272z" />
    <glyph glyph-name="Emacron" unicode="&#x112;" horiz-adv-x="487" 
d="M440 665v-118h-210v-151h197v-119h-197v-91q0 -42 15 -55t37 -13h167v-118h-174q-52 0 -92.5 9t-68 31t-42 58.5t-14.5 91.5v475h382zM390 880v-90h-276v90h276z" />
    <glyph glyph-name="emacron" unicode="&#x113;" horiz-adv-x="449" 
d="M201 199q2 -54 19.5 -74.5t57.5 -20.5q22 0 57.5 5.5t67.5 13.5l13 -110q-28 -12 -72.5 -18.5t-87.5 -6.5q-49 0 -91 11.5t-72.5 40.5t-48 78.5t-17.5 125.5q0 75 15 124t43 78.5t67 41t87 11.5q50 0 85 -14.5t57 -42.5t32 -67.5t10 -89.5v-86h-222zM267 287q3 48 -4 79
t-28 31q-22 0 -29.5 -30.5t-5.5 -79.5h67zM373 694v-90h-276v90h276z" />
    <glyph glyph-name="Ebreve" unicode="&#x114;" horiz-adv-x="487" 
d="M440 665v-118h-210v-151h197v-119h-197v-91q0 -42 15 -55t37 -13h167v-118h-174q-52 0 -92.5 9t-68 31t-42 58.5t-14.5 91.5v475h382zM216 907q1 -29 10 -41.5t27 -12.5t27 12.5t10 41.5h111q-2 -41 -13 -68.5t-30.5 -44.5t-46 -24.5t-58.5 -7.5t-58.5 7.5t-46 24.5
t-31 44.5t-13.5 68.5h112z" />
    <glyph glyph-name="ebreve" unicode="&#x115;" horiz-adv-x="449" 
d="M201 199q2 -54 19.5 -74.5t57.5 -20.5q22 0 57.5 5.5t67.5 13.5l13 -110q-28 -12 -72.5 -18.5t-87.5 -6.5q-49 0 -91 11.5t-72.5 40.5t-48 78.5t-17.5 125.5q0 75 15 124t43 78.5t67 41t87 11.5q50 0 85 -14.5t57 -42.5t32 -67.5t10 -89.5v-86h-222zM267 287q3 48 -4 79
t-28 31q-22 0 -29.5 -30.5t-5.5 -79.5h67zM198 722q1 -29 10 -41.5t27 -12.5t27 12.5t10 41.5h111q-2 -41 -13 -68.5t-30.5 -44.5t-46 -24.5t-58.5 -7.5t-58.5 7.5t-46 24.5t-31 44.5t-13.5 68.5h112z" />
    <glyph glyph-name="Edotaccent" unicode="&#x116;" horiz-adv-x="487" 
d="M440 665v-118h-210v-151h197v-119h-197v-91q0 -42 15 -55t37 -13h167v-118h-174q-52 0 -92.5 9t-68 31t-42 58.5t-14.5 91.5v475h382zM335 835q0 -32 -21.5 -49.5t-61.5 -17.5t-61.5 17.5t-21.5 49.5t21.5 49.5t61.5 17.5t61.5 -17.5t21.5 -49.5z" />
    <glyph glyph-name="edotaccent" unicode="&#x117;" horiz-adv-x="449" 
d="M201 199q2 -54 19.5 -74.5t57.5 -20.5q22 0 57.5 5.5t67.5 13.5l13 -110q-28 -12 -72.5 -18.5t-87.5 -6.5q-49 0 -91 11.5t-72.5 40.5t-48 78.5t-17.5 125.5q0 75 15 124t43 78.5t67 41t87 11.5q50 0 85 -14.5t57 -42.5t32 -67.5t10 -89.5v-86h-222zM267 287q3 48 -4 79
t-28 31q-22 0 -29.5 -30.5t-5.5 -79.5h67zM318 651q0 -32 -21.5 -49.5t-61.5 -17.5t-61.5 17.5t-21.5 49.5t21.5 49.5t61.5 17.5t61.5 -17.5t21.5 -49.5z" />
    <glyph glyph-name="Eogonek" unicode="&#x118;" horiz-adv-x="487" 
d="M463 -182q-20 -9 -45.5 -13.5t-50.5 -4.5q-48 0 -80.5 19.5t-32.5 68.5q0 35 18 65t44 47h-41q-52 0 -92.5 9t-68 31t-42 58.5t-14.5 91.5v475h382v-118h-210v-151h197v-119h-197v-91q0 -42 15 -55t37 -13h167v-118h-23q-15 -15 -28.5 -37t-13.5 -45q0 -24 20 -24
q11 0 22.5 3t22.5 8z" />
    <glyph glyph-name="eogonek" unicode="&#x119;" horiz-adv-x="453" 
d="M454 -170q-20 -9 -45.5 -13.5t-50.5 -4.5q-48 0 -80.5 19.5t-32.5 68.5q0 25 9.5 48t25.5 41q-6 -1 -12 -1h-12q-49 0 -91 11.5t-72.5 40.5t-48 78.5t-17.5 125.5q0 75 15 124t43 78.5t67 41t87 11.5q50 0 85 -14.5t57 -42.5t32 -67.5t10 -89.5v-86h-222
q2 -53 19.5 -73.5t57.5 -20.5q22 0 57.5 5.5t67.5 13.5l13 -111q-15 -16 -28 -38t-13 -45q0 -24 20 -24q11 0 22.5 3t22.5 8zM267 287q3 48 -4 79t-28 31q-22 0 -29.5 -30.5t-5.5 -79.5h67z" />
    <glyph glyph-name="Ecaron" unicode="&#x11a;" horiz-adv-x="487" 
d="M440 665v-118h-210v-151h197v-119h-197v-91q0 -42 15 -55t37 -13h167v-118h-174q-52 0 -92.5 9t-68 31t-42 58.5t-14.5 91.5v475h382zM179 755l-89 161h122l41 -80l40 80h122l-89 -161h-147z" />
    <glyph glyph-name="ecaron" unicode="&#x11b;" horiz-adv-x="449" 
d="M201 199q2 -54 19.5 -74.5t57.5 -20.5q22 0 57.5 5.5t67.5 13.5l13 -110q-28 -12 -72.5 -18.5t-87.5 -6.5q-49 0 -91 11.5t-72.5 40.5t-48 78.5t-17.5 125.5q0 75 15 124t43 78.5t67 41t87 11.5q50 0 85 -14.5t57 -42.5t32 -67.5t10 -89.5v-86h-222zM267 287q3 48 -4 79
t-28 31q-22 0 -29.5 -30.5t-5.5 -79.5h67zM161 569l-89 161h122l41 -80l40 80h122l-89 -161h-147z" />
    <glyph glyph-name="Gcircumflex" unicode="&#x11c;" horiz-adv-x="592" 
d="M524 532q-16 4 -38.5 8.5t-47 8t-49.5 5.5t-46 2q-35 0 -60 -12t-41 -38t-24 -68t-8 -103q0 -72 7.5 -116t21.5 -67.5t34 -31.5t45 -8q12 0 26 1t27 3v144h-65v123h236v-352q-20 -8 -45.5 -15.5t-55 -14t-60.5 -10.5t-62 -4q-67 0 -120.5 15.5t-90.5 54.5t-56.5 106.5
t-19.5 171.5q0 97 22 162.5t62.5 105t96.5 56.5t125 17q27 0 55 -1.5t54 -4.5t48.5 -7t37.5 -8zM370 916l89 -161h-122l-40 80l-41 -80h-122l89 161h147z" />
    <glyph glyph-name="gcircumflex" unicode="&#x11d;" horiz-adv-x="492" 
d="M443 25q0 -69 -17 -113t-47 -68.5t-71 -34t-89 -9.5q-20 0 -42 2.5t-43 6t-40 8t-31 8.5l13 114q28 -8 65 -15.5t72 -7.5t48.5 17t13.5 66v6q-12 -2 -29.5 -3.5t-28.5 -1.5q-43 0 -78 12.5t-60.5 42.5t-39.5 80t-14 125q0 67 16.5 113t45.5 74t69.5 40.5t87.5 12.5
q53 0 105.5 -11.5t93.5 -29.5v-434zM275 380q-8 2 -15 3t-13 1q-12 0 -21 -4.5t-15.5 -18t-10 -38t-3.5 -64.5q0 -43 3 -70.5t8 -43.5t13 -22.5t19 -6.5q18 0 35 4v260zM319 730l89 -161h-122l-40 80l-41 -80h-122l89 161h147z" />
    <glyph glyph-name="Gbreve" unicode="&#x11e;" horiz-adv-x="592" 
d="M524 532q-16 4 -38.5 8.5t-47 8t-49.5 5.5t-46 2q-35 0 -60 -12t-41 -38t-24 -68t-8 -103q0 -72 7.5 -116t21.5 -67.5t34 -31.5t45 -8q12 0 26 1t27 3v144h-65v123h236v-352q-20 -8 -45.5 -15.5t-55 -14t-60.5 -10.5t-62 -4q-67 0 -120.5 15.5t-90.5 54.5t-56.5 106.5
t-19.5 171.5q0 97 22 162.5t62.5 105t96.5 56.5t125 17q27 0 55 -1.5t54 -4.5t48.5 -7t37.5 -8zM261 907q1 -29 10 -41.5t27 -12.5t27 12.5t10 41.5h111q-2 -41 -13 -68.5t-30.5 -44.5t-46 -24.5t-58.5 -7.5t-58.5 7.5t-46 24.5t-31 44.5t-13.5 68.5h112z" />
    <glyph glyph-name="gbreve" unicode="&#x11f;" horiz-adv-x="492" 
d="M443 25q0 -69 -17 -113t-47 -68.5t-71 -34t-89 -9.5q-20 0 -42 2.5t-43 6t-40 8t-31 8.5l13 114q28 -8 65 -15.5t72 -7.5t48.5 17t13.5 66v6q-12 -2 -29.5 -3.5t-28.5 -1.5q-43 0 -78 12.5t-60.5 42.5t-39.5 80t-14 125q0 67 16.5 113t45.5 74t69.5 40.5t87.5 12.5
q53 0 105.5 -11.5t93.5 -29.5v-434zM275 380q-8 2 -15 3t-13 1q-12 0 -21 -4.5t-15.5 -18t-10 -38t-3.5 -64.5q0 -43 3 -70.5t8 -43.5t13 -22.5t19 -6.5q18 0 35 4v260zM209 722q1 -29 10 -41.5t27 -12.5t27 12.5t10 41.5h111q-2 -41 -13 -68.5t-30.5 -44.5t-46 -24.5
t-58.5 -7.5t-58.5 7.5t-46 24.5t-31 44.5t-13.5 68.5h112z" />
    <glyph glyph-name="Gdotaccent" unicode="&#x120;" horiz-adv-x="592" 
d="M524 532q-16 4 -38.5 8.5t-47 8t-49.5 5.5t-46 2q-35 0 -60 -12t-41 -38t-24 -68t-8 -103q0 -72 7.5 -116t21.5 -67.5t34 -31.5t45 -8q12 0 26 1t27 3v144h-65v123h236v-352q-20 -8 -45.5 -15.5t-55 -14t-60.5 -10.5t-62 -4q-67 0 -120.5 15.5t-90.5 54.5t-56.5 106.5
t-19.5 171.5q0 97 22 162.5t62.5 105t96.5 56.5t125 17q27 0 55 -1.5t54 -4.5t48.5 -7t37.5 -8zM380 836q0 -32 -21.5 -49.5t-61.5 -17.5t-61.5 17.5t-21.5 49.5t21.5 49.5t61.5 17.5t61.5 -17.5t21.5 -49.5z" />
    <glyph glyph-name="gdotaccent" unicode="&#x121;" horiz-adv-x="492" 
d="M443 25q0 -69 -17 -113t-47 -68.5t-71 -34t-89 -9.5q-20 0 -42 2.5t-43 6t-40 8t-31 8.5l13 114q28 -8 65 -15.5t72 -7.5t48.5 17t13.5 66v6q-12 -2 -29.5 -3.5t-28.5 -1.5q-43 0 -78 12.5t-60.5 42.5t-39.5 80t-14 125q0 67 16.5 113t45.5 74t69.5 40.5t87.5 12.5
q53 0 105.5 -11.5t93.5 -29.5v-434zM275 380q-8 2 -15 3t-13 1q-12 0 -21 -4.5t-15.5 -18t-10 -38t-3.5 -64.5q0 -43 3 -70.5t8 -43.5t13 -22.5t19 -6.5q18 0 35 4v260zM329 651q0 -32 -21.5 -49.5t-61.5 -17.5t-61.5 17.5t-21.5 49.5t21.5 49.5t61.5 17.5t61.5 -17.5
t21.5 -49.5z" />
    <glyph glyph-name="Gcommaaccent" unicode="&#x122;" horiz-adv-x="592" 
d="M524 532q-16 4 -38.5 8.5t-47 8t-49.5 5.5t-46 2q-35 0 -60 -12t-41 -38t-24 -68t-8 -103q0 -72 7.5 -116t21.5 -67.5t34 -31.5t45 -8q12 0 26 1t27 3v144h-65v123h236v-352q-20 -8 -45.5 -15.5t-55 -14t-60.5 -10.5t-62 -4q-67 0 -120.5 15.5t-90.5 54.5t-56.5 106.5
t-19.5 171.5q0 97 22 162.5t62.5 105t96.5 56.5t125 17q27 0 55 -1.5t54 -4.5t48.5 -7t37.5 -8zM409 -46l-92 -142h-118l50 142h160z" />
    <glyph glyph-name="gcommaaccent" unicode="&#x123;" horiz-adv-x="492" 
d="M443 25q0 -69 -17 -113t-47 -68.5t-71 -34t-89 -9.5q-20 0 -42 2.5t-43 6t-40 8t-31 8.5l13 114q28 -8 65 -15.5t72 -7.5t48.5 17t13.5 66v6q-12 -2 -29.5 -3.5t-28.5 -1.5q-43 0 -78 12.5t-60.5 42.5t-39.5 80t-14 125q0 67 16.5 113t45.5 74t69.5 40.5t87.5 12.5
q53 0 105.5 -11.5t93.5 -29.5v-434zM275 380q-8 2 -15 3t-13 1q-12 0 -21 -4.5t-15.5 -18t-10 -38t-3.5 -64.5q0 -43 3 -70.5t8 -43.5t13 -22.5t19 -6.5q18 0 35 4v260zM124 569l108 161h118l-66 -161h-160z" />
    <glyph glyph-name="Hcircumflex" unicode="&#x124;" horiz-adv-x="632" 
d="M238 665v-262h156v262h172v-665h-172v278h-156v-278h-172v665h172zM389 916l89 -161h-122l-40 80l-41 -80h-122l89 161h147z" />
    <glyph glyph-name="hcircumflex" unicode="&#x125;" horiz-adv-x="504" 
d="M220 730v-235q11 2 22.5 3t22.5 1q46 0 82.5 -9.5t61 -30.5t37.5 -56t13 -86v-317h-168v311q0 42 -7 57t-32 15q-9 0 -16.5 -1t-15.5 -3v-379h-168v730h168zM208 945l89 -161h-122l-40 80l-41 -80h-122l89 161h147z" />
    <glyph glyph-name="Hbar" unicode="&#x126;" horiz-adv-x="666" 
d="M255 665v-80h156v80h172v-80h68v-86h-68v-499h-172v278h-156v-278h-172v499h-68v86h68v80h172zM411 403v96h-156v-96h156z" />
    <glyph glyph-name="hbar" unicode="&#x127;" horiz-adv-x="557" 
d="M16 665h89v65h168v-65h127v-97h-127v-73q11 2 22.5 3t22.5 1q46 0 82.5 -9.5t61 -30.5t37.5 -56t13 -86v-317h-168v311q0 42 -7 57t-32 15q-9 0 -16.5 -1t-15.5 -3v-379h-168v568h-89v97z" />
    <glyph glyph-name="Itilde" unicode="&#x128;" horiz-adv-x="304" 
d="M238 665v-665h-172v665h172zM-10 801q3 16 10.5 33t19.5 31t29 23t41 9q16 0 32 -5t30 -10.5t25 -10.5t18 -5q8 0 15.5 7t12.5 24l82 -31q-4 -17 -11.5 -34.5t-18.5 -31.5t-27 -22.5t-36 -8.5q-15 0 -31.5 5t-32 10.5t-29 10.5t-21.5 5q-18 0 -28 -31z" />
    <glyph glyph-name="itilde" unicode="&#x129;" horiz-adv-x="260" 
d="M208 487v-487h-155v487h155zM-32 616q3 16 10.5 33t19.5 31t29 23t41 9q16 0 32 -5t30 -10.5t25 -10.5t18 -5q8 0 15.5 7t12.5 24l82 -31q-4 -17 -11.5 -34.5t-18.5 -31.5t-27 -22.5t-36 -8.5q-15 0 -31.5 5t-32 10.5t-29 10.5t-21.5 5q-18 0 -28 -31z" />
    <glyph glyph-name="Imacron" unicode="&#x12a;" horiz-adv-x="304" 
d="M238 665v-665h-172v665h172zM290 881v-90h-276v90h276z" />
    <glyph glyph-name="imacron" unicode="&#x12b;" horiz-adv-x="260" 
d="M208 487v-487h-155v487h155zM269 694v-90h-276v90h276z" />
    <glyph glyph-name="Ibreve" unicode="&#x12c;" horiz-adv-x="304" 
d="M238 665v-665h-172v665h172zM116 908q1 -29 10 -41.5t27 -12.5t27 12.5t10 41.5h111q-2 -41 -13 -68.5t-30.5 -44.5t-46 -24.5t-58.5 -7.5t-58.5 7.5t-46 24.5t-31 44.5t-13.5 68.5h112z" />
    <glyph glyph-name="ibreve" unicode="&#x12d;" horiz-adv-x="260" 
d="M208 487v-487h-155v487h155zM94 722q1 -29 10 -41.5t27 -12.5t27 12.5t10 41.5h111q-2 -41 -13 -68.5t-30.5 -44.5t-46 -24.5t-58.5 -7.5t-58.5 7.5t-46 24.5t-31 44.5t-13.5 68.5h112z" />
    <glyph glyph-name="Iogonek" unicode="&#x12e;" horiz-adv-x="304" 
d="M275 -182q-20 -9 -45.5 -13.5t-50.5 -4.5q-48 0 -80.5 19.5t-32.5 68.5q0 35 18 65t44 47h-62v665h172v-665q-15 -15 -28.5 -37t-13.5 -45q0 -24 20 -24q11 0 22.5 3t22.5 8z" />
    <glyph glyph-name="iogonek" unicode="&#x12f;" horiz-adv-x="273" 
d="M257 -182q-20 -9 -45.5 -13.5t-50.5 -4.5q-48 0 -80.5 19.5t-32.5 68.5q0 35 18 65t44 47h-57v487h167v-487q-15 -15 -28.5 -37t-13.5 -45q0 -24 20 -24q11 0 22.5 3t22.5 8zM230 657q0 -42 -25.5 -63.5t-68.5 -21.5q-42 0 -68 21.5t-26 63.5t26 63.5t68 21.5
q43 0 68.5 -21.5t25.5 -63.5z" />
    <glyph glyph-name="Idotaccent" unicode="&#x130;" horiz-adv-x="304" 
d="M238 665v-665h-172v665h172zM235 836q0 -32 -21.5 -49.5t-61.5 -17.5t-61.5 17.5t-21.5 49.5t21.5 49.5t61.5 17.5t61.5 -17.5t21.5 -49.5z" />
    <glyph glyph-name="Jcircumflex" unicode="&#x134;" horiz-adv-x="301" 
d="M238 665v-561q0 -59 -17.5 -103.5t-46 -79.5t-65 -64t-73.5 -57l-71 90q25 28 44 49.5t32 44t19 49.5t6 65v567h172zM222 916l89 -161h-122l-40 80l-41 -80h-122l89 161h147z" />
    <glyph glyph-name="jcircumflex" unicode="&#x135;" horiz-adv-x="263" 
d="M217 487v-403q0 -48 -9 -86.5t-28.5 -71.5t-52 -63t-78.5 -63l-75 79q23 25 37.5 46.5t23 45t12 50.5t3.5 62v404h167zM205 730l89 -161h-122l-40 80l-41 -80h-122l89 161h147z" />
    <glyph glyph-name="Kcommaaccent" unicode="&#x136;" horiz-adv-x="576" 
d="M238 665v-276l168 276h173l-200 -313q48 -18 81 -59t54 -106l61 -187h-186l-43 138q-13 42 -27.5 66t-31.5 32l-49 -79v-157h-172v665h172zM406 -46l-92 -142h-118l50 142h160z" />
    <glyph glyph-name="kcommaaccent" unicode="&#x137;" horiz-adv-x="479" 
d="M220 730v-391l81 148h166l-129 -202q48 -13 76.5 -45.5t39.5 -101.5l23 -138h-175l-19 125q-5 31 -14.5 44.5t-20.5 17.5l-28 -38v-149h-168v730h168zM351 -46l-92 -142h-118l50 142h160z" />
    <glyph glyph-name="Lacute" unicode="&#x139;" horiz-adv-x="454" 
d="M238 665v-547h201v-118h-373v665h172zM316 916l-108 -161h-118l66 161h160z" />
    <glyph glyph-name="lacute" unicode="&#x13a;" horiz-adv-x="272" 
d="M221 730v-730h-168v730h168zM302 954l-108 -161h-118l66 161h160z" />
    <glyph glyph-name="Lcommaaccent" unicode="&#x13b;" horiz-adv-x="454" 
d="M238 665v-547h201v-118h-373v665h172zM352 -46l-92 -142h-118l50 142h160z" />
    <glyph glyph-name="lcommaaccent" unicode="&#x13c;" horiz-adv-x="271" 
d="M219 730v-730h-168v730h168zM215 -46l-92 -142h-118l50 142h160z" />
    <glyph glyph-name="Lcaron" unicode="&#x13d;" horiz-adv-x="454" 
d="M238 665v-547h201v-118h-373v665h172zM77 755l-89 161h122l41 -80l40 80h122l-89 -161h-147z" />
    <glyph glyph-name="lcaron" unicode="&#x13e;" horiz-adv-x="395" 
d="M411 665l-66 -213h-103l29 213h140zM221 730v-730h-168v730h168z" />
    <glyph glyph-name="Lslash" unicode="&#x141;" horiz-adv-x="453" 
d="M238 665v-238l134 65v-120l-134 -66v-188h201v-118h-373v223l-51 -24v118l51 25v323h172z" />
    <glyph glyph-name="lslash" unicode="&#x142;" horiz-adv-x="310" 
d="M239 730v-258l55 28v-113l-55 -28v-359h-168v278l-55 -28v113l55 27v340h168z" />
    <glyph glyph-name="Nacute" unicode="&#x143;" horiz-adv-x="639" 
d="M203 665l202 -299v299h168v-665h-168v140l-171 258v-398h-168v665h137zM456 916l-108 -161h-118l66 161h160z" />
    <glyph glyph-name="nacute" unicode="&#x144;" horiz-adv-x="503" 
d="M51 459q37 13 90 26.5t112 13.5q50 0 88.5 -9.5t64.5 -30.5t39 -56t13 -86v-317h-168v311q0 42 -7 57t-32 15q-9 0 -16.5 -1t-15.5 -3v-379h-168v459zM418 730l-108 -161h-118l66 161h160z" />
    <glyph glyph-name="Ncommaaccent" unicode="&#x145;" horiz-adv-x="639" 
d="M203 665l202 -299v299h168v-665h-168v140l-171 258v-398h-168v665h137zM420 -46l-92 -142h-118l50 142h160z" />
    <glyph glyph-name="ncommaaccent" unicode="&#x146;" horiz-adv-x="503" 
d="M51 459q37 13 90 26.5t112 13.5q50 0 88.5 -9.5t64.5 -30.5t39 -56t13 -86v-317h-168v311q0 42 -7 57t-32 15q-9 0 -16.5 -1t-15.5 -3v-379h-168v459zM344 -46l-92 -142h-118l50 142h160z" />
    <glyph glyph-name="Ncaron" unicode="&#x147;" horiz-adv-x="639" 
d="M203 665l202 -299v299h168v-665h-168v140l-171 258v-398h-168v665h137zM246 755l-89 161h122l41 -80l40 80h122l-89 -161h-147z" />
    <glyph glyph-name="ncaron" unicode="&#x148;" horiz-adv-x="503" 
d="M51 459q37 13 90 26.5t112 13.5q50 0 88.5 -9.5t64.5 -30.5t39 -56t13 -86v-317h-168v311q0 42 -7 57t-32 15q-9 0 -16.5 -1t-15.5 -3v-379h-168v459zM181 569l-89 161h122l41 -80l40 80h122l-89 -161h-147z" />
    <glyph glyph-name="Eng" unicode="&#x14a;" horiz-adv-x="639" 
d="M203 665l202 -299v299h168v-561q0 -59 -17.5 -103.5t-46 -79.5t-65 -64t-73.5 -57l-71 90q25 27 45 48.5t33 44.5t20 50t7 65v42l-171 258v-398h-168v665h137z" />
    <glyph glyph-name="eng" unicode="&#x14b;" horiz-adv-x="503" 
d="M51 459q37 13 90 26.5t112 13.5q50 0 88 -9.5t64 -30.5t39.5 -56t13.5 -86v-232q0 -48 -9 -86.5t-29 -71.5t-52.5 -63.5t-78.5 -63.5l-75 79q23 25 37.5 47t23 45t12 50.5t3.5 62.5v227q0 42 -7 57t-32 15q-9 0 -16.5 -1t-15.5 -3v-379h-168v459v0z" />
    <glyph glyph-name="Omacron" unicode="&#x14c;" horiz-adv-x="588" 
d="M556 331q0 -178 -65 -260.5t-197 -82.5t-197 82.5t-65 260.5q0 180 64.5 262.5t197.5 82.5t197.5 -82.5t64.5 -262.5zM378 332q0 63 -5 106t-15.5 69.5t-26 37.5t-36.5 11q-22 0 -38 -11t-26.5 -37.5t-15.5 -69.5t-5 -106t5 -106t15.5 -69.5t26.5 -37.5t38 -11
q21 0 36.5 11t26 37.5t15.5 69.5t5 106zM432 880v-90h-276v90h276z" />
    <glyph glyph-name="omacron" unicode="&#x14d;" horiz-adv-x="490" 
d="M463 244q0 -134 -56 -195t-162 -61t-162 61t-56 195t56 194.5t162 60.5t162 -60.5t56 -194.5zM290 244q0 78 -10 108.5t-35 30.5t-35 -30.5t-10 -108.5t10 -109t35 -31t35 31t10 109zM383 694v-90h-276v90h276z" />
    <glyph glyph-name="Obreve" unicode="&#x14e;" horiz-adv-x="588" 
d="M556 331q0 -178 -65 -260.5t-197 -82.5t-197 82.5t-65 260.5q0 180 64.5 262.5t197.5 82.5t197.5 -82.5t64.5 -262.5zM378 332q0 63 -5 106t-15.5 69.5t-26 37.5t-36.5 11q-22 0 -38 -11t-26.5 -37.5t-15.5 -69.5t-5 -106t5 -106t15.5 -69.5t26.5 -37.5t38 -11
q21 0 36.5 11t26 37.5t15.5 69.5t5 106zM258 907q1 -29 10 -41.5t27 -12.5t27 12.5t10 41.5h111q-2 -41 -13 -68.5t-30.5 -44.5t-46 -24.5t-58.5 -7.5t-58.5 7.5t-46 24.5t-31 44.5t-13.5 68.5h112z" />
    <glyph glyph-name="obreve" unicode="&#x14f;" horiz-adv-x="490" 
d="M463 244q0 -134 -56 -195t-162 -61t-162 61t-56 195t56 194.5t162 60.5t162 -60.5t56 -194.5zM290 244q0 78 -10 108.5t-35 30.5t-35 -30.5t-10 -108.5t10 -109t35 -31t35 31t10 109zM209 722q1 -29 10 -41.5t27 -12.5t27 12.5t10 41.5h111q-2 -41 -13 -68.5t-30.5 -44.5
t-46 -24.5t-58.5 -7.5t-58.5 7.5t-46 24.5t-31 44.5t-13.5 68.5h112z" />
    <glyph glyph-name="Ohungarumlaut" unicode="&#x150;" horiz-adv-x="588" 
d="M556 331q0 -178 -65 -260.5t-197 -82.5t-197 82.5t-65 260.5q0 180 64.5 262.5t197.5 82.5t197.5 -82.5t64.5 -262.5zM378 332q0 63 -5 106t-15.5 69.5t-26 37.5t-36.5 11q-22 0 -38 -11t-26.5 -37.5t-15.5 -69.5t-5 -106t5 -106t15.5 -69.5t26.5 -37.5t38 -11
q21 0 36.5 11t26 37.5t15.5 69.5t5 106zM482 916l-67 -161h-104l35 161h136zM304 916l-34 -161h-102l17 161h119z" />
    <glyph glyph-name="ohungarumlaut" unicode="&#x151;" horiz-adv-x="490" 
d="M463 244q0 -134 -56 -195t-162 -61t-162 61t-56 195t56 194.5t162 60.5t162 -60.5t56 -194.5zM290 244q0 78 -10 108.5t-35 30.5t-35 -30.5t-10 -108.5t10 -109t35 -31t35 31t10 109zM442 730l-67 -161h-104l35 161h136zM264 730l-34 -161h-102l17 161h119z" />
    <glyph glyph-name="Racute" unicode="&#x154;" horiz-adv-x="552" 
d="M267 665q58 0 102 -10.5t73 -36t44 -67t15 -102.5q0 -35 -8.5 -60.5t-22 -44.5t-31.5 -32.5t-37 -23.5q38 -16 63 -47t35 -83l30 -158h-177l-21 137q-8 49 -25 71t-48 22h-8t-13 1v-231h-172v665h201zM238 351q8 -1 14.5 -1.5t12.5 -0.5q35 0 50.5 22.5t15.5 77.5
q0 30 -4 49.5t-12 30t-20 14.5t-28 4h-29v-196zM439 916l-108 -161h-118l66 161h160z" />
    <glyph glyph-name="racute" unicode="&#x155;" horiz-adv-x="345" 
d="M323 375q-26 0 -53.5 -1t-52.5 -4v-370h-167v455q64 27 133.5 35.5t139.5 8.5v-124zM341 730l-108 -161h-118l66 161h160z" />
    <glyph glyph-name="Rcommaaccent" unicode="&#x156;" horiz-adv-x="552" 
d="M267 665q58 0 102 -10.5t73 -36t44 -67t15 -102.5q0 -35 -8.5 -60.5t-22 -44.5t-31.5 -32.5t-37 -23.5q38 -16 63 -47t35 -83l30 -158h-177l-21 137q-8 49 -25 71t-48 22h-8t-13 1v-231h-172v665h201zM238 351q8 -1 14.5 -1.5t12.5 -0.5q35 0 50.5 22.5t15.5 77.5
q0 30 -4 49.5t-12 30t-20 14.5t-28 4h-29v-196zM385 -46l-92 -142h-118l50 142h160z" />
    <glyph glyph-name="rcommaaccent" unicode="&#x157;" horiz-adv-x="345" 
d="M323 375q-26 0 -53.5 -1t-52.5 -4v-370h-167v455q64 27 133.5 35.5t139.5 8.5v-124zM214 -46l-92 -142h-118l50 142h160z" />
    <glyph glyph-name="Rcaron" unicode="&#x158;" horiz-adv-x="552" 
d="M267 665q58 0 102 -10.5t73 -36t44 -67t15 -102.5q0 -35 -8.5 -60.5t-22 -44.5t-31.5 -32.5t-37 -23.5q38 -16 63 -47t35 -83l30 -158h-177l-21 137q-8 49 -25 71t-48 22h-8t-13 1v-231h-172v665h201zM238 351q8 -1 14.5 -1.5t12.5 -0.5q35 0 50.5 22.5t15.5 77.5
q0 30 -4 49.5t-12 30t-20 14.5t-28 4h-29v-196zM205 755l-89 161h122l41 -80l40 80h122l-89 -161h-147z" />
    <glyph glyph-name="rcaron" unicode="&#x159;" horiz-adv-x="345" 
d="M323 375q-26 0 -53.5 -1t-52.5 -4v-370h-167v455q64 27 133.5 35.5t139.5 8.5v-124zM114 569l-89 161h122l41 -80l40 80h122l-89 -161h-147z" />
    <glyph glyph-name="Sacute" unicode="&#x15a;" horiz-adv-x="478" 
d="M415 540q-14 3 -32 6t-37 5t-37.5 3.5t-31.5 1.5q-33 0 -51.5 -13t-18.5 -45q0 -28 21 -47.5t52 -39.5q28 -19 58 -42t54.5 -51.5t40 -65t15.5 -82.5q0 -96 -59 -139.5t-169 -43.5q-26 0 -52 2.5t-49.5 7t-43.5 9t-35 9.5l15 118q17 -5 38 -9.5t42.5 -8t42 -5.5t38.5 -2
q26 0 42.5 12.5t16.5 47.5q0 33 -25 57t-58 47q-27 19 -55 41t-51.5 48.5t-38.5 58.5t-15 71q0 51 18 86.5t51 57.5t78.5 31.5t99.5 9.5q18 0 38 -1t40 -3.5t38.5 -5.5t32.5 -6zM393 916l-108 -161h-118l66 161h160z" />
    <glyph glyph-name="sacute" unicode="&#x15b;" horiz-adv-x="416" 
d="M365 374q-31 8 -59.5 11.5t-57.5 3.5q-23 0 -36.5 -6t-13.5 -26q0 -12 14.5 -23t35.5 -23.5t46.5 -27.5t46.5 -36t35.5 -48.5t14.5 -64.5q0 -39 -14 -67t-39 -46t-59 -26t-73 -8q-49 0 -91 7t-77 17l10 110q29 -8 64 -14.5t59 -6.5q23 0 34 7.5t11 25.5q0 13 -14 24.5
t-34.5 24t-44.5 27.5t-44.5 34.5t-34.5 45.5t-14 61q0 42 16 70.5t45 46t68.5 25t86.5 7.5q34 0 67.5 -4t58.5 -9zM360 730l-108 -161h-118l66 161h160z" />
    <glyph glyph-name="Scircumflex" unicode="&#x15c;" horiz-adv-x="478" 
d="M415 540q-14 3 -32 6t-37 5t-37.5 3.5t-31.5 1.5q-33 0 -51.5 -13t-18.5 -45q0 -28 21 -47.5t52 -39.5q28 -19 58 -42t54.5 -51.5t40 -65t15.5 -82.5q0 -96 -59 -139.5t-169 -43.5q-26 0 -52 2.5t-49.5 7t-43.5 9t-35 9.5l15 118q17 -5 38 -9.5t42.5 -8t42 -5.5t38.5 -2
q26 0 42.5 12.5t16.5 47.5q0 33 -25 57t-58 47q-27 19 -55 41t-51.5 48.5t-38.5 58.5t-15 71q0 51 18 86.5t51 57.5t78.5 31.5t99.5 9.5q18 0 38 -1t40 -3.5t38.5 -5.5t32.5 -6zM314 916l89 -161h-122l-40 80l-41 -80h-122l89 161h147z" />
    <glyph glyph-name="scircumflex" unicode="&#x15d;" horiz-adv-x="416" 
d="M365 374q-31 8 -59.5 11.5t-57.5 3.5q-23 0 -36.5 -6t-13.5 -26q0 -12 14.5 -23t35.5 -23.5t46.5 -27.5t46.5 -36t35.5 -48.5t14.5 -64.5q0 -39 -14 -67t-39 -46t-59 -26t-73 -8q-49 0 -91 7t-77 17l10 110q29 -8 64 -14.5t59 -6.5q23 0 34 7.5t11 25.5q0 13 -14 24.5
t-34.5 24t-44.5 27.5t-44.5 34.5t-34.5 45.5t-14 61q0 42 16 70.5t45 46t68.5 25t86.5 7.5q34 0 67.5 -4t58.5 -9zM288 730l89 -161h-122l-40 80l-41 -80h-122l89 161h147z" />
    <glyph glyph-name="Scedilla" unicode="&#x15e;" horiz-adv-x="478" 
d="M415 540q-14 3 -32 6t-37 5t-37.5 3.5t-31.5 1.5q-33 0 -51.5 -13t-18.5 -45q0 -28 21 -47.5t52 -39.5q28 -19 58 -42t54.5 -51.5t40 -65t15.5 -82.5q0 -96 -59 -139.5t-169 -43.5q-26 0 -52 2.5t-49.5 7t-43.5 9t-35 9.5l15 118q17 -5 38 -9.5t42.5 -8t42 -5.5t38.5 -2
q26 0 42.5 12.5t16.5 47.5q0 33 -25 57t-58 47q-27 19 -55 41t-51.5 48.5t-38.5 58.5t-15 71q0 51 18 86.5t51 57.5t78.5 31.5t99.5 9.5q18 0 38 -1t40 -3.5t38.5 -5.5t32.5 -6zM320 -35q14 -18 22.5 -37.5t8.5 -39.5q0 -42 -23.5 -67t-86.5 -25q-23 0 -50 5t-52 17l13 86
q12 -5 24.5 -9t26.5 -4q10 0 14.5 5t4.5 19q0 13 -5.5 26t-11.5 24h115z" />
    <glyph glyph-name="scedilla" unicode="&#x15f;" horiz-adv-x="416" 
d="M365 374q-31 8 -59.5 11.5t-57.5 3.5q-23 0 -36.5 -6t-13.5 -26q0 -12 14.5 -23t35.5 -23.5t46.5 -27.5t46.5 -36t35.5 -48.5t14.5 -64.5q0 -39 -14 -67t-39 -46t-59 -26t-73 -8q-49 0 -91 7t-77 17l10 110q29 -8 64 -14.5t59 -6.5q23 0 34 7.5t11 25.5q0 13 -14 24.5
t-34.5 24t-44.5 27.5t-44.5 34.5t-34.5 45.5t-14 61q0 42 16 70.5t45 46t68.5 25t86.5 7.5q34 0 67.5 -4t58.5 -9zM295 -35q14 -18 22.5 -37.5t8.5 -39.5q0 -42 -23.5 -67t-86.5 -25q-23 0 -50 5t-52 17l13 86q12 -5 24.5 -9t26.5 -4q10 0 14.5 5t4.5 19q0 13 -5.5 26
t-11.5 24h115z" />
    <glyph glyph-name="Scaron" unicode="&#x160;" horiz-adv-x="478" 
d="M415 540q-14 3 -32 6t-37 5t-37.5 3.5t-31.5 1.5q-33 0 -51.5 -13t-18.5 -45q0 -28 21 -47.5t52 -39.5q28 -19 58 -42t54.5 -51.5t40 -65t15.5 -82.5q0 -96 -59 -139.5t-169 -43.5q-26 0 -52 2.5t-49.5 7t-43.5 9t-35 9.5l15 118q17 -5 38 -9.5t42.5 -8t42 -5.5t38.5 -2
q26 0 42.5 12.5t16.5 47.5q0 33 -25 57t-58 47q-27 19 -55 41t-51.5 48.5t-38.5 58.5t-15 71q0 51 18 86.5t51 57.5t78.5 31.5t99.5 9.5q18 0 38 -1t40 -3.5t38.5 -5.5t32.5 -6zM161 755l-89 161h122l41 -80l40 80h122l-89 -161h-147z" />
    <glyph glyph-name="scaron" unicode="&#x161;" horiz-adv-x="416" 
d="M365 374q-31 8 -59.5 11.5t-57.5 3.5q-23 0 -36.5 -6t-13.5 -26q0 -12 14.5 -23t35.5 -23.5t46.5 -27.5t46.5 -36t35.5 -48.5t14.5 -64.5q0 -39 -14 -67t-39 -46t-59 -26t-73 -8q-49 0 -91 7t-77 17l10 110q29 -8 64 -14.5t59 -6.5q23 0 34 7.5t11 25.5q0 13 -14 24.5
t-34.5 24t-44.5 27.5t-44.5 34.5t-34.5 45.5t-14 61q0 42 16 70.5t45 46t68.5 25t86.5 7.5q34 0 67.5 -4t58.5 -9zM141 569l-89 161h122l41 -80l40 80h122l-89 -161h-147z" />
    <glyph glyph-name="Tcommaaccent" unicode="&#x162;" horiz-adv-x="515" 
d="M501 665v-118h-157v-547h-172v547h-158v118h487zM338 -46l-92 -142h-118l50 142h160z" />
    <glyph glyph-name="tcommaaccent" unicode="&#x163;" horiz-adv-x="359" 
d="M236 621v-134h103v-114h-103v-223q0 -23 7 -32.5t28 -9.5q17 0 32.5 2.5t29.5 6.5l3 -114q-17 -5 -42 -10t-56 -5q-82 0 -125.5 40.5t-43.5 125.5v219h-59v114h66l25 134h135zM284 -46l-92 -142h-118l50 142h160z" />
    <glyph glyph-name="Tcaron" unicode="&#x164;" horiz-adv-x="515" 
d="M501 665v-118h-157v-547h-172v547h-158v118h487zM184 755l-89 161h122l41 -80l40 80h122l-89 -161h-147z" />
    <glyph glyph-name="tcaron" unicode="&#x165;" horiz-adv-x="391" 
d="M433 665l-58 -140h-108l30 140h136zM236 621v-134h103v-114h-103v-223q0 -23 7 -32.5t28 -9.5q17 0 32.5 2.5t29.5 6.5l3 -114q-17 -5 -42 -10t-56 -5q-82 0 -125.5 40.5t-43.5 125.5v219h-59v114h66l25 134h135z" />
    <glyph glyph-name="Tbar" unicode="&#x166;" horiz-adv-x="515" 
d="M172 360v187h-158v118h487v-118h-157v-187h116v-116h-116v-244h-172v244h-116v116h116z" />
    <glyph glyph-name="tbar" unicode="&#x167;" horiz-adv-x="388" 
d="M25 300h59v73h-59v114h66l25 134h135v-134h103v-114h-103v-73h84v-103h-84v-47q0 -23 7 -32.5t28 -9.5q32 0 62 9l3 -114q-17 -5 -42 -10t-56 -5q-82 0 -125.5 40.5t-43.5 125.5v43h-59v103z" />
    <glyph glyph-name="Utilde" unicode="&#x168;" horiz-adv-x="600" 
d="M228 665v-456q0 -55 19.5 -78t54.5 -23q22 0 39 3t25 5v549h172v-632q-21 -7 -47.5 -15t-57 -15t-65 -11.5t-71.5 -4.5q-67 0 -113 15.5t-74.5 45t-41 73t-12.5 99.5v445h172zM140 801q3 16 10.5 33t19.5 31t29 23t41 9q16 0 32 -5t30 -10.5t25 -10.5t18 -5q8 0 15.5 7
t12.5 24l82 -31q-4 -17 -11.5 -34.5t-18.5 -31.5t-27 -22.5t-36 -8.5q-15 0 -31.5 5t-32 10.5t-29 10.5t-21.5 5q-18 0 -28 -31z" />
    <glyph glyph-name="utilde" unicode="&#x169;" horiz-adv-x="499" 
d="M212 487v-319q0 -32 7.5 -48t30.5 -16q9 0 17 1t14 3v379h168v-461q-38 -13 -92 -25.5t-109 -12.5q-43 0 -80 8.5t-64.5 29.5t-43 57t-15.5 91v313h167zM90 616q3 16 10.5 33t19.5 31t29 23t41 9q16 0 32 -5t30 -10.5t25 -10.5t18 -5q8 0 15.5 7t12.5 24l82 -31
q-4 -17 -11.5 -34.5t-18.5 -31.5t-27 -22.5t-36 -8.5q-15 0 -31.5 5t-32 10.5t-29 10.5t-21.5 5q-18 0 -28 -31z" />
    <glyph glyph-name="Umacron" unicode="&#x16a;" horiz-adv-x="600" 
d="M228 665v-456q0 -55 19.5 -78t54.5 -23q22 0 39 3t25 5v549h172v-632q-21 -7 -47.5 -15t-57 -15t-65 -11.5t-71.5 -4.5q-67 0 -113 15.5t-74.5 45t-41 73t-12.5 99.5v445h172zM440 880v-90h-276v90h276z" />
    <glyph glyph-name="umacron" unicode="&#x16b;" horiz-adv-x="499" 
d="M212 487v-319q0 -32 7.5 -48t30.5 -16q9 0 17 1t14 3v379h168v-461q-38 -13 -92 -25.5t-109 -12.5q-43 0 -80 8.5t-64.5 29.5t-43 57t-15.5 91v313h167zM385 694v-90h-276v90h276z" />
    <glyph glyph-name="Ubreve" unicode="&#x16c;" horiz-adv-x="600" 
d="M228 665v-456q0 -55 19.5 -78t54.5 -23q22 0 39 3t25 5v549h172v-632q-21 -7 -47.5 -15t-57 -15t-65 -11.5t-71.5 -4.5q-67 0 -113 15.5t-74.5 45t-41 73t-12.5 99.5v445h172zM266 907q1 -29 10 -41.5t27 -12.5t27 12.5t10 41.5h111q-2 -41 -13 -68.5t-30.5 -44.5
t-46 -24.5t-58.5 -7.5t-58.5 7.5t-46 24.5t-31 44.5t-13.5 68.5h112z" />
    <glyph glyph-name="ubreve" unicode="&#x16d;" horiz-adv-x="499" 
d="M212 487v-319q0 -32 7.5 -48t30.5 -16q9 0 17 1t14 3v379h168v-461q-38 -13 -92 -25.5t-109 -12.5q-43 0 -80 8.5t-64.5 29.5t-43 57t-15.5 91v313h167zM211 722q1 -29 10 -41.5t27 -12.5t27 12.5t10 41.5h111q-2 -41 -13 -68.5t-30.5 -44.5t-46 -24.5t-58.5 -7.5
t-58.5 7.5t-46 24.5t-31 44.5t-13.5 68.5h112z" />
    <glyph glyph-name="Uring" unicode="&#x16e;" horiz-adv-x="600" 
d="M228 665v-456q0 -55 19.5 -78t54.5 -23q22 0 39 3t25 5v549h172v-632q-21 -7 -47.5 -15t-57 -15t-65 -11.5t-71.5 -4.5q-67 0 -113 15.5t-74.5 45t-41 73t-12.5 99.5v445h172zM420 835q0 -51 -32 -72t-86 -21t-86 21t-32 72t32 72t86 21t86 -21t32 -72zM334 835
q0 32 -32 32q-33 0 -33 -32t33 -32q32 0 32 32z" />
    <glyph glyph-name="uring" unicode="&#x16f;" horiz-adv-x="499" 
d="M212 487v-319q0 -32 7.5 -48t30.5 -16q9 0 17 1t14 3v379h168v-461q-38 -13 -92 -25.5t-109 -12.5q-43 0 -80 8.5t-64.5 29.5t-43 57t-15.5 91v313h167zM365 649q0 -51 -32 -72t-86 -21t-86 21t-32 72t32 72t86 21t86 -21t32 -72zM279 649q0 32 -32 32q-33 0 -33 -32
t33 -32q32 0 32 32z" />
    <glyph glyph-name="Uhungarumlaut" unicode="&#x170;" horiz-adv-x="600" 
d="M228 665v-456q0 -55 19.5 -78t54.5 -23q22 0 39 3t25 5v549h172v-632q-21 -7 -47.5 -15t-57 -15t-65 -11.5t-71.5 -4.5q-67 0 -113 15.5t-74.5 45t-41 73t-12.5 99.5v445h172zM482 916l-67 -161h-104l35 161h136zM304 916l-34 -161h-102l17 161h119z" />
    <glyph glyph-name="uhungarumlaut" unicode="&#x171;" horiz-adv-x="499" 
d="M212 487v-319q0 -32 7.5 -48t30.5 -16q9 0 17 1t14 3v379h168v-461q-38 -13 -92 -25.5t-109 -12.5q-43 0 -80 8.5t-64.5 29.5t-43 57t-15.5 91v313h167zM436 730l-67 -161h-104l35 161h136zM258 730l-34 -161h-102l17 161h119z" />
    <glyph glyph-name="Uogonek" unicode="&#x172;" horiz-adv-x="600" 
d="M575 -154q-20 -9 -45.5 -13.5t-50.5 -4.5q-48 0 -80.5 19.5t-32.5 68.5q0 22 7.5 42.5t20.5 37.5q-23 -4 -47 -6.5t-50 -2.5q-67 0 -113 15.5t-74.5 45t-41 73t-12.5 99.5v445h172v-456q0 -55 19.5 -78t54.5 -23q22 0 39 3t25 5v549h172v-637q-15 -15 -28.5 -37
t-13.5 -45q0 -24 20 -24q11 0 22.5 3t22.5 8z" />
    <glyph glyph-name="uogonek" unicode="&#x173;" horiz-adv-x="499" 
d="M486 -156q-20 -9 -45.5 -13.5t-50.5 -4.5q-48 0 -80.5 19.5t-32.5 68.5q0 22 9.5 42t24.5 37q-16 -2 -31.5 -3.5t-31.5 -1.5q-43 0 -80 8.5t-64.5 29.5t-43 57t-15.5 91v313h167v-319q0 -32 7.5 -48t30.5 -16q9 0 17 1t14 3v379h168v-461q-15 -15 -28.5 -37t-13.5 -45
q0 -24 20 -24q11 0 22.5 3t22.5 8z" />
    <glyph glyph-name="Wcircumflex" unicode="&#x174;" horiz-adv-x="783" 
d="M464 916l89 -161h-122l-40 80l-41 -80h-122l89 161h147zM471 0l-82 349l-88 -349h-166l-131 665h174l60 -435l76 318h150l76 -318q32 109 49.5 221t25.5 214h164q-19 -171 -56.5 -339.5t-92.5 -325.5h-159z" />
    <glyph glyph-name="wcircumflex" unicode="&#x175;" horiz-adv-x="761" 
d="M454 730l89 -161h-122l-40 80l-41 -80h-122l89 161h147zM445 0l-63 342l-75 -342h-190l-109 487h175l47 -321l63 321h181l59 -322q13 41 22.5 80t17 78t12.5 79.5t9 84.5h159q-12 -103 -42.5 -225t-82.5 -262h-183z" />
    <glyph glyph-name="Ycircumflex" unicode="&#x176;" horiz-adv-x="550" 
d="M360 916l89 -161h-122l-40 80l-41 -80h-122l89 161h147zM190 232l-192 433h181l108 -281q18 36 33 69.5t27.5 67t23 69t18.5 75.5h163q-32 -127 -79 -231.5t-113 -197.5v-236h-170v232z" />
    <glyph glyph-name="ycircumflex" unicode="&#x177;" horiz-adv-x="502" 
d="M212 487v-307q0 -35 10 -49.5t29 -14.5q9 0 17 1t13 3v367h168v-462q0 -69 -17 -113t-47 -68.5t-71.5 -34t-89.5 -9.5q-20 0 -43 2.5t-44.5 6t-39.5 8t-28 8.5l13 114q28 -8 65 -15.5t72 -7.5t48.5 17t13.5 62v10q-9 -2 -23.5 -3.5t-27.5 -1.5q-41 0 -75 9.5t-58.5 31.5
t-38 57.5t-13.5 87.5v301h167zM319 730l89 -161h-122l-40 80l-41 -80h-122l89 161h147z" />
    <glyph glyph-name="Zacute" unicode="&#x179;" horiz-adv-x="521" 
d="M480 665v-109l-248 -437h256v-119h-456v109l248 438h-241v118h441zM411 916l-108 -161h-118l66 161h160z" />
    <glyph glyph-name="zacute" unicode="&#x17a;" horiz-adv-x="438" 
d="M401 487v-96l-175 -277h185v-114h-382v96l180 277h-171v114h363zM380 730l-108 -161h-118l66 161h160z" />
    <glyph glyph-name="Zdotaccent" unicode="&#x17b;" horiz-adv-x="521" 
d="M480 665v-109l-248 -437h256v-119h-456v109l248 438h-241v118h441zM346 835q0 -32 -21.5 -49.5t-61.5 -17.5t-61.5 17.5t-21.5 49.5t21.5 49.5t61.5 17.5t61.5 -17.5t21.5 -49.5z" />
    <glyph glyph-name="zdotaccent" unicode="&#x17c;" horiz-adv-x="438" 
d="M401 487v-96l-175 -277h185v-114h-382v96l180 277h-171v114h363zM310 651q0 -32 -21.5 -49.5t-61.5 -17.5t-61.5 17.5t-21.5 49.5t21.5 49.5t61.5 17.5t61.5 -17.5t21.5 -49.5z" />
    <glyph glyph-name="Zcaron" unicode="&#x17d;" horiz-adv-x="521" 
d="M480 665v-109l-248 -437h256v-119h-456v109l248 438h-241v118h441zM189 755l-89 161h122l41 -80l40 80h122l-89 -161h-147z" />
    <glyph glyph-name="zcaron" unicode="&#x17e;" horiz-adv-x="438" 
d="M401 487v-96l-175 -277h185v-114h-382v96l180 277h-171v114h363zM151 569l-89 161h122l41 -80l40 80h122l-89 -161h-147z" />
    <glyph glyph-name="longs" unicode="&#x17f;" horiz-adv-x="334" 
d="M75 487v74q0 92 50.5 136t135.5 44q26 0 54.5 -2.5t46.5 -7.5l-11 -111q-15 2 -32.5 3.5t-31.5 1.5q-10 0 -18 -2t-14 -8.5t-9.5 -19t-3.5 -34.5v-561h-167v373h-60v114h60z" />
    <glyph glyph-name="Aringacute" unicode="&#x1fa;" horiz-adv-x="568" 
d="M401 835q0 -51 -32 -72t-86 -21t-86 21t-32 72q0 37 19 58.5t51 29.5l36 90h138l-78 -90q32 -7 51 -29.5t19 -58.5zM315 835q0 32 -32 32q-33 0 -33 -32t33 -32q32 0 32 32zM217 0h-169v432q0 56 11.5 101.5t38.5 77t72 48.5t112 17t112 -17t73 -48.5t40 -77t12 -101.5
v-432h-173v216h-129v-216zM346 340v103q0 55 -12.5 84t-51.5 29t-52 -29t-13 -84v-103h129z" />
    <glyph glyph-name="aringacute" unicode="&#x1fb;" horiz-adv-x="455" 
d="M346 649q0 -51 -32 -72t-86 -21t-86 21t-32 72q0 37 19 57.5t51 30.5l36 90h138l-78 -91q32 -9 51 -30t19 -57zM260 649q0 32 -32 32q-33 0 -33 -32t33 -32q32 0 32 32zM53 477q34 11 76.5 16.5t78.5 5.5q44 0 81.5 -8.5t65 -28t43 -51t15.5 -77.5v-309q-17 -6 -39.5 -13
t-48.5 -12t-54 -8.5t-55 -3.5q-41 0 -76.5 7.5t-61.5 26.5t-40.5 51.5t-14.5 81.5q0 44 15 73t39.5 46.5t56 25t64.5 7.5q24 0 47 -3v25q0 32 -11.5 43t-36.5 11q-34 0 -69 -4.5t-69 -13.5zM245 213q-6 1 -12.5 1.5t-10.5 0.5q-21 0 -32 -15.5t-11 -51.5q0 -34 10.5 -48.5
t30.5 -14.5q5 0 12.5 0.5t12.5 1.5v126z" />
    <glyph glyph-name="AEacute" unicode="&#x1fc;" horiz-adv-x="792" 
d="M745 665v-118h-210v-151h197v-119h-197v-91q0 -42 15 -55t37 -13h167v-118h-175q-51 0 -91.5 9t-68 31t-42 58.5t-14.5 91.5v67h-130v-257h-169v432q0 56 11.5 101.5t38 77t68 48.5t101.5 17q13 0 28.5 -2t30 -6.5t27 -11.5t19.5 -16v25h357zM362 386v57q0 55 -12.5 84
t-51.5 29t-52 -29t-13 -84v-57h129zM623 916l-108 -161h-118l66 161h160z" />
    <glyph glyph-name="aeacute" unicode="&#x1fd;" horiz-adv-x="659" 
d="M414 199q2 -54 19 -74.5t57 -20.5q11 0 27 1.5t33 4.5t34.5 6.5t31.5 7.5l13 -112q-32 -11 -75.5 -17.5t-86.5 -6.5q-38 0 -71 6.5t-57 23.5q-9 -5 -23 -10.5t-31 -10t-35 -7t-34 -2.5q-41 0 -76.5 7.5t-61.5 26.5t-40.5 51.5t-14.5 81.5q0 44 15 73t39.5 46.5t56 25
t64.5 7.5q24 0 47 -3v22q0 35 -11 46t-34 11q-28 0 -67.5 -4.5t-73.5 -13.5l-6 112q34 11 76.5 16.5t78.5 5.5q38 0 70.5 -6t57.5 -20q20 14 48 20t66 6q50 0 85 -14.5t57.5 -42.5t33 -67.5t10.5 -89.5v-86h-222zM230 214q-4 0 -8 1q-21 0 -32 -15.5t-11 -51.5
q0 -34 11.5 -47t29.5 -13q14 0 23 2t20 7q-12 26 -16 53t-6 64h-11zM480 287q3 48 -4 79t-28 31q-22 0 -29.5 -30.5t-5.5 -79.5h67zM505 730l-108 -161h-118l66 161h160z" />
    <glyph glyph-name="Oslashacute" unicode="&#x1fe;" horiz-adv-x="588" 
d="M556 331q0 -178 -65 -260.5t-197 -82.5q-76 0 -127 25l-43 -81l-70 39l49 91q-71 84 -71 269q0 180 64.5 262.5t197.5 82.5q74 0 125 -25l46 85l70 -39l-51 -95q72 -84 72 -271zM378 332q0 19 -0.5 36t-1.5 33l-139 -258q20 -35 58 -35q21 0 36.5 11t26 37.5t15.5 69.5
t5 106zM210 332q0 -19 0.5 -35.5t1.5 -31.5l138 257q-18 34 -55 34q-22 0 -38 -11t-26.5 -37.5t-15.5 -69.5t-5 -106zM452 916l-108 -161h-118l66 161h160z" />
    <glyph glyph-name="oslashacute" unicode="&#x1ff;" horiz-adv-x="490" 
d="M463 244q0 -134 -56 -195t-162 -61q-58 0 -105 19l-47 -82l-49 30l48 84q-65 62 -65 205q0 134 56 194.5t162 60.5q61 0 103 -19l48 84l49 -30l-49 -85q67 -61 67 -205zM290 266l-79 -136q10 -26 34 -26q25 0 35 31t10 109v22zM200 225l77 134q-10 24 -32 24
q-25 0 -35 -30.5t-10 -108.5v-19zM408 730l-108 -161h-118l66 161h160z" />
    <glyph glyph-name="Scommaaccent" unicode="&#x218;" horiz-adv-x="478" 
d="M415 540q-14 3 -32 6t-37 5t-37.5 3.5t-31.5 1.5q-33 0 -51.5 -13t-18.5 -45q0 -28 21 -47.5t52 -39.5q28 -19 58 -42t54.5 -51.5t40 -65t15.5 -82.5q0 -96 -59 -139.5t-169 -43.5q-26 0 -52 2.5t-49.5 7t-43.5 9t-35 9.5l15 118q17 -5 38 -9.5t42.5 -8t42 -5.5t38.5 -2
q26 0 42.5 12.5t16.5 47.5q0 33 -25 57t-58 47q-27 19 -55 41t-51.5 48.5t-38.5 58.5t-15 71q0 51 18 86.5t51 57.5t78.5 31.5t99.5 9.5q18 0 38 -1t40 -3.5t38.5 -5.5t32.5 -6zM361 -46l-92 -142h-118l50 142h160z" />
    <glyph glyph-name="scommaaccent" unicode="&#x219;" horiz-adv-x="416" 
d="M365 374q-31 8 -59.5 11.5t-57.5 3.5q-23 0 -36.5 -6t-13.5 -26q0 -12 14.5 -23t35.5 -23.5t46.5 -27.5t46.5 -36t35.5 -48.5t14.5 -64.5q0 -39 -14 -67t-39 -46t-59 -26t-73 -8q-49 0 -91 7t-77 17l10 110q29 -8 64 -14.5t59 -6.5q23 0 34 7.5t11 25.5q0 13 -14 24.5
t-34.5 24t-44.5 27.5t-44.5 34.5t-34.5 45.5t-14 61q0 42 16 70.5t45 46t68.5 25t86.5 7.5q34 0 67.5 -4t58.5 -9zM314 -46l-92 -142h-118l50 142h160z" />
    <glyph glyph-name="Wgrave" unicode="&#x1e80;" horiz-adv-x="783" 
d="M386 916l64 -161h-116l-108 161h160zM471 0l-82 349l-88 -349h-166l-131 665h174l60 -435l76 318h150l76 -318q32 109 49.5 221t25.5 214h164q-19 -171 -56.5 -339.5t-92.5 -325.5h-159z" />
    <glyph glyph-name="wgrave" unicode="&#x1e81;" horiz-adv-x="761" 
d="M373 730l64 -161h-116l-108 161h160zM445 0l-63 342l-75 -342h-190l-109 487h175l47 -321l63 321h181l59 -322q13 41 22.5 80t17 78t12.5 79.5t9 84.5h159q-12 -103 -42.5 -225t-82.5 -262h-183z" />
    <glyph glyph-name="Wacute" unicode="&#x1e82;" horiz-adv-x="783" 
d="M557 916l-108 -161h-118l66 161h160zM471 0l-82 349l-88 -349h-166l-131 665h174l60 -435l76 318h150l76 -318q32 109 49.5 221t25.5 214h164q-19 -171 -56.5 -339.5t-92.5 -325.5h-159z" />
    <glyph glyph-name="wacute" unicode="&#x1e83;" horiz-adv-x="761" 
d="M542 730l-108 -161h-118l66 161h160zM445 0l-63 342l-75 -342h-190l-109 487h175l47 -321l63 321h181l59 -322q13 41 22.5 80t17 78t12.5 79.5t9 84.5h159q-12 -103 -42.5 -225t-82.5 -262h-183z" />
    <glyph glyph-name="Wdieresis" unicode="&#x1e84;" horiz-adv-x="783" 
d="M378 835q0 -31 -21 -47.5t-59 -16.5t-59 16.5t-21 47.5t21 47.5t59 16.5t59 -16.5t21 -47.5zM563 835q0 -31 -21 -47.5t-59 -16.5t-59 16.5t-21 47.5t21 47.5t59 16.5t59 -16.5t21 -47.5zM471 0l-82 349l-88 -349h-166l-131 665h174l60 -435l76 318h150l76 -318
q32 109 49.5 221t25.5 214h164q-19 -171 -56.5 -339.5t-92.5 -325.5h-159z" />
    <glyph glyph-name="wdieresis" unicode="&#x1e85;" horiz-adv-x="761" 
d="M368 651q0 -31 -21 -47.5t-59 -16.5t-59 16.5t-21 47.5t21 47.5t59 16.5t59 -16.5t21 -47.5zM553 651q0 -31 -21 -47.5t-59 -16.5t-59 16.5t-21 47.5t21 47.5t59 16.5t59 -16.5t21 -47.5zM445 0l-63 342l-75 -342h-190l-109 487h175l47 -321l63 321h181l59 -322
q13 41 22.5 80t17 78t12.5 79.5t9 84.5h159q-12 -103 -42.5 -225t-82.5 -262h-183z" />
    <glyph glyph-name="Ygrave" unicode="&#x1ef2;" horiz-adv-x="550" 
d="M291 916l64 -161h-116l-108 161h160zM190 232l-192 433h181l108 -281q18 36 33 69.5t27.5 67t23 69t18.5 75.5h163q-32 -127 -79 -231.5t-113 -197.5v-236h-170v232z" />
    <glyph glyph-name="ygrave" unicode="&#x1ef3;" horiz-adv-x="502" 
d="M212 487v-307q0 -35 10 -49.5t29 -14.5q9 0 17 1t13 3v367h168v-462q0 -69 -17 -113t-47 -68.5t-71.5 -34t-89.5 -9.5q-20 0 -43 2.5t-44.5 6t-39.5 8t-28 8.5l13 114q28 -8 65 -15.5t72 -7.5t48.5 17t13.5 62v10q-9 -2 -23.5 -3.5t-27.5 -1.5q-41 0 -75 9.5t-58.5 31.5
t-38 57.5t-13.5 87.5v301h167zM247 730l64 -161h-116l-108 161h160z" />
    <glyph glyph-name="minus" unicode="&#x2212;" 
d="M472 372v-107h-426v107h426z" />
    <glyph glyph-name="uni00AD" unicode="&#xad;" horiz-adv-x="356" 
d="M310 327v-112h-264v112h264z" />
    <glyph glyph-name="nonbreakingspace" unicode="&#xa0;" horiz-adv-x="233" 
 />
    <glyph glyph-name="afii10017" unicode="&#x410;" horiz-adv-x="568" 
d="M217 0h-169v432q0 56 11.5 101.5t38.5 77t72 48.5t112 17t112 -17t73 -48.5t40 -77t12 -101.5v-432h-173v216h-129v-216zM346 340v103q0 55 -12.5 84t-51.5 29t-52 -29t-13 -84v-103h129z" />
    <glyph glyph-name="afii10065" unicode="&#x430;" horiz-adv-x="455" 
d="M53 477q34 11 76.5 16.5t78.5 5.5q44 0 81.5 -8.5t65 -28t43 -51t15.5 -77.5v-309q-17 -6 -39.5 -13t-48.5 -12t-54 -8.5t-55 -3.5q-41 0 -76.5 7.5t-61.5 26.5t-40.5 51.5t-14.5 81.5q0 44 15 73t39.5 46.5t56 25t64.5 7.5q24 0 47 -3v25q0 32 -11.5 43t-36.5 11
q-34 0 -69 -4.5t-69 -13.5zM245 213q-6 1 -12.5 1.5t-10.5 0.5q-21 0 -32 -15.5t-11 -51.5q0 -34 10.5 -48.5t30.5 -14.5q5 0 12.5 0.5t12.5 1.5v126z" />
    <glyph glyph-name="afii10019" unicode="&#x412;" horiz-adv-x="557" 
d="M270 665q52 0 94.5 -9t73 -29t47 -53t16.5 -81q0 -61 -26 -97t-75 -56v-1q24 -6 45.5 -17.5t38.5 -30t27 -45t10 -62.5q0 -55 -18.5 -92.5t-51.5 -61t-78 -33.5t-98 -10q-45 0 -99 7.5t-113 22.5v648h207zM235 103q10 -2 19 -2h16q40 0 53 23t13 69q0 42 -13 63t-45 21
h-43v-174zM235 393h41q23 0 36.5 18.5t13.5 62.5q0 45 -12.5 61.5t-38.5 16.5h-40v-159z" />
    <glyph glyph-name="afii10022" unicode="&#x415;" horiz-adv-x="487" 
d="M440 665v-118h-210v-151h197v-119h-197v-91q0 -42 15 -55t37 -13h167v-118h-174q-52 0 -92.5 9t-68 31t-42 58.5t-14.5 91.5v475h382z" />
    <glyph glyph-name="afii10070" unicode="&#x435;" horiz-adv-x="453" 
d="M201 199q2 -54 19.5 -74.5t57.5 -20.5q22 0 57.5 5.5t67.5 13.5l13 -110q-28 -12 -72.5 -18.5t-87.5 -6.5q-49 0 -91 11.5t-72.5 40.5t-48 78.5t-17.5 125.5q0 75 15 124t43 78.5t67 41t87 11.5q50 0 85 -14.5t57 -42.5t32 -67.5t10 -89.5v-86h-222zM267 287q3 48 -4 79
t-28 31q-22 0 -29.5 -30.5t-5.5 -79.5h67z" />
    <glyph glyph-name="afii10028" unicode="&#x41a;" horiz-adv-x="576" 
d="M238 665v-276l168 276h173l-200 -313q48 -18 81 -59t54 -106l61 -187h-186l-43 138q-13 42 -27.5 66t-31.5 32l-49 -79v-157h-172v665h172z" />
    <glyph glyph-name="afii10030" unicode="&#x41c;" horiz-adv-x="776" 
d="M327 200l-90 195v-395h-171v665h169l153 -305l153 305h169v-665h-171v395l-90 -195h-122z" />
    <glyph glyph-name="afii10031" unicode="&#x41d;" horiz-adv-x="632" 
d="M238 665v-262h156v262h172v-665h-172v278h-156v-278h-172v665h172z" />
    <glyph glyph-name="afii10032" unicode="&#x41e;" horiz-adv-x="588" 
d="M556 331q0 -178 -65 -260.5t-197 -82.5t-197 82.5t-65 260.5q0 180 64.5 262.5t197.5 82.5t197.5 -82.5t64.5 -262.5zM378 332q0 63 -5 106t-15.5 69.5t-26 37.5t-36.5 11q-22 0 -38 -11t-26.5 -37.5t-15.5 -69.5t-5 -106t5 -106t15.5 -69.5t26.5 -37.5t38 -11
q21 0 36.5 11t26 37.5t15.5 69.5t5 106z" />
    <glyph glyph-name="afii10034" unicode="&#x420;" horiz-adv-x="528" 
d="M267 665q58 0 102 -11t73 -37t44 -68t15 -103q0 -64 -16 -107t-44.5 -69.5t-68 -37.5t-85.5 -11q-25 0 -49 3v-224h-172v665h201zM238 344q8 -1 14.5 -1.5t12.5 -0.5q35 0 50.5 24.5t15.5 79.5q0 30 -4 50t-12 31t-20 15.5t-28 4.5h-29v-203z" />
    <glyph glyph-name="afii10035" unicode="&#x421;" horiz-adv-x="491" 
d="M446 534q-23 7 -57.5 14.5t-71.5 7.5q-27 0 -47.5 -10t-33.5 -34.5t-19.5 -67t-6.5 -108.5q0 -69 6 -112.5t19 -68t33.5 -34t48.5 -9.5q14 0 33 2t38.5 5.5t37 7.5t28.5 8l9 -122q-12 -5 -29.5 -9.5t-38.5 -8t-43 -6t-42 -2.5q-67 0 -119 17.5t-87 58.5t-53.5 107.5
t-18.5 165.5q0 94 18 158.5t53 105t87 58.5t120 18q21 0 42.5 -1.5t41.5 -4.5t37.5 -6.5t29.5 -7.5z" />
    <glyph glyph-name="afii10036" unicode="&#x422;" horiz-adv-x="507" 
d="M498 665v-118h-157v-547h-172v547h-158v118h487z" />
    <glyph glyph-name="afii10039" unicode="&#x425;" horiz-adv-x="542" 
d="M4 665h189l84 -208l92 208h173l-169 -326l168 -339h-191l-87 202l-91 -202h-172l167 329z" />
    <glyph glyph-name="afii10087" unicode="&#x445;" horiz-adv-x="446" 
d="M188 487l45 -161l50 161h160l-107 -238l110 -249h-182l-53 161l-52 -161h-159l108 239l-102 248h182z" />
    <glyph glyph-name="afii10083" unicode="&#x441;" horiz-adv-x="379" 
d="M343 373q-18 4 -42 7t-42 3q-16 0 -27.5 -5t-18.5 -20t-10 -42t-3 -72q0 -76 10.5 -108t46.5 -32q21 0 44 4.5t46 11.5l12 -113q-24 -6 -53 -12.5t-69 -6.5q-48 0 -87 14.5t-66.5 45.5t-42 80t-14.5 118q0 72 16 120.5t44.5 78t69 42t90.5 12.5q26 0 58 -4t51 -9z" />
    <glyph glyph-name="afii10085" unicode="&#x443;" horiz-adv-x="480" 
d="M69 -93q28 29 53.5 60t42.5 63h-41l-124 457h174l71 -312q18 53 34 133.5t36 178.5h165q-8 -52 -22 -114t-32.5 -127.5t-43.5 -132t-55.5 -126.5t-67.5 -111t-80 -86l-110 117v0z" />
    <glyph glyph-name="afii10082" unicode="&#x440;" horiz-adv-x="495" 
d="M50 459q41 18 96 29t106 11q47 0 87 -13.5t68.5 -42.5t44.5 -76t16 -114q0 -75 -15 -126t-42 -81.5t-63.5 -44t-79.5 -13.5q-11 0 -25 1.5t-26 3.5v-181h-167v647zM251 383q-8 0 -16.5 -1t-16.5 -3v-272q11 -2 18.5 -2.5t16.5 -0.5q23 0 33 31.5t10 115.5q0 40 -3 65.5
t-8.5 40.5t-14 20.5t-19.5 5.5z" />
    <glyph glyph-name="afii10080" unicode="&#x43e;" horiz-adv-x="490" 
d="M463 244q0 -134 -56 -195t-162 -61t-162 61t-56 195t56 194.5t162 60.5t162 -60.5t56 -194.5zM290 244q0 78 -10 108.5t-35 30.5t-35 -30.5t-10 -108.5t10 -109t35 -31t35 31t10 109z" />
    <glyph glyph-name="afii10105" unicode="&#x458;" horiz-adv-x="273" 
d="M220 487v-403q0 -48 -9 -86.5t-28.5 -71.5t-52 -63t-78.5 -63l-75 79q23 25 37.5 46.5t23 45t12 50.5t3.5 62v404h167zM230 657q0 -42 -25.5 -63.5t-68.5 -21.5q-42 0 -68 21.5t-26 63.5t26 63.5t68 21.5q43 0 68.5 -21.5t25.5 -63.5z" />
    <glyph glyph-name="afii10054" unicode="&#x405;" horiz-adv-x="478" 
d="M415 540q-14 3 -32 6t-37 5t-37.5 3.5t-31.5 1.5q-33 0 -51.5 -13t-18.5 -45q0 -28 21 -47.5t52 -39.5q28 -19 58 -42t54.5 -51.5t40 -65t15.5 -82.5q0 -96 -59 -139.5t-169 -43.5q-26 0 -52 2.5t-49.5 7t-43.5 9t-35 9.5l15 118q17 -5 38 -9.5t42.5 -8t42 -5.5t38.5 -2
q26 0 42.5 12.5t16.5 47.5q0 33 -25 57t-58 47q-27 19 -55 41t-51.5 48.5t-38.5 58.5t-15 71q0 51 18 86.5t51 57.5t78.5 31.5t99.5 9.5q18 0 38 -1t40 -3.5t38.5 -5.5t32.5 -6z" />
    <glyph glyph-name="afii10102" unicode="&#x455;" horiz-adv-x="416" 
d="M365 374q-31 8 -59.5 11.5t-57.5 3.5q-23 0 -36.5 -6t-13.5 -26q0 -12 14.5 -23t35.5 -23.5t46.5 -27.5t46.5 -36t35.5 -48.5t14.5 -64.5q0 -39 -14 -67t-39 -46t-59 -26t-73 -8q-49 0 -91 7t-77 17l10 110q29 -8 64 -14.5t59 -6.5q23 0 34 7.5t11 25.5q0 13 -14 24.5
t-34.5 24t-44.5 27.5t-44.5 34.5t-34.5 45.5t-14 61q0 42 16 70.5t45 46t68.5 25t86.5 7.5q34 0 67.5 -4t58.5 -9z" />
    <glyph glyph-name="afii10018" unicode="&#x411;" horiz-adv-x="531" 
d="M66 665h394v-118h-222v-116h29q58 0 102 -11t73 -37t44 -68t15 -103q0 -64 -16.5 -107t-45.5 -69.5t-70.5 -37.5t-90.5 -11q-45 0 -99 7.5t-113 22.5v648zM238 110q8 -1 14.5 -1.5t12.5 -0.5q35 0 50.5 24.5t15.5 79.5q0 30 -4 50t-12 31t-20 15.5t-28 4.5h-29v-203z" />
    <glyph glyph-name="afii10024" unicode="&#x416;" horiz-adv-x="830" 
d="M329 171l-40 65q-17 -8 -31.5 -32t-27.5 -66l-43 -138h-186l61 187q21 65 54 106t81 59l-200 313h173l159 -261v261h172v-261l159 261h173l-200 -313q48 -18 81 -59t54 -106l61 -187h-186l-43 138q-13 42 -27.5 66t-31.5 32l-40 -65v-171h-172v171z" />
    <glyph glyph-name="afii10033" unicode="&#x41f;" horiz-adv-x="632" 
d="M566 665v-665h-172v540h-156v-540h-172v665h500z" />
    <glyph glyph-name="afii10026" unicode="&#x418;" horiz-adv-x="639" 
d="M66 0v665h168v-366l171 273v93h168v-665h-168v341l-171 -261v-80h-168z" />
    <glyph glyph-name="afii10027" unicode="&#x419;" horiz-adv-x="639" 
d="M66 0v665h168v-366l171 273v93h168v-665h-168v341l-171 -261v-80h-168zM283 900q1 -29 10 -41.5t27 -12.5t27 12.5t10 41.5h111q-2 -41 -13 -68.5t-30.5 -44.5t-46 -24.5t-58.5 -7.5t-58.5 7.5t-46 24.5t-31 44.5t-13.5 68.5h112z" />
    <glyph glyph-name="afii10029" unicode="&#x41b;" horiz-adv-x="628" 
d="M140 665h422v-665h-172v540h-92l-26 -293q-12 -133 -66 -196.5t-137 -63.5q-13 0 -27 2t-25 4q-14 3 -27 7v125h22q36 0 61 30.5t30 90.5z" />
    <glyph glyph-name="afii10021" unicode="&#x414;" horiz-adv-x="632" 
d="M-5 125h35q16 14 28 35q11 18 20.5 44.5t13.5 64.5l35 396h422v-540h78l-30 -275h-143v150h-287l-30 -150h-142v275zM261 270q-4 -38 -14.5 -65t-21.5 -45q-13 -21 -30 -35h182v415h-91z" />
    <glyph glyph-name="afii10040" unicode="&#x426;" horiz-adv-x="653" 
d="M66 0v665h172v-540h156v540h172v-540h77l-29 -275h-143v150h-405z" />
    <glyph glyph-name="afii10045" unicode="&#x42b;" horiz-adv-x="794" 
d="M66 665h172v-234h29q54 0 96 -11t70.5 -37t43 -68t14.5 -103q0 -64 -16 -107t-44.5 -69.5t-67.5 -37.5t-85 -11q-45 0 -99 7.5t-113 22.5v648zM238 110q8 -1 14.5 -1.5t12.5 -0.5q30 0 43 24.5t13 79.5q0 30 -3 50t-10 31t-17 15.5t-24 4.5h-29v-203zM728 665v-665h-172
v665h172z" />
    <glyph glyph-name="afii10044" unicode="&#x42a;" horiz-adv-x="570" 
d="M108 537h-108v128h280v-234h29q58 0 102 -11t73 -37t44 -68t15 -103q0 -64 -16.5 -107t-45.5 -69.5t-70.5 -37.5t-90.5 -11q-45 0 -99 7.5t-113 22.5v520zM280 110q8 -1 14.5 -1.5t12.5 -0.5q35 0 50.5 24.5t15.5 79.5q0 30 -4 50t-12 31t-20 15.5t-28 4.5h-29v-203z" />
    <glyph glyph-name="afii10025" unicode="&#x417;" horiz-adv-x="470" 
d="M183 401q30 0 53.5 17.5t23.5 61.5q0 40 -24.5 57t-57.5 17q-35 0 -68.5 -7.5t-61.5 -16.5l-15 118q14 5 35 10t45.5 9.5t50.5 7.5t50 3q48 0 88.5 -12t69.5 -35.5t45 -58.5t16 -82q0 -40 -13.5 -68t-30.5 -46q-19 -21 -43 -34q26 -11 46 -30q17 -17 31.5 -44t14.5 -68
q0 -54 -17.5 -94t-49 -66.5t-75.5 -39.5t-97 -13q-54 0 -100.5 11t-78.5 22l16 119q32 -11 71.5 -19.5t79.5 -8.5q15 0 29 4.5t25 15t17.5 29t6.5 45.5q0 24 -6.5 38.5t-17.5 22.5t-26 10.5t-32 2.5h-66v122h66z" />
    <glyph glyph-name="afii10055" unicode="&#x406;" horiz-adv-x="304" 
d="M238 665v-665h-172v665h172z" />
    <glyph glyph-name="afii10103" unicode="&#x456;" horiz-adv-x="273" 
d="M220 487v-487h-167v487h167zM230 657q0 -42 -25.5 -63.5t-68.5 -21.5q-42 0 -68 21.5t-26 63.5t26 63.5t68 21.5q43 0 68.5 -21.5t25.5 -63.5z" />
    <glyph glyph-name="afii10057" unicode="&#x408;" horiz-adv-x="301" 
d="M238 665v-561q0 -59 -17.5 -103.5t-46 -79.5t-65 -64t-73.5 -57l-71 90q25 28 44 49.5t32 44t19 49.5t6 65v567h172z" />
    <glyph glyph-name="afii10037" unicode="&#x423;" horiz-adv-x="530" 
d="M37 117q28 12 52.5 31t43.5 37q22 21 41 45l-184 435h179l108 -288q42 85 62 158.5t34 129.5h167q-14 -61 -35 -127.5t-48.5 -132.5t-61.5 -129t-74.5 -118.5t-87.5 -100t-100 -73.5z" />
    <glyph glyph-name="afii10049" unicode="&#x42f;" horiz-adv-x="548" 
d="M484 665v-665h-172v230h-21q-31 0 -48 -22t-25 -71l-21 -137h-177l30 158q10 52 35 83t63 47q-19 10 -37 23.5t-31.5 32.5t-22 44.5t-8.5 60.5q0 61 15 102.5t44 67t73 36t102 10.5h201zM312 547h-29q-16 0 -28 -4t-20 -14.5t-12 -30t-4 -49.5q0 -55 15.5 -77.5
t50.5 -22.5h27v198z" />
    <glyph glyph-name="afii10076" unicode="&#x43a;" horiz-adv-x="480" 
d="M218 487v-148l81 148h166l-129 -202q48 -13 76.5 -45.5t39.5 -101.5l23 -138h-175l-19 125q-5 31 -14.5 44.5t-20.5 17.5l-28 -38v-149h-168v487h168z" />
    <glyph glyph-name="afii10072" unicode="&#x436;" horiz-adv-x="684" 
d="M234 187q-11 -4 -20.5 -17.5t-14.5 -44.5l-19 -125h-175l23 138q11 69 39.5 101.5t76.5 45.5l-129 202h166l77 -141v141h168v-141l77 141h166l-129 -202q48 -13 76.5 -45.5t39.5 -101.5l23 -138h-175l-19 125q-5 31 -14.5 44.5t-20.5 17.5l-24 -33v-154h-168v154z" />
    <glyph glyph-name="afii10042" unicode="&#x428;" horiz-adv-x="856" 
d="M66 0v665h172v-540h104v540h172v-540h104v540h172v-665h-724z" />
    <glyph glyph-name="afii10043" unicode="&#x429;" horiz-adv-x="877" 
d="M66 0v665h172v-540h104v540h172v-540h104v540h172v-540h77l-29 -275h-143v150h-629z" />
    <glyph glyph-name="afii10048" unicode="&#x42e;" horiz-adv-x="852" 
d="M820 331q0 -178 -64.5 -260.5t-188.5 -82.5q-115 0 -178 69.5t-73 220.5h-78v-278h-172v665h172v-262h80q12 142 74.5 207.5t174.5 65.5q124 0 188.5 -83t64.5 -262zM642 332q0 63 -5 106t-15 69.5t-23.5 37.5t-30.5 11q-18 0 -32 -11t-23.5 -37.5t-14.5 -69.5t-5 -106
t5 -106t14.5 -69.5t23.5 -37.5t32 -11q17 0 30.5 11t23.5 37.5t15 69.5t5 106z" />
    <glyph glyph-name="afii10047" unicode="&#x42d;" horiz-adv-x="491" 
d="M30 656q12 4 29.5 7.5t37.5 6.5t41.5 4.5t42.5 1.5q68 0 120 -18t87 -58.5t53 -105t18 -158.5q0 -99 -18.5 -165.5t-53.5 -107.5t-87 -58.5t-119 -17.5q-20 0 -42 2.5t-43 6t-38.5 8t-29.5 9.5l9 122q11 -4 28.5 -8t37 -7.5t38.5 -5.5t33 -2q25 0 44 7t31.5 25.5t20 51
t10.5 82.5h-176v118h176q-3 47 -11 78t-21 49t-31.5 25.5t-42.5 7.5q-37 0 -71.5 -7.5t-57.5 -14.5z" />
    <glyph glyph-name="afii10053" unicode="&#x404;" horiz-adv-x="491" 
d="M446 534q-23 7 -57.5 14.5t-71.5 7.5q-24 0 -42.5 -7.5t-31.5 -25.5t-21 -49t-11 -78h176v-118h-176q3 -50 10.5 -82.5t20 -51t31.5 -25.5t44 -7q14 0 33 2t38.5 5.5t37 7.5t28.5 8l9 -122q-12 -5 -29.5 -9.5t-38.5 -8t-43 -6t-42 -2.5q-67 0 -119 17.5t-87 58.5
t-53.5 107.5t-18.5 165.5q0 94 18 158.5t53 105t87 58.5t120 18q21 0 42.5 -1.5t41.5 -4.5t37.5 -6.5t29.5 -7.5z" />
    <glyph glyph-name="afii10041" unicode="&#x427;" horiz-adv-x="596" 
d="M362 216q-17 -2 -34.5 -4t-34.5 -2q-67 0 -113 15.5t-74.5 45t-41 73t-12.5 99.5v222h172v-233q0 -55 19.5 -78t54.5 -23q22 0 39 3t25 5v326h172v-665h-172v216z" />
    <glyph glyph-name="afii10038" unicode="&#x424;" horiz-adv-x="741" 
d="M457 605q126 0 192.5 -71t66.5 -203t-66.5 -203t-192.5 -71v-80h-173v80q-126 0 -192.5 71t-66.5 203t66.5 203t192.5 71v80h173v-80zM284 484q-21 0 -36.5 -7.5t-26 -25.5t-15.5 -47.5t-5 -73.5q0 -86 21 -119t62 -33v306zM457 178q21 0 36.5 7.5t26 25.5t15.5 47.5
t5 73.5q0 86 -21 119t-62 33v-306z" />
    <glyph glyph-name="afii10058" unicode="&#x409;" horiz-adv-x="832" 
d="M380 540h-82l-26 -293q-12 -133 -66 -196.5t-137 -63.5q-13 0 -27 2t-25 4q-14 3 -27 7v125h22q36 0 61 30.5t30 90.5l37 419h412v-234h29q54 0 96 -11t70.5 -37t43 -68t14.5 -103q0 -64 -16 -107t-44.5 -69.5t-67.5 -37.5t-85 -11q-45 0 -99 7.5t-113 22.5v523zM552 110
q6 -1 13.5 -1.5t13.5 -0.5q30 0 43 24.5t13 79.5q0 30 -3 50t-10 31t-17 15.5t-24 4.5h-29v-203z" />
    <glyph glyph-name="afii10059" unicode="&#x40a;" horiz-adv-x="836" 
d="M384 306h-146v-306h-172v665h172v-234h146v234h172v-234h29q54 0 96 -11t70.5 -37t43 -68t14.5 -103q0 -64 -16 -107t-44.5 -69.5t-67.5 -37.5t-85 -11q-45 0 -99 7.5t-113 22.5v289zM556 110q8 -1 14.5 -1.5t12.5 -0.5q30 0 43 24.5t13 79.5q0 30 -3 50t-10 31t-17 15.5
t-24 4.5h-29v-203z" />
    <glyph glyph-name="afii10145" unicode="&#x40f;" horiz-adv-x="632" 
d="M402 0v-150h-172v150h-164v665h172v-540h156v540h172v-665h-164z" />
    <glyph glyph-name="afii10060" unicode="&#x40b;" horiz-adv-x="674" 
d="M453 547h-139v-133q17 2 34.5 4t34.5 2q67 0 113 -15.5t74.5 -45t41 -73t12.5 -99.5v-187h-172v198q0 55 -19.5 78t-54.5 23q-22 0 -39 -3t-25 -5v-291h-172v547h-142v118h453v-118z" />
    <glyph glyph-name="afii10068" unicode="&#x433;" horiz-adv-x="375" 
d="M370 371h-153v-371h-167v487h320v-116z" />
    <glyph glyph-name="afii10079" unicode="&#x43d;" horiz-adv-x="507" 
d="M218 487v-186h71v186h168v-487h-168v185h-71v-185h-168v487h168z" />
    <glyph glyph-name="afii10081" unicode="&#x43f;" horiz-adv-x="507" 
d="M457 487v-487h-168v371h-71v-371h-168v487h407z" />
    <glyph glyph-name="afii10078" unicode="&#x43c;" horiz-adv-x="626" 
d="M268 120l-51 98v-218h-167v487h155l108 -207l108 207h155v-487h-167v218l-51 -98h-90z" />
    <glyph glyph-name="afii10088" unicode="&#x446;" horiz-adv-x="515" 
d="M50 0v487h168v-371h71v371h168v-371h53l-17 -237h-150v121h-293z" />
    <glyph glyph-name="afii10077" unicode="&#x43b;" horiz-adv-x="516" 
d="M466 0h-167v370h-46l-19 -174q-11 -102 -55 -155.5t-104 -53.5q-20 0 -35 2t-25 4q-12 3 -20 7v116h15q23 0 41 19.5t22 60.5l27 291h366v-487z" />
    <glyph glyph-name="afii10074" unicode="&#x438;" horiz-adv-x="517" 
d="M218 487v-189l81 118v71h168v-487h-168v189l-81 -118v-71h-168v487h168z" />
    <glyph glyph-name="afii10094" unicode="&#x44c;" horiz-adv-x="490" 
d="M468 169q0 -40 -12.5 -73.5t-39.5 -57.5t-69 -37.5t-101 -13.5q-64 0 -115.5 12t-80.5 24v464h169v-145q5 1 14 3q8 2 21 3t33 1q88 0 134.5 -48.5t46.5 -131.5zM218 107q3 -1 7 -2q8 -2 17 -2q26 0 40 17.5t14 48.5q0 27 -13.5 45.5t-36.5 18.5q-14 0 -22 -4l-6 -3v-119
z" />
    <glyph glyph-name="afii10069" unicode="&#x434;" horiz-adv-x="519" 
d="M25 116q10 11 18 27q7 14 13.5 32.5t8.5 44.5l25 267h366v-370h53l-17 -237h-150v120h-188l-9 -120h-150v236h30zM227 220q-3 -26 -11 -44.5t-16 -32.5q-10 -16 -21 -27h110v254h-46z" />
    <glyph glyph-name="afii10084" unicode="&#x442;" horiz-adv-x="415" 
d="M5 487h405v-116h-119v-371h-167v371h-119v116z" />
    <glyph glyph-name="afii10051" unicode="&#x402;" horiz-adv-x="651" 
d="M452 198q0 55 -19.5 78t-54.5 23q-22 0 -39 -3t-25 -5v-291h-172v547h-142v118h453v-118h-139v-133q17 2 34.5 4t34.5 2q67 0 113 -15.5t74.5 -45t41 -73.5t12.5 -101q0 -59 -17.5 -103.5t-46 -79.5t-65 -64t-73.5 -57l-71 90q25 28 44 49.5t32 44t19 49.5t6 65v19v0z
" />
    <glyph glyph-name="afii10098" unicode="&#x491;" horiz-adv-x="380" 
d="M50 487h182v124h138v-240h-153v-371h-167v487z" />
    <glyph glyph-name="afii10050" unicode="&#x490;" horiz-adv-x="460" 
d="M238 0h-172v665h254v115h140v-233h-222v-547z" />
    <glyph glyph-name="afii10093" unicode="&#x44b;" horiz-adv-x="717" 
d="M458 169q0 -40 -12.5 -73.5t-38.5 -57.5t-66 -37.5t-95 -13.5q-64 0 -115.5 12t-80.5 24v464h169v-145l12 3q7 2 19.5 3t32.5 1q82 0 128.5 -48.5t46.5 -131.5zM218 107q3 -1 7 -2q8 -2 17 -2q23 0 33.5 15.5t10.5 50.5q0 31 -11 47.5t-29 16.5q-14 0 -22 -4l-6 -3v-119z
M667 487v-487h-167v487h167z" />
    <glyph glyph-name="afii10108" unicode="&#x45b;" horiz-adv-x="504" 
d="M0 665h52v65h168v-65h106v-116h-106v-73q11 2 22.5 3t22.5 1q46 0 82.5 -9.5t61 -30.5t37.5 -56t13 -86v-298h-168v292q0 42 -7 57t-32 15q-9 0 -16.5 -1t-15.5 -3v-360h-168v549h-52v116z" />
    <glyph glyph-name="afii10099" unicode="&#x452;" horiz-adv-x="500" 
d="M291 292q0 42 -7 57t-32 15q-9 0 -16.5 -1t-15.5 -3v-360h-168v549h-52v116h52v65h168v-65h106v-116h-106v-73q11 2 22.5 3t22.5 1q46 0 82.5 -9.5t61 -30.5t37.5 -56t13 -86v-154q0 -48 -9 -86.5t-29 -71.5t-52.5 -63t-78.5 -63l-75 79q23 25 37.5 46.5t23 45t12 50.5
t3.5 62v149v0z" />
    <glyph glyph-name="afii10106" unicode="&#x459;" horiz-adv-x="718" 
d="M698 169q0 -40 -12.5 -73.5t-38.5 -57.5t-66 -37.5t-95 -13.5q-64 0 -115.5 12t-80.5 24v347h-37l-19 -174q-11 -102 -55 -155.5t-104 -53.5q-20 0 -35 2t-25 4q-12 3 -20 7v116h15q23 0 41 19.5t22 60.5l27 291h359v-145l12 3q7 2 19.5 3t32.5 1q82 0 128.5 -48.5
t46.5 -131.5zM458 107q3 -1 7 -2q8 -2 17 -2q23 0 33.5 15.5t10.5 50.5q0 31 -11 47.5t-29 16.5q-14 0 -22 -4l-6 -3v-119z" />
    <glyph glyph-name="afii10107" unicode="&#x45a;" horiz-adv-x="708" 
d="M688 169q0 -40 -12.5 -73.5t-38.5 -57.5t-66 -37.5t-95 -13.5q-64 0 -115 11.5t-81 23.5v197h-61v-219h-168v487h168v-152h61v152h169v-145l12 3q7 2 19.5 3t32.5 1q82 0 128.5 -48.5t46.5 -131.5zM448 107q3 -1 7 -2q8 -2 17 -2q23 0 33.5 15.5t10.5 50.5q0 31 -11 47.5
t-29 16.5q-14 0 -22 -4l-6 -3v-119z" />
    <glyph glyph-name="afii10193" unicode="&#x45f;" horiz-adv-x="507" 
d="M337 0v-120h-168v120h-119v487h168v-370h71v370h168v-487h-120z" />
    <glyph glyph-name="afii10101" unicode="&#x454;" horiz-adv-x="379" 
d="M343 373q-18 4 -42 7t-42 3q-26 0 -39.5 -15t-17.5 -66h93v-116h-94q4 -45 15.5 -63.5t40.5 -18.5q21 0 44 4.5t46 11.5l12 -113q-24 -6 -53 -12.5t-69 -6.5q-48 0 -87 14.5t-66.5 45.5t-42 80t-14.5 118q0 72 16 120.5t44.5 78t69 42t90.5 12.5q26 0 58 -4t51 -9z" />
    <glyph glyph-name="afii10095" unicode="&#x44d;" horiz-adv-x="379" 
d="M23 486q19 5 51 9t58 4q49 0 90 -12.5t69.5 -42t44.5 -78t16 -120.5q0 -69 -14.5 -118t-42 -80t-66.5 -45.5t-87 -14.5q-40 0 -69 6.5t-53 12.5l12 113q23 -7 46 -11.5t44 -4.5q29 0 40.5 18.5t15.5 63.5h-94v116h93q-4 51 -17.5 66t-39.5 15q-18 0 -42 -3t-42 -7z" />
    <glyph glyph-name="afii61352" unicode="&#x2116;" horiz-adv-x="973" 
d="M203 665l202 -299v299h168v-665h-168v140l-171 258v-398h-168v665h137zM774 448q-14 0 -21.5 -20.5t-7.5 -74.5q0 -55 7.5 -76t21.5 -21q15 0 21 21t6 75q0 55 -6 75.5t-21 20.5zM774 529q33 0 61.5 -9.5t49 -30.5t32 -55t11.5 -82q0 -47 -11.5 -80.5t-32 -55.5t-49 -32
t-61.5 -10t-61.5 10t-49 32t-32 56t-11.5 81q0 48 11.5 81.5t32 54.5t49 30.5t61.5 9.5zM906 112v-112h-264v112h264z" />
    <glyph glyph-name="afii10066" unicode="&#x431;" horiz-adv-x="503" 
d="M282 469q96 0 145 -62.5t49 -180.5q0 -54 -13 -98.5t-40 -75.5t-68 -48t-98 -17q-109 0 -166.5 70t-57.5 216v54q0 93 16 160.5t47 113.5t75.5 71.5t100.5 34.5l139 23l15 -142l-138 -22q-46 -8 -69.5 -37.5t-31.5 -93.5q7 9 20 17q11 6 29 11.5t46 5.5zM200 226
q0 -37 4 -60.5t11 -37.5t17 -19.5t22 -5.5q13 0 23.5 5.5t17.5 19.5t10.5 37.5t3.5 60.5q0 70 -14.5 96.5t-40.5 26.5q-25 0 -39.5 -26.5t-14.5 -96.5z" />
    <glyph glyph-name="afii10086" unicode="&#x444;" horiz-adv-x="701" 
d="M267 665h167v-167q6 1 12 1h12q47 0 87 -13.5t68.5 -42.5t44.5 -76t16 -114q0 -75 -15 -126t-42 -81.5t-63.5 -44t-79.5 -13.5q-9 0 -19.5 0.5t-20.5 2.5v-179h-167v179q-20 -3 -40 -3q-43 0 -79.5 13.5t-63.5 44t-42 81.5t-15 126q0 67 16 114t44.5 76t68.5 42.5
t87 13.5h12t12 -1v167zM457 383q-5 0 -11 -0.5t-12 -1.5v-276q6 -1 12 -1h13q23 0 33 31.5t10 115.5q0 40 -3 65.5t-8.5 40.5t-14 20.5t-19.5 5.5zM244 383q-11 0 -19.5 -5.5t-14 -20.5t-8.5 -40.5t-3 -65.5q0 -84 10 -115.5t33 -31.5h13t12 1v276q-6 1 -12 1.5t-11 0.5z
" />
    <glyph glyph-name="afii10089" unicode="&#x447;" horiz-adv-x="494" 
d="M276 153q-6 -2 -14 -3q-15 -3 -44 -3q-39 0 -72 8.5t-56.5 29.5t-36.5 57t-13 91v154h167v-153q0 -32 7.5 -48t30.5 -16q9 0 17 1t14 3v213h168v-487h-168v153z" />
    <glyph glyph-name="afii10090" unicode="&#x448;" horiz-adv-x="728" 
d="M50 0v487h168v-371h62v371h168v-371h62v371h168v-487h-628z" />
    <glyph glyph-name="afii10091" unicode="&#x449;" horiz-adv-x="736" 
d="M50 0v487h168v-371h62v371h168v-371h62v371h168v-371h53l-17 -237h-150v121h-514z" />
    <glyph glyph-name="afii10092" unicode="&#x44a;" horiz-adv-x="519" 
d="M0 487h260v-145l12 3q7 2 19.5 3t32.5 1q82 0 128.5 -48.5t46.5 -131.5q0 -40 -12.5 -73.5t-38.5 -57.5t-66 -37.5t-95 -13.5q-64 0 -115.5 12t-80.5 24v337h-91v127zM259 107q3 -1 7 -2q8 -2 17 -2q23 0 33.5 15.5t10.5 50.5q0 31 -11 47.5t-29 16.5q-14 0 -22 -4l-6 -3
v-119z" />
    <glyph glyph-name="afii10096" unicode="&#x44e;" horiz-adv-x="702" 
d="M675 244q0 -134 -55 -195t-158 -61q-92 0 -145.5 47t-64.5 150h-34v-185h-168v487h168v-185h34q11 103 65 150t145 47q50 0 89.5 -14.5t67 -45.5t42 -79.5t14.5 -115.5zM502 244q0 42 -2.5 69t-8 42.5t-13 21.5t-16.5 6q-10 0 -17.5 -6t-12.5 -21.5t-7.5 -42.5t-2.5 -69
t2.5 -69t7.5 -43t12.5 -22t17.5 -6t17.5 6t12.5 22t7.5 43t2.5 69z" />
    <glyph glyph-name="afii10097" unicode="&#x44f;" horiz-adv-x="504" 
d="M41 325q0 40 12.5 72t39.5 54.5t69 35t101 12.5q64 0 113 -12t78 -24v-461h-169v149h-9q-23 0 -40 -15.5t-25 -46.5l-22 -89h-174l24 93q8 31 21.5 51t27.5 32q16 14 33 21q-22 10 -40 28q-15 15 -27.5 39t-12.5 61zM286 379q-2 1 -5 2q-6 2 -14 2q-26 0 -40 -13.5
t-14 -44.5q0 -27 13.5 -42.5t36.5 -15.5h23v112z" />
    <glyph glyph-name="afii10067" unicode="&#x432;" horiz-adv-x="491" 
d="M50 468q15 6 36 11.5t47 10t55.5 7t60.5 2.5q101 0 148.5 -39t47.5 -97q0 -29 -10 -49t-22 -33q-14 -15 -32 -24q25 -9 44 -25q17 -14 30.5 -37t13.5 -59q0 -30 -12 -57t-38.5 -47.5t-67.5 -32.5t-99 -12q-64 0 -115 10t-87 21v450zM217 100q4 -2 10 -3q5 -1 11.5 -1.5
t14.5 -0.5q24 0 36.5 14.5t12.5 36.5q0 23 -12.5 38.5t-36.5 15.5h-36v-100zM236 306q23 0 32.5 11.5t9.5 30.5q0 18 -10 29t-27 11q-12 0 -24 -5v-77h19z" />
    <glyph glyph-name="afii10073" unicode="&#x437;" horiz-adv-x="394" 
d="M147 -11q-40 0 -73.5 5t-53.5 13l12 109q20 -6 48 -11t57 -5q38 0 50.5 15t12.5 35t-15.5 35t-50.5 15h-44v100h44q30 0 41.5 12.5t11.5 27.5q0 19 -11.5 31t-41.5 12q-29 0 -51.5 -3.5t-40.5 -8.5l-13 116q9 2 24.5 4.5t33 4t35 2.5t29.5 1q57 0 96 -13t63 -33t34 -44.5
t10 -48.5q0 -30 -11 -50t-25 -32q-16 -14 -35 -21q24 -7 42 -21q16 -12 29 -34t13 -56q0 -33 -13 -62t-40 -50t-68.5 -33t-98.5 -12z" />
    <glyph glyph-name="uni20BD" unicode="&#x20bd;" horiz-adv-x="528" 
d="M20 362h46v303h201q58 0 102 -10.5t73 -34t44 -62t15 -95.5q0 -59 -16 -99t-44.5 -64t-68 -34.5t-85.5 -10.5h-49v-49h162v-107h-162v-99h-172v99h-46v107h46v49h-46v107zM238 362h26q34 0 49.5 22t15.5 72q0 55 -15.5 73t-47.5 18h-28v-185z" />
    <glyph glyph-name="currency" unicode="&#xa4;" horiz-adv-x="528" 
d="M20 362h46v303h201q58 0 102 -10.5t73 -34t44 -62t15 -95.5q0 -59 -16 -99t-44.5 -64t-68 -34.5t-85.5 -10.5h-49v-49h162v-107h-162v-99h-172v99h-46v107h46v49h-46v107zM238 362h26q34 0 49.5 22t15.5 72q0 55 -15.5 73t-47.5 18h-28v-185z" />
    <glyph glyph-name="afii10023" unicode="&#x401;" horiz-adv-x="487" 
d="M440 665v-118h-210v-151h197v-119h-197v-91q0 -42 15 -55t37 -13h167v-118h-174q-52 0 -92.5 9t-68 31t-42 58.5t-14.5 91.5v475h382zM231 829q0 -31 -21 -47.5t-59 -16.5t-59 16.5t-21 47.5t21 47.5t59 16.5t59 -16.5t21 -47.5zM416 829q0 -31 -21 -47.5t-59 -16.5
t-59 16.5t-21 47.5t21 47.5t59 16.5t59 -16.5t21 -47.5z" />
    <glyph glyph-name="afii10071" unicode="&#x451;" horiz-adv-x="453" 
d="M201 199q2 -54 19.5 -74.5t57.5 -20.5q22 0 57.5 5.5t67.5 13.5l13 -110q-28 -12 -72.5 -18.5t-87.5 -6.5q-49 0 -91 11.5t-72.5 40.5t-48 78.5t-17.5 125.5q0 75 15 124t43 78.5t67 41t87 11.5q50 0 85 -14.5t57 -42.5t32 -67.5t10 -89.5v-86h-222zM267 287q3 48 -4 79
t-28 31q-22 0 -29.5 -30.5t-5.5 -79.5h67zM215 651q0 -31 -21 -47.5t-59 -16.5t-59 16.5t-21 47.5t21 47.5t59 16.5t59 -16.5t21 -47.5zM400 651q0 -31 -21 -47.5t-59 -16.5t-59 16.5t-21 47.5t21 47.5t59 16.5t59 -16.5t21 -47.5z" />
    <glyph glyph-name="afii10056" unicode="&#x407;" horiz-adv-x="304" 
d="M238 665v-665h-172v665h172zM141 829q0 -31 -21 -47.5t-59 -16.5t-59 16.5t-21 47.5t21 47.5t59 16.5t59 -16.5t21 -47.5zM326 829q0 -31 -21 -47.5t-59 -16.5t-59 16.5t-21 47.5t21 47.5t59 16.5t59 -16.5t21 -47.5z" />
    <glyph glyph-name="afii10104" unicode="&#x457;" horiz-adv-x="273" 
d="M208 487v-487h-155v487h155zM125 651q0 -31 -21 -47.5t-59 -16.5t-59 16.5t-21 47.5t21 47.5t59 16.5t59 -16.5t21 -47.5zM310 651q0 -31 -21 -47.5t-59 -16.5t-59 16.5t-21 47.5t21 47.5t59 16.5t59 -16.5t21 -47.5z" />
    <glyph glyph-name="afii10020" unicode="&#x413;" horiz-adv-x="470" 
d="M460 665v-118h-222v-547h-172v665h394z" />
    <glyph glyph-name="afii10046" unicode="&#x42c;" horiz-adv-x="528" 
d="M66 665h172v-234h29q58 0 102 -11t73 -37t44 -68t15 -103q0 -64 -16.5 -107t-45.5 -69.5t-70.5 -37.5t-90.5 -11q-45 0 -99 7.5t-113 22.5v648zM238 110q8 -1 14.5 -1.5t12.5 -0.5q35 0 50.5 24.5t15.5 79.5q0 30 -4 50t-12 31t-20 15.5t-28 4.5h-29v-203z" />
    <glyph glyph-name="afii10075" unicode="&#x439;" horiz-adv-x="517" 
d="M218 487v-189l81 118v71h168v-487h-168v189l-81 -118v-71h-168v487h168zM222 722q1 -29 10 -41.5t27 -12.5t27 12.5t10 41.5h111q-2 -41 -13 -68.5t-30.5 -44.5t-46 -24.5t-58.5 -7.5t-58.5 7.5t-46 24.5t-31 44.5t-13.5 68.5h112z" />
    <glyph glyph-name="afii10062" unicode="&#x40e;" horiz-adv-x="530" 
d="M37 117q28 12 52.5 31t43.5 37q22 21 41 45l-184 435h179l108 -288q42 85 62 158.5t34 129.5h167q-14 -61 -35 -127.5t-48.5 -132.5t-61.5 -129t-74.5 -118.5t-87.5 -100t-100 -73.5zM217 900q1 -29 10 -41.5t27 -12.5t27 12.5t10 41.5h111q-2 -41 -13 -68.5t-30.5 -44.5
t-46 -24.5t-58.5 -7.5t-58.5 7.5t-46 24.5t-31 44.5t-13.5 68.5h112z" />
    <glyph glyph-name="afii10052" unicode="&#x403;" horiz-adv-x="470" 
d="M460 665v-118h-222v-547h-172v665h394zM410 908l-108 -161h-118l66 161h160z" />
    <glyph glyph-name="afii10061" unicode="&#x40c;" horiz-adv-x="576" 
d="M238 665v-276l168 276h173l-200 -313q48 -18 81 -59t54 -106l61 -187h-186l-43 138q-13 42 -27.5 66t-31.5 32l-49 -79v-157h-172v665h172zM487 908l-108 -161h-118l66 161h160z" />
    <glyph glyph-name="afii10110" unicode="&#x45e;" horiz-adv-x="480" 
d="M69 -93q28 29 53.5 60t42.5 63h-41l-124 457h174l71 -312q18 53 34 133.5t36 178.5h165q-8 -52 -22 -114t-32.5 -127.5t-43.5 -132t-55.5 -126.5t-67.5 -111t-80 -86l-110 117v0zM203 722q1 -29 10 -41.5t27 -12.5t27 12.5t10 41.5h111q-2 -41 -13 -68.5t-30.5 -44.5
t-46 -24.5t-58.5 -7.5t-58.5 7.5t-46 24.5t-31 44.5t-13.5 68.5h112z" />
    <glyph glyph-name="afii10100" unicode="&#x453;" horiz-adv-x="380" 
d="M370 371h-153v-371h-167v487h320v-116zM371 730l-108 -161h-118l66 161h160z" />
    <glyph glyph-name="afii10109" unicode="&#x45c;" horiz-adv-x="482" 
d="M220 487v-148l81 148h166l-129 -202q48 -13 76.5 -45.5t39.5 -101.5l23 -138h-175l-19 125q-5 31 -14.5 44.5t-20.5 17.5l-28 -38v-149h-168v487h168zM417 730l-108 -161h-118l66 161h160z" />
    </font>
</defs>
</svg>
