<?xml version="1.0" encoding="UTF-8"?>
<svg width="129px" height="37px" viewBox="0 0 129 37" version="1.1" xmlns="http://www.w3.org/2000/svg" xmlns:xlink="http://www.w3.org/1999/xlink">
    <!-- Generator: Sketch 44.1 (41455) - http://www.bohemiancoding.com/sketch -->
    <title>3ds-logo</title>
    <desc>Created with Sketch.</desc>
    <defs></defs>
    <g id="Blocks" stroke="none" stroke-width="1" fill="none" fill-rule="evenodd">
        <g id="StickerSheet_Elements_Footer" transform="translate(-312.000000, -503.000000)" fill="#FFFFFF">
            <g id="Footer-/-Corporate-Footer-/-Desktop" transform="translate(200.000000, 480.000000)">
                <g id="Top-bar">
                    <g id="3ds-logo" transform="translate(112.000000, 23.000000)">
                        <g id="3DS-Logo">
                            <path d="M18.2131494,0.0199821198 C21.571722,-0.130613356 25.5458206,0.54831777 26.2860959,2.79723802 C27.4996788,6.48328129 21.3489407,11.8579963 15.9890353,14.4961286 C14.6753652,15.1429383 13.8789835,15.3204407 13.5472777,15.2762216 C13.2303692,15.2345054 13.1816615,14.9347745 13.2844204,14.7282793 C13.475552,14.3409444 14.3393435,13.5510482 15.49682,12.692946 C21.5302074,8.22096953 23.4918753,4.9404077 22.3528954,3.6104953 C21.6222794,2.75927628 18.5635573,2.167532 15.38769,2.167532 C14.5253372,2.167532 12.2597084,2.35734071 12.0270622,1.59998313 C11.8373692,0.979246098 14.8786223,0.16953469 18.2131494,0.0199821198" id="Fill-1"></path>
                            <path d="M11.1086043,16.9207311 C13.9883248,16.7610939 17.4865672,17.2382094 19.4513334,18.6650654 C20.4282035,19.3734416 21.1152144,20.6779316 20.7174266,22.1732677 C19.5834346,26.4174628 15.3506843,31.5518993 5.94542084,35.4974762 C2.9548032,36.7521216 0.603275282,37.232156 0.109645256,36.8955931 C-0.420879797,36.5336589 1.12150199,33.7331592 1.5856584,32.8034014 C3.08732844,29.7929709 4.96303772,26.8615732 6.79167404,24.178051 C7.46553839,23.1903658 8.50496038,21.4776895 9.44663175,21.6146497 C10.2894923,21.7374648 9.30223224,23.5579131 8.65275253,24.7155637 C7.56159269,26.6577045 4.55613221,32.0534881 5.54763307,32.3756814 C7.73949458,33.0892216 18.0232414,25.6648552 16.5069406,21.5300038 C15.8040267,19.610989 11.3388802,19.4282257 8.52680054,19.4282257 C7.24777291,19.4282257 4.45414079,19.7149441 4.29956334,18.7856353 C4.13268756,17.92795 8.54376377,17.0646516 11.1086043,16.9207311" id="Fill-3"></path>
                            <path d="M33.3502507,12.3741609 C35.078773,12.6704987 36.4876269,12.8999286 36.811291,13.5924139 C37.1742828,14.3772012 35.2918151,14.4246771 34.3431153,14.4432258 C29.7958336,14.5269158 27.0538367,14.6117099 26.9167158,16.0779416 C26.7381643,17.965494 28.8599626,19.8654122 30.9550519,22.5300232 C32.8692761,24.9621129 35.045334,27.3617423 34.4179849,29.6001745 C33.6362697,32.388002 30.0345333,32.9778069 26.6052496,32.9782486 C23.3202371,32.9811192 20.208098,32.4809664 18.9010332,32.2345335 C17.2726176,31.929363 17.5144719,31.1659951 17.9491787,30.9204455 C18.4330976,30.6461895 21.202014,30.6395649 23.1261228,30.5311433 C24.7095324,30.4425953 29.3083395,30.4450243 30.0250695,29.3270226 C30.9045779,27.9588342 28.751654,25.6161758 26.7751785,23.1631085 C24.3084749,20.1021291 21.599286,16.9424441 23.0329563,14.634675 C24.8885046,11.6487737 30.3163462,11.853472 33.3502507,12.3741609" id="Fill-5"></path>
                            <path d="M104.224982,20.744293 C107.876912,20.744293 109.284242,19.5583228 109.861934,16.8183378 L110.727624,12.550297 C110.78552,12.264749 110.605469,12.1782926 110.37664,12.1782926 L108.610692,12.1782926 L108.125464,14.6340495 L107.847646,15.9410146 L107.61606,17.076827 C107.292646,18.623362 106.237997,19.3202928 104.449145,19.3202928 C102.481302,19.3202928 101.95472,18.6405213 102.262653,17.076827 C102.262653,17.076827 102.338576,16.6861234 102.364449,16.5688683 L102.771633,14.6340495 L103.258132,12.1782926 L101.491124,12.1782926 C101.262507,12.1782926 101.047251,12.264749 100.988931,12.550297 L100.120908,16.8183378 C99.5281585,19.8282514 101.106208,20.744293 104.224982,20.744293 L104.224982,20.744293 Z M42.1924276,25.3735586 C41.9281823,26.5522691 42.9001217,27.1220452 44.8747514,28.2851363 C47.0328259,29.556023 47.5265364,29.6530389 47.3278222,30.3231308 C47.1685539,30.8627681 46.6023138,30.8852072 45.6301623,30.8852072 L41.7841834,30.8852072 C41.3475211,30.8852072 41.0936674,31.05548 41.0177446,31.4261644 L40.863354,32.173913 L45.7122353,32.173913 C47.9320237,32.173913 49.3228111,32.0434585 49.8279736,30.7567325 C50.0731322,30.1288789 50.0705873,29.4801262 49.4716877,28.8388531 C49.1667239,28.5123868 48.7164888,28.2259588 48.0955334,27.8935528 C45.323714,26.4070752 44.6001144,26.2350424 44.7752883,25.5147927 C44.8743273,25.1100097 45.1691114,25.0950503 46.2114597,25.0950503 L49.4623564,25.0950503 C49.9009273,25.0950503 50.154781,24.9245574 50.2307039,24.554313 L50.3908204,23.7733458 L46.2767788,23.7733458 C43.9467115,23.7733458 42.547229,23.7863252 42.1924276,25.3735586 L42.1924276,25.3735586 Z M63.5763674,25.3735586 C63.3133945,26.5522691 64.2851218,27.1220452 66.2580549,28.2851363 C68.4188864,29.556023 68.9119607,29.6530389 68.7117619,30.3231308 C68.5518574,30.8627681 67.9858294,30.8852072 67.0141021,30.8852072 L63.1691835,30.8852072 C62.7320971,30.8852072 62.4778192,31.05548 62.4018964,31.4261644 L62.2492025,32.173913 L67.0976596,32.173913 C69.3172359,32.173913 70.707387,32.0434585 71.2114892,30.7567325 C71.4596168,30.1288789 71.4566478,29.4801262 70.8577482,28.8388531 C70.5508757,28.5123868 70.1019131,28.2259588 69.479049,27.8935528 C66.7085021,26.4070752 65.9855386,26.2350424 66.1602884,25.5147927 C66.2580549,25.1100097 66.5530512,25.0950503 67.5960357,25.0950503 L70.848841,25.0950503 C71.2850792,25.0950503 71.5397812,24.9245574 71.6148557,24.554313 L71.7762447,23.7733458 L67.6615668,23.7733458 C65.3310754,23.7733458 63.9324412,23.7863252 63.5763674,25.3735586 L63.5763674,25.3735586 Z M117.770632,25.3735586 C117.508083,26.5522691 118.479811,27.1220452 120.450835,28.2851363 C122.611879,29.556023 123.105589,29.6530389 122.904542,30.3231308 C122.746546,30.8627681 122.180306,30.8852072 121.209215,30.8852072 L117.363024,30.8852072 C116.925726,30.8852072 116.671872,31.05548 116.595737,31.4261644 L116.443043,32.173913 L121.292349,32.173913 C123.51044,32.173913 124.900804,32.0434585 125.405966,30.7567325 C125.652821,30.1288789 125.649852,29.4801262 125.050529,28.8388531 C124.745565,28.5123868 124.294693,28.2259588 123.672678,27.8935528 C120.902767,26.4070752 120.177895,26.2350424 120.354341,25.5147927 C120.450835,25.1100097 120.748164,25.0950503 121.790725,25.0950503 L125.042894,25.0950503 C125.479132,25.0950503 125.732774,24.9245574 125.808908,24.554313 L125.970085,23.7733458 L121.856468,23.7733458 C119.525552,23.7733458 118.126706,23.7863252 117.770632,25.3735586 L117.770632,25.3735586 Z M85.7706455,19.1396803 C86.0162282,18.5111667 86.0141075,17.861754 85.4143596,17.2218009 C85.1089717,16.8948946 84.6595849,16.6091266 84.0365087,16.2740807 C81.2657497,14.7876031 80.5425742,14.6177702 80.7166877,13.8973005 C80.8153026,13.4936174 81.1113592,13.4768981 82.1549799,13.4768981 L85.4050283,13.4768981 C85.8431751,13.4768981 86.0972409,13.3070652 86.1735878,12.9377008 L86.3330682,12.1527737 L82.2188145,12.1527737 C79.888323,12.1527737 78.4896888,12.1670731 78.1325546,13.7558464 C77.8706421,14.933237 78.8425815,15.504553 80.8153026,16.6678641 C82.9746495,17.9385308 83.4672996,18.0351067 83.2700699,18.7067385 C83.109105,19.2463759 82.5437133,19.267715 81.5728342,19.267715 L77.7274915,19.267715 C77.2893447,19.267715 77.0348548,19.4382078 76.958932,19.8084523 L76.8068742,20.5577408 L81.6551193,20.5577408 C83.8734231,20.5577408 85.2659071,20.4277263 85.7706455,19.1396803 L85.7706455,19.1396803 Z M75.4396271,19.1396803 C75.6847857,18.5111667 75.682665,17.861754 75.0848258,17.2218009 C74.7781654,16.8948946 74.3281424,16.6091266 73.7063387,16.2740807 C70.9338831,14.7876031 70.2117679,14.6177702 70.387366,13.8973005 C70.4847084,13.4936174 70.7790684,13.4768981 71.8245978,13.4768981 L75.0737979,13.4768981 C75.5121568,13.4768981 75.7664346,13.3070652 75.841085,12.9377008 L76.0035344,12.1527737 L71.8880082,12.1527737 C69.5575168,12.1527737 68.1590946,12.1670731 67.8036571,13.7558464 C67.5398358,14.933237 68.5126236,15.504553 70.4847084,16.6678641 C72.6436312,17.9385308 73.1375537,18.0351067 72.9392637,18.7067385 C72.7808437,19.2463759 72.2137553,19.267715 71.2405434,19.267715 L67.3975336,19.267715 C66.9587505,19.267715 66.7057451,19.4382078 66.6281257,19.8084523 L66.4754317,20.5577408 L71.3251613,20.5577408 C73.5441014,20.5577408 74.9344646,20.4277263 75.4396271,19.1396803 L75.4396271,19.1396803 Z M120.539271,12.1782926 C120.101336,12.1782926 119.854481,12.3199667 119.789161,12.6334535 L119.615472,13.479098 L123.092441,13.479098 L121.643121,20.5577408 L123.202295,20.5577408 C123.640654,20.5577408 123.895993,20.387248 123.982519,19.9615658 L125.312017,13.479098 L128.213414,13.479098 C128.625052,13.479098 128.76905,13.3070652 128.840308,12.9656396 L129,12.1782926 L120.539271,12.1782926 L120.539271,12.1782926 Z M44.7844075,14.5079948 C44.5657582,14.5079948 44.4005519,14.6494489 44.3717097,14.7920029 L43.1889678,20.5577408 L48.419796,20.5577408 C51.3491871,20.5577408 53.3795925,19.5251042 54.0134845,16.314339 C54.4859874,13.9245793 53.3944377,12.1782926 50.4099072,12.1782926 L44.0841361,12.1782926 C44.0841361,12.1782926 44.0705633,12.2374702 44.0580508,12.2869681 C43.9153244,12.8505844 43.9903989,13.4727183 44.9903323,13.4727183 L49.588541,13.4727183 C51.8006946,13.4727183 52.1168983,14.5225142 51.6747221,16.3713166 C51.2406047,18.1864604 50.4837093,19.1209811 48.8231625,19.2639751 L45.6734256,19.2639751 L46.6462133,14.5079948 L44.7844075,14.5079948 L44.7844075,14.5079948 Z M119.300329,19.7734737 C119.375403,19.4065291 119.239675,19.2639751 118.885086,19.2639751 L114.147756,19.2639751 L115.542149,12.4620807 C115.569931,12.3199667 115.461772,12.1782926 115.271541,12.1782926 L113.381741,12.1782926 L111.665419,20.5577408 L119.138728,20.5577408 L119.300329,19.7734737 L119.300329,19.7734737 Z M105.194801,23.7966648 L103.19451,23.7966648 L99.3220217,27.0622077 L96.7883624,23.7966648 L94.7895562,23.7966648 C94.4614763,23.7966648 94.2810005,23.9942165 94.2129244,24.3356422 L92.6064568,32.173913 L94.3043287,32.173913 C94.6606146,32.173913 94.8593288,32.0043002 94.9231634,31.6916933 L96.1262645,25.8251996 L98.077566,28.4666287 C98.1350383,28.579264 98.298336,28.722038 98.5434946,28.722038 L99.4216969,28.722038 C99.668128,28.722038 99.8876255,28.579264 99.9932388,28.4666287 L103.025698,25.8251996 L101.822597,31.6916933 C101.758975,32.0043002 101.888128,32.173913 102.245687,32.173913 L103.941862,32.173913 L105.550238,24.3356422 C105.618102,23.9942165 105.523729,23.7966648 105.194801,23.7966648 L105.194801,23.7966648 Z M84.0386295,24.3356422 L82.4334343,32.173913 L90.5917449,32.173913 L90.7635256,31.3361882 C90.8347828,30.9941026 90.7467717,30.8805873 90.3357705,30.8805873 L84.9161955,30.8805873 L85.3763982,28.6322818 L90.167383,28.6322818 C90.3048075,28.6322818 90.4034224,28.5478053 90.427811,28.4329701 L90.6106196,27.5411276 C90.6328875,27.4287123 90.5682046,27.3420359 90.4322646,27.3420359 L85.6397952,27.3420359 L86.1006341,25.0972502 L91.3304019,25.0972502 C91.576833,25.0972502 91.8219916,25.0972502 91.8883711,24.7846433 L92.0885698,23.7966648 L84.7240557,23.7966648 C84.3410483,23.7966648 84.1139161,23.9649577 84.0386295,24.3356422 L84.0386295,24.3356422 Z M108.263737,24.3356422 L106.657906,32.173913 L114.818761,32.173913 L114.988421,31.3361882 C115.059042,30.9941026 114.972303,30.8805873 114.562575,30.8805873 L109.141515,30.8805873 L109.602354,28.6322818 L114.392915,28.6322818 C114.530339,28.6322818 114.630227,28.5478053 114.651858,28.4329701 L114.835939,27.5411276 C114.859268,27.4287123 114.79204,27.3420359 114.657796,27.3420359 L109.865963,27.3420359 L110.325318,25.0972502 L115.55551,25.0972502 C115.803001,25.0972502 116.047735,25.0972502 116.111358,24.7846433 L116.31389,23.7966648 L108.9498,23.7966648 C108.565732,23.7966648 108.341144,23.9649577 108.263737,24.3356422 L108.263737,24.3356422 Z M59.3310514,24.0791329 L58.5476466,27.8935528 C57.1795512,28.292396 53.6345066,29.0218854 54.1880221,26.3241387 L54.7063333,23.7966648 L52.8430429,23.7966648 C52.6235454,23.7966648 52.4577028,23.9363589 52.4284364,24.0791329 L51.9582663,26.3804563 C51.0618255,30.7547526 55.4278122,30.1572577 58.2534986,29.3349322 L57.671565,32.173913 L59.2307399,32.173913 C59.669735,32.173913 59.9233767,32.0043002 60.012024,31.579058 L61.6040705,23.7966648 L59.7161794,23.7966648 C59.5248879,23.7966648 59.3588332,23.9363589 59.3310514,24.0791329 L59.3310514,24.0791329 Z M82.6382987,24.5824718 L82.8009602,23.7971048 L74.341079,23.7971048 C73.9029322,23.7971048 73.6545924,23.9378989 73.5903337,24.2502858 L73.4162202,25.0950503 L76.8925525,25.0950503 L75.4440807,32.173913 L77.0038918,32.173913 C77.4411904,32.173913 77.6941957,32.0043002 77.7845397,31.579058 L79.1117046,25.0950503 L82.0139501,25.0950503 C82.4245271,25.0950503 82.5689502,24.9245574 82.6382987,24.5824718 L82.6382987,24.5824718 Z M58.3075777,15.7003448 C58.6390509,14.0680133 59.6421653,13.4768981 61.4320777,13.4768981 C63.323362,13.4768981 63.8194053,14.1502898 63.5116845,15.7003448 C63.5116845,15.7003448 63.4340651,16.0875285 63.4075557,16.2043436 C63.3706547,16.3776963 63.286673,16.8282374 62.7963558,16.8282374 L58.0772644,16.8282374 L58.3075777,15.7003448 L58.3075777,15.7003448 Z M55.6430683,20.5577408 L57.3125221,20.5577408 L57.79881,18.1213431 L63.000796,18.1213431 L62.5153565,20.5577408 L64.1854466,20.5577408 C64.4051562,20.5577408 64.613838,20.4719444 64.6713103,20.1879363 L65.5399692,15.956854 C66.1768302,12.7469688 64.2668834,12.0652174 61.6922937,12.0652174 C58.6076638,12.0652174 56.8470177,12.7999865 56.1747401,15.956854 L55.3075657,20.1879363 C55.2498813,20.4719444 55.4231466,20.5577408 55.6430683,20.5577408 L55.6430683,20.5577408 Z M90.7544064,15.7003448 C91.0869399,14.0680133 92.0885698,13.4768981 93.8784823,13.4768981 C95.7706148,13.4768981 96.2653856,14.1502898 95.9587253,15.7003448 C95.9587253,15.7003448 95.8817421,16.0875285 95.8539603,16.2043436 C95.8168472,16.3776963 95.7330776,16.8282374 95.2436086,16.8282374 L90.5232447,16.8282374 L90.7544064,15.7003448 L90.7544064,15.7003448 Z M88.0898969,20.5577408 L89.759775,20.5577408 L90.2469111,18.1213431 L95.4476247,18.1213431 L94.9615489,20.5577408 L96.6324874,20.5577408 C96.8517728,20.5577408 97.0610908,20.4719444 97.1187752,20.1879363 L97.9855254,15.956854 C98.6251434,12.7469688 96.7143483,12.0652174 94.1395465,12.0652174 C91.0540683,12.0652174 89.2934222,12.7999865 88.6207205,15.956854 L87.7539702,20.1879363 C87.6971342,20.4719444 87.8691269,20.5577408 88.0898969,20.5577408 L88.0898969,20.5577408 Z" id="Fill-6"></path>
                        </g>
                    </g>
                </g>
            </g>
        </g>
    </g>
</svg>