<?xml version="1.0" encoding="UTF-8"?>
<svg width="180px" height="33px" viewBox="0 0 180 33" version="1.1" xmlns="http://www.w3.org/2000/svg" xmlns:xlink="http://www.w3.org/1999/xlink">
    <!-- Generator: Sketch 44.1 (41455) - http://www.bohemiancoding.com/sketch -->
    <title>3ds-solidworks-logo</title>
    <desc>Created with Sketch.</desc>
    <defs>
        <polygon id="path-1" points="0.01360846 0.104482436 0.01360846 32.1044274 179.00008 32.1044274 179.00008 0.104428571 0.01360846 0.104428571 25.1953363 0.104482436 25.1953363 32.1044286 7.97107241e-05 32.1044286 7.97107241e-05 0.104482436 0.01360846 0.104482436"></polygon>
        <polygon id="path-3" points="37.4862101 14.5816071 37.4862101 0.177704082 0.138403361 0.177704082 0.138403361 14.5816071 37.4862101 14.5816071"></polygon>
    </defs>
    <g id="Blocks" stroke="none" stroke-width="1" fill="none" fill-rule="evenodd">
        <g id="StickerSheet_Blocks_Menu" transform="translate(-2100.000000, -1419.000000)">
            <g id="Brand-Menu---Desktop" transform="translate(1988.000000, 376.000000)">
                <g id="Brand-Menu---Desktop-Dropdown-2-Columns" transform="translate(0.000000, 956.000000)">
                    <g id="Menu" transform="translate(0.000000, 64.000000)">
                        <g id="3ds-solidworks-logo" transform="translate(112.000000, 23.000000)">
                            <g id="SOLIDWORKS_Logotype_White">
                                <g id="Group-4">
                                    <mask id="mask-2" fill="white">
                                        <use xlink:href="#path-1"></use>
                                    </mask>
                                    <g id="Clip-2"></g>
                                </g>
                                <path d="M30.9356471,11.1277857 C32.5422605,11.381398 33.8514202,11.57775 34.1522773,12.1703163 C34.4896639,12.8420816 32.7401092,12.8828878 31.8584118,12.8986837 C27.6321176,12.9702041 25.0836807,13.0428214 24.9561681,14.2977194 C24.790084,15.9132908 26.7622185,17.5396122 28.7096218,19.8203673 C30.4884454,21.9019184 32.5111765,23.9558265 31.9278403,25.8721786 C31.201563,28.2582398 27.8537899,28.7628316 24.6666555,28.7634898 C21.6133866,28.7656837 18.7209832,28.3376582 17.5059832,28.1268265 C15.9926218,27.8657551 16.2174706,27.212199 16.6213361,27.0018061 C17.0712605,26.7672806 19.6444286,26.7613571 21.4330084,26.6685561 C22.9046218,26.5930867 27.1790168,26.5950612 27.8451681,25.6380918 C28.6624286,24.467 26.6617059,22.4620153 24.8243445,20.3622551 C22.5320672,17.7423265 20.0138067,15.0379337 21.3463361,13.0623469 C23.0709328,10.506699 28.1158487,10.6819898 30.9356471,11.1277857" id="Fill-5" fill="#FFFFFF"></path>
                                <path d="M17.3791513,0.122637755 C20.5733193,-0.0140408163 24.3530924,0.601341837 25.0573613,2.63923469 C26.2113277,5.97919388 20.3614034,10.8493827 15.2636218,13.240051 C14.0143613,13.8260357 13.2567731,13.9868469 12.9411681,13.9469184 C12.6398571,13.9091837 12.5933445,13.6375816 12.6913613,13.4504439 C12.8731008,13.0994235 13.6946723,12.3837806 14.7955462,11.606051 C20.5338403,7.5537398 22.399563,4.5812551 21.3161597,3.37615816 C20.6211933,2.60457143 17.7122269,2.06860714 14.6916303,2.06860714 C13.8714202,2.06860714 11.7166387,2.24060714 11.4954202,1.55414286 C11.315042,0.991852041 14.2074454,0.258 17.3791513,0.122637755" id="Fill-1" fill="#FFFFFF"></path>
                                <path d="M10.2404874,15.3472704 C12.8951092,15.2132245 16.1199076,15.6147041 17.9311765,16.8156327 C18.8317059,17.4119286 19.464958,18.5101837 19.0983025,19.7690306 C18.0530168,23.3415408 14.1511765,27.6639184 5.48077311,30.9852296 C2.72382353,32.0415816 0.556109244,32.4454745 0.101193277,32.1620255 C-0.387983193,31.8575153 1.03394118,29.4999745 1.46185714,28.717199 C2.84589076,26.1832704 4.5752521,23.7158163 6.26105042,21.4567806 C6.88205042,20.6250816 7.84043697,19.1834847 8.70829412,19.2988827 C9.48539496,19.4019949 8.57510924,20.9346378 7.97657143,21.9089388 C6.97076471,23.5440357 4.20020168,28.0860204 5.11411765,28.3571837 C7.13457983,28.9578673 16.6147563,22.7083878 15.2168824,19.2273622 C14.5688824,17.6122296 10.4526303,17.4582194 7.86063025,17.4582194 C6.6812521,17.4582194 4.10604202,17.6995459 3.96355462,16.9172092 C3.80994958,16.1954235 7.87605882,15.4683724 10.2404874,15.3472704" id="Fill-3" fill="#FFFFFF"></path>
                                <path d="M67.7652353,21.8852449 C67.2023193,25.2291531 65.6143109,26.9245816 62.5934874,26.9245816 C59.5760672,26.9245816 58.5691261,25.2291531 59.1397563,21.8852449 C59.7040336,18.5428724 61.285916,16.8454694 64.3108235,16.8454694 C67.3300588,16.8454694 68.3324622,18.5428724 67.7652353,21.8852449 Z M64.7289832,14.3758214 C59.404084,14.3758214 56.5450336,17.8002449 55.8466639,21.8852449 C55.1605462,25.9746327 56.8533782,29.3920357 62.1798655,29.3920357 C67.4972773,29.3920357 70.3610924,25.9746327 71.0578739,21.8852449 C71.7521597,17.8002449 70.0527479,14.3758214 64.7289832,14.3758214 L64.7289832,14.3758214 Z" id="Fill-6" fill="#FFFFFF"></path>
                                <path d="M43.5888908,17.5163571 C43.401479,18.665949 43.7683613,20.0369031 45.0990756,20.9379286 L49.8624202,24.1510816 C50.3681597,24.4843316 50.6093445,24.711398 50.5501261,25.1001531 C50.4625462,25.6367755 50.1709916,25.8594541 49.1851513,25.8594541 L43.6478824,25.8594541 C43.0597815,25.8594541 42.7346471,26.1314949 42.624605,26.782199 L42.624605,28.7775306 L49.113,28.7775306 C51.9559412,28.7775306 53.3601681,27.1591071 53.6428739,25.4360357 C53.9094706,23.8171735 53.3497311,22.658148 52.2658739,21.9157398 L47.2071176,18.4404184 C46.799395,18.1576276 46.6988824,18.0097602 46.7288319,17.8002449 C46.7751176,17.4450561 47.1047899,17.2993827 47.6797311,17.2993827 L53.4609076,17.2993827 C54.1708487,17.2993827 54.5717647,16.6037041 54.6802185,15.91 L54.6802185,14.3758214 L47.0403529,14.3758214 C45.3423025,14.3758214 43.8600252,15.8428673 43.5888908,17.5163571" id="Fill-7" fill="#FFFFFF"></path>
                                <path d="M82.1759748,26.4344694 L75.8504874,26.4344694 L78.0309076,14.8714184 C78.0792353,14.6364541 77.9015798,14.3758214 77.6023109,14.3758214 L74.8179076,14.3758214 L72.0995294,28.7775306 L82.5823361,28.7775306 L82.8518824,27.3324235 C82.9707731,26.6948827 82.750916,26.4344694 82.1759748,26.4344694" id="Fill-8" fill="#FFFFFF"></path>
                                <path d="M167.198067,14.4646735 L166.464529,14.4646735 L158.804017,20.8038827 L159.817992,15.2059847 C159.884017,14.8942347 159.731092,14.6794541 159.601538,14.5936735 C159.466311,14.4894643 159.296143,14.4379082 159.130513,14.4379082 L158.396294,14.4379082 L155.626866,28.835449 L157.260933,28.835449 L158.477294,22.4650867 L164.543899,28.8418112 L165.269269,28.8418112 C165.416975,28.835449 165.554017,28.816801 165.674269,28.7327755 C165.803824,28.6390969 165.868261,28.4763112 165.868261,28.3350255 C165.868261,28.0730765 165.647723,27.8137602 165.647723,27.8137602 L159.905118,21.7790612 L167.573571,15.4885561 C167.573571,15.4885561 167.787756,15.3110714 167.787756,14.9666327 C167.790479,14.8306122 167.726042,14.6649745 167.604202,14.5774388 C167.478958,14.4822245 167.333067,14.4646735 167.198067,14.4646735" id="Fill-9" fill="#FFFFFF"></path>
                                <g id="Group-13" transform="translate(141.579832, 14.260204)">
                                    <mask id="mask-4" fill="white">
                                        <use xlink:href="#path-3"></use>
                                    </mask>
                                    <g id="Clip-11"></g>
                                    <path d="M8.43284874,6.72138265 C7.52256303,6.95678571 6.24448739,7.00022449 4.91853782,7.00022449 C4.44751261,6.99320408 3.78090756,6.98903571 3.1982521,6.98201531 L4.1752437,1.73996429 C4.95166387,1.73689286 7.48489916,1.70069388 8.34277311,1.74435204 C8.68447059,1.76168367 8.98963866,1.78493878 9.1750084,1.8202602 C9.87768908,1.94947959 10.336916,2.0819898 10.6336891,2.36697449 C11.917437,3.54881633 10.7657395,6.11302041 8.43284874,6.72138265 Z M6.7352521,0.177704082 L2.90510924,0.177704082 L0.138403361,14.5816071 L1.77587395,14.5816071 L2.93505882,8.38829082 L5.92071429,8.40496429 L9.63105882,14.5816071 L10.4587563,14.5816071 C10.6078235,14.5816071 10.741916,14.5565969 10.8651176,14.4725714 C10.9944454,14.3788929 11.0593361,14.2161071 11.0536639,14.0748214 C11.0536639,13.8710102 10.8422017,13.5535561 10.8422017,13.5535561 L7.67866387,8.32006122 C11.435521,7.99317347 12.4347479,5.43028571 12.665042,4.4057449 C12.8488235,3.57777551 12.8004958,2.22459184 12.1411513,1.49095918 C10.9842353,0.21105102 8.99553782,0.177704082 6.7352521,0.177704082 L6.7352521,0.177704082 Z" id="Fill-10" fill="#FFFFFF" mask="url(#mask-4)"></path>
                                    <path d="M31.3358824,0.177704082 C28.4636723,0.186479592 28.1628151,2.46328571 28.1478403,3.54004082 C28.1478403,4.67230102 28.9977731,5.57464286 29.4206975,5.93246429 L33.606605,9.89877551 C34.1034958,10.3682653 34.3483109,10.9198061 34.3483109,11.441949 C34.3483109,12.3212551 33.6549328,13.0386531 32.5352269,13.0340459 C32.5304622,13.0386531 27.1168487,13.0386531 27.0667059,13.0559847 C26.8849664,13.0882347 26.7043613,13.3135459 26.7073109,13.4925663 L26.6893866,13.4925663 L26.7073109,13.5015612 L26.7073109,14.5816071 L32.7893445,14.5816071 C35.6592857,14.5712959 35.9649076,12.2936122 35.9773866,11.2194898 L35.9773866,11.2137857 C35.9773866,9.72129082 34.5593193,8.56884694 34.5531933,8.56884694 L30.5844202,4.79164796 C30.0918403,4.3215 29.7853109,3.83621429 29.7794118,3.31297449 C29.7853109,2.42818367 30.4743782,1.72109694 31.5972605,1.72109694 C31.6033866,1.72109694 37.0755378,1.71363776 37.120916,1.70069388 L37.1327143,1.73996429 L37.1236387,1.70069388 C37.2997059,1.67173469 37.4912017,1.44620408 37.4862101,1.26893878 L37.4862101,0.177704082 L31.3358824,0.177704082" id="Fill-12" fill="#FFFFFF" mask="url(#mask-4)"></path>
                                </g>
                                <path d="M101.208025,14.3758214 L93.1940168,14.3758214 L93.1531765,14.6061786 C92.9684874,15.5861837 93.0506218,16.7131786 94.6522437,16.7131786 L100.584983,16.7131786 C102.935571,16.7131786 103.83542,18.3605612 103.256622,21.4473469 C102.723655,24.2717449 101.142227,26.4344694 98.7503445,26.4344694 L95.5294034,26.4344694 L97.0634118,18.3357704 L94.3237059,18.3357704 C93.9552353,18.3357704 93.6936303,18.5933316 93.6586891,18.8254439 L91.7773109,28.7731429 L98.0562857,28.7731429 C102.695294,28.7731429 105.928261,26.6700918 106.92295,21.3411633 C107.705269,17.2544082 105.935748,14.3758214 101.208025,14.3758214" id="Fill-14" fill="#FFFFFF"></path>
                                <path d="M90.0672353,14.3758214 L87.280563,14.3758214 L84.5576471,28.7731429 L87.8675294,28.7731429 L90.4967395,14.8670306 C90.5418908,14.6364541 90.3653697,14.3758214 90.0672353,14.3758214" id="Fill-15" fill="#FFFFFF"></path>
                                <path d="M138.885958,22.3349898 C137.854513,26.5320969 134.911286,28.0921633 132.145941,27.9480255 L131.873672,27.9346429 C129.195227,27.6029286 127.218555,25.6049643 128.270647,21.4910051 C129.346563,17.2952143 132.469941,15.7366837 135.203521,15.8808214 C137.916908,16.1486939 139.896076,18.2208112 138.885958,22.3349898 Z M135.580387,14.4102653 L135.580387,14.4030255 C130.782782,14.0441071 127.739723,17.2748112 126.690353,21.3657347 C125.731513,25.050352 127.024109,28.9126735 131.557613,29.4220918 C136.426689,29.7832041 139.47905,26.5522806 140.483269,22.4593827 C141.38584,18.7695 140.053765,14.913102 135.580387,14.4102653 L135.580387,14.4102653 Z" id="Fill-16" fill="#FFFFFF"></path>
                                <path d="M126.690353,15.0067806 C126.696479,14.8641786 126.628639,14.6693622 126.490235,14.5664694 C126.35637,14.4640153 126.208437,14.4379082 126.061412,14.4379082 L125.308815,14.4379082 L119.529681,27.1042602 L118.021538,20.3192551 C117.935546,19.7240561 117.442966,19.3166531 116.852824,19.3484643 L115.882866,19.3484643 L111.320773,27.0353724 L111.366832,15.0493418 C111.366832,14.8889694 111.30421,14.6882296 111.156504,14.5774388 C111.015151,14.4646735 110.85542,14.4379082 110.700681,14.4379082 L109.726639,14.4379082 L109.726639,28.835449 L110.992462,28.835449 C111.356849,28.8418112 111.686067,28.7542755 111.95584,28.5647245 C112.201336,28.3918469 112.408714,28.1560051 112.595445,27.870801 L116.595529,20.9815867 L118.253193,28.835449 L119.328882,28.835449 C120.007966,28.835449 120.575193,28.4572245 120.870151,27.8052041 L126.613437,15.3110714 C126.657227,15.2108112 126.690353,15.1452143 126.690353,15.0067806" id="Fill-17" fill="#FFFFFF"></path>
                            </g>
                        </g>
                    </g>
                </g>
            </g>
        </g>
    </g>
</svg>