<?xml version="1.0" encoding="UTF-8" standalone="no"?>
<svg width="16px" height="16px" viewBox="0 0 16 16" version="1.1" xmlns="http://www.w3.org/2000/svg" xmlns:xlink="http://www.w3.org/1999/xlink">
    <!-- Generator: Sketch 44.1 (41455) - http://www.bohemiancoding.com/sketch -->
    <title>calendar-mini</title>
    <desc>Created with Sketch.</desc>
    <defs></defs>
    <g id="Ready-for-exports" stroke="none" stroke-width="1" fill="none" fill-rule="evenodd">
        <g id="calendar-mini">
            <rect id="Rectangle-7" fill="#808080" opacity="0" x="0" y="0" width="16" height="16"></rect>
            <path d="M12,3.00001775 C13.1053568,3.00461832 14,3.90297623 14,4.99201702 L14,12.007983 C14,13.1081436 13.0980496,14 11.9914698,14 L4.0085302,14 C2.8992496,14 2,13.0998238 2,12.007983 L2,4.99201702 C2,3.89468465 2.89731892,3.00458688 4,3.00001767 L4,2 L6,2 L6,3 L10,3 L10,2 L12,2 L12,3.00001648 L12,3.00001775 Z M4,7 L12,7 L12,12 L4,12 L4,7 Z" id="Combined-Shape" fill="#000000"></path>
        </g>
    </g>
</svg>