<?xml version="1.0" encoding="UTF-8" standalone="no"?>
<svg width="16px" height="16px" viewBox="0 0 16 16" version="1.1" xmlns="http://www.w3.org/2000/svg" xmlns:xlink="http://www.w3.org/1999/xlink">
    <!-- Generator: Sketch 44.1 (41455) - http://www.bohemiancoding.com/sketch -->
    <title>clock-mini</title>
    <desc>Created with Sketch.</desc>
    <defs></defs>
    <g id="Ready-for-exports" stroke="none" stroke-width="1" fill="none" fill-rule="evenodd">
        <g id="clock-mini" transform="translate(8.000000, 8.000000) scale(-1, 1) translate(-8.000000, -8.000000) ">
            <g id="clock-icon-mini" transform="translate(8.000000, 8.000000) scale(-1, 1) translate(-8.000000, -8.000000) ">
                <rect id="Rectangle-10" fill="#808080" opacity="0" x="0" y="0" width="16" height="16"></rect>
                <path d="M3.05034375,3.0505625 C4.37246875,1.72821875 6.130125,1 8,1 C9.86965625,1 11.6273125,1.72821875 12.9496563,3.0505625 C14.2717813,4.37246875 15,6.13034375 15,8 C15,9.86965625 14.2717813,11.6275312 12.9494375,12.9494375 C11.6273125,14.2717813 9.86965625,15 8,15 C6.130125,15 4.37246875,14.2717813 3.05034375,12.9494375 C1.72821875,11.6275312 1,9.86965625 1,8 C1,6.13034375 1.72821875,4.37246875 3.05034375,3.0505625 Z M4.04037513,4.0404301 C2.98068518,5.09994475 2.4,6.50169007 2.4,8 C2.4,9.49830993 2.98068518,10.9000553 4.04037513,11.9595699 C5.09998306,13.0193531 6.50152552,13.6 8,13.6 C9.49827859,13.6 10.8998144,13.019337 11.9596518,11.9593242 C13.0192929,10.9000338 13.6,9.4983458 13.6,8 C13.6,6.50169007 13.0193148,5.09994475 11.9597068,4.04051199 C10.8998587,2.98066392 9.49827503,2.4 8,2.4 C6.50152552,2.4 5.09998306,2.98064685 4.04037513,4.0404301 Z M8.7,4.00061035 L8.7,8.02213754 L10.5481291,9.5622451 L9.65187092,10.6377549 L7.3,8.67786246 L7.3,4.00061035 L8.7,4.00061035 Z" id="Combined-Shape" fill="#000000" fill-rule="nonzero"></path>
            </g>
        </g>
    </g>
</svg>