<?xml version="1.0" encoding="UTF-8" standalone="no"?>
<svg width="16px" height="16px" viewBox="0 0 16 16" version="1.1" xmlns="http://www.w3.org/2000/svg" xmlns:xlink="http://www.w3.org/1999/xlink">
    <!-- Generator: Sketch 44.1 (41455) - http://www.bohemiancoding.com/sketch -->
    <title>external-link-mini</title>
    <desc>Created with Sketch.</desc>
    <defs></defs>
    <g id="Ready-for-exports" stroke="none" stroke-width="1" fill="none" fill-rule="evenodd">
        <g id="external-link-mini">
            <g id="Group">
                <rect id="Rectangle-12-Copy-3" fill="#808080" opacity="0" x="0" y="0" width="16" height="16"></rect>
                <path d="M13,10 L13,12.6942103 C13,13.4097484 12.4311127,14 11.7005539,14 L3.29944611,14 C2.58291016,14 2,13.4262867 2,12.7005539 L2,4.29944611 C2,3.58096922 2.58211131,3 3.30078125,3 L6,3 L6,5 L4,5 L4,12 L11,12 L11,10 L13,10 L13,10 Z M10.5505985,4 L8,4 L8,2 L14,2 L14,8 L12,8 L12,5.37902565 L7.89316802,9.48585763 L6.47895445,8.07164407 L10.5505985,4 L10.5505985,4 Z" id="Combined-Shape" fill="#000000"></path>
            </g>
        </g>
    </g>
</svg>