<?xml version="1.0" encoding="UTF-8" standalone="no"?>
<svg width="16px" height="16px" viewBox="0 0 16 16" version="1.1" xmlns="http://www.w3.org/2000/svg" xmlns:xlink="http://www.w3.org/1999/xlink">
    <!-- Generator: Sketch 44.1 (41455) - http://www.bohemiancoding.com/sketch -->
    <title>filter-mini</title>
    <desc>Created with Sketch.</desc>
    <defs></defs>
    <g id="Ready-for-exports" stroke="none" stroke-width="1" fill="none" fill-rule="evenodd">
        <g id="filter-mini">
            <g id="filter-icon-mini">
                <rect id="Rectangle-17" x="0" y="0" width="16" height="16"></rect>
                <path d="M8.17070571,4 C8.58254212,2.83480763 9.69378117,2 11,2 C12.6568542,2 14,3.34314575 14,5 C14,6.65685425 12.6568542,8 11,8 C9.69378117,8 8.58254212,7.16519237 8.17070571,6 L2,6 L2,4 L8.17070571,4 L8.17070571,4 Z M11,6 C11.5522847,6 12,5.55228475 12,5 C12,4.44771525 11.5522847,4 11,4 C10.4477153,4 10,4.44771525 10,5 C10,5.55228475 10.4477153,6 11,6 Z M7.82929429,10 L14,10 L14,12 L7.82929429,12 C7.41745788,13.1651924 6.30621883,14 5,14 C3.34314575,14 2,12.6568542 2,11 C2,9.34314575 3.34314575,8 5,8 C6.30621883,8 7.41745788,8.83480763 7.82929429,10 L7.82929429,10 Z M5,12 C5.55228475,12 6,11.5522847 6,11 C6,10.4477153 5.55228475,10 5,10 C4.44771525,10 4,10.4477153 4,11 C4,11.5522847 4.44771525,12 5,12 Z" id="Combined-Shape" fill="#000000"></path>
            </g>
        </g>
    </g>
</svg>