<?xml version="1.0" encoding="UTF-8"?>
<svg width="16px" height="16px" viewBox="0 0 16 16" version="1.1" xmlns="http://www.w3.org/2000/svg" xmlns:xlink="http://www.w3.org/1999/xlink">
    <!-- Generator: Sketch 45.2 (43514) - http://www.bohemiancoding.com/sketch -->
    <title>form-tooltip-mini</title>
    <desc>Created with Sketch.</desc>
    <defs></defs>
    <g id="Ready-for-exports" stroke="none" stroke-width="1" fill="none" fill-rule="evenodd">
        <g id="form-tooltip-mini">
            <g>
                <rect id="Rectangle-13" fill="#808080" opacity="0" transform="translate(8.000000, 8.000000) rotate(90.000000) translate(-8.000000, -8.000000) " x="0" y="0" width="16" height="16"></rect>
                <path d="M8,15 C4.13400675,15 1,11.8659932 1,8 C1,4.13400675 4.13400675,1 8,1 C11.8659932,1 15,4.13400675 15,8 C15,11.8659932 11.8659932,15 8,15 Z M8.06843728,3.9000001 C7.26100812,3.9000001 6.58233632,4.15209985 6.03242189,4.65629937 L6.03242189,4.65629937 C5.99540217,4.69024161 5.98930209,4.74637698 6.018167,4.78747872 L6.72791211,5.79810921 L6.72791211,5.79810921 C6.75931289,5.84282186 6.82078791,5.85405451 6.86597152,5.82333528 C7.29742486,5.53000078 7.67046903,5.38333352 7.98510403,5.38333352 C8.55312312,5.38333352 9.00177084,5.80169014 9.00177084,6.29107484 C9.00177084,7.38106803 7.48510395,7.28664623 7.48510395,8.79928985 L7.48510395,9.09999981 L7.48510395,9.09999981 C7.48510395,9.15522828 7.52987547,9.19999981 7.58510395,9.19999981 L8.78510372,9.19999981 L8.78510372,9.19999981 C8.8403322,9.19999981 8.88510372,9.15522828 8.88510372,9.09999981 L8.88510372,8.91666643 C8.88510372,7.80442847 10.5184377,7.76845811 10.5184377,5.99999976 C10.5184377,4.66531422 9.32698939,3.9000001 8.06843728,3.9000001 Z M7.36843739,11.7145837 C7.36843739,11.7758337 7.40732628,11.816667 7.46565961,11.816667 L9.02121517,11.816667 C9.0795485,11.816667 9.11843739,11.7758337 9.11843739,11.7145837 L9.11843739,10.285417 C9.11843739,10.224167 9.0795485,10.1833337 9.02121517,10.1833337 L7.46565961,10.1833337 C7.40732628,10.1833337 7.36843739,10.224167 7.36843739,10.285417 L7.36843739,11.7145837 Z" id="Combined-Shape" fill="#000000"></path>
            </g>
        </g>
    </g>
</svg>