<?xml version="1.0" encoding="UTF-8"?>
<svg width="16px" height="16px" viewBox="0 0 16 16" version="1.1" xmlns="http://www.w3.org/2000/svg" xmlns:xlink="http://www.w3.org/1999/xlink">
    <!-- Generator: Sketch 45.2 (43514) - http://www.bohemiancoding.com/sketch -->
    <title>form-error-mini</title>
    <desc>Created with Sketch.</desc>
    <defs></defs>
    <g id="Ready-for-exports" stroke="none" stroke-width="1" fill="none" fill-rule="evenodd">
        <g id="form-error-mini">
            <g>
                <rect id="Rectangle-13" fill="#808080" opacity="0" transform="translate(8.000000, 8.000000) rotate(90.000000) translate(-8.000000, -8.000000) " x="0" y="0" width="16" height="16"></rect>
                <path d="M8,15 C4.13400675,15 1,11.8659932 1,8 C1,4.13400675 4.13400675,1 8,1 C11.8659932,1 15,4.13400675 15,8 C15,11.8659932 11.8659932,15 8,15 Z M7.32705022,9.16675889 L8.67152065,9.16675889 C8.73263295,9.16675889 8.77337447,9.12601737 8.77337447,9.06490507 L9,4.50185392 C9,4.44074162 8.96111191,4.4000001 8.89999962,4.4000001 L7.10185382,4.4000001 C7.04074153,4.4000001 7,4.44074162 7,4.50185392 L7.2251964,9.06490507 C7.2251964,9.12601737 7.26593793,9.16675889 7.32705022,9.16675889 Z M7.08018025,11.6881461 C7.08018025,11.7492584 7.12092178,11.79 7.18203407,11.79 L8.8116952,11.79 C8.87280749,11.79 8.91354902,11.7492584 8.91354902,11.6881461 L8.91354902,10.2621927 C8.91354902,10.2010804 8.87280749,10.1603388 8.8116952,10.1603388 L7.18203407,10.1603388 C7.12092178,10.1603388 7.08018025,10.2010804 7.08018025,10.2621927 L7.08018025,11.6881461 Z" id="Combined-Shape" fill="#000000" fill-rule="nonzero"></path>
            </g>
        </g>
    </g>
</svg>