<?xml version="1.0" encoding="UTF-8" standalone="no"?>
<svg width="16px" height="16px" viewBox="0 0 16 16" version="1.1" xmlns="http://www.w3.org/2000/svg" xmlns:xlink="http://www.w3.org/1999/xlink">
    <!-- Generator: Sketch 44.1 (41455) - http://www.bohemiancoding.com/sketch -->
    <title>information-mini</title>
    <desc>Created with Sketch.</desc>
    <defs></defs>
    <g id="Ready-for-exports" stroke="none" stroke-width="1" fill="none" fill-rule="evenodd">
        <g id="information-mini">
            <rect id="Rectangle-12-Copy" fill="#808080" opacity="0" x="0" y="0" width="16" height="16"></rect>
            <path d="M7,8 L5,8 L5,6 L9,6 C9,6 8.9997818,12.9995774 8.9995278,13 L11,13 L11,15 L8.99895656,15 C7.89035401,15 7,14.1032604 7,12.9970707 L7,8 Z M8,1 C8.8287451,1 9.5,1.6712549 9.5,2.5 C9.5,3.3287451 8.828,4 8,4 C7.172,4 6.5,3.328 6.5,2.5 C6.5,1.672 7.172,1 8,1 Z" id="Combined-Shape" fill="#000000" fill-rule="nonzero"></path>
        </g>
    </g>
</svg>