<?xml version="1.0" encoding="UTF-8" standalone="no"?>
<svg width="16px" height="16px" viewBox="0 0 16 16" version="1.1" xmlns="http://www.w3.org/2000/svg" xmlns:xlink="http://www.w3.org/1999/xlink">
    <!-- Generator: Sketch 44.1 (41455) - http://www.bohemiancoding.com/sketch -->
    <title>instagram-mini</title>
    <desc>Created with Sketch.</desc>
    <defs></defs>
    <g id="Ready-for-exports" stroke="none" stroke-width="1" fill="none" fill-rule="evenodd">
        <g id="instagram-mini">
            <g id="instagram-icon-mini">
                <rect id="Rectangle" fill="#808080" opacity="0" x="0" y="0" width="16" height="16"></rect>
                <path d="M7.99780556,10.3348056 C6.70952778,10.3348056 5.66519444,9.29047222 5.66519444,8.00222222 C5.66519444,6.71394444 6.70952778,5.66961111 7.99780556,5.66961111 C9.28605556,5.66961111 10.3303889,6.71394444 10.3303889,8.00222222 C10.3303889,9.29047222 9.28605556,10.3348056 7.99780556,10.3348056 Z M7.99780556,4.40875 C9.98241667,4.40875 11.59125,6.01758333 11.59125,8.00222222 C11.59125,9.98683333 9.98241667,11.5956667 7.99780556,11.5956667 C6.01316667,11.5956667 4.40433333,9.98683333 4.40433333,8.00222222 C4.40433333,6.01758333 6.01316667,4.40875 7.99780556,4.40875 Z M12.5729722,4.26677778 C12.5729722,4.73055556 12.197,5.1065 11.7332222,5.1065 C11.2694722,5.1065 10.8935,4.73055556 10.8935,4.26677778 C10.8935,3.803 11.2694722,3.42702778 11.7332222,3.42702778 C12.197,3.42702778 12.5729722,3.803 12.5729722,4.26677778 Z M7.99780556,1.00441667 C6.09730556,1.00441667 5.859,1.01247222 5.11261111,1.04652778 C4.36777778,1.0805 3.85908333,1.19880556 3.41397222,1.37180556 C2.95380556,1.55061111 2.56355556,1.78988889 2.1745,2.17891667 C1.78547222,2.56797222 1.54619444,2.95822222 1.36738889,3.41838889 C1.19438889,3.8635 1.07608333,4.37219444 1.04211111,5.11702778 C1.00805556,5.86341667 1,6.10172222 1,8.00222222 C1,9.90269444 1.00805556,10.141 1.04211111,10.8873889 C1.07608333,11.6322222 1.19438889,12.1409167 1.36738889,12.5860278 C1.54619444,13.0461944 1.78547222,13.4364444 2.1745,13.8255 C2.56355556,14.2145278 2.95380556,14.4538056 3.41397222,14.6326389 C3.85908333,14.8056111 4.36777778,14.9239167 5.11261111,14.9578889 C5.859,14.9919444 6.09730556,15 7.99780556,15 C9.89827778,15 10.1365833,14.9919444 10.8829722,14.9578889 C11.6278056,14.9239167 12.1365,14.8056111 12.5816111,14.6326389 C13.0417778,14.4538056 13.4320278,14.2145278 13.8210833,13.8255 C14.2101111,13.4364444 14.4493889,13.0461944 14.6282222,12.5860278 C14.8011944,12.1409167 14.9195,11.6322222 14.9534722,10.8873889 C14.9875278,10.141 14.9955833,9.90269444 14.9955833,8.00222222 C14.9955833,6.10172222 14.9875278,5.86341667 14.9534722,5.11702778 C14.9195,4.37219444 14.8011944,3.8635 14.6282222,3.41838889 C14.4493889,2.95822222 14.2101111,2.56797222 13.8210833,2.17891667 C13.4320278,1.78988889 13.0417778,1.55061111 12.5816111,1.37180556 C12.1365,1.19880556 11.6278056,1.0805 10.8829722,1.04652778 C10.1365833,1.01247222 9.89827778,1.00441667 7.99780556,1.00441667 Z M7.99780556,2.26527778 C9.86627778,2.26527778 10.0876111,2.27241667 10.8255,2.30608333 C11.5077778,2.33719444 11.8783056,2.45119444 12.1248889,2.54702778 C12.4515278,2.67397222 12.6846389,2.82561111 12.9295,3.0705 C13.1743889,3.31536111 13.3260278,3.54847222 13.4529722,3.87511111 C13.5488056,4.12169444 13.6628056,4.49222222 13.6939167,5.1745 C13.7275833,5.91238889 13.7347222,6.13372222 13.7347222,8.00222222 C13.7347222,9.87069444 13.7275833,10.0920278 13.6939167,10.8299167 C13.6628056,11.5121944 13.5488056,11.8827222 13.4529722,12.1293056 C13.3260278,12.4559444 13.1743889,12.6890556 12.9295,12.9339167 C12.6846389,13.1788056 12.4515278,13.3304444 12.1248889,13.4573889 C11.8783056,13.5532222 11.5077778,13.6672222 10.8255,13.6983333 C10.0877222,13.732 9.86641667,13.7391389 7.99780556,13.7391389 C6.12916667,13.7391389 5.90788889,13.732 5.17008333,13.6983333 C4.48780556,13.6672222 4.11727778,13.5532222 3.87069444,13.4573889 C3.54405556,13.3304444 3.31094444,13.1788056 3.06608333,12.9339167 C2.82122222,12.6890556 2.66955556,12.4559444 2.54261111,12.1293056 C2.44677778,11.8827222 2.33277778,11.5121944 2.30166667,10.8299167 C2.268,10.0920278 2.26086111,9.87069444 2.26086111,8.00222222 C2.26086111,6.13372222 2.268,5.91238889 2.30166667,5.1745 C2.33277778,4.49222222 2.44677778,4.12169444 2.54261111,3.87511111 C2.66955556,3.54847222 2.82119444,3.31536111 3.06608333,3.0705 C3.31094444,2.82561111 3.54405556,2.67397222 3.87069444,2.54702778 C4.11727778,2.45119444 4.48780556,2.33719444 5.17008333,2.30608333 C5.90797222,2.27241667 6.12930556,2.26527778 7.99780556,2.26527778 L7.99780556,2.26527778 Z" id="Combined-Shape" fill="#0A0A08"></path>
            </g>
        </g>
    </g>
</svg>