<?xml version="1.0" encoding="UTF-8" standalone="no"?>
<svg width="16px" height="16px" viewBox="0 0 16 16" version="1.1" xmlns="http://www.w3.org/2000/svg" xmlns:xlink="http://www.w3.org/1999/xlink">
    <!-- Generator: Sketch 44.1 (41455) - http://www.bohemiancoding.com/sketch -->
    <title>linkedin-mini</title>
    <desc>Created with Sketch.</desc>
    <defs></defs>
    <g id="Ready-for-exports" stroke="none" stroke-width="1" fill="none" fill-rule="evenodd">
        <g id="linkedin-mini">
            <rect id="Rectangle-12-Copy" fill="#808080" opacity="0" x="0" y="0" width="16" height="16"></rect>
            <path d="M14.4200011,8.48871532 L14.4200011,13.0593429 L11.7702403,13.0593429 L11.7702403,8.79482841 C11.7702403,7.72354759 11.386981,6.99244033 10.4278554,6.99244033 C9.69568462,6.99244033 9.2599693,7.48515305 9.06828215,7.96176968 C8.99837914,8.13215825 8.98038602,8.36931685 8.98038602,8.60782637 L8.98038602,13.0593429 L6.32973416,13.0593429 C6.32973416,13.0593429 6.36543298,5.83665506 6.32973416,5.08833073 L8.98012733,5.08833073 L8.98012733,6.2181898 C8.97475239,6.22664025 8.96776784,6.23575178 8.96270907,6.24394354 L8.98012733,6.24394354 L8.98012733,6.2181898 C9.33225798,5.6758379 9.96112634,4.90107001 11.3687291,4.90107001 C13.1126539,4.90104126 14.4200011,6.04032804 14.4200011,8.48871532 L14.4200011,8.48871532 Z M3.55703947,1.24590735 C2.65025492,1.24590735 2.05714286,1.84068651 2.05714286,2.62284136 C2.05714286,3.3879516 2.63309534,4.00078137 3.52185802,4.00078137 L3.53956372,4.00078137 C4.46391026,4.00078137 5.0387705,3.38806658 5.0387705,2.62284136 C5.02135224,1.84068651 4.46391026,1.24590735 3.55703947,1.24590735 L3.55703947,1.24590735 Z M2.21456834,13.0593429 L4.86421419,13.0593429 L4.86421419,5.08833073 L2.21456834,5.08833073 L2.21456834,13.0593429 L2.21456834,13.0593429 Z" id="LinkedIn" fill="#000000"></path>
        </g>
    </g>
</svg>