<?xml version="1.0" encoding="UTF-8" standalone="no"?>
<svg width="16px" height="16px" viewBox="0 0 16 16" version="1.1" xmlns="http://www.w3.org/2000/svg" xmlns:xlink="http://www.w3.org/1999/xlink">
    <!-- Generator: Sketch 44.1 (41455) - http://www.bohemiancoding.com/sketch -->
    <title>location-mini</title>
    <desc>Created with Sketch.</desc>
    <defs></defs>
    <g id="Ready-for-exports" stroke="none" stroke-width="1" fill="none" fill-rule="evenodd">
        <g id="location-mini" fill="#000000">
            <rect id="Rectangle" opacity="0" x="0" y="0" width="16" height="16"></rect>
            <path d="M11,7 C11,8.65416563 9.6541258,10 8.00009282,10 C6.3458742,10 5,8.65416563 5,7 C5,5.3456484 6.3458742,4 8.00009282,4 C9.6541258,4 11,5.34583437 11,7 Z M7.84781519,14.964862 C7.89379072,14.9866141 7.94500396,15 8.00009699,15 C8.05480205,15 8.10601529,14.9866141 8.15199082,14.964862 C8.17235972,14.9527774 8.19234065,14.9403211 8.21251556,14.9282366 C13.3115311,11.8455706 14,8.55109358 14,7 C14,4.34475386 12.1151975,1.85186513 9.55608723,1.19595501 C9.53591232,1.19074937 9.51612538,1.18480007 9.49575648,1.17978035 C9.01757222,1.06246763 8.5164972,1 8.00009699,1 C7.4835028,1 6.98242778,1.06246763 6.50424352,1.17978035 C6.48406861,1.18480007 6.46408768,1.19093529 6.44391277,1.19595501 C3.88480253,1.85186513 2,4.34493978 2,7 C2,8.55109358 2.68827495,11.8455706 7.78748444,14.9282366 C7.80765935,14.9403211 7.82764028,14.9527774 7.84781519,14.964862 Z" id="Page-1"></path>
        </g>
    </g>
</svg>