<?xml version="1.0" encoding="UTF-8" standalone="no"?>
<svg width="16px" height="16px" viewBox="0 0 16 16" version="1.1" xmlns="http://www.w3.org/2000/svg" xmlns:xlink="http://www.w3.org/1999/xlink">
    <!-- Generator: Sketch 44.1 (41455) - http://www.bohemiancoding.com/sketch -->
    <title>search-mini</title>
    <desc>Created with Sketch.</desc>
    <defs></defs>
    <g id="Ready-for-exports" stroke="none" stroke-width="1" fill="none" fill-rule="evenodd">
        <g id="search-mini">
            <rect id="Rectangle-12" fill="#808080" opacity="0" x="0" y="0" width="16" height="16"></rect>
            <path d="M10.9990234,6.58056641 C10.9990234,7.07568359 10.7965911,8.24264804 10.2730713,9.03308105 L14,12.5 L12.5857864,13.9142136 L9.05664062,10.3483887 C8.26620761,10.8719084 7.0625,11.0025635 6.51269531,11.0025635 C4.0123291,11.0025635 2.01330566,9.07897949 2.01330566,6.58056641 C2.01330566,4.08215332 4.04492188,2.02246094 6.51269531,2.02246094 C8.98046875,2.02246094 10.9990234,4.04858398 10.9990234,6.58056641 Z M6.5,9.23876953 C8.01258065,9.23876953 9.23876953,8.01258065 9.23876953,6.5 C9.23876953,4.98741935 8.01258065,3.76123047 6.5,3.76123047 C4.98741935,3.76123047 3.76123047,4.98741935 3.76123047,6.5 C3.76123047,8.01258065 4.98741935,9.23876953 6.5,9.23876953 Z" id="Combined-Shape" fill="#000000"></path>
        </g>
    </g>
</svg>