<?xml version="1.0" encoding="UTF-8" standalone="no"?>
<svg width="16px" height="16px" viewBox="0 0 16 16" version="1.1" xmlns="http://www.w3.org/2000/svg" xmlns:xlink="http://www.w3.org/1999/xlink">
    <!-- Generator: Sketch 44.1 (41455) - http://www.bohemiancoding.com/sketch -->
    <title>suitcase-mini</title>
    <desc>Created with Sketch.</desc>
    <defs></defs>
    <g id="Ready-for-exports" stroke="none" stroke-width="1" fill="none" fill-rule="evenodd">
        <g id="suitcase-mini" fill="#000000">
            <rect id="Rectangle" opacity="0" x="0" y="0" width="16" height="16"></rect>
            <path d="M11,5 L12.9975267,5 C13.5511774,5 14,5.4463114 14,5.99754465 L14,13.0024554 C14,13.553384 13.544239,14 12.9975267,14 L3.00247329,14 C2.44882258,14 2,13.5536886 2,13.0024554 L2,5.99754465 C2,5.44661595 2.45576096,5 3.00247329,5 L5,5 L5,3.0093689 C5,2.45190985 5.45097518,2 5.99077797,2 L10.009222,2 C10.5564136,2 11,2.44335318 11,3.0093689 L11,5 Z M6.5,3.5 L6.5,5 L9.5,5 L9.5,3.5 L6.5,3.5 Z" id="Combined-Shape"></path>
        </g>
    </g>
</svg>