<?xml version="1.0" encoding="UTF-8" standalone="no"?>
<svg width="16px" height="16px" viewBox="0 0 16 16" version="1.1" xmlns="http://www.w3.org/2000/svg" xmlns:xlink="http://www.w3.org/1999/xlink">
    <!-- Generator: Sketch 44.1 (41455) - http://www.bohemiancoding.com/sketch -->
    <title>twitter-mini</title>
    <desc>Created with Sketch.</desc>
    <defs></defs>
    <g id="Ready-for-exports" stroke="none" stroke-width="1" fill="none" fill-rule="evenodd">
        <g id="twitter-mini">
            <rect id="Rectangle-12-Copy" fill="#808080" opacity="0" x="0" y="0" width="16" height="16"></rect>
            <path d="M15.0499878,4.30147309 C14.5439106,4.52232765 14.000897,4.67210869 13.430361,4.73897799 C14.0129171,4.39540432 14.4588492,3.85044828 14.6701996,3.20308618 C14.1237485,3.52125749 13.5205674,3.7522907 12.8778662,3.87753234 C12.3632064,3.33680266 11.6311525,3 10.8191823,3 C9.26143054,3 7.99838313,4.24394159 7.99838313,5.77728874 C7.99838313,5.99475779 8.02329943,6.20715965 8.07142451,6.41026796 C5.72749503,6.29431987 3.6490623,5.18832111 2.25799589,3.50771546 C2.01483169,3.91729546 1.87650017,4.39454135 1.87650017,4.90398275 C1.87650017,5.86783446 2.37484862,6.71828275 3.13096505,7.21584168 C2.66869918,7.20061796 2.23393335,7.07537632 1.85331386,6.86720081 L1.85331386,6.90189673 C1.85331386,8.24738141 2.82594821,9.37030771 4.11561944,9.62588032 C3.87933024,9.68850114 3.63016725,9.72319706 3.37239927,9.72319706 C3.1902564,9.72319706 3.01411233,9.70542868 2.84140575,9.67157361 C3.20054645,10.7758907 4.24193092,11.5789419 5.47577076,11.6009587 C4.51086518,12.3456376 3.29421287,12.7882097 1.97275033,12.7882097 C1.74506613,12.7882097 1.52079698,12.7746676 1.29998779,12.7501282 C2.54843142,13.5396595 4.03058049,14 5.62356103,14 C10.8123522,14 13.6486313,9.76720866 13.6486313,6.09632301 L13.6391726,5.73668478 C14.1933524,5.34739569 14.6727833,4.85828946 15.0499878,4.30147309 L15.0499878,4.30147309 Z" id="twitter" fill="#000000"></path>
        </g>
    </g>
</svg>