<?xml version="1.0" encoding="UTF-8" standalone="no"?>
<svg width="16px" height="16px" viewBox="0 0 16 16" version="1.1" xmlns="http://www.w3.org/2000/svg" xmlns:xlink="http://www.w3.org/1999/xlink">
    <!-- Generator: Sketch 44.1 (41455) - http://www.bohemiancoding.com/sketch -->
    <title>youtube-mini</title>
    <desc>Created with Sketch.</desc>
    <defs></defs>
    <g id="Ready-for-exports" stroke="none" stroke-width="1" fill="none" fill-rule="evenodd">
        <g id="youtube-mini">
            <rect id="Rectangle-13-Copy" fill="#808080" opacity="0" x="0" y="0" width="16" height="16"></rect>
            <path d="M14.8599562,5.15791667 C14.8599562,5.15791667 15,6.30833333 15,7.45916667 L15,8.5375 C15,9.68833333 14.8599562,10.83875 14.8599562,10.83875 C14.8599562,10.83875 14.7229759,11.81875 14.3037199,12.2495833 C13.771116,12.8154167 13.1746171,12.81875 12.9010941,12.8520833 C10.9417943,12.995 8,13 8,13 C8,13 4.35973742,12.96625 3.23982495,12.8570833 C2.92822757,12.7979167 2.22932166,12.815 1.69628009,12.2491667 C1.27658643,11.8183333 1.14004376,10.8383333 1.14004376,10.8383333 C1.14004376,10.8383333 1,9.68833333 1,8.53708333 L1,7.45875 C1,6.30833333 1.14004376,5.15791667 1.14004376,5.15791667 C1.14004376,5.15791667 1.27702407,4.1775 1.69628009,3.74583333 C2.22932166,3.18 2.82538293,3.17666667 3.09890591,3.14458333 C5.05776805,3 7.99649891,3 7.99649891,3 L8.00306346,3 C8.00306346,3 10.9417943,3 12.9010941,3.14458333 C13.1746171,3.17666667 13.771116,3.18 14.3037199,3.74583333 C14.7234136,4.1775 14.8599562,5.15791667 14.8599562,5.15791667 Z M6,5.5 L6,10.5 L11,8 L6,5.5 Z" id="Combined-Shape" fill="#000000"></path>
        </g>
    </g>
</svg>